<?xml version="1.0" standalone="yes"?>

<svg version="1.1" viewBox="0.0 0.0 749.0 347.0" fill="none" stroke="none" stroke-linecap="square" stroke-miterlimit="10" xmlns="http://www.w3.org/2000/svg" xmlns:xlink="http://www.w3.org/1999/xlink"><clipPath id="p.0"><path d="m0 0l749.0 0l0 347.0l-749.0 0l0 -347.0z" clip-rule="nonzero"></path></clipPath><g clip-path="url(#p.0)"><path fill="#000000" fill-opacity="0.0" d="m0 0l749.4724 0l0 347.63516l-749.4724 0z" fill-rule="nonzero"></path><path fill="#b7b7b7" d="m24.419947 23.973753l62.015747 0l0 62.015747l-62.015747 0z" fill-rule="nonzero"></path><path stroke="#666666" stroke-width="1.0" stroke-linejoin="round" stroke-linecap="butt" d="m24.419947 23.973753l62.015747 0l0 62.015747l-62.015747 0z" fill-rule="nonzero"></path><path fill="#ffffff" d="m47.679203 48.245377q1.96875 0 3.078125 1.40625q1.328125 1.671875 1.328125 5.546875q0 3.859375 -1.328125 5.546875q-1.109375 1.390625 -3.078125 1.390625q-1.984375 0 -3.203125 -1.53125q-1.21875 -1.53125 -1.21875 -5.4375q0 -3.84375 1.34375 -5.53125q1.09375 -1.390625 3.078125 -1.390625zm0 2.15625q-0.484375 0 -0.859375 0.3125q-0.359375 0.296875 -0.5625 1.078125q-0.265625 1.015625 -0.265625 3.40625q0 2.390625 0.234375 3.28125q0.25 0.890625 0.609375 1.1875q0.359375 0.296875 0.84375 0.296875q0.46875 0 0.828125 -0.296875q0.375 -0.296875 0.59375 -1.078125q0.265625 -1.0 0.265625 -3.390625q0 -2.390625 -0.25 -3.28125q-0.234375 -0.90625 -0.609375 -1.203125q-0.359375 -0.3125 -0.828125 -0.3125zm6.453842 8.890625l2.609375 0l0 1.859375q0 1.140625 -0.203125 1.796875q-0.1875 0.65625 -0.734375 1.171875q-0.53125 0.515625 -1.375 0.8125l-0.515625 -1.078125q0.796875 -0.25 1.125 -0.71875q0.34375 -0.453125 0.359375 -1.234375l-1.265625 0l0 -2.609375zm9.105179 -11.046875q1.9687462 0 3.0781212 1.40625q1.328125 1.671875 1.328125 5.546875q0 3.859375 -1.328125 5.546875q-1.109375 1.390625 -3.0781212 1.390625q-1.984375 0 -3.203125 -1.53125q-1.21875 -1.53125 -1.21875 -5.4375q0 -3.84375 1.34375 -5.53125q1.09375 -1.390625 3.078125 -1.390625zm0 2.15625q-0.484375 0 -0.859375 0.3125q-0.359375 0.296875 -0.5625 1.078125q-0.265625 1.015625 -0.265625 3.40625q0 2.390625 0.234375 3.28125q0.25 0.890625 0.609375 1.1875q0.359375 0.296875 0.84375 0.296875q0.46875 0 0.8281212 -0.296875q0.375 -0.296875 0.59375 -1.078125q0.265625 -1.0 0.265625 -3.390625q0 -2.390625 -0.25 -3.28125q-0.234375 -0.90625 -0.609375 -1.203125q-0.3593712 -0.3125 -0.8281212 -0.3125z" fill-rule="nonzero"></path><path fill="#b7b7b7" d="m104.419945 23.973753l62.015755 0l0 62.015747l-62.015755 0z" fill-rule="nonzero"></path><path stroke="#666666" stroke-width="1.0" stroke-linejoin="round" stroke-linecap="butt" d="m104.419945 23.973753l62.015755 0l0 62.015747l-62.015755 0z" fill-rule="nonzero"></path><path fill="#ffffff" d="m127.6792 48.245377q1.96875 0 3.078125 1.40625q1.328125 1.671875 1.328125 5.546875q0 3.859375 -1.328125 5.546875q-1.109375 1.390625 -3.078125 1.390625q-1.984375 0 -3.203125 -1.53125q-1.21875 -1.53125 -1.21875 -5.4375q0 -3.84375 1.34375 -5.53125q1.09375 -1.390625 3.078125 -1.390625zm0 2.15625q-0.484375 0 -0.859375 0.3125q-0.359375 0.296875 -0.5625 1.078125q-0.265625 1.015625 -0.265625 3.40625q0 2.390625 0.234375 3.28125q0.25 0.890625 0.609375 1.1875q0.359375 0.296875 0.84375 0.296875q0.46875 0 0.828125 -0.296875q0.375 -0.296875 0.59375 -1.078125q0.265625 -1.0 0.265625 -3.390625q0 -2.390625 -0.25 -3.28125q-0.234375 -0.90625 -0.609375 -1.203125q-0.359375 -0.3125 -0.828125 -0.3125zm6.453842 8.890625l2.609375 0l0 1.859375q0 1.140625 -0.203125 1.796875q-0.1875 0.65625 -0.734375 1.171875q-0.53125 0.515625 -1.375 0.8125l-0.515625 -1.078125q0.796875 -0.25 1.125 -0.71875q0.34375 -0.453125 0.359375 -1.234375l-1.265625 0l0 -2.609375zm11.370804 2.609375l-2.609375 0l0 -9.828125q-1.4375 1.34375 -3.375 1.984375l0 -2.375q1.03125 -0.328125 2.21875 -1.25q1.203125 -0.9375 1.640625 -2.1875l2.125 0l0 13.65625z" fill-rule="nonzero"></path><path fill="#b7b7b7" d="m184.41995 23.973753l62.015747 0l0 62.015747l-62.015747 0z" fill-rule="nonzero"></path><path stroke="#666666" stroke-width="1.0" stroke-linejoin="round" stroke-linecap="butt" d="m184.41995 23.973753l62.015747 0l0 62.015747l-62.015747 0z" fill-rule="nonzero"></path><path fill="#ffffff" d="m207.6792 48.245377q1.96875 0 3.078125 1.40625q1.328125 1.671875 1.328125 5.546875q0 3.859375 -1.328125 5.546875q-1.109375 1.390625 -3.078125 1.390625q-1.984375 0 -3.203125 -1.53125q-1.21875 -1.53125 -1.21875 -5.4375q0 -3.84375 1.34375 -5.53125q1.09375 -1.390625 3.078125 -1.390625zm0 2.15625q-0.484375 0 -0.859375 0.3125q-0.359375 0.296875 -0.5625 1.078125q-0.265625 1.015625 -0.265625 3.40625q0 2.390625 0.234375 3.28125q0.25 0.890625 0.609375 1.1875q0.359375 0.296875 0.84375 0.296875q0.46875 0 0.828125 -0.296875q0.375 -0.296875 0.59375 -1.078125q0.265625 -1.0 0.265625 -3.390625q0 -2.390625 -0.25 -3.28125q-0.234375 -0.90625 -0.609375 -1.203125q-0.359375 -0.3125 -0.828125 -0.3125zm6.453842 8.890625l2.609375 0l0 1.859375q0 1.140625 -0.203125 1.796875q-0.1875 0.65625 -0.734375 1.171875q-0.53125 0.515625 -1.375 0.8125l-0.515625 -1.078125q0.796875 -0.25 1.125 -0.71875q0.34375 -0.453125 0.359375 -1.234375l-1.265625 0l0 -2.609375zm13.495804 0.1875l0 2.421875l-9.140625 0q0.15625 -1.375 0.890625 -2.59375q0.75 -1.234375 2.9375 -3.265625q1.765625 -1.640625 2.15625 -2.234375q0.546875 -0.796875 0.546875 -1.59375q0 -0.875 -0.46875 -1.34375q-0.46875 -0.46875 -1.296875 -0.46875q-0.8125 0 -1.296875 0.5q-0.484375 0.484375 -0.5625 1.625l-2.59375 -0.25q0.234375 -2.15625 1.453125 -3.09375q1.21875 -0.9375 3.0625 -0.9375q2.015625 0 3.15625 1.09375q1.15625 1.078125 1.15625 2.6875q0 0.921875 -0.328125 1.75q-0.328125 0.828125 -1.046875 1.734375q-0.46875 0.609375 -1.703125 1.75q-1.234375 1.125 -1.5625 1.5q-0.328125 0.359375 -0.53125 0.71875l5.171875 0z" fill-rule="nonzero"></path><path fill="#b7b7b7" d="m264.41995 23.973753l62.015747 0l0 62.015747l-62.015747 0z" fill-rule="nonzero"></path><path stroke="#666666" stroke-width="1.0" stroke-linejoin="round" stroke-linecap="butt" d="m264.41995 23.973753l62.015747 0l0 62.015747l-62.015747 0z" fill-rule="nonzero"></path><path fill="#ffffff" d="m287.6792 48.245377q1.96875 0 3.078125 1.40625q1.328125 1.671875 1.328125 5.546875q0 3.859375 -1.328125 5.546875q-1.109375 1.390625 -3.078125 1.390625q-1.984375 0 -3.203125 -1.53125q-1.21875 -1.53125 -1.21875 -5.4375q0 -3.84375 1.34375 -5.53125q1.09375 -1.390625 3.078125 -1.390625zm0 2.15625q-0.484375 0 -0.859375 0.3125q-0.359375 0.296875 -0.5625 1.078125q-0.265625 1.015625 -0.265625 3.40625q0 2.390625 0.234375 3.28125q0.25 0.890625 0.609375 1.1875q0.359375 0.296875 0.84375 0.296875q0.46875 0 0.828125 -0.296875q0.375 -0.296875 0.59375 -1.078125q0.265625 -1.0 0.265625 -3.390625q0 -2.390625 -0.25 -3.28125q-0.234375 -0.90625 -0.609375 -1.203125q-0.359375 -0.3125 -0.828125 -0.3125zm6.4538574 8.890625l2.609375 0l0 1.859375q0 1.140625 -0.203125 1.796875q-0.1875 0.65625 -0.734375 1.171875q-0.53125 0.515625 -1.375 0.8125l-0.515625 -1.078125q0.796875 -0.25 1.125 -0.71875q0.34375 -0.453125 0.359375 -1.234375l-1.265625 0l0 -2.609375zm4.6051636 -1.0l2.515625 -0.3125q0.125 0.96875 0.65625 1.484375q0.53125 0.5 1.28125 0.5q0.796875 0 1.34375 -0.609375q0.5625 -0.609375 0.5625 -1.640625q0 -0.984375 -0.53125 -1.5625q-0.53125 -0.578125 -1.28125 -0.578125q-0.5 0 -1.203125 0.203125l0.28125 -2.125q1.0625 0.015625 1.609375 -0.46875q0.5625 -0.484375 0.5625 -1.296875q0 -0.6875 -0.40625 -1.09375q-0.40625 -0.40625 -1.078125 -0.40625q-0.671875 0 -1.140625 0.46875q-0.46875 0.46875 -0.578125 1.359375l-2.40625 -0.421875q0.25 -1.234375 0.75 -1.96875q0.515625 -0.734375 1.421875 -1.15625q0.90625 -0.421875 2.03125 -0.421875q1.90625 0 3.078125 1.21875q0.953125 1.0 0.953125 2.265625q0 1.796875 -1.953125 2.859375q1.15625 0.25 1.859375 1.125q0.703125 0.875 0.703125 2.109375q0 1.78125 -1.3125 3.046875q-1.296875 1.265625 -3.25 1.265625q-1.84375 0 -3.0625 -1.0625q-1.21875 -1.0625 -1.40625 -2.78125z" fill-rule="nonzero"></path><path fill="#666666" d="m24.419947 103.973755l62.015747 0l0 62.015747l-62.015747 0z" fill-rule="nonzero"></path><path stroke="#666666" stroke-width="1.0" stroke-linejoin="round" stroke-linecap="butt" d="m24.419947 103.973755l62.015747 0l0 62.015747l-62.015747 0z" fill-rule="nonzero"></path><path fill="#ffffff" d="m49.944828 141.90163l-2.609375 0l0 -9.828125q-1.4375 1.34375 -3.375 1.984375l0 -2.375q1.03125 -0.328125 2.21875 -1.25q1.203125 -0.9375 1.640625 -2.1875l2.125 0l0 13.65625zm4.188217 -2.609375l2.609375 0l0 1.859375q0 1.140625 -0.203125 1.796875q-0.1875 0.65625 -0.734375 1.171875q-0.53125 0.515625 -1.375 0.8125l-0.515625 -1.078125q0.796875 -0.25 1.125 -0.71875q0.34375 -0.453125 0.359375 -1.234375l-1.265625 0l0 -2.609375zm9.105179 -11.046875q1.9687462 0 3.0781212 1.40625q1.328125 1.671875 1.328125 5.546875q0 3.859375 -1.328125 5.546875q-1.109375 1.390625 -3.0781212 1.390625q-1.984375 0 -3.203125 -1.53125q-1.21875 -1.53125 -1.21875 -5.4375q0 -3.84375 1.34375 -5.53125q1.09375 -1.390625 3.078125 -1.390625zm0 2.15625q-0.484375 0 -0.859375 0.3125q-0.359375 0.296875 -0.5625 1.078125q-0.265625 1.015625 -0.265625 3.40625q0 2.390625 0.234375 3.28125q0.25 0.890625 0.609375 1.1875q0.359375 0.296875 0.84375 0.296875q0.46875 0 0.8281212 -0.296875q0.375 -0.296875 0.59375 -1.078125q0.265625 -1.0 0.265625 -3.390625q0 -2.390625 -0.25 -3.28125q-0.234375 -0.90625 -0.609375 -1.203125q-0.3593712 -0.3125 -0.8281212 -0.3125z" fill-rule="nonzero"></path><path fill="#666666" d="m104.419945 103.973755l62.015755 0l0 62.015747l-62.015755 0z" fill-rule="nonzero"></path><path stroke="#666666" stroke-width="1.0" stroke-linejoin="round" stroke-linecap="butt" d="m104.419945 103.973755l62.015755 0l0 62.015747l-62.015755 0z" fill-rule="nonzero"></path><path fill="#ffffff" d="m129.94482 141.90163l-2.609375 0l0 -9.828125q-1.4375 1.34375 -3.375 1.984375l0 -2.375q1.03125 -0.328125 2.21875 -1.25q1.203125 -0.9375 1.640625 -2.1875l2.125 0l0 13.65625zm4.188217 -2.609375l2.609375 0l0 1.859375q0 1.140625 -0.203125 1.796875q-0.1875 0.65625 -0.734375 1.171875q-0.53125 0.515625 -1.375 0.8125l-0.515625 -1.078125q0.796875 -0.25 1.125 -0.71875q0.34375 -0.453125 0.359375 -1.234375l-1.265625 0l0 -2.609375zm11.370804 2.609375l-2.609375 0l0 -9.828125q-1.4375 1.34375 -3.375 1.984375l0 -2.375q1.03125 -0.328125 2.21875 -1.25q1.203125 -0.9375 1.640625 -2.1875l2.125 0l0 13.65625z" fill-rule="nonzero"></path><path fill="#666666" d="m184.41995 103.973755l62.015747 0l0 62.015747l-62.015747 0z" fill-rule="nonzero"></path><path stroke="#666666" stroke-width="1.0" stroke-linejoin="round" stroke-linecap="butt" d="m184.41995 103.973755l62.015747 0l0 62.015747l-62.015747 0z" fill-rule="nonzero"></path><path fill="#ffffff" d="m209.94482 141.90163l-2.609375 0l0 -9.828125q-1.4375 1.34375 -3.375 1.984375l0 -2.375q1.03125 -0.328125 2.21875 -1.25q1.203125 -0.9375 1.640625 -2.1875l2.125 0l0 13.65625zm4.188217 -2.609375l2.609375 0l0 1.859375q0 1.140625 -0.203125 1.796875q-0.1875 0.65625 -0.734375 1.171875q-0.53125 0.515625 -1.375 0.8125l-0.515625 -1.078125q0.796875 -0.25 1.125 -0.71875q0.34375 -0.453125 0.359375 -1.234375l-1.265625 0l0 -2.609375zm13.495804 0.1875l0 2.421875l-9.140625 0q0.15625 -1.375 0.890625 -2.59375q0.75 -1.234375 2.9375 -3.265625q1.765625 -1.640625 2.15625 -2.234375q0.546875 -0.796875 0.546875 -1.59375q0 -0.875 -0.46875 -1.34375q-0.46875 -0.46875 -1.296875 -0.46875q-0.8125 0 -1.296875 0.5q-0.484375 0.484375 -0.5625 1.625l-2.59375 -0.25q0.234375 -2.15625 1.453125 -3.09375q1.21875 -0.9375 3.0625 -0.9375q2.015625 0 3.15625 1.09375q1.15625 1.078125 1.15625 2.6875q0 0.921875 -0.328125 1.75q-0.328125 0.828125 -1.046875 1.734375q-0.46875 0.609375 -1.703125 1.75q-1.234375 1.125 -1.5625 1.5q-0.328125 0.359375 -0.53125 0.71875l5.171875 0z" fill-rule="nonzero"></path><path fill="#666666" d="m264.41995 103.973755l62.015747 0l0 62.015747l-62.015747 0z" fill-rule="nonzero"></path><path stroke="#666666" stroke-width="1.0" stroke-linejoin="round" stroke-linecap="butt" d="m264.41995 103.973755l62.015747 0l0 62.015747l-62.015747 0z" fill-rule="nonzero"></path><path fill="#ffffff" d="m289.94482 141.90163l-2.609375 0l0 -9.828125q-1.4375 1.34375 -3.375 1.984375l0 -2.375q1.03125 -0.328125 2.21875 -1.25q1.203125 -0.9375 1.640625 -2.1875l2.125 0l0 13.65625zm4.1882324 -2.609375l2.609375 0l0 1.859375q0 1.140625 -0.203125 1.796875q-0.1875 0.65625 -0.734375 1.171875q-0.53125 0.515625 -1.375 0.8125l-0.515625 -1.078125q0.796875 -0.25 1.125 -0.71875q0.34375 -0.453125 0.359375 -1.234375l-1.265625 0l0 -2.609375zm4.6051636 -1.0l2.515625 -0.3125q0.125 0.96875 0.65625 1.484375q0.53125 0.5 1.28125 0.5q0.796875 0 1.34375 -0.609375q0.5625 -0.609375 0.5625 -1.640625q0 -0.984375 -0.53125 -1.5625q-0.53125 -0.578125 -1.28125 -0.578125q-0.5 0 -1.203125 0.203125l0.28125 -2.125q1.0625 0.015625 1.609375 -0.46875q0.5625 -0.484375 0.5625 -1.296875q0 -0.6875 -0.40625 -1.09375q-0.40625 -0.40625 -1.078125 -0.40625q-0.671875 0 -1.140625 0.46875q-0.46875 0.46875 -0.578125 1.359375l-2.40625 -0.421875q0.25 -1.234375 0.75 -1.96875q0.515625 -0.734375 1.421875 -1.15625q0.90625 -0.421875 2.03125 -0.421875q1.90625 0 3.078125 1.21875q0.953125 1.0 0.953125 2.265625q0 1.796875 -1.953125 2.859375q1.15625 0.25 1.859375 1.125q0.703125 0.875 0.703125 2.109375q0 1.78125 -1.3125 3.046875q-1.296875 1.265625 -3.25 1.265625q-1.84375 0 -3.0625 -1.0625q-1.21875 -1.0625 -1.40625 -2.78125z" fill-rule="nonzero"></path><path fill="#434343" d="m24.419947 183.97375l62.015747 0l0 62.015747l-62.015747 0z" fill-rule="nonzero"></path><path stroke="#666666" stroke-width="1.0" stroke-linejoin="round" stroke-linecap="butt" d="m24.419947 183.97375l62.015747 0l0 62.015747l-62.015747 0z" fill-rule="nonzero"></path><path fill="#ffffff" d="m52.069828 219.47975l0 2.421875l-9.140625 0q0.15625 -1.375 0.890625 -2.59375q0.75 -1.234375 2.9375 -3.265625q1.765625 -1.640625 2.15625 -2.234375q0.546875 -0.796875 0.546875 -1.59375q0 -0.875 -0.46875 -1.34375q-0.46875 -0.46875 -1.296875 -0.46875q-0.8125 0 -1.296875 0.5q-0.484375 0.484375 -0.5625 1.625l-2.59375 -0.25q0.234375 -2.15625 1.453125 -3.09375q1.21875 -0.9375 3.0625 -0.9375q2.015625 0 3.15625 1.09375q1.15625 1.078125 1.15625 2.6875q0 0.921875 -0.328125 1.75q-0.328125 0.828125 -1.046875 1.734375q-0.46875 0.609375 -1.703125 1.75q-1.234375 1.125 -1.5625 1.5q-0.328125 0.359375 -0.53125 0.71875l5.171875 0zm2.0632172 -0.1875l2.609375 0l0 1.859375q0 1.140625 -0.203125 1.796875q-0.1875 0.65625 -0.734375 1.171875q-0.53125 0.515625 -1.375 0.8125l-0.515625 -1.078125q0.796875 -0.25 1.125 -0.71875q0.34375 -0.453125 0.359375 -1.234375l-1.265625 0l0 -2.609375zm9.105179 -11.046875q1.9687462 0 3.0781212 1.40625q1.328125 1.671875 1.328125 5.546875q0 3.859375 -1.328125 5.546875q-1.109375 1.390625 -3.0781212 1.390625q-1.984375 0 -3.203125 -1.53125q-1.21875 -1.53125 -1.21875 -5.4375q0 -3.84375 1.34375 -5.53125q1.09375 -1.390625 3.078125 -1.390625zm0 2.15625q-0.484375 0 -0.859375 0.3125q-0.359375 0.296875 -0.5625 1.078125q-0.265625 1.015625 -0.265625 3.40625q0 2.390625 0.234375 3.28125q0.25 0.890625 0.609375 1.1875q0.359375 0.296875 0.84375 0.296875q0.46875 0 0.8281212 -0.296875q0.375 -0.296875 0.59375 -1.078125q0.265625 -1.0 0.265625 -3.390625q0 -2.390625 -0.25 -3.28125q-0.234375 -0.90625 -0.609375 -1.203125q-0.3593712 -0.3125 -0.8281212 -0.3125z" fill-rule="nonzero"></path><path fill="#434343" d="m104.419945 183.97375l62.015755 0l0 62.015747l-62.015755 0z" fill-rule="nonzero"></path><path stroke="#666666" stroke-width="1.0" stroke-linejoin="round" stroke-linecap="butt" d="m104.419945 183.97375l62.015755 0l0 62.015747l-62.015755 0z" fill-rule="nonzero"></path><path fill="#ffffff" d="m132.06982 219.47975l0 2.421875l-9.140625 0q0.15625 -1.375 0.890625 -2.59375q0.75 -1.234375 2.9375 -3.265625q1.765625 -1.640625 2.15625 -2.234375q0.546875 -0.796875 0.546875 -1.59375q0 -0.875 -0.46875 -1.34375q-0.46875 -0.46875 -1.296875 -0.46875q-0.8125 0 -1.296875 0.5q-0.484375 0.484375 -0.5625 1.625l-2.59375 -0.25q0.234375 -2.15625 1.453125 -3.09375q1.21875 -0.9375 3.0625 -0.9375q2.015625 0 3.15625 1.09375q1.15625 1.078125 1.15625 2.6875q0 0.921875 -0.328125 1.75q-0.328125 0.828125 -1.046875 1.734375q-0.46875 0.609375 -1.703125 1.75q-1.234375 1.125 -1.5625 1.5q-0.328125 0.359375 -0.53125 0.71875l5.171875 0zm2.0632172 -0.1875l2.609375 0l0 1.859375q0 1.140625 -0.203125 1.796875q-0.1875 0.65625 -0.734375 1.171875q-0.53125 0.515625 -1.375 0.8125l-0.515625 -1.078125q0.796875 -0.25 1.125 -0.71875q0.34375 -0.453125 0.359375 -1.234375l-1.265625 0l0 -2.609375zm11.370804 2.609375l-2.609375 0l0 -9.828125q-1.4375 1.34375 -3.375 1.984375l0 -2.375q1.03125 -0.328125 2.21875 -1.25q1.203125 -0.9375 1.640625 -2.1875l2.125 0l0 13.65625z" fill-rule="nonzero"></path><path fill="#434343" d="m184.41995 183.97375l62.015747 0l0 62.015747l-62.015747 0z" fill-rule="nonzero"></path><path stroke="#666666" stroke-width="1.0" stroke-linejoin="round" stroke-linecap="butt" d="m184.41995 183.97375l62.015747 0l0 62.015747l-62.015747 0z" fill-rule="nonzero"></path><path fill="#ffffff" d="m212.06982 219.47975l0 2.421875l-9.140625 0q0.15625 -1.375 0.890625 -2.59375q0.75 -1.234375 2.9375 -3.265625q1.765625 -1.640625 2.15625 -2.234375q0.546875 -0.796875 0.546875 -1.59375q0 -0.875 -0.46875 -1.34375q-0.46875 -0.46875 -1.296875 -0.46875q-0.8125 0 -1.296875 0.5q-0.484375 0.484375 -0.5625 1.625l-2.59375 -0.25q0.234375 -2.15625 1.453125 -3.09375q1.21875 -0.9375 3.0625 -0.9375q2.015625 0 3.15625 1.09375q1.15625 1.078125 1.15625 2.6875q0 0.921875 -0.328125 1.75q-0.328125 0.828125 -1.046875 1.734375q-0.46875 0.609375 -1.703125 1.75q-1.234375 1.125 -1.5625 1.5q-0.328125 0.359375 -0.53125 0.71875l5.171875 0zm2.0632172 -0.1875l2.609375 0l0 1.859375q0 1.140625 -0.203125 1.796875q-0.1875 0.65625 -0.734375 1.171875q-0.53125 0.515625 -1.375 0.8125l-0.515625 -1.078125q0.796875 -0.25 1.125 -0.71875q0.34375 -0.453125 0.359375 -1.234375l-1.265625 0l0 -2.609375zm13.495804 0.1875l0 2.421875l-9.140625 0q0.15625 -1.375 0.890625 -2.59375q0.75 -1.234375 2.9375 -3.265625q1.765625 -1.640625 2.15625 -2.234375q0.546875 -0.796875 0.546875 -1.59375q0 -0.875 -0.46875 -1.34375q-0.46875 -0.46875 -1.296875 -0.46875q-0.8125 0 -1.296875 0.5q-0.484375 0.484375 -0.5625 1.625l-2.59375 -0.25q0.234375 -2.15625 1.453125 -3.09375q1.21875 -0.9375 3.0625 -0.9375q2.015625 0 3.15625 1.09375q1.15625 1.078125 1.15625 2.6875q0 0.921875 -0.328125 1.75q-0.328125 0.828125 -1.046875 1.734375q-0.46875 0.609375 -1.703125 1.75q-1.234375 1.125 -1.5625 1.5q-0.328125 0.359375 -0.53125 0.71875l5.171875 0z" fill-rule="nonzero"></path><path fill="#434343" d="m264.41995 183.97375l62.015747 0l0 62.015747l-62.015747 0z" fill-rule="nonzero"></path><path stroke="#666666" stroke-width="1.0" stroke-linejoin="round" stroke-linecap="butt" d="m264.41995 183.97375l62.015747 0l0 62.015747l-62.015747 0z" fill-rule="nonzero"></path><path fill="#ffffff" d="m292.06982 219.47975l0 2.421875l-9.140625 0q0.15625 -1.375 0.890625 -2.59375q0.75 -1.234375 2.9375 -3.265625q1.765625 -1.640625 2.15625 -2.234375q0.546875 -0.796875 0.546875 -1.59375q0 -0.875 -0.46875 -1.34375q-0.46875 -0.46875 -1.296875 -0.46875q-0.8125 0 -1.296875 0.5q-0.484375 0.484375 -0.5625 1.625l-2.59375 -0.25q0.234375 -2.15625 1.453125 -3.09375q1.21875 -0.9375 3.0625 -0.9375q2.015625 0 3.15625 1.09375q1.15625 1.078125 1.15625 2.6875q0 0.921875 -0.328125 1.75q-0.328125 0.828125 -1.046875 1.734375q-0.46875 0.609375 -1.703125 1.75q-1.234375 1.125 -1.5625 1.5q-0.328125 0.359375 -0.53125 0.71875l5.171875 0zm2.0632324 -0.1875l2.609375 0l0 1.859375q0 1.140625 -0.203125 1.796875q-0.1875 0.65625 -0.734375 1.171875q-0.53125 0.515625 -1.375 0.8125l-0.515625 -1.078125q0.796875 -0.25 1.125 -0.71875q0.34375 -0.453125 0.359375 -1.234375l-1.265625 0l0 -2.609375zm4.6051636 -1.0l2.515625 -0.3125q0.125 0.96875 0.65625 1.484375q0.53125 0.5 1.28125 0.5q0.796875 0 1.34375 -0.609375q0.5625 -0.609375 0.5625 -1.640625q0 -0.984375 -0.53125 -1.5625q-0.53125 -0.578125 -1.28125 -0.578125q-0.5 0 -1.203125 0.203125l0.28125 -2.125q1.0625 0.015625 1.609375 -0.46875q0.5625 -0.484375 0.5625 -1.296875q0 -0.6875 -0.40625 -1.09375q-0.40625 -0.40625 -1.078125 -0.40625q-0.671875 0 -1.140625 0.46875q-0.46875 0.46875 -0.578125 1.359375l-2.40625 -0.421875q0.25 -1.234375 0.75 -1.96875q0.515625 -0.734375 1.421875 -1.15625q0.90625 -0.421875 2.03125 -0.421875q1.90625 0 3.078125 1.21875q0.953125 1.0 0.953125 2.265625q0 1.796875 -1.953125 2.859375q1.15625 0.25 1.859375 1.125q0.703125 0.875 0.703125 2.109375q0 1.78125 -1.3125 3.046875q-1.296875 1.265625 -3.25 1.265625q-1.84375 0 -3.0625 -1.0625q-1.21875 -1.0625 -1.40625 -2.78125z" fill-rule="nonzero"></path><path fill="#000000" d="m24.419947 263.97375l62.015747 0l0 62.015747l-62.015747 0z" fill-rule="nonzero"></path><path stroke="#666666" stroke-width="1.0" stroke-linejoin="round" stroke-linecap="butt" d="m24.419947 263.97375l62.015747 0l0 62.015747l-62.015747 0z" fill-rule="nonzero"></path><path fill="#ffffff" d="m43.179203 298.29224l2.515625 -0.3125q0.125 0.96875 0.65625 1.484375q0.53125 0.5 1.28125 0.5q0.796875 0 1.34375 -0.609375q0.5625 -0.609375 0.5625 -1.640625q0 -0.984375 -0.53125 -1.5625q-0.53125 -0.578125 -1.28125 -0.578125q-0.5 0 -1.203125 0.203125l0.28125 -2.125q1.0625 0.015625 1.609375 -0.46875q0.5625 -0.484375 0.5625 -1.296875q0 -0.6875 -0.40625 -1.09375q-0.40625 -0.40625 -1.078125 -0.40625q-0.671875 0 -1.140625 0.46875q-0.46875 0.46875 -0.578125 1.359375l-2.40625 -0.421875q0.25 -1.234375 0.75 -1.96875q0.515625 -0.734375 1.421875 -1.15625q0.90625 -0.421875 2.03125 -0.421875q1.90625 0 3.078125 1.21875q0.953125 1.0 0.953125 2.265625q0 1.796875 -1.953125 2.859375q1.15625 0.25 1.859375 1.125q0.703125 0.875 0.703125 2.109375q0 1.78125 -1.3125 3.046875q-1.296875 1.265625 -3.25 1.265625q-1.84375 0 -3.0625 -1.0625q-1.21875 -1.0625 -1.40625 -2.78125zm10.953842 1.0l2.609375 0l0 1.859375q0 1.140625 -0.203125 1.796875q-0.1875 0.65625 -0.734375 1.171875q-0.53125 0.515625 -1.375 0.8125l-0.515625 -1.078125q0.796875 -0.25 1.125 -0.71875q0.34375 -0.453125 0.359375 -1.234375l-1.265625 0l0 -2.609375zm9.105179 -11.046875q1.9687462 0 3.0781212 1.40625q1.328125 1.671875 1.328125 5.546875q0 3.859375 -1.328125 5.546875q-1.109375 1.390625 -3.0781212 1.390625q-1.984375 0 -3.203125 -1.53125q-1.21875 -1.53125 -1.21875 -5.4375q0 -3.84375 1.34375 -5.53125q1.09375 -1.390625 3.078125 -1.390625zm0 2.15625q-0.484375 0 -0.859375 0.3125q-0.359375 0.296875 -0.5625 1.078125q-0.265625 1.015625 -0.265625 3.40625q0 2.390625 0.234375 3.28125q0.25 0.890625 0.609375 1.1875q0.359375 0.296875 0.84375 0.296875q0.46875 0 0.8281212 -0.296875q0.375 -0.296875 0.59375 -1.078125q0.265625 -1.0 0.265625 -3.390625q0 -2.390625 -0.25 -3.28125q-0.234375 -0.90625 -0.609375 -1.203125q-0.3593712 -0.3125 -0.8281212 -0.3125z" fill-rule="nonzero"></path><path fill="#000000" d="m104.419945 263.97375l62.015755 0l0 62.015747l-62.015755 0z" fill-rule="nonzero"></path><path stroke="#666666" stroke-width="1.0" stroke-linejoin="round" stroke-linecap="butt" d="m104.419945 263.97375l62.015755 0l0 62.015747l-62.015755 0z" fill-rule="nonzero"></path><path fill="#ffffff" d="m123.1792 298.29224l2.515625 -0.3125q0.125 0.96875 0.65625 1.484375q0.53125 0.5 1.28125 0.5q0.796875 0 1.34375 -0.609375q0.5625 -0.609375 0.5625 -1.640625q0 -0.984375 -0.53125 -1.5625q-0.53125 -0.578125 -1.28125 -0.578125q-0.5 0 -1.203125 0.203125l0.28125 -2.125q1.0625 0.015625 1.609375 -0.46875q0.5625 -0.484375 0.5625 -1.296875q0 -0.6875 -0.40625 -1.09375q-0.40625 -0.40625 -1.078125 -0.40625q-0.671875 0 -1.140625 0.46875q-0.46875 0.46875 -0.578125 1.359375l-2.40625 -0.421875q0.25 -1.234375 0.75 -1.96875q0.515625 -0.734375 1.421875 -1.15625q0.90625 -0.421875 2.03125 -0.421875q1.90625 0 3.078125 1.21875q0.953125 1.0 0.953125 2.265625q0 1.796875 -1.953125 2.859375q1.15625 0.25 1.859375 1.125q0.703125 0.875 0.703125 2.109375q0 1.78125 -1.3125 3.046875q-1.296875 1.265625 -3.25 1.265625q-1.84375 0 -3.0625 -1.0625q-1.21875 -1.0625 -1.40625 -2.78125zm10.953842 1.0l2.609375 0l0 1.859375q0 1.140625 -0.203125 1.796875q-0.1875 0.65625 -0.734375 1.171875q-0.53125 0.515625 -1.375 0.8125l-0.515625 -1.078125q0.796875 -0.25 1.125 -0.71875q0.34375 -0.453125 0.359375 -1.234375l-1.265625 0l0 -2.609375zm11.370804 2.609375l-2.609375 0l0 -9.828125q-1.4375 1.34375 -3.375 1.984375l0 -2.375q1.03125 -0.328125 2.21875 -1.25q1.203125 -0.9375 1.640625 -2.1875l2.125 0l0 13.65625z" fill-rule="nonzero"></path><path fill="#000000" d="m184.41995 263.97375l62.015747 0l0 62.015747l-62.015747 0z" fill-rule="nonzero"></path><path stroke="#666666" stroke-width="1.0" stroke-linejoin="round" stroke-linecap="butt" d="m184.41995 263.97375l62.015747 0l0 62.015747l-62.015747 0z" fill-rule="nonzero"></path><path fill="#ffffff" d="m203.1792 298.29224l2.515625 -0.3125q0.125 0.96875 0.65625 1.484375q0.53125 0.5 1.28125 0.5q0.796875 0 1.34375 -0.609375q0.5625 -0.609375 0.5625 -1.640625q0 -0.984375 -0.53125 -1.5625q-0.53125 -0.578125 -1.28125 -0.578125q-0.5 0 -1.203125 0.203125l0.28125 -2.125q1.0625 0.015625 1.609375 -0.46875q0.5625 -0.484375 0.5625 -1.296875q0 -0.6875 -0.40625 -1.09375q-0.40625 -0.40625 -1.078125 -0.40625q-0.671875 0 -1.140625 0.46875q-0.46875 0.46875 -0.578125 1.359375l-2.40625 -0.421875q0.25 -1.234375 0.75 -1.96875q0.515625 -0.734375 1.421875 -1.15625q0.90625 -0.421875 2.03125 -0.421875q1.90625 0 3.078125 1.21875q0.953125 1.0 0.953125 2.265625q0 1.796875 -1.953125 2.859375q1.15625 0.25 1.859375 1.125q0.703125 0.875 0.703125 2.109375q0 1.78125 -1.3125 3.046875q-1.296875 1.265625 -3.25 1.265625q-1.84375 0 -3.0625 -1.0625q-1.21875 -1.0625 -1.40625 -2.78125zm10.953842 1.0l2.609375 0l0 1.859375q0 1.140625 -0.203125 1.796875q-0.1875 0.65625 -0.734375 1.171875q-0.53125 0.515625 -1.375 0.8125l-0.515625 -1.078125q0.796875 -0.25 1.125 -0.71875q0.34375 -0.453125 0.359375 -1.234375l-1.265625 0l0 -2.609375zm13.495804 0.1875l0 2.421875l-9.140625 0q0.15625 -1.375 0.890625 -2.59375q0.75 -1.234375 2.9375 -3.265625q1.765625 -1.640625 2.15625 -2.234375q0.546875 -0.796875 0.546875 -1.59375q0 -0.875 -0.46875 -1.34375q-0.46875 -0.46875 -1.296875 -0.46875q-0.8125 0 -1.296875 0.5q-0.484375 0.484375 -0.5625 1.625l-2.59375 -0.25q0.234375 -2.15625 1.453125 -3.09375q1.21875 -0.9375 3.0625 -0.9375q2.015625 0 3.15625 1.09375q1.15625 1.078125 1.15625 2.6875q0 0.921875 -0.328125 1.75q-0.328125 0.828125 -1.046875 1.734375q-0.46875 0.609375 -1.703125 1.75q-1.234375 1.125 -1.5625 1.5q-0.328125 0.359375 -0.53125 0.71875l5.171875 0z" fill-rule="nonzero"></path><path fill="#000000" d="m264.41995 263.97375l62.015747 0l0 62.015747l-62.015747 0z" fill-rule="nonzero"></path><path stroke="#666666" stroke-width="1.0" stroke-linejoin="round" stroke-linecap="butt" d="m264.41995 263.97375l62.015747 0l0 62.015747l-62.015747 0z" fill-rule="nonzero"></path><path fill="#ffffff" d="m283.1792 298.29224l2.515625 -0.3125q0.125 0.96875 0.65625 1.484375q0.53125 0.5 1.28125 0.5q0.796875 0 1.34375 -0.609375q0.5625 -0.609375 0.5625 -1.640625q0 -0.984375 -0.53125 -1.5625q-0.53125 -0.578125 -1.28125 -0.578125q-0.5 0 -1.203125 0.203125l0.28125 -2.125q1.0625 0.015625 1.609375 -0.46875q0.5625 -0.484375 0.5625 -1.296875q0 -0.6875 -0.40625 -1.09375q-0.40625 -0.40625 -1.078125 -0.40625q-0.671875 0 -1.140625 0.46875q-0.46875 0.46875 -0.578125 1.359375l-2.40625 -0.421875q0.25 -1.234375 0.75 -1.96875q0.515625 -0.734375 1.421875 -1.15625q0.90625 -0.421875 2.03125 -0.421875q1.90625 0 3.078125 1.21875q0.953125 1.0 0.953125 2.265625q0 1.796875 -1.953125 2.859375q1.15625 0.25 1.859375 1.125q0.703125 0.875 0.703125 2.109375q0 1.78125 -1.3125 3.046875q-1.296875 1.265625 -3.25 1.265625q-1.84375 0 -3.0625 -1.0625q-1.21875 -1.0625 -1.40625 -2.78125zm10.953857 1.0l2.609375 0l0 1.859375q0 1.140625 -0.203125 1.796875q-0.1875 0.65625 -0.734375 1.171875q-0.53125 0.515625 -1.375 0.8125l-0.515625 -1.078125q0.796875 -0.25 1.125 -0.71875q0.34375 -0.453125 0.359375 -1.234375l-1.265625 0l0 -2.609375zm4.6051636 -1.0l2.515625 -0.3125q0.125 0.96875 0.65625 1.484375q0.53125 0.5 1.28125 0.5q0.796875 0 1.34375 -0.609375q0.5625 -0.609375 0.5625 -1.640625q0 -0.984375 -0.53125 -1.5625q-0.53125 -0.578125 -1.28125 -0.578125q-0.5 0 -1.203125 0.203125l0.28125 -2.125q1.0625 0.015625 1.609375 -0.46875q0.5625 -0.484375 0.5625 -1.296875q0 -0.6875 -0.40625 -1.09375q-0.40625 -0.40625 -1.078125 -0.40625q-0.671875 0 -1.140625 0.46875q-0.46875 0.46875 -0.578125 1.359375l-2.40625 -0.421875q0.25 -1.234375 0.75 -1.96875q0.515625 -0.734375 1.421875 -1.15625q0.90625 -0.421875 2.03125 -0.421875q1.90625 0 3.078125 1.21875q0.953125 1.0 0.953125 2.265625q0 1.796875 -1.953125 2.859375q1.15625 0.25 1.859375 1.125q0.703125 0.875 0.703125 2.109375q0 1.78125 -1.3125 3.046875q-1.296875 1.265625 -3.25 1.265625q-1.84375 0 -3.0625 -1.0625q-1.21875 -1.0625 -1.40625 -2.78125z" fill-rule="nonzero"></path><path fill="#b7b7b7" d="m424.41995 23.973753l62.015747 0l0 62.015747l-62.015747 0z" fill-rule="nonzero"></path><path stroke="#666666" stroke-width="1.0" stroke-linejoin="round" stroke-linecap="butt" d="m424.41995 23.973753l62.015747 0l0 62.015747l-62.015747 0z" fill-rule="nonzero"></path><path fill="#ffffff" d="m447.6792 48.245377q1.96875 0 3.078125 1.40625q1.328125 1.671875 1.328125 5.546875q0 3.859375 -1.328125 5.546875q-1.109375 1.390625 -3.078125 1.390625q-1.984375 0 -3.203125 -1.53125q-1.21875 -1.53125 -1.21875 -5.4375q0 -3.84375 1.34375 -5.53125q1.09375 -1.390625 3.078125 -1.390625zm0 2.15625q-0.484375 0 -0.859375 0.3125q-0.359375 0.296875 -0.5625 1.078125q-0.265625 1.015625 -0.265625 3.40625q0 2.390625 0.234375 3.28125q0.25 0.890625 0.609375 1.1875q0.359375 0.296875 0.84375 0.296875q0.46875 0 0.828125 -0.296875q0.375 -0.296875 0.59375 -1.078125q0.265625 -1.0 0.265625 -3.390625q0 -2.390625 -0.25 -3.28125q-0.234375 -0.90625 -0.609375 -1.203125q-0.359375 -0.3125 -0.828125 -0.3125zm6.4538574 8.890625l2.609375 0l0 1.859375q0 1.140625 -0.203125 1.796875q-0.1875 0.65625 -0.734375 1.171875q-0.53125 0.515625 -1.375 0.8125l-0.515625 -1.078125q0.796875 -0.25 1.125 -0.71875q0.34375 -0.453125 0.359375 -1.234375l-1.265625 0l0 -2.609375zm9.105164 -11.046875q1.96875 0 3.078125 1.40625q1.328125 1.671875 1.328125 5.546875q0 3.859375 -1.328125 5.546875q-1.109375 1.390625 -3.078125 1.390625q-1.984375 0 -3.203125 -1.53125q-1.21875 -1.53125 -1.21875 -5.4375q0 -3.84375 1.34375 -5.53125q1.09375 -1.390625 3.078125 -1.390625zm0 2.15625q-0.484375 0 -0.859375 0.3125q-0.359375 0.296875 -0.5625 1.078125q-0.265625 1.015625 -0.265625 3.40625q0 2.390625 0.234375 3.28125q0.25 0.890625 0.609375 1.1875q0.359375 0.296875 0.84375 0.296875q0.46875 0 0.828125 -0.296875q0.375 -0.296875 0.59375 -1.078125q0.265625 -1.0 0.265625 -3.390625q0 -2.390625 -0.25 -3.28125q-0.234375 -0.90625 -0.609375 -1.203125q-0.359375 -0.3125 -0.828125 -0.3125z" fill-rule="nonzero"></path><path fill="#666666" d="m504.41995 23.973753l62.015717 0l0 62.015747l-62.015717 0z" fill-rule="nonzero"></path><path stroke="#666666" stroke-width="1.0" stroke-linejoin="round" stroke-linecap="butt" d="m504.41995 23.973753l62.015717 0l0 62.015747l-62.015717 0z" fill-rule="nonzero"></path><path fill="#ffffff" d="m529.9448 61.901627l-2.609375 0l0 -9.828125q-1.4375 1.34375 -3.375 1.984375l0 -2.375q1.03125 -0.328125 2.21875 -1.25q1.203125 -0.9375 1.640625 -2.1875l2.125 0l0 13.65625zm4.1882324 -2.609375l2.609375 0l0 1.859375q0 1.140625 -0.203125 1.796875q-0.1875 0.65625 -0.734375 1.171875q-0.53125 0.515625 -1.375 0.8125l-0.515625 -1.078125q0.796875 -0.25 1.125 -0.71875q0.34375 -0.453125 0.359375 -1.234375l-1.265625 0l0 -2.609375zm9.105164 -11.046875q1.96875 0 3.078125 1.40625q1.328125 1.671875 1.328125 5.546875q0 3.859375 -1.328125 5.546875q-1.109375 1.390625 -3.078125 1.390625q-1.984375 0 -3.203125 -1.53125q-1.21875 -1.53125 -1.21875 -5.4375q0 -3.84375 1.34375 -5.53125q1.09375 -1.390625 3.078125 -1.390625zm0 2.15625q-0.484375 0 -0.859375 0.3125q-0.359375 0.296875 -0.5625 1.078125q-0.265625 1.015625 -0.265625 3.40625q0 2.390625 0.234375 3.28125q0.25 0.890625 0.609375 1.1875q0.359375 0.296875 0.84375 0.296875q0.46875 0 0.828125 -0.296875q0.375 -0.296875 0.59375 -1.078125q0.265625 -1.0 0.265625 -3.390625q0 -2.390625 -0.25 -3.28125q-0.234375 -0.90625 -0.609375 -1.203125q-0.359375 -0.3125 -0.828125 -0.3125z" fill-rule="nonzero"></path><path fill="#434343" d="m584.4199 23.973753l62.015747 0l0 62.015747l-62.015747 0z" fill-rule="nonzero"></path><path stroke="#666666" stroke-width="1.0" stroke-linejoin="round" stroke-linecap="butt" d="m584.4199 23.973753l62.015747 0l0 62.015747l-62.015747 0z" fill-rule="nonzero"></path><path fill="#ffffff" d="m612.0698 59.47975l0 2.421875l-9.140625 0q0.15625 -1.375 0.890625 -2.59375q0.75 -1.234375 2.9375 -3.265625q1.765625 -1.640625 2.15625 -2.234375q0.546875 -0.796875 0.546875 -1.59375q0 -0.875 -0.46875 -1.34375q-0.46875 -0.46875 -1.296875 -0.46875q-0.8125 0 -1.296875 0.5q-0.484375 0.484375 -0.5625 1.625l-2.59375 -0.25q0.234375 -2.15625 1.453125 -3.09375q1.21875 -0.9375 3.0625 -0.9375q2.015625 0 3.15625 1.09375q1.15625 1.078125 1.15625 2.6875q0 0.921875 -0.328125 1.75q-0.328125 0.828125 -1.046875 1.734375q-0.46875 0.609375 -1.703125 1.75q-1.234375 1.125 -1.5625 1.5q-0.328125 0.359375 -0.53125 0.71875l5.171875 0zm2.0632324 -0.1875l2.609375 0l0 1.859375q0 1.140625 -0.203125 1.796875q-0.1875 0.65625 -0.734375 1.171875q-0.53125 0.515625 -1.375 0.8125l-0.515625 -1.078125q0.796875 -0.25 1.125 -0.71875q0.34375 -0.453125 0.359375 -1.234375l-1.265625 0l0 -2.609375zm9.105164 -11.046875q1.96875 0 3.078125 1.40625q1.328125 1.671875 1.328125 5.546875q0 3.859375 -1.328125 5.546875q-1.109375 1.390625 -3.078125 1.390625q-1.984375 0 -3.203125 -1.53125q-1.21875 -1.53125 -1.21875 -5.4375q0 -3.84375 1.34375 -5.53125q1.09375 -1.390625 3.078125 -1.390625zm0 2.15625q-0.484375 0 -0.859375 0.3125q-0.359375 0.296875 -0.5625 1.078125q-0.265625 1.015625 -0.265625 3.40625q0 2.390625 0.234375 3.28125q0.25 0.890625 0.609375 1.1875q0.359375 0.296875 0.84375 0.296875q0.46875 0 0.828125 -0.296875q0.375 -0.296875 0.59375 -1.078125q0.265625 -1.0 0.265625 -3.390625q0 -2.390625 -0.25 -3.28125q-0.234375 -0.90625 -0.609375 -1.203125q-0.359375 -0.3125 -0.828125 -0.3125z" fill-rule="nonzero"></path><path fill="#000000" d="m664.4199 23.973753l62.015747 0l0 62.015747l-62.015747 0z" fill-rule="nonzero"></path><path stroke="#666666" stroke-width="1.0" stroke-linejoin="round" stroke-linecap="butt" d="m664.4199 23.973753l62.015747 0l0 62.015747l-62.015747 0z" fill-rule="nonzero"></path><path fill="#ffffff" d="m683.1792 58.29225l2.515625 -0.3125q0.125 0.96875 0.65625 1.484375q0.53125 0.5 1.28125 0.5q0.796875 0 1.34375 -0.609375q0.5625 -0.609375 0.5625 -1.640625q0 -0.984375 -0.53125 -1.5625q-0.53125 -0.578125 -1.28125 -0.578125q-0.5 0 -1.203125 0.203125l0.28125 -2.125q1.0625 0.015625 1.609375 -0.46875q0.5625 -0.484375 0.5625 -1.296875q0 -0.6875 -0.40625 -1.09375q-0.40625 -0.40625 -1.078125 -0.40625q-0.671875 0 -1.140625 0.46875q-0.46875 0.46875 -0.578125 1.359375l-2.40625 -0.421875q0.25 -1.234375 0.75 -1.96875q0.515625 -0.734375 1.421875 -1.15625q0.90625 -0.421875 2.03125 -0.421875q1.90625 0 3.078125 1.21875q0.953125 1.0 0.953125 2.265625q0 1.796875 -1.953125 2.859375q1.15625 0.25 1.859375 1.125q0.703125 0.875 0.703125 2.109375q0 1.78125 -1.3125 3.046875q-1.296875 1.265625 -3.25 1.265625q-1.84375 0 -3.0625 -1.0625q-1.21875 -1.0625 -1.40625 -2.78125zm10.953857 1.0l2.609375 0l0 1.859375q0 1.140625 -0.203125 1.796875q-0.1875 0.65625 -0.734375 1.171875q-0.53125 0.515625 -1.375 0.8125l-0.515625 -1.078125q0.796875 -0.25 1.125 -0.71875q0.34375 -0.453125 0.359375 -1.234375l-1.265625 0l0 -2.609375zm9.105164 -11.046875q1.96875 0 3.078125 1.40625q1.328125 1.671875 1.328125 5.546875q0 3.859375 -1.328125 5.546875q-1.109375 1.390625 -3.078125 1.390625q-1.984375 0 -3.203125 -1.53125q-1.21875 -1.53125 -1.21875 -5.4375q0 -3.84375 1.34375 -5.53125q1.09375 -1.390625 3.078125 -1.390625zm0 2.15625q-0.484375 0 -0.859375 0.3125q-0.359375 0.296875 -0.5625 1.078125q-0.265625 1.015625 -0.265625 3.40625q0 2.390625 0.234375 3.28125q0.25 0.890625 0.609375 1.1875q0.359375 0.296875 0.84375 0.296875q0.46875 0 0.828125 -0.296875q0.375 -0.296875 0.59375 -1.078125q0.265625 -1.0 0.265625 -3.390625q0 -2.390625 -0.25 -3.28125q-0.234375 -0.90625 -0.609375 -1.203125q-0.359375 -0.3125 -0.828125 -0.3125z" fill-rule="nonzero"></path><path fill="#b7b7b7" d="m424.41995 103.973755l62.015747 0l0 62.015747l-62.015747 0z" fill-rule="nonzero"></path><path stroke="#666666" stroke-width="1.0" stroke-linejoin="round" stroke-linecap="butt" d="m424.41995 103.973755l62.015747 0l0 62.015747l-62.015747 0z" fill-rule="nonzero"></path><path fill="#ffffff" d="m447.6792 128.24538q1.96875 0 3.078125 1.40625q1.328125 1.671875 1.328125 5.546875q0 3.859375 -1.328125 5.546875q-1.109375 1.390625 -3.078125 1.390625q-1.984375 0 -3.203125 -1.53125q-1.21875 -1.53125 -1.21875 -5.4375q0 -3.84375 1.34375 -5.53125q1.09375 -1.390625 3.078125 -1.390625zm0 2.15625q-0.484375 0 -0.859375 0.3125q-0.359375 0.296875 -0.5625 1.078125q-0.265625 1.015625 -0.265625 3.40625q0 2.390625 0.234375 3.28125q0.25 0.890625 0.609375 1.1875q0.359375 0.296875 0.84375 0.296875q0.46875 0 0.828125 -0.296875q0.375 -0.296875 0.59375 -1.078125q0.265625 -1.0 0.265625 -3.390625q0 -2.390625 -0.25 -3.28125q-0.234375 -0.90625 -0.609375 -1.203125q-0.359375 -0.3125 -0.828125 -0.3125zm6.4538574 8.890625l2.609375 0l0 1.859375q0 1.140625 -0.203125 1.796875q-0.1875 0.65625 -0.734375 1.171875q-0.53125 0.515625 -1.375 0.8125l-0.515625 -1.078125q0.796875 -0.25 1.125 -0.71875q0.34375 -0.453125 0.359375 -1.234375l-1.265625 0l0 -2.609375zm11.370789 2.609375l-2.609375 0l0 -9.828125q-1.4375 1.34375 -3.375 1.984375l0 -2.375q1.03125 -0.328125 2.21875 -1.25q1.203125 -0.9375 1.640625 -2.1875l2.125 0l0 13.65625z" fill-rule="nonzero"></path><path fill="#666666" d="m504.41995 103.973755l62.015717 0l0 62.015747l-62.015717 0z" fill-rule="nonzero"></path><path stroke="#666666" stroke-width="1.0" stroke-linejoin="round" stroke-linecap="butt" d="m504.41995 103.973755l62.015717 0l0 62.015747l-62.015717 0z" fill-rule="nonzero"></path><path fill="#ffffff" d="m529.9448 141.90163l-2.609375 0l0 -9.828125q-1.4375 1.34375 -3.375 1.984375l0 -2.375q1.03125 -0.328125 2.21875 -1.25q1.203125 -0.9375 1.640625 -2.1875l2.125 0l0 13.65625zm4.1882324 -2.609375l2.609375 0l0 1.859375q0 1.140625 -0.203125 1.796875q-0.1875 0.65625 -0.734375 1.171875q-0.53125 0.515625 -1.375 0.8125l-0.515625 -1.078125q0.796875 -0.25 1.125 -0.71875q0.34375 -0.453125 0.359375 -1.234375l-1.265625 0l0 -2.609375zm11.370789 2.609375l-2.609375 0l0 -9.828125q-1.4375 1.34375 -3.375 1.984375l0 -2.375q1.03125 -0.328125 2.21875 -1.25q1.203125 -0.9375 1.640625 -2.1875l2.125 0l0 13.65625z" fill-rule="nonzero"></path><path fill="#434343" d="m584.4199 103.973755l62.015747 0l0 62.015747l-62.015747 0z" fill-rule="nonzero"></path><path stroke="#666666" stroke-width="1.0" stroke-linejoin="round" stroke-linecap="butt" d="m584.4199 103.973755l62.015747 0l0 62.015747l-62.015747 0z" fill-rule="nonzero"></path><path fill="#ffffff" d="m612.0698 139.47975l0 2.421875l-9.140625 0q0.15625 -1.375 0.890625 -2.59375q0.75 -1.234375 2.9375 -3.265625q1.765625 -1.640625 2.15625 -2.234375q0.546875 -0.796875 0.546875 -1.59375q0 -0.875 -0.46875 -1.34375q-0.46875 -0.46875 -1.296875 -0.46875q-0.8125 0 -1.296875 0.5q-0.484375 0.484375 -0.5625 1.625l-2.59375 -0.25q0.234375 -2.15625 1.453125 -3.09375q1.21875 -0.9375 3.0625 -0.9375q2.015625 0 3.15625 1.09375q1.15625 1.078125 1.15625 2.6875q0 0.921875 -0.328125 1.75q-0.328125 0.828125 -1.046875 1.734375q-0.46875 0.609375 -1.703125 1.75q-1.234375 1.125 -1.5625 1.5q-0.328125 0.359375 -0.53125 0.71875l5.171875 0zm2.0632324 -0.1875l2.609375 0l0 1.859375q0 1.140625 -0.203125 1.796875q-0.1875 0.65625 -0.734375 1.171875q-0.53125 0.515625 -1.375 0.8125l-0.515625 -1.078125q0.796875 -0.25 1.125 -0.71875q0.34375 -0.453125 0.359375 -1.234375l-1.265625 0l0 -2.609375zm11.370789 2.609375l-2.609375 0l0 -9.828125q-1.4375 1.34375 -3.375 1.984375l0 -2.375q1.03125 -0.328125 2.21875 -1.25q1.203125 -0.9375 1.640625 -2.1875l2.125 0l0 13.65625z" fill-rule="nonzero"></path><path fill="#000000" d="m664.4199 103.973755l62.015747 0l0 62.015747l-62.015747 0z" fill-rule="nonzero"></path><path stroke="#666666" stroke-width="1.0" stroke-linejoin="round" stroke-linecap="butt" d="m664.4199 103.973755l62.015747 0l0 62.015747l-62.015747 0z" fill-rule="nonzero"></path><path fill="#ffffff" d="m683.1792 138.29225l2.515625 -0.3125q0.125 0.96875 0.65625 1.484375q0.53125 0.5 1.28125 0.5q0.796875 0 1.34375 -0.609375q0.5625 -0.609375 0.5625 -1.640625q0 -0.984375 -0.53125 -1.5625q-0.53125 -0.578125 -1.28125 -0.578125q-0.5 0 -1.203125 0.203125l0.28125 -2.125q1.0625 0.015625 1.609375 -0.46875q0.5625 -0.484375 0.5625 -1.296875q0 -0.6875 -0.40625 -1.09375q-0.40625 -0.40625 -1.078125 -0.40625q-0.671875 0 -1.140625 0.46875q-0.46875 0.46875 -0.578125 1.359375l-2.40625 -0.421875q0.25 -1.234375 0.75 -1.96875q0.515625 -0.734375 1.421875 -1.15625q0.90625 -0.421875 2.03125 -0.421875q1.90625 0 3.078125 1.21875q0.953125 1.0 0.953125 2.265625q0 1.796875 -1.953125 2.859375q1.15625 0.25 1.859375 1.125q0.703125 0.875 0.703125 2.109375q0 1.78125 -1.3125 3.046875q-1.296875 1.265625 -3.25 1.265625q-1.84375 0 -3.0625 -1.0625q-1.21875 -1.0625 -1.40625 -2.78125zm10.953857 1.0l2.609375 0l0 1.859375q0 1.140625 -0.203125 1.796875q-0.1875 0.65625 -0.734375 1.171875q-0.53125 0.515625 -1.375 0.8125l-0.515625 -1.078125q0.796875 -0.25 1.125 -0.71875q0.34375 -0.453125 0.359375 -1.234375l-1.265625 0l0 -2.609375zm11.370789 2.609375l-2.609375 0l0 -9.828125q-1.4375 1.34375 -3.375 1.984375l0 -2.375q1.03125 -0.328125 2.21875 -1.25q1.203125 -0.9375 1.640625 -2.1875l2.125 0l0 13.65625z" fill-rule="nonzero"></path><path fill="#b7b7b7" d="m424.41995 183.97375l62.015747 0l0 62.015747l-62.015747 0z" fill-rule="nonzero"></path><path stroke="#666666" stroke-width="1.0" stroke-linejoin="round" stroke-linecap="butt" d="m424.41995 183.97375l62.015747 0l0 62.015747l-62.015747 0z" fill-rule="nonzero"></path><path fill="#ffffff" d="m447.6792 208.24538q1.96875 0 3.078125 1.40625q1.328125 1.671875 1.328125 5.546875q0 3.859375 -1.328125 5.546875q-1.109375 1.390625 -3.078125 1.390625q-1.984375 0 -3.203125 -1.53125q-1.21875 -1.53125 -1.21875 -5.4375q0 -3.84375 1.34375 -5.53125q1.09375 -1.390625 3.078125 -1.390625zm0 2.15625q-0.484375 0 -0.859375 0.3125q-0.359375 0.296875 -0.5625 1.078125q-0.265625 1.015625 -0.265625 3.40625q0 2.390625 0.234375 3.28125q0.25 0.890625 0.609375 1.1875q0.359375 0.296875 0.84375 0.296875q0.46875 0 0.828125 -0.296875q0.375 -0.296875 0.59375 -1.078125q0.265625 -1.0 0.265625 -3.390625q0 -2.390625 -0.25 -3.28125q-0.234375 -0.90625 -0.609375 -1.203125q-0.359375 -0.3125 -0.828125 -0.3125zm6.4538574 8.890625l2.609375 0l0 1.859375q0 1.140625 -0.203125 1.796875q-0.1875 0.65625 -0.734375 1.171875q-0.53125 0.515625 -1.375 0.8125l-0.515625 -1.078125q0.796875 -0.25 1.125 -0.71875q0.34375 -0.453125 0.359375 -1.234375l-1.265625 0l0 -2.609375zm13.495789 0.1875l0 2.421875l-9.140625 0q0.15625 -1.375 0.890625 -2.59375q0.75 -1.234375 2.9375 -3.265625q1.765625 -1.640625 2.15625 -2.234375q0.546875 -0.796875 0.546875 -1.59375q0 -0.875 -0.46875 -1.34375q-0.46875 -0.46875 -1.296875 -0.46875q-0.8125 0 -1.296875 0.5q-0.484375 0.484375 -0.5625 1.625l-2.59375 -0.25q0.234375 -2.15625 1.453125 -3.09375q1.21875 -0.9375 3.0625 -0.9375q2.015625 0 3.15625 1.09375q1.15625 1.078125 1.15625 2.6875q0 0.921875 -0.328125 1.75q-0.328125 0.828125 -1.046875 1.734375q-0.46875 0.609375 -1.703125 1.75q-1.234375 1.125 -1.5625 1.5q-0.328125 0.359375 -0.53125 0.71875l5.171875 0z" fill-rule="nonzero"></path><path fill="#666666" d="m504.41995 183.97375l62.015717 0l0 62.015747l-62.015717 0z" fill-rule="nonzero"></path><path stroke="#666666" stroke-width="1.0" stroke-linejoin="round" stroke-linecap="butt" d="m504.41995 183.97375l62.015717 0l0 62.015747l-62.015717 0z" fill-rule="nonzero"></path><path fill="#ffffff" d="m529.9448 221.90163l-2.609375 0l0 -9.828125q-1.4375 1.34375 -3.375 1.984375l0 -2.375q1.03125 -0.328125 2.21875 -1.25q1.203125 -0.9375 1.640625 -2.1875l2.125 0l0 13.65625zm4.1882324 -2.609375l2.609375 0l0 1.859375q0 1.140625 -0.203125 1.796875q-0.1875 0.65625 -0.734375 1.171875q-0.53125 0.515625 -1.375 0.8125l-0.515625 -1.078125q0.796875 -0.25 1.125 -0.71875q0.34375 -0.453125 0.359375 -1.234375l-1.265625 0l0 -2.609375zm13.495789 0.1875l0 2.421875l-9.140625 0q0.15625 -1.375 0.890625 -2.59375q0.75 -1.234375 2.9375 -3.265625q1.765625 -1.640625 2.15625 -2.234375q0.546875 -0.796875 0.546875 -1.59375q0 -0.875 -0.46875 -1.34375q-0.46875 -0.46875 -1.296875 -0.46875q-0.8125 0 -1.296875 0.5q-0.484375 0.484375 -0.5625 1.625l-2.59375 -0.25q0.234375 -2.15625 1.453125 -3.09375q1.21875 -0.9375 3.0625 -0.9375q2.015625 0 3.15625 1.09375q1.15625 1.078125 1.15625 2.6875q0 0.921875 -0.328125 1.75q-0.328125 0.828125 -1.046875 1.734375q-0.46875 0.609375 -1.703125 1.75q-1.234375 1.125 -1.5625 1.5q-0.328125 0.359375 -0.53125 0.71875l5.171875 0z" fill-rule="nonzero"></path><path fill="#434343" d="m584.4199 183.97375l62.015747 0l0 62.015747l-62.015747 0z" fill-rule="nonzero"></path><path stroke="#666666" stroke-width="1.0" stroke-linejoin="round" stroke-linecap="butt" d="m584.4199 183.97375l62.015747 0l0 62.015747l-62.015747 0z" fill-rule="nonzero"></path><path fill="#ffffff" d="m612.0698 219.47975l0 2.421875l-9.140625 0q0.15625 -1.375 0.890625 -2.59375q0.75 -1.234375 2.9375 -3.265625q1.765625 -1.640625 2.15625 -2.234375q0.546875 -0.796875 0.546875 -1.59375q0 -0.875 -0.46875 -1.34375q-0.46875 -0.46875 -1.296875 -0.46875q-0.8125 0 -1.296875 0.5q-0.484375 0.484375 -0.5625 1.625l-2.59375 -0.25q0.234375 -2.15625 1.453125 -3.09375q1.21875 -0.9375 3.0625 -0.9375q2.015625 0 3.15625 1.09375q1.15625 1.078125 1.15625 2.6875q0 0.921875 -0.328125 1.75q-0.328125 0.828125 -1.046875 1.734375q-0.46875 0.609375 -1.703125 1.75q-1.234375 1.125 -1.5625 1.5q-0.328125 0.359375 -0.53125 0.71875l5.171875 0zm2.0632324 -0.1875l2.609375 0l0 1.859375q0 1.140625 -0.203125 1.796875q-0.1875 0.65625 -0.734375 1.171875q-0.53125 0.515625 -1.375 0.8125l-0.515625 -1.078125q0.796875 -0.25 1.125 -0.71875q0.34375 -0.453125 0.359375 -1.234375l-1.265625 0l0 -2.609375zm13.495789 0.1875l0 2.421875l-9.140625 0q0.15625 -1.375 0.890625 -2.59375q0.75 -1.234375 2.9375 -3.265625q1.765625 -1.640625 2.15625 -2.234375q0.546875 -0.796875 0.546875 -1.59375q0 -0.875 -0.46875 -1.34375q-0.46875 -0.46875 -1.296875 -0.46875q-0.8125 0 -1.296875 0.5q-0.484375 0.484375 -0.5625 1.625l-2.59375 -0.25q0.234375 -2.15625 1.453125 -3.09375q1.21875 -0.9375 3.0625 -0.9375q2.015625 0 3.15625 1.09375q1.15625 1.078125 1.15625 2.6875q0 0.921875 -0.328125 1.75q-0.328125 0.828125 -1.046875 1.734375q-0.46875 0.609375 -1.703125 1.75q-1.234375 1.125 -1.5625 1.5q-0.328125 0.359375 -0.53125 0.71875l5.171875 0z" fill-rule="nonzero"></path><path fill="#000000" d="m664.4199 183.97375l62.015747 0l0 62.015747l-62.015747 0z" fill-rule="nonzero"></path><path stroke="#666666" stroke-width="1.0" stroke-linejoin="round" stroke-linecap="butt" d="m664.4199 183.97375l62.015747 0l0 62.015747l-62.015747 0z" fill-rule="nonzero"></path><path fill="#ffffff" d="m683.1792 218.29225l2.515625 -0.3125q0.125 0.96875 0.65625 1.484375q0.53125 0.5 1.28125 0.5q0.796875 0 1.34375 -0.609375q0.5625 -0.609375 0.5625 -1.640625q0 -0.984375 -0.53125 -1.5625q-0.53125 -0.578125 -1.28125 -0.578125q-0.5 0 -1.203125 0.203125l0.28125 -2.125q1.0625 0.015625 1.609375 -0.46875q0.5625 -0.484375 0.5625 -1.296875q0 -0.6875 -0.40625 -1.09375q-0.40625 -0.40625 -1.078125 -0.40625q-0.671875 0 -1.140625 0.46875q-0.46875 0.46875 -0.578125 1.359375l-2.40625 -0.421875q0.25 -1.234375 0.75 -1.96875q0.515625 -0.734375 1.421875 -1.15625q0.90625 -0.421875 2.03125 -0.421875q1.90625 0 3.078125 1.21875q0.953125 1.0 0.953125 2.265625q0 1.796875 -1.953125 2.859375q1.15625 0.25 1.859375 1.125q0.703125 0.875 0.703125 2.109375q0 1.78125 -1.3125 3.046875q-1.296875 1.265625 -3.25 1.265625q-1.84375 0 -3.0625 -1.0625q-1.21875 -1.0625 -1.40625 -2.78125zm10.953857 1.0l2.609375 0l0 1.859375q0 1.140625 -0.203125 1.796875q-0.1875 0.65625 -0.734375 1.171875q-0.53125 0.515625 -1.375 0.8125l-0.515625 -1.078125q0.796875 -0.25 1.125 -0.71875q0.34375 -0.453125 0.359375 -1.234375l-1.265625 0l0 -2.609375zm13.495789 0.1875l0 2.421875l-9.140625 0q0.15625 -1.375 0.890625 -2.59375q0.75 -1.234375 2.9375 -3.265625q1.765625 -1.640625 2.15625 -2.234375q0.546875 -0.796875 0.546875 -1.59375q0 -0.875 -0.46875 -1.34375q-0.46875 -0.46875 -1.296875 -0.46875q-0.8125 0 -1.296875 0.5q-0.484375 0.484375 -0.5625 1.625l-2.59375 -0.25q0.234375 -2.15625 1.453125 -3.09375q1.21875 -0.9375 3.0625 -0.9375q2.015625 0 3.15625 1.09375q1.15625 1.078125 1.15625 2.6875q0 0.921875 -0.328125 1.75q-0.328125 0.828125 -1.046875 1.734375q-0.46875 0.609375 -1.703125 1.75q-1.234375 1.125 -1.5625 1.5q-0.328125 0.359375 -0.53125 0.71875l5.171875 0z" fill-rule="nonzero"></path><path fill="#b7b7b7" d="m424.41995 263.97375l62.015747 0l0 62.015747l-62.015747 0z" fill-rule="nonzero"></path><path stroke="#666666" stroke-width="1.0" stroke-linejoin="round" stroke-linecap="butt" d="m424.41995 263.97375l62.015747 0l0 62.015747l-62.015747 0z" fill-rule="nonzero"></path><path fill="#ffffff" d="m447.6792 288.24536q1.96875 0 3.078125 1.40625q1.328125 1.671875 1.328125 5.546875q0 3.859375 -1.328125 5.546875q-1.109375 1.390625 -3.078125 1.390625q-1.984375 0 -3.203125 -1.53125q-1.21875 -1.53125 -1.21875 -5.4375q0 -3.84375 1.34375 -5.53125q1.09375 -1.390625 3.078125 -1.390625zm0 2.15625q-0.484375 0 -0.859375 0.3125q-0.359375 0.296875 -0.5625 1.078125q-0.265625 1.015625 -0.265625 3.40625q0 2.390625 0.234375 3.28125q0.25 0.890625 0.609375 1.1875q0.359375 0.296875 0.84375 0.296875q0.46875 0 0.828125 -0.296875q0.375 -0.296875 0.59375 -1.078125q0.265625 -1.0 0.265625 -3.390625q0 -2.390625 -0.25 -3.28125q-0.234375 -0.90625 -0.609375 -1.203125q-0.359375 -0.3125 -0.828125 -0.3125zm6.4538574 8.890625l2.609375 0l0 1.859375q0 1.140625 -0.203125 1.796875q-0.1875 0.65625 -0.734375 1.171875q-0.53125 0.515625 -1.375 0.8125l-0.515625 -1.078125q0.796875 -0.25 1.125 -0.71875q0.34375 -0.453125 0.359375 -1.234375l-1.265625 0l0 -2.609375zm4.6051636 -1.0l2.515625 -0.3125q0.125 0.96875 0.65625 1.484375q0.53125 0.5 1.28125 0.5q0.796875 0 1.34375 -0.609375q0.5625 -0.609375 0.5625 -1.640625q0 -0.984375 -0.53125 -1.5625q-0.53125 -0.578125 -1.28125 -0.578125q-0.5 0 -1.203125 0.203125l0.28125 -2.125q1.0625 0.015625 1.609375 -0.46875q0.5625 -0.484375 0.5625 -1.296875q0 -0.6875 -0.40625 -1.09375q-0.40625 -0.40625 -1.078125 -0.40625q-0.671875 0 -1.140625 0.46875q-0.46875 0.46875 -0.578125 1.359375l-2.40625 -0.421875q0.25 -1.234375 0.75 -1.96875q0.515625 -0.734375 1.421875 -1.15625q0.90625 -0.421875 2.03125 -0.421875q1.90625 0 3.078125 1.21875q0.953125 1.0 0.953125 2.265625q0 1.796875 -1.953125 2.859375q1.15625 0.25 1.859375 1.125q0.703125 0.875 0.703125 2.109375q0 1.78125 -1.3125 3.046875q-1.296875 1.265625 -3.25 1.265625q-1.84375 0 -3.0625 -1.0625q-1.21875 -1.0625 -1.40625 -2.78125z" fill-rule="nonzero"></path><path fill="#666666" d="m504.41995 263.97375l62.015717 0l0 62.015747l-62.015717 0z" fill-rule="nonzero"></path><path stroke="#666666" stroke-width="1.0" stroke-linejoin="round" stroke-linecap="butt" d="m504.41995 263.97375l62.015717 0l0 62.015747l-62.015717 0z" fill-rule="nonzero"></path><path fill="#ffffff" d="m529.9448 301.9016l-2.609375 0l0 -9.828125q-1.4375 1.34375 -3.375 1.984375l0 -2.375q1.03125 -0.328125 2.21875 -1.25q1.203125 -0.9375 1.640625 -2.1875l2.125 0l0 13.65625zm4.1882324 -2.609375l2.609375 0l0 1.859375q0 1.140625 -0.203125 1.796875q-0.1875 0.65625 -0.734375 1.171875q-0.53125 0.515625 -1.375 0.8125l-0.515625 -1.078125q0.796875 -0.25 1.125 -0.71875q0.34375 -0.453125 0.359375 -1.234375l-1.265625 0l0 -2.609375zm4.6051636 -1.0l2.515625 -0.3125q0.125 0.96875 0.65625 1.484375q0.53125 0.5 1.28125 0.5q0.796875 0 1.34375 -0.609375q0.5625 -0.609375 0.5625 -1.640625q0 -0.984375 -0.53125 -1.5625q-0.53125 -0.578125 -1.28125 -0.578125q-0.5 0 -1.203125 0.203125l0.28125 -2.125q1.0625 0.015625 1.609375 -0.46875q0.5625 -0.484375 0.5625 -1.296875q0 -0.6875 -0.40625 -1.09375q-0.40625 -0.40625 -1.078125 -0.40625q-0.671875 0 -1.140625 0.46875q-0.46875 0.46875 -0.578125 1.359375l-2.40625 -0.421875q0.25 -1.234375 0.75 -1.96875q0.515625 -0.734375 1.421875 -1.15625q0.90625 -0.421875 2.03125 -0.421875q1.90625 0 3.078125 1.21875q0.953125 1.0 0.953125 2.265625q0 1.796875 -1.953125 2.859375q1.15625 0.25 1.859375 1.125q0.703125 0.875 0.703125 2.109375q0 1.78125 -1.3125 3.046875q-1.296875 1.265625 -3.25 1.265625q-1.84375 0 -3.0625 -1.0625q-1.21875 -1.0625 -1.40625 -2.78125z" fill-rule="nonzero"></path><path fill="#434343" d="m584.4199 263.97375l62.015747 0l0 62.015747l-62.015747 0z" fill-rule="nonzero"></path><path stroke="#666666" stroke-width="1.0" stroke-linejoin="round" stroke-linecap="butt" d="m584.4199 263.97375l62.015747 0l0 62.015747l-62.015747 0z" fill-rule="nonzero"></path><path fill="#ffffff" d="m612.0698 299.47974l0 2.421875l-9.140625 0q0.15625 -1.375 0.890625 -2.59375q0.75 -1.234375 2.9375 -3.265625q1.765625 -1.640625 2.15625 -2.234375q0.546875 -0.796875 0.546875 -1.59375q0 -0.875 -0.46875 -1.34375q-0.46875 -0.46875 -1.296875 -0.46875q-0.8125 0 -1.296875 0.5q-0.484375 0.484375 -0.5625 1.625l-2.59375 -0.25q0.234375 -2.15625 1.453125 -3.09375q1.21875 -0.9375 3.0625 -0.9375q2.015625 0 3.15625 1.09375q1.15625 1.078125 1.15625 2.6875q0 0.921875 -0.328125 1.75q-0.328125 0.828125 -1.046875 1.734375q-0.46875 0.609375 -1.703125 1.75q-1.234375 1.125 -1.5625 1.5q-0.328125 0.359375 -0.53125 0.71875l5.171875 0zm2.0632324 -0.1875l2.609375 0l0 1.859375q0 1.140625 -0.203125 1.796875q-0.1875 0.65625 -0.734375 1.171875q-0.53125 0.515625 -1.375 0.8125l-0.515625 -1.078125q0.796875 -0.25 1.125 -0.71875q0.34375 -0.453125 0.359375 -1.234375l-1.265625 0l0 -2.609375zm4.6051636 -1.0l2.515625 -0.3125q0.125 0.96875 0.65625 1.484375q0.53125 0.5 1.28125 0.5q0.796875 0 1.34375 -0.609375q0.5625 -0.609375 0.5625 -1.640625q0 -0.984375 -0.53125 -1.5625q-0.53125 -0.578125 -1.28125 -0.578125q-0.5 0 -1.203125 0.203125l0.28125 -2.125q1.0625 0.015625 1.609375 -0.46875q0.5625 -0.484375 0.5625 -1.296875q0 -0.6875 -0.40625 -1.09375q-0.40625 -0.40625 -1.078125 -0.40625q-0.671875 0 -1.140625 0.46875q-0.46875 0.46875 -0.578125 1.359375l-2.40625 -0.421875q0.25 -1.234375 0.75 -1.96875q0.515625 -0.734375 1.421875 -1.15625q0.90625 -0.421875 2.03125 -0.421875q1.90625 0 3.078125 1.21875q0.953125 1.0 0.953125 2.265625q0 1.796875 -1.953125 2.859375q1.15625 0.25 1.859375 1.125q0.703125 0.875 0.703125 2.109375q0 1.78125 -1.3125 3.046875q-1.296875 1.265625 -3.25 1.265625q-1.84375 0 -3.0625 -1.0625q-1.21875 -1.0625 -1.40625 -2.78125z" fill-rule="nonzero"></path><path fill="#000000" d="m664.4199 263.97375l62.015747 0l0 62.015747l-62.015747 0z" fill-rule="nonzero"></path><path stroke="#666666" stroke-width="1.0" stroke-linejoin="round" stroke-linecap="butt" d="m664.4199 263.97375l62.015747 0l0 62.015747l-62.015747 0z" fill-rule="nonzero"></path><path fill="#ffffff" d="m683.1792 298.29224l2.515625 -0.3125q0.125 0.96875 0.65625 1.484375q0.53125 0.5 1.28125 0.5q0.796875 0 1.34375 -0.609375q0.5625 -0.609375 0.5625 -1.640625q0 -0.984375 -0.53125 -1.5625q-0.53125 -0.578125 -1.28125 -0.578125q-0.5 0 -1.203125 0.203125l0.28125 -2.125q1.0625 0.015625 1.609375 -0.46875q0.5625 -0.484375 0.5625 -1.296875q0 -0.6875 -0.40625 -1.09375q-0.40625 -0.40625 -1.078125 -0.40625q-0.671875 0 -1.140625 0.46875q-0.46875 0.46875 -0.578125 1.359375l-2.40625 -0.421875q0.25 -1.234375 0.75 -1.96875q0.515625 -0.734375 1.421875 -1.15625q0.90625 -0.421875 2.03125 -0.421875q1.90625 0 3.078125 1.21875q0.953125 1.0 0.953125 2.265625q0 1.796875 -1.953125 2.859375q1.15625 0.25 1.859375 1.125q0.703125 0.875 0.703125 2.109375q0 1.78125 -1.3125 3.046875q-1.296875 1.265625 -3.25 1.265625q-1.84375 0 -3.0625 -1.0625q-1.21875 -1.0625 -1.40625 -2.78125zm10.953857 1.0l2.609375 0l0 1.859375q0 1.140625 -0.203125 1.796875q-0.1875 0.65625 -0.734375 1.171875q-0.53125 0.515625 -1.375 0.8125l-0.515625 -1.078125q0.796875 -0.25 1.125 -0.71875q0.34375 -0.453125 0.359375 -1.234375l-1.265625 0l0 -2.609375zm4.6051636 -1.0l2.515625 -0.3125q0.125 0.96875 0.65625 1.484375q0.53125 0.5 1.28125 0.5q0.796875 0 1.34375 -0.609375q0.5625 -0.609375 0.5625 -1.640625q0 -0.984375 -0.53125 -1.5625q-0.53125 -0.578125 -1.28125 -0.578125q-0.5 0 -1.203125 0.203125l0.28125 -2.125q1.0625 0.015625 1.609375 -0.46875q0.5625 -0.484375 0.5625 -1.296875q0 -0.6875 -0.40625 -1.09375q-0.40625 -0.40625 -1.078125 -0.40625q-0.671875 0 -1.140625 0.46875q-0.46875 0.46875 -0.578125 1.359375l-2.40625 -0.421875q0.25 -1.234375 0.75 -1.96875q0.515625 -0.734375 1.421875 -1.15625q0.90625 -0.421875 2.03125 -0.421875q1.90625 0 3.078125 1.21875q0.953125 1.0 0.953125 2.265625q0 1.796875 -1.953125 2.859375q1.15625 0.25 1.859375 1.125q0.703125 0.875 0.703125 2.109375q0 1.78125 -1.3125 3.046875q-1.296875 1.265625 -3.25 1.265625q-1.84375 0 -3.0625 -1.0625q-1.21875 -1.0625 -1.40625 -2.78125z" fill-rule="nonzero"></path><path fill="#000000" fill-opacity="0.0" d="m55.304462 55.711285l240.34645 240.7559" fill-rule="nonzero"></path><path stroke="#00ff00" stroke-width="3.0" stroke-linejoin="round" stroke-linecap="butt" d="m55.304462 55.711285l227.62938 228.01717" fill-rule="evenodd"></path><path fill="#00ff00" stroke="#00ff00" stroke-width="3.0" stroke-linecap="butt" d="m279.427 287.2293l13.125397 6.134094l-6.111725 -13.135834z" fill-rule="evenodd"></path><path fill="#999999" d="m350.0105 170.08923l38.834656 0l0 -6.0l12.0 12.0l-12.0 12.0l0 -6.0l-38.834656 0z" fill-rule="nonzero"></path><path stroke="#666666" stroke-width="1.0" stroke-linejoin="round" stroke-linecap="butt" d="m350.0105 170.08923l38.834656 0l0 -6.0l12.0 12.0l-12.0 12.0l0 -6.0l-38.834656 0z" fill-rule="nonzero"></path></g></svg>
