<?xml version="1.0" standalone="yes"?>

<svg version="1.1" viewBox="0.0 0.0 428.0 100.0" fill="none" stroke="none" stroke-linecap="square" stroke-miterlimit="10" xmlns="http://www.w3.org/2000/svg" xmlns:xlink="http://www.w3.org/1999/xlink"><clipPath id="p.0"><path d="m0 0l428.0 0l0 100.0l-428.0 0l0 -100.0z" clip-rule="nonzero"></path></clipPath><g clip-path="url(#p.0)"><path fill="#000000" fill-opacity="0.0" d="m0 0l428.17847 0l0 100.0l-428.17847 0z" fill-rule="nonzero"></path><path fill="#cfe2f3" d="m5.0262465 5.094488l52.25197 0l0 14.834646l-52.25197 0z" fill-rule="nonzero"></path><path stroke="#6d9eeb" stroke-width="1.0" stroke-linejoin="round" stroke-linecap="butt" d="m5.0262465 5.094488l52.25197 0l0 14.834646l-52.25197 0z" fill-rule="nonzero"></path><path fill="#000000" d="m26.765505 15.362435q0.296875 0 0.53125 0q0.234375 -0.015625 0.390625 -0.0625l0 -1.390625q-0.09375 -0.046875 -0.296875 -0.078125q-0.203125 -0.03125 -0.484375 -0.03125q-0.203125 0 -0.421875 0.03125q-0.203125 0.03125 -0.375 0.125q-0.171875 0.078125 -0.296875 0.234375q-0.109375 0.140625 -0.109375 0.375q0 0.453125 0.28125 0.625q0.296875 0.171875 0.78125 0.171875zm-0.0625 -4.1875q0.5 0 0.84375 0.140625q0.34375 0.125 0.5625 0.359375q0.21875 0.234375 0.296875 0.5625q0.09375 0.328125 0.09375 0.734375l0 2.921875q-0.109375 0.015625 -0.3125 0.046875q-0.1875 0.03125 -0.4375 0.046875q-0.234375 0.031250954 -0.515625 0.046875954q-0.28125 0.03125 -0.5625 0.03125q-0.390625 0 -0.734375 -0.07812595q-0.328125 -0.078125 -0.578125 -0.25q-0.234375 -0.171875 -0.375 -0.453125q-0.125 -0.296875 -0.125 -0.703125q0 -0.390625 0.15625 -0.671875q0.15625 -0.28125 0.421875 -0.453125q0.265625 -0.171875 0.625 -0.25q0.375 -0.078125 0.765625 -0.078125q0.125 0 0.25 0.015625q0.140625 0.015625 0.265625 0.046875q0.125 0.015625 0.203125 0.03125q0.09375 0.015625 0.140625 0.015625l0 -0.234375q0 -0.203125 -0.046875 -0.40625q-0.046875 -0.203125 -0.171875 -0.359375q-0.109375 -0.15625 -0.3125 -0.25q-0.203125 -0.09375 -0.53125 -0.09375q-0.40625 0 -0.71875 0.0625q-0.3125 0.0625 -0.46875 0.125l-0.09375 -0.703125q0.15625 -0.0625 0.53125 -0.125q0.390625 -0.078125 0.828125 -0.078125zm3.494278 -2.25l2.031248 0l0 0.65625l-1.2499981 0l0 7.406251l1.2499981 0l0 0.65625l-2.031248 0l0 -8.718751zm3.7720776 7.046875l-0.84375 0l0 -4.6875l0.84375 0l0 4.6875zm-0.421875 -5.53125q-0.234375 0 -0.390625 -0.140625q-0.15625 -0.15625 -0.15625 -0.40625q0 -0.25 0.15625 -0.390625q0.15625 -0.15625 0.390625 -0.15625q0.21875 0 0.375 0.15625q0.15625 0.140625 0.15625 0.390625q0 0.25 -0.15625 0.40625q-0.15625 0.140625 -0.375 0.140625zm3.3131409 7.203126l-2.015625 0l0 -0.65625l1.234375 0l0 -7.406251l-1.234375 0l0 -0.65625l2.015625 0l0 8.718751z" fill-rule="nonzero"></path><path fill="#cfe2f3" d="m57.28834 5.094488l52.251972 0l0 14.834646l-52.251972 0z" fill-rule="nonzero"></path><path stroke="#6d9eeb" stroke-width="1.0" stroke-linejoin="round" stroke-linecap="butt" d="m57.28834 5.094488l52.251972 0l0 14.834646l-52.251972 0z" fill-rule="nonzero"></path><path fill="#000000" d="m73.76654 15.362435q0.296875 0 0.53125 0q0.234375 -0.015625 0.390625 -0.0625l0 -1.390625q-0.09375 -0.046875 -0.296875 -0.078125q-0.203125 -0.03125 -0.484375 -0.03125q-0.203125 0 -0.421875 0.03125q-0.203125 0.03125 -0.375 0.125q-0.171875 0.078125 -0.296875 0.234375q-0.109375 0.140625 -0.109375 0.375q0 0.453125 0.28125 0.625q0.296875 0.171875 0.78125 0.171875zm-0.0625 -4.1875q0.5 0 0.84375 0.140625q0.34375 0.125 0.5625 0.359375q0.21875 0.234375 0.296875 0.5625q0.09375 0.328125 0.09375 0.734375l0 2.921875q-0.109375 0.015625 -0.3125 0.046875q-0.1875 0.03125 -0.4375 0.046875q-0.234375 0.031250954 -0.515625 0.046875954q-0.28125 0.03125 -0.5625 0.03125q-0.390625 0 -0.734375 -0.07812595q-0.328125 -0.078125 -0.578125 -0.25q-0.234375 -0.171875 -0.375 -0.453125q-0.125 -0.296875 -0.125 -0.703125q0 -0.390625 0.15625 -0.671875q0.15625 -0.28125 0.421875 -0.453125q0.265625 -0.171875 0.625 -0.25q0.375 -0.078125 0.765625 -0.078125q0.125 0 0.25 0.015625q0.140625 0.015625 0.265625 0.046875q0.125 0.015625 0.203125 0.03125q0.09375 0.015625 0.140625 0.015625l0 -0.234375q0 -0.203125 -0.046875 -0.40625q-0.046875 -0.203125 -0.171875 -0.359375q-0.109375 -0.15625 -0.3125 -0.25q-0.203125 -0.09375 -0.53125 -0.09375q-0.40625 0 -0.71875 0.0625q-0.3125 0.0625 -0.46875 0.125l-0.09375 -0.703125q0.15625 -0.0625 0.53125 -0.125q0.390625 -0.078125 0.828125 -0.078125zm3.494278 -2.25l2.03125 0l0 0.65625l-1.25 0l0 7.406251l1.25 0l0 0.65625l-2.03125 0l0 -8.718751zm3.7720795 7.046875l-0.84375 0l0 -4.6875l0.84375 0l0 4.6875zm-0.421875 -5.53125q-0.234375 0 -0.390625 -0.140625q-0.15625 -0.15625 -0.15625 -0.40625q0 -0.25 0.15625 -0.390625q0.15625 -0.15625 0.390625 -0.15625q0.21875 0 0.375 0.15625q0.15625 0.140625 0.15625 0.390625q0 0.25 -0.15625 0.40625q-0.15625 0.140625 -0.375 0.140625zm1.7037659 2.484375l1.6875 0l0 -1.859375l0.71875 0l0 1.859375l1.703125 0l0 0.703125l-1.703125 0l0 1.859375l-0.71875 0l0 -1.859375l-1.6875 0l0 -0.703125zm5.6204376 -1.90625q0.5 -0.1875 0.984375 -0.5q0.5 -0.3125 0.90625 -0.78125l0.59375 0l0 6.234375l-0.84375 0l0 -5.078125q-0.109375 0.09375 -0.265625 0.203125q-0.15625 0.109375 -0.34375 0.21875q-0.1875 0.09375 -0.390625 0.1875q-0.203125 0.078125 -0.390625 0.15625l-0.25 -0.640625zm6.5110626 6.625001l-2.015625 0l0 -0.65625l1.234375 0l0 -7.406251l-1.234375 0l0 -0.65625l2.015625 0l0 8.718751z" fill-rule="nonzero"></path><path fill="#cfe2f3" d="m109.55044 5.094488l52.25196 0l0 14.834646l-52.25196 0z" fill-rule="nonzero"></path><path stroke="#6d9eeb" stroke-width="1.0" stroke-linejoin="round" stroke-linecap="butt" d="m109.55044 5.094488l52.25196 0l0 14.834646l-52.25196 0z" fill-rule="nonzero"></path><path fill="#000000" d="m126.02863 15.362435q0.296875 0 0.53125 0q0.234375 -0.015625 0.390625 -0.0625l0 -1.390625q-0.09375 -0.046875 -0.296875 -0.078125q-0.203125 -0.03125 -0.484375 -0.03125q-0.203125 0 -0.421875 0.03125q-0.203125 0.03125 -0.375 0.125q-0.171875 0.078125 -0.296875 0.234375q-0.109375 0.140625 -0.109375 0.375q0 0.453125 0.28125 0.625q0.296875 0.171875 0.78125 0.171875zm-0.0625 -4.1875q0.5 0 0.84375 0.140625q0.34375 0.125 0.5625 0.359375q0.21875 0.234375 0.296875 0.5625q0.09375 0.328125 0.09375 0.734375l0 2.921875q-0.109375 0.015625 -0.3125 0.046875q-0.1875 0.03125 -0.4375 0.046875q-0.234375 0.031250954 -0.515625 0.046875954q-0.28125 0.03125 -0.5625 0.03125q-0.390625 0 -0.734375 -0.07812595q-0.328125 -0.078125 -0.578125 -0.25q-0.234375 -0.171875 -0.375 -0.453125q-0.125 -0.296875 -0.125 -0.703125q0 -0.390625 0.15625 -0.671875q0.15625 -0.28125 0.421875 -0.453125q0.265625 -0.171875 0.625 -0.25q0.375 -0.078125 0.765625 -0.078125q0.125 0 0.25 0.015625q0.140625 0.015625 0.265625 0.046875q0.125 0.015625 0.203125 0.03125q0.09375 0.015625 0.140625 0.015625l0 -0.234375q0 -0.203125 -0.046875 -0.40625q-0.046875 -0.203125 -0.171875 -0.359375q-0.109375 -0.15625 -0.3125 -0.25q-0.203125 -0.09375 -0.53125 -0.09375q-0.40625 0 -0.71875 0.0625q-0.3125 0.0625 -0.46875 0.125l-0.09375 -0.703125q0.15625 -0.0625 0.53125 -0.125q0.390625 -0.078125 0.828125 -0.078125zm3.4942703 -2.25l2.03125 0l0 0.65625l-1.25 0l0 7.406251l1.25 0l0 0.65625l-2.03125 0l0 -8.718751zm3.7720795 7.046875l-0.84375 0l0 -4.6875l0.84375 0l0 4.6875zm-0.421875 -5.53125q-0.234375 0 -0.390625 -0.140625q-0.15625 -0.15625 -0.15625 -0.40625q0 -0.25 0.15625 -0.390625q0.15625 -0.15625 0.390625 -0.15625q0.21875 0 0.375 0.15625q0.15625 0.140625 0.15625 0.390625q0 0.25 -0.15625 0.40625q-0.15625 0.140625 -0.375 0.140625zm1.7037659 2.484375l1.6875 0l0 -1.859375l0.71875 0l0 1.859375l1.703125 0l0 0.703125l-1.703125 0l0 1.859375l-0.71875 0l0 -1.859375l-1.6875 0l0 -0.703125zm8.979813 -1.59375q0 0.328125 -0.140625 0.625q-0.125 0.296875 -0.34375 0.59375q-0.203125 0.296875 -0.484375 0.578125q-0.265625 0.28125 -0.53125 0.546875q-0.15625 0.15625 -0.359375 0.359375q-0.203125 0.203125 -0.390625 0.4375q-0.171875 0.21875 -0.296875 0.4375q-0.125 0.203125 -0.125 0.34375l2.875 0l0 0.71875l-3.78125 0q0 -0.046875 0 -0.09375q0 -0.0625 0 -0.109375q0 -0.421875 0.140625 -0.78125q0.140625 -0.375 0.359375 -0.6875q0.21875 -0.328125 0.5 -0.609375q0.28125 -0.296875 0.546875 -0.578125q0.234375 -0.203125 0.4375 -0.40625q0.203125 -0.21875 0.359375 -0.4375q0.15625 -0.21875 0.25 -0.4375q0.09375 -0.21875 0.09375 -0.46875q0 -0.28125 -0.09375 -0.46875q-0.078125 -0.1875 -0.21875 -0.3125q-0.140625 -0.125 -0.34375 -0.1875q-0.1875 -0.0625 -0.40625 -0.0625q-0.265625 0 -0.484375 0.078125q-0.203125 0.078125 -0.375 0.171875q-0.171875 0.09375 -0.296875 0.203125q-0.109375 0.09375 -0.171875 0.140625l-0.421875 -0.59375q0.078125 -0.078125 0.234375 -0.203125q0.171875 -0.140625 0.390625 -0.25q0.234375 -0.125 0.515625 -0.203125q0.28125 -0.078125 0.59375 -0.078125q0.984375 0 1.46875 0.453125q0.5 0.453125 0.5 1.28125zm3.1516876 6.312501l-2.015625 0l0 -0.65625l1.234375 0l0 -7.406251l-1.234375 0l0 -0.65625l2.015625 0l0 8.718751z" fill-rule="nonzero"></path><path fill="#cfe2f3" d="m161.81253 5.094488l52.25197 0l0 14.834646l-52.25197 0z" fill-rule="nonzero"></path><path stroke="#6d9eeb" stroke-width="1.0" stroke-linejoin="round" stroke-linecap="butt" d="m161.81253 5.094488l52.25197 0l0 14.834646l-52.25197 0z" fill-rule="nonzero"></path><path fill="#000000" d="m178.29073 15.362435q0.296875 0 0.53125 0q0.234375 -0.015625 0.390625 -0.0625l0 -1.390625q-0.09375 -0.046875 -0.296875 -0.078125q-0.203125 -0.03125 -0.484375 -0.03125q-0.203125 0 -0.421875 0.03125q-0.203125 0.03125 -0.375 0.125q-0.171875 0.078125 -0.296875 0.234375q-0.109375 0.140625 -0.109375 0.375q0 0.453125 0.28125 0.625q0.296875 0.171875 0.78125 0.171875zm-0.0625 -4.1875q0.5 0 0.84375 0.140625q0.34375 0.125 0.5625 0.359375q0.21875 0.234375 0.296875 0.5625q0.09375 0.328125 0.09375 0.734375l0 2.921875q-0.109375 0.015625 -0.3125 0.046875q-0.1875 0.03125 -0.4375 0.046875q-0.234375 0.031250954 -0.515625 0.046875954q-0.28125 0.03125 -0.5625 0.03125q-0.390625 0 -0.734375 -0.07812595q-0.328125 -0.078125 -0.578125 -0.25q-0.234375 -0.171875 -0.375 -0.453125q-0.125 -0.296875 -0.125 -0.703125q0 -0.390625 0.15625 -0.671875q0.15625 -0.28125 0.421875 -0.453125q0.265625 -0.171875 0.625 -0.25q0.375 -0.078125 0.765625 -0.078125q0.125 0 0.25 0.015625q0.140625 0.015625 0.265625 0.046875q0.125 0.015625 0.203125 0.03125q0.09375 0.015625 0.140625 0.015625l0 -0.234375q0 -0.203125 -0.046875 -0.40625q-0.046875 -0.203125 -0.171875 -0.359375q-0.109375 -0.15625 -0.3125 -0.25q-0.203125 -0.09375 -0.53125 -0.09375q-0.40625 0 -0.71875 0.0625q-0.3125 0.0625 -0.46875 0.125l-0.09375 -0.703125q0.15625 -0.0625 0.53125 -0.125q0.390625 -0.078125 0.828125 -0.078125zm3.494278 -2.25l2.03125 0l0 0.65625l-1.25 0l0 7.406251l1.25 0l0 0.65625l-2.03125 0l0 -8.718751zm3.7720795 7.046875l-0.84375 0l0 -4.6875l0.84375 0l0 4.6875zm-0.421875 -5.53125q-0.234375 0 -0.390625 -0.140625q-0.15625 -0.15625 -0.15625 -0.40625q0 -0.25 0.15625 -0.390625q0.15625 -0.15625 0.390625 -0.15625q0.21875 0 0.375 0.15625q0.15625 0.140625 0.15625 0.390625q0 0.25 -0.15625 0.40625q-0.15625 0.140625 -0.375 0.140625zm1.7037659 2.484375l1.6875 0l0 -1.859375l0.71875 0l0 1.859375l1.703125 0l0 0.703125l-1.703125 0l0 1.859375l-0.71875 0l0 -1.859375l-1.6875 0l0 -0.703125zm6.8079376 2.4375q0.796875 0 1.140625 -0.3125q0.359375 -0.3125 0.359375 -0.84375q0 -0.34375 -0.15625 -0.578125q-0.140625 -0.234375 -0.375 -0.375q-0.234375 -0.140625 -0.546875 -0.203125q-0.296875 -0.0625 -0.625 -0.0625l-0.21875 0l0 -0.671875l0.296875 0q0.234375 0 0.46875 -0.046875q0.234375 -0.046875 0.421875 -0.15625q0.203125 -0.125 0.328125 -0.328125q0.140625 -0.203125 0.140625 -0.515625q0 -0.25 -0.09375 -0.421875q-0.09375 -0.1875 -0.25 -0.296875q-0.140625 -0.125 -0.34375 -0.171875q-0.1875 -0.046875 -0.40625 -0.046875q-0.421875 0 -0.734375 0.125q-0.296875 0.125 -0.5 0.265625l-0.328125 -0.640625q0.109375 -0.078125 0.265625 -0.15625q0.171875 -0.09375 0.375 -0.15625q0.21875 -0.078125 0.453125 -0.125q0.234375 -0.046875 0.5 -0.046875q0.5 0 0.859375 0.125q0.359375 0.109375 0.59375 0.328125q0.234375 0.21875 0.34375 0.53125q0.125 0.296875 0.125 0.640625q0 0.5 -0.28125 0.84375q-0.28125 0.34375 -0.671875 0.515625q0.234375 0.078125 0.453125 0.21875q0.234375 0.125 0.390625 0.34375q0.171875 0.203125 0.28125 0.46875q0.109375 0.265625 0.109375 0.609375q0 0.40625 -0.140625 0.75q-0.140625 0.34375 -0.4375 0.59375q-0.296875 0.25 -0.734375 0.40625q-0.4375 0.14062595 -1.046875 0.14062595q-0.234375 0 -0.484375 -0.046875q-0.234375 -0.03125 -0.453125 -0.09375095q-0.21875 -0.046875 -0.390625 -0.09375q-0.15625 -0.0625 -0.21875 -0.09375l0.15625 -0.734375q0.15625 0.078125 0.5 0.203125q0.359375 0.109375 0.875 0.109375zm5.3235626 2.281251l-2.015625 0l0 -0.65625l1.234375 0l0 -7.406251l-1.234375 0l0 -0.65625l2.015625 0l0 8.718751z" fill-rule="nonzero"></path><path fill="#cfe2f3" d="m214.07463 5.094488l52.25197 0l0 14.834646l-52.25197 0z" fill-rule="nonzero"></path><path stroke="#6d9eeb" stroke-width="1.0" stroke-linejoin="round" stroke-linecap="butt" d="m214.07463 5.094488l52.25197 0l0 14.834646l-52.25197 0z" fill-rule="nonzero"></path><path fill="#000000" d="m230.55283 15.362435q0.296875 0 0.53125 0q0.234375 -0.015625 0.390625 -0.0625l0 -1.390625q-0.09375 -0.046875 -0.296875 -0.078125q-0.203125 -0.03125 -0.484375 -0.03125q-0.203125 0 -0.421875 0.03125q-0.203125 0.03125 -0.375 0.125q-0.171875 0.078125 -0.296875 0.234375q-0.109375 0.140625 -0.109375 0.375q0 0.453125 0.28125 0.625q0.296875 0.171875 0.78125 0.171875zm-0.0625 -4.1875q0.5 0 0.84375 0.140625q0.34375 0.125 0.5625 0.359375q0.21875 0.234375 0.296875 0.5625q0.09375 0.328125 0.09375 0.734375l0 2.921875q-0.109375 0.015625 -0.3125 0.046875q-0.1875 0.03125 -0.4375 0.046875q-0.234375 0.031250954 -0.515625 0.046875954q-0.28125 0.03125 -0.5625 0.03125q-0.390625 0 -0.734375 -0.07812595q-0.328125 -0.078125 -0.578125 -0.25q-0.234375 -0.171875 -0.375 -0.453125q-0.125 -0.296875 -0.125 -0.703125q0 -0.390625 0.15625 -0.671875q0.15625 -0.28125 0.421875 -0.453125q0.265625 -0.171875 0.625 -0.25q0.375 -0.078125 0.765625 -0.078125q0.125 0 0.25 0.015625q0.140625 0.015625 0.265625 0.046875q0.125 0.015625 0.203125 0.03125q0.09375 0.015625 0.140625 0.015625l0 -0.234375q0 -0.203125 -0.046875 -0.40625q-0.046875 -0.203125 -0.171875 -0.359375q-0.109375 -0.15625 -0.3125 -0.25q-0.203125 -0.09375 -0.53125 -0.09375q-0.40625 0 -0.71875 0.0625q-0.3125 0.0625 -0.46875 0.125l-0.09375 -0.703125q0.15625 -0.0625 0.53125 -0.125q0.390625 -0.078125 0.828125 -0.078125zm3.494278 -2.25l2.03125 0l0 0.65625l-1.25 0l0 7.406251l1.25 0l0 0.65625l-2.03125 0l0 -8.718751zm3.7720795 7.046875l-0.84375 0l0 -4.6875l0.84375 0l0 4.6875zm-0.421875 -5.53125q-0.234375 0 -0.390625 -0.140625q-0.15625 -0.15625 -0.15625 -0.40625q0 -0.25 0.15625 -0.390625q0.15625 -0.15625 0.390625 -0.15625q0.21875 0 0.375 0.15625q0.15625 0.140625 0.15625 0.390625q0 0.25 -0.15625 0.40625q-0.15625 0.140625 -0.375 0.140625zm1.7037659 2.484375l1.6875 0l0 -1.859375l0.71875 0l0 1.859375l1.703125 0l0 0.703125l-1.703125 0l0 1.859375l-0.71875 0l0 -1.859375l-1.6875 0l0 -0.703125zm5.1360626 0.890625q0.171875 -0.40625 0.46875 -0.921875q0.296875 -0.53125 0.671875 -1.078125q0.375 -0.5625 0.796875 -1.109375q0.4375 -0.546875 0.859375 -0.96875l0.796875 0l0 3.953125l0.75 0l0 0.6875l-0.75 0l0 1.59375l-0.796875 0l0 -1.59375l-2.796875 0l0 -0.5625zm2.796875 -3.09375q-0.28125 0.296875 -0.5625 0.65625q-0.265625 0.34375 -0.53125 0.734375q-0.25 0.390625 -0.484375 0.796875q-0.234375 0.40625 -0.40625 0.78125l1.984375 0l0 -2.96875zm4.1985626 6.921876l-2.015625 0l0 -0.65625l1.234375 0l0 -7.406251l-1.234375 0l0 -0.65625l2.015625 0l0 8.718751z" fill-rule="nonzero"></path><path fill="#cfe2f3" d="m266.33673 5.094488l52.251953 0l0 14.834646l-52.251953 0z" fill-rule="nonzero"></path><path stroke="#6d9eeb" stroke-width="1.0" stroke-linejoin="round" stroke-linecap="butt" d="m266.33673 5.094488l52.251953 0l0 14.834646l-52.251953 0z" fill-rule="nonzero"></path><path fill="#000000" d="m282.8149 15.362435q0.296875 0 0.53125 0q0.234375 -0.015625 0.390625 -0.0625l0 -1.390625q-0.09375 -0.046875 -0.296875 -0.078125q-0.203125 -0.03125 -0.484375 -0.03125q-0.203125 0 -0.421875 0.03125q-0.203125 0.03125 -0.375 0.125q-0.171875 0.078125 -0.296875 0.234375q-0.109375 0.140625 -0.109375 0.375q0 0.453125 0.28125 0.625q0.296875 0.171875 0.78125 0.171875zm-0.0625 -4.1875q0.5 0 0.84375 0.140625q0.34375 0.125 0.5625 0.359375q0.21875 0.234375 0.296875 0.5625q0.09375 0.328125 0.09375 0.734375l0 2.921875q-0.109375 0.015625 -0.3125 0.046875q-0.1875 0.03125 -0.4375 0.046875q-0.234375 0.031250954 -0.515625 0.046875954q-0.28125 0.03125 -0.5625 0.03125q-0.390625 0 -0.734375 -0.07812595q-0.328125 -0.078125 -0.578125 -0.25q-0.234375 -0.171875 -0.375 -0.453125q-0.125 -0.296875 -0.125 -0.703125q0 -0.390625 0.15625 -0.671875q0.15625 -0.28125 0.421875 -0.453125q0.265625 -0.171875 0.625 -0.25q0.375 -0.078125 0.765625 -0.078125q0.125 0 0.25 0.015625q0.140625 0.015625 0.265625 0.046875q0.125 0.015625 0.203125 0.03125q0.09375 0.015625 0.140625 0.015625l0 -0.234375q0 -0.203125 -0.046875 -0.40625q-0.046875 -0.203125 -0.171875 -0.359375q-0.109375 -0.15625 -0.3125 -0.25q-0.203125 -0.09375 -0.53125 -0.09375q-0.40625 0 -0.71875 0.0625q-0.3125 0.0625 -0.46875 0.125l-0.09375 -0.703125q0.15625 -0.0625 0.53125 -0.125q0.390625 -0.078125 0.828125 -0.078125zm3.4942932 -2.25l2.03125 0l0 0.65625l-1.25 0l0 7.406251l1.25 0l0 0.65625l-2.03125 0l0 -8.718751zm3.7720642 7.046875l-0.84375 0l0 -4.6875l0.84375 0l0 4.6875zm-0.421875 -5.53125q-0.234375 0 -0.390625 -0.140625q-0.15625 -0.15625 -0.15625 -0.40625q0 -0.25 0.15625 -0.390625q0.15625 -0.15625 0.390625 -0.15625q0.21875 0 0.375 0.15625q0.15625 0.140625 0.15625 0.390625q0 0.25 -0.15625 0.40625q-0.15625 0.140625 -0.375 0.140625zm1.7037659 2.484375l1.6875 0l0 -1.859375l0.71875 0l0 1.859375l1.703125 0l0 0.703125l-1.703125 0l0 1.859375l-0.71875 0l0 -1.859375l-1.6875 0l0 -0.703125zm6.573578 -0.78125q1.359375 0.046875 1.984375 0.59375q0.640625 0.53125 0.640625 1.46875q0 0.40625 -0.140625 0.765625q-0.140625 0.34375 -0.421875 0.59375q-0.28125 0.25 -0.71875 0.40625q-0.4375 0.14062595 -1.03125 0.14062595q-0.234375 0 -0.484375 -0.046875q-0.234375 -0.03125 -0.4375 -0.09375095q-0.203125 -0.046875 -0.375 -0.09375q-0.15625 -0.0625 -0.234375 -0.09375l0.171875 -0.734375q0.15625 0.078125 0.5 0.203125q0.34375 0.109375 0.84375 0.109375q0.40625 0 0.671875 -0.09375q0.28125 -0.09375 0.453125 -0.234375q0.171875 -0.15625 0.25 -0.359375q0.078125 -0.203125 0.078125 -0.4375q0 -0.328125 -0.125 -0.59375q-0.109375 -0.265625 -0.40625 -0.453125q-0.296875 -0.1875 -0.796875 -0.28125q-0.484375 -0.09375 -1.25 -0.09375q0.0625 -0.4375 0.09375 -0.8125q0.03125 -0.390625 0.046875 -0.765625q0.03125 -0.375 0.046875 -0.734375q0.015625 -0.359375 0.046875 -0.765625l3.0 0l0 0.703125l-2.28125 0q0 0.140625 -0.03125 0.375q-0.015625 0.21875 -0.03125 0.46875q-0.015625 0.25 -0.03125 0.484375q-0.015625 0.234375 -0.03125 0.375zm5.5579224 5.500001l-2.015625 0l0 -0.65625l1.234375 0l0 -7.406251l-1.234375 0l0 -0.65625l2.015625 0l0 8.718751z" fill-rule="nonzero"></path><path fill="#cfe2f3" d="m318.59882 5.094488l52.251984 0l0 14.834646l-52.251984 0z" fill-rule="nonzero"></path><path stroke="#6d9eeb" stroke-width="1.0" stroke-linejoin="round" stroke-linecap="butt" d="m318.59882 5.094488l52.251984 0l0 14.834646l-52.251984 0z" fill-rule="nonzero"></path><path fill="#000000" d="m335.07703 15.362435q0.296875 0 0.53125 0q0.234375 -0.015625 0.390625 -0.0625l0 -1.390625q-0.09375 -0.046875 -0.296875 -0.078125q-0.203125 -0.03125 -0.484375 -0.03125q-0.203125 0 -0.421875 0.03125q-0.203125 0.03125 -0.375 0.125q-0.171875 0.078125 -0.296875 0.234375q-0.109375 0.140625 -0.109375 0.375q0 0.453125 0.28125 0.625q0.296875 0.171875 0.78125 0.171875zm-0.0625 -4.1875q0.5 0 0.84375 0.140625q0.34375 0.125 0.5625 0.359375q0.21875 0.234375 0.296875 0.5625q0.09375 0.328125 0.09375 0.734375l0 2.921875q-0.109375 0.015625 -0.3125 0.046875q-0.1875 0.03125 -0.4375 0.046875q-0.234375 0.031250954 -0.515625 0.046875954q-0.28125 0.03125 -0.5625 0.03125q-0.390625 0 -0.734375 -0.07812595q-0.328125 -0.078125 -0.578125 -0.25q-0.234375 -0.171875 -0.375 -0.453125q-0.125 -0.296875 -0.125 -0.703125q0 -0.390625 0.15625 -0.671875q0.15625 -0.28125 0.421875 -0.453125q0.265625 -0.171875 0.625 -0.25q0.375 -0.078125 0.765625 -0.078125q0.125 0 0.25 0.015625q0.140625 0.015625 0.265625 0.046875q0.125 0.015625 0.203125 0.03125q0.09375 0.015625 0.140625 0.015625l0 -0.234375q0 -0.203125 -0.046875 -0.40625q-0.046875 -0.203125 -0.171875 -0.359375q-0.109375 -0.15625 -0.3125 -0.25q-0.203125 -0.09375 -0.53125 -0.09375q-0.40625 0 -0.71875 0.0625q-0.3125 0.0625 -0.46875 0.125l-0.09375 -0.703125q0.15625 -0.0625 0.53125 -0.125q0.390625 -0.078125 0.828125 -0.078125zm3.4942627 -2.25l2.03125 0l0 0.65625l-1.25 0l0 7.406251l1.25 0l0 0.65625l-2.03125 0l0 -8.718751zm3.7720947 7.046875l-0.84375 0l0 -4.6875l0.84375 0l0 4.6875zm-0.421875 -5.53125q-0.234375 0 -0.390625 -0.140625q-0.15625 -0.15625 -0.15625 -0.40625q0 -0.25 0.15625 -0.390625q0.15625 -0.15625 0.390625 -0.15625q0.21875 0 0.375 0.15625q0.15625 0.140625 0.15625 0.390625q0 0.25 -0.15625 0.40625q-0.15625 0.140625 -0.375 0.140625zm1.7037659 2.484375l1.6875 0l0 -1.859375l0.71875 0l0 1.859375l1.703125 0l0 0.703125l-1.703125 0l0 1.859375l-0.71875 0l0 -1.859375l-1.6875 0l0 -0.703125zm5.3391724 0.546875q0 -0.90625 0.25 -1.609375q0.265625 -0.703125 0.71875 -1.171875q0.46875 -0.484375 1.125 -0.71875q0.671875 -0.25 1.5 -0.265625l0.0625 0.703125q-0.53125 0.015625 -0.96875 0.125q-0.4375 0.09375 -0.78125 0.328125q-0.34375 0.234375 -0.578125 0.609375q-0.234375 0.375 -0.359375 0.921875q0.234375 -0.109375 0.53125 -0.171875q0.296875 -0.078125 0.609375 -0.078125q0.53125 0 0.890625 0.171875q0.375 0.15625 0.609375 0.421875q0.234375 0.265625 0.328125 0.609375q0.109375 0.34375 0.109375 0.71875q0 0.34375 -0.109375 0.703125q-0.109375 0.359375 -0.359375 0.65625q-0.234375 0.296875 -0.609375 0.5q-0.359375 0.18750095 -0.875 0.18750095q-1.015625 0 -1.5625 -0.70312595q-0.53125 -0.703125 -0.53125 -1.9375zm2.015625 -0.640625q-0.3125 0 -0.578125 0.0625q-0.265625 0.046875 -0.546875 0.171875q0 0.09375 -0.015625 0.203125q0 0.109375 0 0.203125q0 0.390625 0.046875 0.75q0.0625 0.34375 0.203125 0.609375q0.140625 0.265625 0.375 0.421875q0.234375 0.15625 0.59375 0.15625q0.296875 0 0.5 -0.125q0.203125 -0.125 0.34375 -0.3125q0.140625 -0.203125 0.1875 -0.4375q0.0625 -0.234375 0.0625 -0.4375q0 -0.625 -0.296875 -0.9375q-0.28125 -0.328125 -0.875 -0.328125zm4.776703 4.812501l-2.015625 0l0 -0.65625l1.234375 0l0 -7.406251l-1.234375 0l0 -0.65625l2.015625 0l0 8.718751z" fill-rule="nonzero"></path><path fill="#cfe2f3" d="m370.8609 5.094488l52.251953 0l0 14.834646l-52.251953 0z" fill-rule="nonzero"></path><path stroke="#6d9eeb" stroke-width="1.0" stroke-linejoin="round" stroke-linecap="butt" d="m370.8609 5.094488l52.251953 0l0 14.834646l-52.251953 0z" fill-rule="nonzero"></path><path fill="#000000" d="m387.33908 15.362435q0.296875 0 0.53125 0q0.234375 -0.015625 0.390625 -0.0625l0 -1.390625q-0.09375 -0.046875 -0.296875 -0.078125q-0.203125 -0.03125 -0.484375 -0.03125q-0.203125 0 -0.421875 0.03125q-0.203125 0.03125 -0.375 0.125q-0.171875 0.078125 -0.296875 0.234375q-0.109375 0.140625 -0.109375 0.375q0 0.453125 0.28125 0.625q0.296875 0.171875 0.78125 0.171875zm-0.0625 -4.1875q0.5 0 0.84375 0.140625q0.34375 0.125 0.5625 0.359375q0.21875 0.234375 0.296875 0.5625q0.09375 0.328125 0.09375 0.734375l0 2.921875q-0.109375 0.015625 -0.3125 0.046875q-0.1875 0.03125 -0.4375 0.046875q-0.234375 0.031250954 -0.515625 0.046875954q-0.28125 0.03125 -0.5625 0.03125q-0.390625 0 -0.734375 -0.07812595q-0.328125 -0.078125 -0.578125 -0.25q-0.234375 -0.171875 -0.375 -0.453125q-0.125 -0.296875 -0.125 -0.703125q0 -0.390625 0.15625 -0.671875q0.15625 -0.28125 0.421875 -0.453125q0.265625 -0.171875 0.625 -0.25q0.375 -0.078125 0.765625 -0.078125q0.125 0 0.25 0.015625q0.140625 0.015625 0.265625 0.046875q0.125 0.015625 0.203125 0.03125q0.09375 0.015625 0.140625 0.015625l0 -0.234375q0 -0.203125 -0.046875 -0.40625q-0.046875 -0.203125 -0.171875 -0.359375q-0.109375 -0.15625 -0.3125 -0.25q-0.203125 -0.09375 -0.53125 -0.09375q-0.40625 0 -0.71875 0.0625q-0.3125 0.0625 -0.46875 0.125l-0.09375 -0.703125q0.15625 -0.0625 0.53125 -0.125q0.390625 -0.078125 0.828125 -0.078125zm3.4942932 -2.25l2.03125 0l0 0.65625l-1.25 0l0 7.406251l1.25 0l0 0.65625l-2.03125 0l0 -8.718751zm3.7720642 7.046875l-0.84375 0l0 -4.6875l0.84375 0l0 4.6875zm-0.421875 -5.53125q-0.234375 0 -0.390625 -0.140625q-0.15625 -0.15625 -0.15625 -0.40625q0 -0.25 0.15625 -0.390625q0.15625 -0.15625 0.390625 -0.15625q0.21875 0 0.375 0.15625q0.15625 0.140625 0.15625 0.390625q0 0.25 -0.15625 0.40625q-0.15625 0.140625 -0.375 0.140625zm1.7037659 2.484375l1.6875 0l0 -1.859375l0.71875 0l0 1.859375l1.703125 0l0 0.703125l-1.703125 0l0 1.859375l-0.71875 0l0 -1.859375l-1.6875 0l0 -0.703125zm6.245453 3.046875q0.046875 -0.71875 0.25 -1.515625q0.203125 -0.796875 0.5 -1.546875q0.296875 -0.75 0.65625 -1.390625q0.359375 -0.65625 0.703125 -1.0625l-3.03125 0l0 -0.71875l3.96875 0l0 0.6875q-0.296875 0.34375 -0.671875 0.953125q-0.359375 0.59375 -0.671875 1.34375q-0.3125 0.734375 -0.546875 1.578125q-0.234375 0.828125 -0.28125 1.671875l-0.875 0zm5.8860474 1.671876l-2.015625 0l0 -0.65625l1.234375 0l0 -7.406251l-1.234375 0l0 -0.65625l2.015625 0l0 8.718751z" fill-rule="nonzero"></path><path fill="#cfe2f3" d="m5.0262465 19.944588l52.25197 0l0 14.834644l-52.25197 0z" fill-rule="nonzero"></path><path stroke="#6d9eeb" stroke-width="1.0" stroke-linejoin="round" stroke-linecap="butt" d="m5.0262465 19.944588l52.25197 0l0 14.834644l-52.25197 0z" fill-rule="nonzero"></path><path fill="#000000" d="m25.718637 26.35316q0.140625 -0.109375 0.453125 -0.203125q0.3125 -0.109375 0.71875 -0.109375q0.5 0 0.890625 0.1875q0.390625 0.171875 0.65625 0.5q0.28125 0.3125 0.421875 0.765625q0.140625 0.453125 0.140625 0.984375q0 0.578125 -0.171875 1.03125q-0.15625 0.453125 -0.46875 0.765625q-0.3125 0.3125 -0.75 0.484375q-0.421875 0.171875 -0.953125 0.171875q-0.59375 0 -1.046875 -0.078125q-0.4375 -0.078125 -0.734375 -0.171875l0 -6.703125l0.84375 -0.140625l0 2.515625zm0 3.734375q0.125 0.046875 0.34375 0.078125q0.234375 0.03125 0.578125 0.03125q0.671875 0 1.078125 -0.4375q0.40625 -0.453125 0.40625 -1.28125q0 -0.359375 -0.078125 -0.671875q-0.0625 -0.3125 -0.234375 -0.53125q-0.15625 -0.234375 -0.421875 -0.359375q-0.25 -0.140625 -0.609375 -0.140625q-0.34375 0 -0.640625 0.125q-0.28125 0.109375 -0.421875 0.234375l0 2.953125zm4.7911377 -6.3125l2.031248 0l0 0.65625l-1.2499981 0l0 7.40625l1.2499981 0l0 0.65625l-2.031248 0l0 -8.71875zm3.7720776 7.046875l-0.84375 0l0 -4.6875l0.84375 0l0 4.6875zm-0.421875 -5.53125q-0.234375 0 -0.390625 -0.140625q-0.15625 -0.15625 -0.15625 -0.40625q0 -0.25 0.15625 -0.390625q0.15625 -0.15625 0.390625 -0.15625q0.21875 0 0.375 0.15625q0.15625 0.140625 0.15625 0.390625q0 0.25 -0.15625 0.40625q-0.15625 0.140625 -0.375 0.140625zm3.3131409 7.203125l-2.015625 0l0 -0.65625l1.234375 0l0 -7.40625l-1.234375 0l0 -0.65625l2.015625 0l0 8.71875z" fill-rule="nonzero"></path><path fill="#cfe2f3" d="m57.28834 19.944588l52.251972 0l0 14.834644l-52.251972 0z" fill-rule="nonzero"></path><path stroke="#6d9eeb" stroke-width="1.0" stroke-linejoin="round" stroke-linecap="butt" d="m57.28834 19.944588l52.251972 0l0 14.834644l-52.251972 0z" fill-rule="nonzero"></path><path fill="#000000" d="m72.71967 26.35316q0.140625 -0.109375 0.453125 -0.203125q0.3125 -0.109375 0.71875 -0.109375q0.5 0 0.890625 0.1875q0.390625 0.171875 0.65625 0.5q0.28125 0.3125 0.421875 0.765625q0.140625 0.453125 0.140625 0.984375q0 0.578125 -0.171875 1.03125q-0.15625 0.453125 -0.46875 0.765625q-0.3125 0.3125 -0.75 0.484375q-0.421875 0.171875 -0.953125 0.171875q-0.59375 0 -1.046875 -0.078125q-0.4375 -0.078125 -0.734375 -0.171875l0 -6.703125l0.84375 -0.140625l0 2.515625zm0 3.734375q0.125 0.046875 0.34375 0.078125q0.234375 0.03125 0.578125 0.03125q0.671875 0 1.078125 -0.4375q0.40625 -0.453125 0.40625 -1.28125q0 -0.359375 -0.078125 -0.671875q-0.0625 -0.3125 -0.234375 -0.53125q-0.15625 -0.234375 -0.421875 -0.359375q-0.25 -0.140625 -0.609375 -0.140625q-0.34375 0 -0.640625 0.125q-0.28125 0.109375 -0.421875 0.234375l0 2.953125zm4.7911377 -6.3125l2.03125 0l0 0.65625l-1.25 0l0 7.40625l1.25 0l0 0.65625l-2.03125 0l0 -8.71875zm3.7720795 7.046875l-0.84375 0l0 -4.6875l0.84375 0l0 4.6875zm-0.421875 -5.53125q-0.234375 0 -0.390625 -0.140625q-0.15625 -0.15625 -0.15625 -0.40625q0 -0.25 0.15625 -0.390625q0.15625 -0.15625 0.390625 -0.15625q0.21875 0 0.375 0.15625q0.15625 0.140625 0.15625 0.390625q0 0.25 -0.15625 0.40625q-0.15625 0.140625 -0.375 0.140625zm1.7037659 2.484375l1.6875 0l0 -1.859375l0.71875 0l0 1.859375l1.703125 0l0 0.703125l-1.703125 0l0 1.859375l-0.71875 0l0 -1.859375l-1.6875 0l0 -0.703125zm5.6204376 -1.90625q0.5 -0.1875 0.984375 -0.5q0.5 -0.3125 0.90625 -0.78125l0.59375 0l0 6.234375l-0.84375 0l0 -5.078125q-0.109375 0.09375 -0.265625 0.203125q-0.15625 0.109375 -0.34375 0.21875q-0.1875 0.09375 -0.390625 0.1875q-0.203125 0.078125 -0.390625 0.15625l-0.25 -0.640625zm6.5110626 6.625l-2.015625 0l0 -0.65625l1.234375 0l0 -7.40625l-1.234375 0l0 -0.65625l2.015625 0l0 8.71875z" fill-rule="nonzero"></path><path fill="#cfe2f3" d="m109.55044 19.944588l52.25196 0l0 14.834644l-52.25196 0z" fill-rule="nonzero"></path><path stroke="#6d9eeb" stroke-width="1.0" stroke-linejoin="round" stroke-linecap="butt" d="m109.55044 19.944588l52.25196 0l0 14.834644l-52.25196 0z" fill-rule="nonzero"></path><path fill="#000000" d="m124.981766 26.35316q0.140625 -0.109375 0.453125 -0.203125q0.3125 -0.109375 0.71875 -0.109375q0.5 0 0.890625 0.1875q0.390625 0.171875 0.65625 0.5q0.28125 0.3125 0.421875 0.765625q0.140625 0.453125 0.140625 0.984375q0 0.578125 -0.171875 1.03125q-0.15625 0.453125 -0.46875 0.765625q-0.3125 0.3125 -0.75 0.484375q-0.421875 0.171875 -0.953125 0.171875q-0.59375 0 -1.046875 -0.078125q-0.4375 -0.078125 -0.734375 -0.171875l0 -6.703125l0.84375 -0.140625l0 2.515625zm0 3.734375q0.125 0.046875 0.34375 0.078125q0.234375 0.03125 0.578125 0.03125q0.671875 0 1.078125 -0.4375q0.40625 -0.453125 0.40625 -1.28125q0 -0.359375 -0.078125 -0.671875q-0.0625 -0.3125 -0.234375 -0.53125q-0.15625 -0.234375 -0.421875 -0.359375q-0.25 -0.140625 -0.609375 -0.140625q-0.34375 0 -0.640625 0.125q-0.28125 0.109375 -0.421875 0.234375l0 2.953125zm4.7911377 -6.3125l2.03125 0l0 0.65625l-1.25 0l0 7.40625l1.25 0l0 0.65625l-2.03125 0l0 -8.71875zm3.7720795 7.046875l-0.84375 0l0 -4.6875l0.84375 0l0 4.6875zm-0.421875 -5.53125q-0.234375 0 -0.390625 -0.140625q-0.15625 -0.15625 -0.15625 -0.40625q0 -0.25 0.15625 -0.390625q0.15625 -0.15625 0.390625 -0.15625q0.21875 0 0.375 0.15625q0.15625 0.140625 0.15625 0.390625q0 0.25 -0.15625 0.40625q-0.15625 0.140625 -0.375 0.140625zm1.7037659 2.484375l1.6875 0l0 -1.859375l0.71875 0l0 1.859375l1.703125 0l0 0.703125l-1.703125 0l0 1.859375l-0.71875 0l0 -1.859375l-1.6875 0l0 -0.703125zm8.979813 -1.59375q0 0.328125 -0.140625 0.625q-0.125 0.296875 -0.34375 0.59375q-0.203125 0.296875 -0.484375 0.578125q-0.265625 0.28125 -0.53125 0.546875q-0.15625 0.15625 -0.359375 0.359375q-0.203125 0.203125 -0.390625 0.4375q-0.171875 0.21875 -0.296875 0.4375q-0.125 0.203125 -0.125 0.34375l2.875 0l0 0.71875l-3.78125 0q0 -0.046875 0 -0.09375q0 -0.0625 0 -0.109375q0 -0.421875 0.140625 -0.78125q0.140625 -0.375 0.359375 -0.6875q0.21875 -0.328125 0.5 -0.609375q0.28125 -0.296875 0.546875 -0.578125q0.234375 -0.203125 0.4375 -0.40625q0.203125 -0.21875 0.359375 -0.4375q0.15625 -0.21875 0.25 -0.4375q0.09375 -0.21875 0.09375 -0.46875q0 -0.28125 -0.09375 -0.46875q-0.078125 -0.1875 -0.21875 -0.3125q-0.140625 -0.125 -0.34375 -0.1875q-0.1875 -0.0625 -0.40625 -0.0625q-0.265625 0 -0.484375 0.078125q-0.203125 0.078125 -0.375 0.171875q-0.171875 0.09375 -0.296875 0.203125q-0.109375 0.09375 -0.171875 0.140625l-0.421875 -0.59375q0.078125 -0.078125 0.234375 -0.203125q0.171875 -0.140625 0.390625 -0.25q0.234375 -0.125 0.515625 -0.203125q0.28125 -0.078125 0.59375 -0.078125q0.984375 0 1.46875 0.453125q0.5 0.453125 0.5 1.28125zm3.1516876 6.3125l-2.015625 0l0 -0.65625l1.234375 0l0 -7.40625l-1.234375 0l0 -0.65625l2.015625 0l0 8.71875z" fill-rule="nonzero"></path><path fill="#cfe2f3" d="m161.81253 19.944588l52.25197 0l0 14.834644l-52.25197 0z" fill-rule="nonzero"></path><path stroke="#6d9eeb" stroke-width="1.0" stroke-linejoin="round" stroke-linecap="butt" d="m161.81253 19.944588l52.25197 0l0 14.834644l-52.25197 0z" fill-rule="nonzero"></path><path fill="#000000" d="m177.24387 26.35316q0.140625 -0.109375 0.453125 -0.203125q0.3125 -0.109375 0.71875 -0.109375q0.5 0 0.890625 0.1875q0.390625 0.171875 0.65625 0.5q0.28125 0.3125 0.421875 0.765625q0.140625 0.453125 0.140625 0.984375q0 0.578125 -0.171875 1.03125q-0.15625 0.453125 -0.46875 0.765625q-0.3125 0.3125 -0.75 0.484375q-0.421875 0.171875 -0.953125 0.171875q-0.59375 0 -1.046875 -0.078125q-0.4375 -0.078125 -0.734375 -0.171875l0 -6.703125l0.84375 -0.140625l0 2.515625zm0 3.734375q0.125 0.046875 0.34375 0.078125q0.234375 0.03125 0.578125 0.03125q0.671875 0 1.078125 -0.4375q0.40625 -0.453125 0.40625 -1.28125q0 -0.359375 -0.078125 -0.671875q-0.0625 -0.3125 -0.234375 -0.53125q-0.15625 -0.234375 -0.421875 -0.359375q-0.25 -0.140625 -0.609375 -0.140625q-0.34375 0 -0.640625 0.125q-0.28125 0.109375 -0.421875 0.234375l0 2.953125zm4.7911377 -6.3125l2.03125 0l0 0.65625l-1.25 0l0 7.40625l1.25 0l0 0.65625l-2.03125 0l0 -8.71875zm3.7720795 7.046875l-0.84375 0l0 -4.6875l0.84375 0l0 4.6875zm-0.421875 -5.53125q-0.234375 0 -0.390625 -0.140625q-0.15625 -0.15625 -0.15625 -0.40625q0 -0.25 0.15625 -0.390625q0.15625 -0.15625 0.390625 -0.15625q0.21875 0 0.375 0.15625q0.15625 0.140625 0.15625 0.390625q0 0.25 -0.15625 0.40625q-0.15625 0.140625 -0.375 0.140625zm1.7037659 2.484375l1.6875 0l0 -1.859375l0.71875 0l0 1.859375l1.703125 0l0 0.703125l-1.703125 0l0 1.859375l-0.71875 0l0 -1.859375l-1.6875 0l0 -0.703125zm6.8079376 2.4375q0.796875 0 1.140625 -0.3125q0.359375 -0.3125 0.359375 -0.84375q0 -0.34375 -0.15625 -0.578125q-0.140625 -0.234375 -0.375 -0.375q-0.234375 -0.140625 -0.546875 -0.203125q-0.296875 -0.0625 -0.625 -0.0625l-0.21875 0l0 -0.671875l0.296875 0q0.234375 0 0.46875 -0.046875q0.234375 -0.046875 0.421875 -0.15625q0.203125 -0.125 0.328125 -0.328125q0.140625 -0.203125 0.140625 -0.515625q0 -0.25 -0.09375 -0.421875q-0.09375 -0.1875 -0.25 -0.296875q-0.140625 -0.125 -0.34375 -0.171875q-0.1875 -0.046875 -0.40625 -0.046875q-0.421875 0 -0.734375 0.125q-0.296875 0.125 -0.5 0.265625l-0.328125 -0.640625q0.109375 -0.078125 0.265625 -0.15625q0.171875 -0.09375 0.375 -0.15625q0.21875 -0.078125 0.453125 -0.125q0.234375 -0.046875 0.5 -0.046875q0.5 0 0.859375 0.125q0.359375 0.109375 0.59375 0.328125q0.234375 0.21875 0.34375 0.53125q0.125 0.296875 0.125 0.640625q0 0.5 -0.28125 0.84375q-0.28125 0.34375 -0.671875 0.515625q0.234375 0.078125 0.453125 0.21875q0.234375 0.125 0.390625 0.34375q0.171875 0.203125 0.28125 0.46875q0.109375 0.265625 0.109375 0.609375q0 0.40625 -0.140625 0.75q-0.140625 0.34375 -0.4375 0.59375q-0.296875 0.25 -0.734375 0.40625q-0.4375 0.140625 -1.046875 0.140625q-0.234375 0 -0.484375 -0.046875q-0.234375 -0.03125 -0.453125 -0.09375q-0.21875 -0.046875 -0.390625 -0.09375q-0.15625 -0.0625 -0.21875 -0.09375l0.15625 -0.734375q0.15625 0.078125 0.5 0.203125q0.359375 0.109375 0.875 0.109375zm5.3235626 2.28125l-2.015625 0l0 -0.65625l1.234375 0l0 -7.40625l-1.234375 0l0 -0.65625l2.015625 0l0 8.71875z" fill-rule="nonzero"></path><path fill="#cfe2f3" d="m214.07463 19.944588l52.25197 0l0 14.834644l-52.25197 0z" fill-rule="nonzero"></path><path stroke="#6d9eeb" stroke-width="1.0" stroke-linejoin="round" stroke-linecap="butt" d="m214.07463 19.944588l52.25197 0l0 14.834644l-52.25197 0z" fill-rule="nonzero"></path><path fill="#000000" d="m229.50595 26.35316q0.140625 -0.109375 0.453125 -0.203125q0.3125 -0.109375 0.71875 -0.109375q0.5 0 0.890625 0.1875q0.390625 0.171875 0.65625 0.5q0.28125 0.3125 0.421875 0.765625q0.140625 0.453125 0.140625 0.984375q0 0.578125 -0.171875 1.03125q-0.15625 0.453125 -0.46875 0.765625q-0.3125 0.3125 -0.75 0.484375q-0.421875 0.171875 -0.953125 0.171875q-0.59375 0 -1.046875 -0.078125q-0.4375 -0.078125 -0.734375 -0.171875l0 -6.703125l0.84375 -0.140625l0 2.515625zm0 3.734375q0.125 0.046875 0.34375 0.078125q0.234375 0.03125 0.578125 0.03125q0.671875 0 1.078125 -0.4375q0.40625 -0.453125 0.40625 -1.28125q0 -0.359375 -0.078125 -0.671875q-0.0625 -0.3125 -0.234375 -0.53125q-0.15625 -0.234375 -0.421875 -0.359375q-0.25 -0.140625 -0.609375 -0.140625q-0.34375 0 -0.640625 0.125q-0.28125 0.109375 -0.421875 0.234375l0 2.953125zm4.7911377 -6.3125l2.03125 0l0 0.65625l-1.25 0l0 7.40625l1.25 0l0 0.65625l-2.03125 0l0 -8.71875zm3.7720795 7.046875l-0.84375 0l0 -4.6875l0.84375 0l0 4.6875zm-0.421875 -5.53125q-0.234375 0 -0.390625 -0.140625q-0.15625 -0.15625 -0.15625 -0.40625q0 -0.25 0.15625 -0.390625q0.15625 -0.15625 0.390625 -0.15625q0.21875 0 0.375 0.15625q0.15625 0.140625 0.15625 0.390625q0 0.25 -0.15625 0.40625q-0.15625 0.140625 -0.375 0.140625zm1.7037659 2.484375l1.6875 0l0 -1.859375l0.71875 0l0 1.859375l1.703125 0l0 0.703125l-1.703125 0l0 1.859375l-0.71875 0l0 -1.859375l-1.6875 0l0 -0.703125zm5.1360626 0.890625q0.171875 -0.40625 0.46875 -0.921875q0.296875 -0.53125 0.671875 -1.078125q0.375 -0.5625 0.796875 -1.109375q0.4375 -0.546875 0.859375 -0.96875l0.796875 0l0 3.953125l0.75 0l0 0.6875l-0.75 0l0 1.59375l-0.796875 0l0 -1.59375l-2.796875 0l0 -0.5625zm2.796875 -3.09375q-0.28125 0.296875 -0.5625 0.65625q-0.265625 0.34375 -0.53125 0.734375q-0.25 0.390625 -0.484375 0.796875q-0.234375 0.40625 -0.40625 0.78125l1.984375 0l0 -2.96875zm4.1985626 6.921875l-2.015625 0l0 -0.65625l1.234375 0l0 -7.40625l-1.234375 0l0 -0.65625l2.015625 0l0 8.71875z" fill-rule="nonzero"></path><path fill="#cfe2f3" d="m266.33673 19.944588l52.251953 0l0 14.834644l-52.251953 0z" fill-rule="nonzero"></path><path stroke="#6d9eeb" stroke-width="1.0" stroke-linejoin="round" stroke-linecap="butt" d="m266.33673 19.944588l52.251953 0l0 14.834644l-52.251953 0z" fill-rule="nonzero"></path><path fill="#000000" d="m281.76804 26.35316q0.140625 -0.109375 0.453125 -0.203125q0.3125 -0.109375 0.71875 -0.109375q0.5 0 0.890625 0.1875q0.390625 0.171875 0.65625 0.5q0.28125 0.3125 0.421875 0.765625q0.140625 0.453125 0.140625 0.984375q0 0.578125 -0.171875 1.03125q-0.15625 0.453125 -0.46875 0.765625q-0.3125 0.3125 -0.75 0.484375q-0.421875 0.171875 -0.953125 0.171875q-0.59375 0 -1.046875 -0.078125q-0.4375 -0.078125 -0.734375 -0.171875l0 -6.703125l0.84375 -0.140625l0 2.515625zm0 3.734375q0.125 0.046875 0.34375 0.078125q0.234375 0.03125 0.578125 0.03125q0.671875 0 1.078125 -0.4375q0.40625 -0.453125 0.40625 -1.28125q0 -0.359375 -0.078125 -0.671875q-0.0625 -0.3125 -0.234375 -0.53125q-0.15625 -0.234375 -0.421875 -0.359375q-0.25 -0.140625 -0.609375 -0.140625q-0.34375 0 -0.640625 0.125q-0.28125 0.109375 -0.421875 0.234375l0 2.953125zm4.7911377 -6.3125l2.03125 0l0 0.65625l-1.25 0l0 7.40625l1.25 0l0 0.65625l-2.03125 0l0 -8.71875zm3.7720947 7.046875l-0.84375 0l0 -4.6875l0.84375 0l0 4.6875zm-0.421875 -5.53125q-0.234375 0 -0.390625 -0.140625q-0.15625 -0.15625 -0.15625 -0.40625q0 -0.25 0.15625 -0.390625q0.15625 -0.15625 0.390625 -0.15625q0.21875 0 0.375 0.15625q0.15625 0.140625 0.15625 0.390625q0 0.25 -0.15625 0.40625q-0.15625 0.140625 -0.375 0.140625zm1.7037659 2.484375l1.6875 0l0 -1.859375l0.71875 0l0 1.859375l1.703125 0l0 0.703125l-1.703125 0l0 1.859375l-0.71875 0l0 -1.859375l-1.6875 0l0 -0.703125zm6.5735474 -0.78125q1.359375 0.046875 1.984375 0.59375q0.640625 0.53125 0.640625 1.46875q0 0.40625 -0.140625 0.765625q-0.140625 0.34375 -0.421875 0.59375q-0.28125 0.25 -0.71875 0.40625q-0.4375 0.140625 -1.03125 0.140625q-0.234375 0 -0.484375 -0.046875q-0.234375 -0.03125 -0.4375 -0.09375q-0.203125 -0.046875 -0.375 -0.09375q-0.15625 -0.0625 -0.234375 -0.09375l0.171875 -0.734375q0.15625 0.078125 0.5 0.203125q0.34375 0.109375 0.84375 0.109375q0.40625 0 0.671875 -0.09375q0.28125 -0.09375 0.453125 -0.234375q0.171875 -0.15625 0.25 -0.359375q0.078125 -0.203125 0.078125 -0.4375q0 -0.328125 -0.125 -0.59375q-0.109375 -0.265625 -0.40625 -0.453125q-0.296875 -0.1875 -0.796875 -0.28125q-0.484375 -0.09375 -1.25 -0.09375q0.0625 -0.4375 0.09375 -0.8125q0.03125 -0.390625 0.046875 -0.765625q0.03125 -0.375 0.046875 -0.734375q0.015625 -0.359375 0.046875 -0.765625l3.0 0l0 0.703125l-2.28125 0q0 0.140625 -0.03125 0.375q-0.015625 0.21875 -0.03125 0.46875q-0.015625 0.25 -0.03125 0.484375q-0.015625 0.234375 -0.03125 0.375zm5.557953 5.5l-2.015625 0l0 -0.65625l1.234375 0l0 -7.40625l-1.234375 0l0 -0.65625l2.015625 0l0 8.71875z" fill-rule="nonzero"></path><path fill="#cfe2f3" d="m318.59882 19.944588l52.251984 0l0 14.834644l-52.251984 0z" fill-rule="nonzero"></path><path stroke="#6d9eeb" stroke-width="1.0" stroke-linejoin="round" stroke-linecap="butt" d="m318.59882 19.944588l52.251984 0l0 14.834644l-52.251984 0z" fill-rule="nonzero"></path><path fill="#000000" d="m334.03015 26.35316q0.140625 -0.109375 0.453125 -0.203125q0.3125 -0.109375 0.71875 -0.109375q0.5 0 0.890625 0.1875q0.390625 0.171875 0.65625 0.5q0.28125 0.3125 0.421875 0.765625q0.140625 0.453125 0.140625 0.984375q0 0.578125 -0.171875 1.03125q-0.15625 0.453125 -0.46875 0.765625q-0.3125 0.3125 -0.75 0.484375q-0.421875 0.171875 -0.953125 0.171875q-0.59375 0 -1.046875 -0.078125q-0.4375 -0.078125 -0.734375 -0.171875l0 -6.703125l0.84375 -0.140625l0 2.515625zm0 3.734375q0.125 0.046875 0.34375 0.078125q0.234375 0.03125 0.578125 0.03125q0.671875 0 1.078125 -0.4375q0.40625 -0.453125 0.40625 -1.28125q0 -0.359375 -0.078125 -0.671875q-0.0625 -0.3125 -0.234375 -0.53125q-0.15625 -0.234375 -0.421875 -0.359375q-0.25 -0.140625 -0.609375 -0.140625q-0.34375 0 -0.640625 0.125q-0.28125 0.109375 -0.421875 0.234375l0 2.953125zm4.7911377 -6.3125l2.03125 0l0 0.65625l-1.25 0l0 7.40625l1.25 0l0 0.65625l-2.03125 0l0 -8.71875zm3.7720642 7.046875l-0.84375 0l0 -4.6875l0.84375 0l0 4.6875zm-0.421875 -5.53125q-0.234375 0 -0.390625 -0.140625q-0.15625 -0.15625 -0.15625 -0.40625q0 -0.25 0.15625 -0.390625q0.15625 -0.15625 0.390625 -0.15625q0.21875 0 0.375 0.15625q0.15625 0.140625 0.15625 0.390625q0 0.25 -0.15625 0.40625q-0.15625 0.140625 -0.375 0.140625zm1.7037659 2.484375l1.6875 0l0 -1.859375l0.71875 0l0 1.859375l1.703125 0l0 0.703125l-1.703125 0l0 1.859375l-0.71875 0l0 -1.859375l-1.6875 0l0 -0.703125zm5.339203 0.546875q0 -0.90625 0.25 -1.609375q0.265625 -0.703125 0.71875 -1.171875q0.46875 -0.484375 1.125 -0.71875q0.671875 -0.25 1.5 -0.265625l0.0625 0.703125q-0.53125 0.015625 -0.96875 0.125q-0.4375 0.09375 -0.78125 0.328125q-0.34375 0.234375 -0.578125 0.609375q-0.234375 0.375 -0.359375 0.921875q0.234375 -0.109375 0.53125 -0.171875q0.296875 -0.078125 0.609375 -0.078125q0.53125 0 0.890625 0.171875q0.375 0.15625 0.609375 0.421875q0.234375 0.265625 0.328125 0.609375q0.109375 0.34375 0.109375 0.71875q0 0.34375 -0.109375 0.703125q-0.109375 0.359375 -0.359375 0.65625q-0.234375 0.296875 -0.609375 0.5q-0.359375 0.1875 -0.875 0.1875q-1.015625 0 -1.5625 -0.703125q-0.53125 -0.703125 -0.53125 -1.9375zm2.015625 -0.640625q-0.3125 0 -0.578125 0.0625q-0.265625 0.046875 -0.546875 0.171875q0 0.09375 -0.015625 0.203125q0 0.109375 0 0.203125q0 0.390625 0.046875 0.75q0.0625 0.34375 0.203125 0.609375q0.140625 0.265625 0.375 0.421875q0.234375 0.15625 0.59375 0.15625q0.296875 0 0.5 -0.125q0.203125 -0.125 0.34375 -0.3125q0.140625 -0.203125 0.1875 -0.4375q0.0625 -0.234375 0.0625 -0.4375q0 -0.625 -0.296875 -0.9375q-0.28125 -0.328125 -0.875 -0.328125zm4.7766724 4.8125l-2.015625 0l0 -0.65625l1.234375 0l0 -7.40625l-1.234375 0l0 -0.65625l2.015625 0l0 8.71875z" fill-rule="nonzero"></path><path fill="#cfe2f3" d="m370.8609 19.944588l52.251953 0l0 14.834644l-52.251953 0z" fill-rule="nonzero"></path><path stroke="#6d9eeb" stroke-width="1.0" stroke-linejoin="round" stroke-linecap="butt" d="m370.8609 19.944588l52.251953 0l0 14.834644l-52.251953 0z" fill-rule="nonzero"></path><path fill="#000000" d="m386.2922 26.35316q0.140625 -0.109375 0.453125 -0.203125q0.3125 -0.109375 0.71875 -0.109375q0.5 0 0.890625 0.1875q0.390625 0.171875 0.65625 0.5q0.28125 0.3125 0.421875 0.765625q0.140625 0.453125 0.140625 0.984375q0 0.578125 -0.171875 1.03125q-0.15625 0.453125 -0.46875 0.765625q-0.3125 0.3125 -0.75 0.484375q-0.421875 0.171875 -0.953125 0.171875q-0.59375 0 -1.046875 -0.078125q-0.4375 -0.078125 -0.734375 -0.171875l0 -6.703125l0.84375 -0.140625l0 2.515625zm0 3.734375q0.125 0.046875 0.34375 0.078125q0.234375 0.03125 0.578125 0.03125q0.671875 0 1.078125 -0.4375q0.40625 -0.453125 0.40625 -1.28125q0 -0.359375 -0.078125 -0.671875q-0.0625 -0.3125 -0.234375 -0.53125q-0.15625 -0.234375 -0.421875 -0.359375q-0.25 -0.140625 -0.609375 -0.140625q-0.34375 0 -0.640625 0.125q-0.28125 0.109375 -0.421875 0.234375l0 2.953125zm4.7911377 -6.3125l2.03125 0l0 0.65625l-1.25 0l0 7.40625l1.25 0l0 0.65625l-2.03125 0l0 -8.71875zm3.7720947 7.046875l-0.84375 0l0 -4.6875l0.84375 0l0 4.6875zm-0.421875 -5.53125q-0.234375 0 -0.390625 -0.140625q-0.15625 -0.15625 -0.15625 -0.40625q0 -0.25 0.15625 -0.390625q0.15625 -0.15625 0.390625 -0.15625q0.21875 0 0.375 0.15625q0.15625 0.140625 0.15625 0.390625q0 0.25 -0.15625 0.40625q-0.15625 0.140625 -0.375 0.140625zm1.7037659 2.484375l1.6875 0l0 -1.859375l0.71875 0l0 1.859375l1.703125 0l0 0.703125l-1.703125 0l0 1.859375l-0.71875 0l0 -1.859375l-1.6875 0l0 -0.703125zm6.2454224 3.046875q0.046875 -0.71875 0.25 -1.515625q0.203125 -0.796875 0.5 -1.546875q0.296875 -0.75 0.65625 -1.390625q0.359375 -0.65625 0.703125 -1.0625l-3.03125 0l0 -0.71875l3.96875 0l0 0.6875q-0.296875 0.34375 -0.671875 0.953125q-0.359375 0.59375 -0.671875 1.34375q-0.3125 0.734375 -0.546875 1.578125q-0.234375 0.828125 -0.28125 1.671875l-0.875 0zm5.886078 1.671875l-2.015625 0l0 -0.65625l1.234375 0l0 -7.40625l-1.234375 0l0 -0.65625l2.015625 0l0 8.71875z" fill-rule="nonzero"></path><path fill="#cfe2f3" d="m5.0262465 34.79469l52.25197 0l0 14.834644l-52.25197 0z" fill-rule="nonzero"></path><path stroke="#6d9eeb" stroke-width="1.0" stroke-linejoin="round" stroke-linecap="butt" d="m5.0262465 34.79469l52.25197 0l0 14.834644l-52.25197 0z" fill-rule="nonzero"></path><path fill="#000000" d="m31.014467 45.062634q0.296875 0 0.53125 0q0.234375 -0.015625 0.390625 -0.0625l0 -1.390625q-0.09375 -0.046875 -0.296875 -0.078125q-0.203125 -0.03125 -0.484375 -0.03125q-0.203125 0 -0.421875 0.03125q-0.203125 0.03125 -0.375 0.125q-0.171875 0.078125 -0.296875 0.234375q-0.109375 0.140625 -0.109375 0.375q0 0.453125 0.28125 0.625q0.296875 0.171875 0.78125 0.171875zm-0.0625 -4.1875q0.5 0 0.84375 0.140625q0.3437481 0.125 0.5624981 0.359375q0.21875 0.234375 0.296875 0.5625q0.09375 0.328125 0.09375 0.734375l0 2.921875q-0.109375 0.015625 -0.3125 0.046875q-0.1875 0.03125 -0.4374981 0.046875q-0.234375 0.03125 -0.515625 0.046875q-0.28125 0.03125 -0.5625 0.03125q-0.390625 0 -0.734375 -0.078125q-0.328125 -0.078125 -0.578125 -0.25q-0.234375 -0.171875 -0.375 -0.453125q-0.125 -0.296875 -0.125 -0.703125q0 -0.390625 0.15625 -0.671875q0.15625 -0.28125 0.421875 -0.453125q0.265625 -0.171875 0.625 -0.25q0.375 -0.078125 0.765625 -0.078125q0.125 0 0.25 0.015625q0.140625 0.015625 0.265625 0.046875q0.125 0.015625 0.203125 0.03125q0.09375 0.015625 0.140625 0.015625l0 -0.234375q0 -0.203125 -0.046875 -0.40625q-0.046875 -0.203125 -0.171875 -0.359375q-0.109375 -0.15625 -0.3125 -0.25q-0.203125 -0.09375 -0.53125 -0.09375q-0.40625 0 -0.71875 0.0625q-0.3125 0.0625 -0.46875 0.125l-0.09375 -0.703125q0.15625 -0.0625 0.53125 -0.125q0.390625 -0.078125 0.828125 -0.078125z" fill-rule="nonzero"></path><path fill="#cfe2f3" d="m57.28834 34.79469l52.251972 0l0 14.834644l-52.251972 0z" fill-rule="nonzero"></path><path stroke="#6d9eeb" stroke-width="1.0" stroke-linejoin="round" stroke-linecap="butt" d="m57.28834 34.79469l52.251972 0l0 14.834644l-52.251972 0z" fill-rule="nonzero"></path><path fill="#000000" d="m83.276566 45.062634q0.296875 0 0.53125 0q0.234375 -0.015625 0.390625 -0.0625l0 -1.390625q-0.09375 -0.046875 -0.296875 -0.078125q-0.203125 -0.03125 -0.484375 -0.03125q-0.203125 0 -0.421875 0.03125q-0.203125 0.03125 -0.375 0.125q-0.171875 0.078125 -0.296875 0.234375q-0.109375 0.140625 -0.109375 0.375q0 0.453125 0.28125 0.625q0.296875 0.171875 0.78125 0.171875zm-0.0625 -4.1875q0.5 0 0.84375 0.140625q0.34375 0.125 0.5625 0.359375q0.21875 0.234375 0.296875 0.5625q0.09375 0.328125 0.09375 0.734375l0 2.921875q-0.109375 0.015625 -0.3125 0.046875q-0.1875 0.03125 -0.4375 0.046875q-0.234375 0.03125 -0.515625 0.046875q-0.28125 0.03125 -0.5625 0.03125q-0.390625 0 -0.734375 -0.078125q-0.328125 -0.078125 -0.578125 -0.25q-0.234375 -0.171875 -0.375 -0.453125q-0.125 -0.296875 -0.125 -0.703125q0 -0.390625 0.15625 -0.671875q0.15625 -0.28125 0.421875 -0.453125q0.265625 -0.171875 0.625 -0.25q0.375 -0.078125 0.765625 -0.078125q0.125 0 0.25 0.015625q0.140625 0.015625 0.265625 0.046875q0.125 0.015625 0.203125 0.03125q0.09375 0.015625 0.140625 0.015625l0 -0.234375q0 -0.203125 -0.046875 -0.40625q-0.046875 -0.203125 -0.171875 -0.359375q-0.109375 -0.15625 -0.3125 -0.25q-0.203125 -0.09375 -0.53125 -0.09375q-0.40625 0 -0.71875 0.0625q-0.3125 0.0625 -0.46875 0.125l-0.09375 -0.703125q0.15625 -0.0625 0.53125 -0.125q0.390625 -0.078125 0.828125 -0.078125z" fill-rule="nonzero"></path><path fill="#cfe2f3" d="m109.55044 34.79469l52.25196 0l0 14.834644l-52.25196 0z" fill-rule="nonzero"></path><path stroke="#6d9eeb" stroke-width="1.0" stroke-linejoin="round" stroke-linecap="butt" d="m109.55044 34.79469l52.25196 0l0 14.834644l-52.25196 0z" fill-rule="nonzero"></path><path fill="#000000" d="m135.53865 45.062634q0.296875 0 0.53125 0q0.234375 -0.015625 0.390625 -0.0625l0 -1.390625q-0.09375 -0.046875 -0.296875 -0.078125q-0.203125 -0.03125 -0.484375 -0.03125q-0.203125 0 -0.421875 0.03125q-0.203125 0.03125 -0.375 0.125q-0.171875 0.078125 -0.296875 0.234375q-0.109375 0.140625 -0.109375 0.375q0 0.453125 0.28125 0.625q0.296875 0.171875 0.78125 0.171875zm-0.0625 -4.1875q0.5 0 0.84375 0.140625q0.34375 0.125 0.5625 0.359375q0.21875 0.234375 0.296875 0.5625q0.09375 0.328125 0.09375 0.734375l0 2.921875q-0.109375 0.015625 -0.3125 0.046875q-0.1875 0.03125 -0.4375 0.046875q-0.234375 0.03125 -0.515625 0.046875q-0.28125 0.03125 -0.5625 0.03125q-0.390625 0 -0.734375 -0.078125q-0.328125 -0.078125 -0.578125 -0.25q-0.234375 -0.171875 -0.375 -0.453125q-0.125 -0.296875 -0.125 -0.703125q0 -0.390625 0.15625 -0.671875q0.15625 -0.28125 0.421875 -0.453125q0.265625 -0.171875 0.625 -0.25q0.375 -0.078125 0.765625 -0.078125q0.125 0 0.25 0.015625q0.140625 0.015625 0.265625 0.046875q0.125 0.015625 0.203125 0.03125q0.09375 0.015625 0.140625 0.015625l0 -0.234375q0 -0.203125 -0.046875 -0.40625q-0.046875 -0.203125 -0.171875 -0.359375q-0.109375 -0.15625 -0.3125 -0.25q-0.203125 -0.09375 -0.53125 -0.09375q-0.40625 0 -0.71875 0.0625q-0.3125 0.0625 -0.46875 0.125l-0.09375 -0.703125q0.15625 -0.0625 0.53125 -0.125q0.390625 -0.078125 0.828125 -0.078125z" fill-rule="nonzero"></path><path fill="#cfe2f3" d="m161.81253 34.79469l52.25197 0l0 14.834644l-52.25197 0z" fill-rule="nonzero"></path><path stroke="#6d9eeb" stroke-width="1.0" stroke-linejoin="round" stroke-linecap="butt" d="m161.81253 34.79469l52.25197 0l0 14.834644l-52.25197 0z" fill-rule="nonzero"></path><path fill="#000000" d="m187.80075 45.062634q0.296875 0 0.53125 0q0.234375 -0.015625 0.390625 -0.0625l0 -1.390625q-0.09375 -0.046875 -0.296875 -0.078125q-0.203125 -0.03125 -0.484375 -0.03125q-0.203125 0 -0.421875 0.03125q-0.203125 0.03125 -0.375 0.125q-0.171875 0.078125 -0.296875 0.234375q-0.109375 0.140625 -0.109375 0.375q0 0.453125 0.28125 0.625q0.296875 0.171875 0.78125 0.171875zm-0.0625 -4.1875q0.5 0 0.84375 0.140625q0.34375 0.125 0.5625 0.359375q0.21875 0.234375 0.296875 0.5625q0.09375 0.328125 0.09375 0.734375l0 2.921875q-0.109375 0.015625 -0.3125 0.046875q-0.1875 0.03125 -0.4375 0.046875q-0.234375 0.03125 -0.515625 0.046875q-0.28125 0.03125 -0.5625 0.03125q-0.390625 0 -0.734375 -0.078125q-0.328125 -0.078125 -0.578125 -0.25q-0.234375 -0.171875 -0.375 -0.453125q-0.125 -0.296875 -0.125 -0.703125q0 -0.390625 0.15625 -0.671875q0.15625 -0.28125 0.421875 -0.453125q0.265625 -0.171875 0.625 -0.25q0.375 -0.078125 0.765625 -0.078125q0.125 0 0.25 0.015625q0.140625 0.015625 0.265625 0.046875q0.125 0.015625 0.203125 0.03125q0.09375 0.015625 0.140625 0.015625l0 -0.234375q0 -0.203125 -0.046875 -0.40625q-0.046875 -0.203125 -0.171875 -0.359375q-0.109375 -0.15625 -0.3125 -0.25q-0.203125 -0.09375 -0.53125 -0.09375q-0.40625 0 -0.71875 0.0625q-0.3125 0.0625 -0.46875 0.125l-0.09375 -0.703125q0.15625 -0.0625 0.53125 -0.125q0.390625 -0.078125 0.828125 -0.078125z" fill-rule="nonzero"></path><path fill="#cfe2f3" d="m214.07463 34.79469l52.25197 0l0 14.834644l-52.25197 0z" fill-rule="nonzero"></path><path stroke="#6d9eeb" stroke-width="1.0" stroke-linejoin="round" stroke-linecap="butt" d="m214.07463 34.79469l52.25197 0l0 14.834644l-52.25197 0z" fill-rule="nonzero"></path><path fill="#000000" d="m240.06285 45.062634q0.296875 0 0.53125 0q0.234375 -0.015625 0.390625 -0.0625l0 -1.390625q-0.09375 -0.046875 -0.296875 -0.078125q-0.203125 -0.03125 -0.484375 -0.03125q-0.203125 0 -0.421875 0.03125q-0.203125 0.03125 -0.375 0.125q-0.171875 0.078125 -0.296875 0.234375q-0.109375 0.140625 -0.109375 0.375q0 0.453125 0.28125 0.625q0.296875 0.171875 0.78125 0.171875zm-0.0625 -4.1875q0.5 0 0.84375 0.140625q0.34375 0.125 0.5625 0.359375q0.21875 0.234375 0.296875 0.5625q0.09375 0.328125 0.09375 0.734375l0 2.921875q-0.109375 0.015625 -0.3125 0.046875q-0.1875 0.03125 -0.4375 0.046875q-0.234375 0.03125 -0.515625 0.046875q-0.28125 0.03125 -0.5625 0.03125q-0.390625 0 -0.734375 -0.078125q-0.328125 -0.078125 -0.578125 -0.25q-0.234375 -0.171875 -0.375 -0.453125q-0.125 -0.296875 -0.125 -0.703125q0 -0.390625 0.15625 -0.671875q0.15625 -0.28125 0.421875 -0.453125q0.265625 -0.171875 0.625 -0.25q0.375 -0.078125 0.765625 -0.078125q0.125 0 0.25 0.015625q0.140625 0.015625 0.265625 0.046875q0.125 0.015625 0.203125 0.03125q0.09375 0.015625 0.140625 0.015625l0 -0.234375q0 -0.203125 -0.046875 -0.40625q-0.046875 -0.203125 -0.171875 -0.359375q-0.109375 -0.15625 -0.3125 -0.25q-0.203125 -0.09375 -0.53125 -0.09375q-0.40625 0 -0.71875 0.0625q-0.3125 0.0625 -0.46875 0.125l-0.09375 -0.703125q0.15625 -0.0625 0.53125 -0.125q0.390625 -0.078125 0.828125 -0.078125z" fill-rule="nonzero"></path><path fill="#cfe2f3" d="m266.33673 34.79469l52.251953 0l0 14.834644l-52.251953 0z" fill-rule="nonzero"></path><path stroke="#6d9eeb" stroke-width="1.0" stroke-linejoin="round" stroke-linecap="butt" d="m266.33673 34.79469l52.251953 0l0 14.834644l-52.251953 0z" fill-rule="nonzero"></path><path fill="#000000" d="m292.32495 45.062634q0.296875 0 0.53125 0q0.234375 -0.015625 0.390625 -0.0625l0 -1.390625q-0.09375 -0.046875 -0.296875 -0.078125q-0.203125 -0.03125 -0.484375 -0.03125q-0.203125 0 -0.421875 0.03125q-0.203125 0.03125 -0.375 0.125q-0.171875 0.078125 -0.296875 0.234375q-0.109375 0.140625 -0.109375 0.375q0 0.453125 0.28125 0.625q0.296875 0.171875 0.78125 0.171875zm-0.0625 -4.1875q0.5 0 0.84375 0.140625q0.34375 0.125 0.5625 0.359375q0.21875 0.234375 0.296875 0.5625q0.09375 0.328125 0.09375 0.734375l0 2.921875q-0.109375 0.015625 -0.3125 0.046875q-0.1875 0.03125 -0.4375 0.046875q-0.234375 0.03125 -0.515625 0.046875q-0.28125 0.03125 -0.5625 0.03125q-0.390625 0 -0.734375 -0.078125q-0.328125 -0.078125 -0.578125 -0.25q-0.234375 -0.171875 -0.375 -0.453125q-0.125 -0.296875 -0.125 -0.703125q0 -0.390625 0.15625 -0.671875q0.15625 -0.28125 0.421875 -0.453125q0.265625 -0.171875 0.625 -0.25q0.375 -0.078125 0.765625 -0.078125q0.125 0 0.25 0.015625q0.140625 0.015625 0.265625 0.046875q0.125 0.015625 0.203125 0.03125q0.09375 0.015625 0.140625 0.015625l0 -0.234375q0 -0.203125 -0.046875 -0.40625q-0.046875 -0.203125 -0.171875 -0.359375q-0.109375 -0.15625 -0.3125 -0.25q-0.203125 -0.09375 -0.53125 -0.09375q-0.40625 0 -0.71875 0.0625q-0.3125 0.0625 -0.46875 0.125l-0.09375 -0.703125q0.15625 -0.0625 0.53125 -0.125q0.390625 -0.078125 0.828125 -0.078125z" fill-rule="nonzero"></path><path fill="#cfe2f3" d="m318.59882 34.79469l52.251984 0l0 14.834644l-52.251984 0z" fill-rule="nonzero"></path><path stroke="#6d9eeb" stroke-width="1.0" stroke-linejoin="round" stroke-linecap="butt" d="m318.59882 34.79469l52.251984 0l0 14.834644l-52.251984 0z" fill-rule="nonzero"></path><path fill="#000000" d="m344.58704 45.062634q0.296875 0 0.53125 0q0.234375 -0.015625 0.390625 -0.0625l0 -1.390625q-0.09375 -0.046875 -0.296875 -0.078125q-0.203125 -0.03125 -0.484375 -0.03125q-0.203125 0 -0.421875 0.03125q-0.203125 0.03125 -0.375 0.125q-0.171875 0.078125 -0.296875 0.234375q-0.109375 0.140625 -0.109375 0.375q0 0.453125 0.28125 0.625q0.296875 0.171875 0.78125 0.171875zm-0.0625 -4.1875q0.5 0 0.84375 0.140625q0.34375 0.125 0.5625 0.359375q0.21875 0.234375 0.296875 0.5625q0.09375 0.328125 0.09375 0.734375l0 2.921875q-0.109375 0.015625 -0.3125 0.046875q-0.1875 0.03125 -0.4375 0.046875q-0.234375 0.03125 -0.515625 0.046875q-0.28125 0.03125 -0.5625 0.03125q-0.390625 0 -0.734375 -0.078125q-0.328125 -0.078125 -0.578125 -0.25q-0.234375 -0.171875 -0.375 -0.453125q-0.125 -0.296875 -0.125 -0.703125q0 -0.390625 0.15625 -0.671875q0.15625 -0.28125 0.421875 -0.453125q0.265625 -0.171875 0.625 -0.25q0.375 -0.078125 0.765625 -0.078125q0.125 0 0.25 0.015625q0.140625 0.015625 0.265625 0.046875q0.125 0.015625 0.203125 0.03125q0.09375 0.015625 0.140625 0.015625l0 -0.234375q0 -0.203125 -0.046875 -0.40625q-0.046875 -0.203125 -0.171875 -0.359375q-0.109375 -0.15625 -0.3125 -0.25q-0.203125 -0.09375 -0.53125 -0.09375q-0.40625 0 -0.71875 0.0625q-0.3125 0.0625 -0.46875 0.125l-0.09375 -0.703125q0.15625 -0.0625 0.53125 -0.125q0.390625 -0.078125 0.828125 -0.078125z" fill-rule="nonzero"></path><path fill="#cfe2f3" d="m370.8609 34.79469l52.251953 0l0 14.834644l-52.251953 0z" fill-rule="nonzero"></path><path stroke="#6d9eeb" stroke-width="1.0" stroke-linejoin="round" stroke-linecap="butt" d="m370.8609 34.79469l52.251953 0l0 14.834644l-52.251953 0z" fill-rule="nonzero"></path><path fill="#000000" d="m396.84912 45.062634q0.296875 0 0.53125 0q0.234375 -0.015625 0.390625 -0.0625l0 -1.390625q-0.09375 -0.046875 -0.296875 -0.078125q-0.203125 -0.03125 -0.484375 -0.03125q-0.203125 0 -0.421875 0.03125q-0.203125 0.03125 -0.375 0.125q-0.171875 0.078125 -0.296875 0.234375q-0.109375 0.140625 -0.109375 0.375q0 0.453125 0.28125 0.625q0.296875 0.171875 0.78125 0.171875zm-0.0625 -4.1875q0.5 0 0.84375 0.140625q0.34375 0.125 0.5625 0.359375q0.21875 0.234375 0.296875 0.5625q0.09375 0.328125 0.09375 0.734375l0 2.921875q-0.109375 0.015625 -0.3125 0.046875q-0.1875 0.03125 -0.4375 0.046875q-0.234375 0.03125 -0.515625 0.046875q-0.28125 0.03125 -0.5625 0.03125q-0.390625 0 -0.734375 -0.078125q-0.328125 -0.078125 -0.578125 -0.25q-0.234375 -0.171875 -0.375 -0.453125q-0.125 -0.296875 -0.125 -0.703125q0 -0.390625 0.15625 -0.671875q0.15625 -0.28125 0.421875 -0.453125q0.265625 -0.171875 0.625 -0.25q0.375 -0.078125 0.765625 -0.078125q0.125 0 0.25 0.015625q0.140625 0.015625 0.265625 0.046875q0.125 0.015625 0.203125 0.03125q0.09375 0.015625 0.140625 0.015625l0 -0.234375q0 -0.203125 -0.046875 -0.40625q-0.046875 -0.203125 -0.171875 -0.359375q-0.109375 -0.15625 -0.3125 -0.25q-0.203125 -0.09375 -0.53125 -0.09375q-0.40625 0 -0.71875 0.0625q-0.3125 0.0625 -0.46875 0.125l-0.09375 -0.703125q0.15625 -0.0625 0.53125 -0.125q0.390625 -0.078125 0.828125 -0.078125z" fill-rule="nonzero"></path><path fill="#cfe2f3" d="m5.0262465 49.644787l52.25197 0l0 14.834644l-52.25197 0z" fill-rule="nonzero"></path><path stroke="#6d9eeb" stroke-width="1.0" stroke-linejoin="round" stroke-linecap="butt" d="m5.0262465 49.644787l52.25197 0l0 14.834644l-52.25197 0z" fill-rule="nonzero"></path><path fill="#000000" d="m29.9676 56.053356q0.140625 -0.109375 0.453125 -0.203125q0.3125 -0.109375 0.71875 -0.109375q0.5 0 0.8906231 0.1875q0.390625 0.171875 0.65625 0.5q0.28125 0.3125 0.421875 0.765625q0.140625 0.453125 0.140625 0.984375q0 0.578125 -0.171875 1.03125q-0.15625 0.453125 -0.46875 0.765625q-0.3125 0.3125 -0.7499981 0.484375q-0.421875 0.171875 -0.953125 0.171875q-0.59375 0 -1.046875 -0.078125q-0.4375 -0.078125 -0.734375 -0.171875l0 -6.703125l0.84375 -0.140625l0 2.515625zm0 3.734375q0.125 0.046875 0.34375 0.078125q0.234375 0.03125 0.578125 0.03125q0.671875 0 1.078125 -0.4375q0.4062481 -0.453125 0.4062481 -1.28125q0 -0.359375 -0.078125 -0.671875q-0.0625 -0.3125 -0.234375 -0.53125q-0.1562481 -0.234375 -0.4218731 -0.359375q-0.25 -0.140625 -0.609375 -0.140625q-0.34375 0 -0.640625 0.125q-0.28125 0.109375 -0.421875 0.234375l0 2.953125z" fill-rule="nonzero"></path><path fill="#cfe2f3" d="m57.28834 49.644787l52.251972 0l0 14.834644l-52.251972 0z" fill-rule="nonzero"></path><path stroke="#6d9eeb" stroke-width="1.0" stroke-linejoin="round" stroke-linecap="butt" d="m57.28834 49.644787l52.251972 0l0 14.834644l-52.251972 0z" fill-rule="nonzero"></path><path fill="#000000" d="m82.2297 56.053356q0.140625 -0.109375 0.453125 -0.203125q0.3125 -0.109375 0.71875 -0.109375q0.5 0 0.890625 0.1875q0.390625 0.171875 0.65625 0.5q0.28125 0.3125 0.421875 0.765625q0.140625 0.453125 0.140625 0.984375q0 0.578125 -0.171875 1.03125q-0.15625 0.453125 -0.46875 0.765625q-0.3125 0.3125 -0.75 0.484375q-0.421875 0.171875 -0.953125 0.171875q-0.59375 0 -1.046875 -0.078125q-0.4375 -0.078125 -0.734375 -0.171875l0 -6.703125l0.84375 -0.140625l0 2.515625zm0 3.734375q0.125 0.046875 0.34375 0.078125q0.234375 0.03125 0.578125 0.03125q0.671875 0 1.078125 -0.4375q0.40625 -0.453125 0.40625 -1.28125q0 -0.359375 -0.078125 -0.671875q-0.0625 -0.3125 -0.234375 -0.53125q-0.15625 -0.234375 -0.421875 -0.359375q-0.25 -0.140625 -0.609375 -0.140625q-0.34375 0 -0.640625 0.125q-0.28125 0.109375 -0.421875 0.234375l0 2.953125z" fill-rule="nonzero"></path><path fill="#cfe2f3" d="m109.55044 49.644787l52.25196 0l0 14.834644l-52.25196 0z" fill-rule="nonzero"></path><path stroke="#6d9eeb" stroke-width="1.0" stroke-linejoin="round" stroke-linecap="butt" d="m109.55044 49.644787l52.25196 0l0 14.834644l-52.25196 0z" fill-rule="nonzero"></path><path fill="#000000" d="m134.49179 56.053356q0.140625 -0.109375 0.453125 -0.203125q0.3125 -0.109375 0.71875 -0.109375q0.5 0 0.890625 0.1875q0.390625 0.171875 0.65625 0.5q0.28125 0.3125 0.421875 0.765625q0.140625 0.453125 0.140625 0.984375q0 0.578125 -0.171875 1.03125q-0.15625 0.453125 -0.46875 0.765625q-0.3125 0.3125 -0.75 0.484375q-0.421875 0.171875 -0.953125 0.171875q-0.59375 0 -1.046875 -0.078125q-0.4375 -0.078125 -0.734375 -0.171875l0 -6.703125l0.84375 -0.140625l0 2.515625zm0 3.734375q0.125 0.046875 0.34375 0.078125q0.234375 0.03125 0.578125 0.03125q0.671875 0 1.078125 -0.4375q0.40625 -0.453125 0.40625 -1.28125q0 -0.359375 -0.078125 -0.671875q-0.0625 -0.3125 -0.234375 -0.53125q-0.15625 -0.234375 -0.421875 -0.359375q-0.25 -0.140625 -0.609375 -0.140625q-0.34375 0 -0.640625 0.125q-0.28125 0.109375 -0.421875 0.234375l0 2.953125z" fill-rule="nonzero"></path><path fill="#cfe2f3" d="m161.81253 49.644787l52.25197 0l0 14.834644l-52.25197 0z" fill-rule="nonzero"></path><path stroke="#6d9eeb" stroke-width="1.0" stroke-linejoin="round" stroke-linecap="butt" d="m161.81253 49.644787l52.25197 0l0 14.834644l-52.25197 0z" fill-rule="nonzero"></path><path fill="#000000" d="m186.75389 56.053356q0.140625 -0.109375 0.453125 -0.203125q0.3125 -0.109375 0.71875 -0.109375q0.5 0 0.890625 0.1875q0.390625 0.171875 0.65625 0.5q0.28125 0.3125 0.421875 0.765625q0.140625 0.453125 0.140625 0.984375q0 0.578125 -0.171875 1.03125q-0.15625 0.453125 -0.46875 0.765625q-0.3125 0.3125 -0.75 0.484375q-0.421875 0.171875 -0.953125 0.171875q-0.59375 0 -1.046875 -0.078125q-0.4375 -0.078125 -0.734375 -0.171875l0 -6.703125l0.84375 -0.140625l0 2.515625zm0 3.734375q0.125 0.046875 0.34375 0.078125q0.234375 0.03125 0.578125 0.03125q0.671875 0 1.078125 -0.4375q0.40625 -0.453125 0.40625 -1.28125q0 -0.359375 -0.078125 -0.671875q-0.0625 -0.3125 -0.234375 -0.53125q-0.15625 -0.234375 -0.421875 -0.359375q-0.25 -0.140625 -0.609375 -0.140625q-0.34375 0 -0.640625 0.125q-0.28125 0.109375 -0.421875 0.234375l0 2.953125z" fill-rule="nonzero"></path><path fill="#cfe2f3" d="m214.07463 49.644787l52.25197 0l0 14.834644l-52.25197 0z" fill-rule="nonzero"></path><path stroke="#6d9eeb" stroke-width="1.0" stroke-linejoin="round" stroke-linecap="butt" d="m214.07463 49.644787l52.25197 0l0 14.834644l-52.25197 0z" fill-rule="nonzero"></path><path fill="#000000" d="m239.01598 56.053356q0.140625 -0.109375 0.453125 -0.203125q0.3125 -0.109375 0.71875 -0.109375q0.5 0 0.890625 0.1875q0.390625 0.171875 0.65625 0.5q0.28125 0.3125 0.421875 0.765625q0.140625 0.453125 0.140625 0.984375q0 0.578125 -0.171875 1.03125q-0.15625 0.453125 -0.46875 0.765625q-0.3125 0.3125 -0.75 0.484375q-0.421875 0.171875 -0.953125 0.171875q-0.59375 0 -1.046875 -0.078125q-0.4375 -0.078125 -0.734375 -0.171875l0 -6.703125l0.84375 -0.140625l0 2.515625zm0 3.734375q0.125 0.046875 0.34375 0.078125q0.234375 0.03125 0.578125 0.03125q0.671875 0 1.078125 -0.4375q0.40625 -0.453125 0.40625 -1.28125q0 -0.359375 -0.078125 -0.671875q-0.0625 -0.3125 -0.234375 -0.53125q-0.15625 -0.234375 -0.421875 -0.359375q-0.25 -0.140625 -0.609375 -0.140625q-0.34375 0 -0.640625 0.125q-0.28125 0.109375 -0.421875 0.234375l0 2.953125z" fill-rule="nonzero"></path><path fill="#cfe2f3" d="m266.33673 49.644787l52.251953 0l0 14.834644l-52.251953 0z" fill-rule="nonzero"></path><path stroke="#6d9eeb" stroke-width="1.0" stroke-linejoin="round" stroke-linecap="butt" d="m266.33673 49.644787l52.251953 0l0 14.834644l-52.251953 0z" fill-rule="nonzero"></path><path fill="#000000" d="m291.27808 56.053356q0.140625 -0.109375 0.453125 -0.203125q0.3125 -0.109375 0.71875 -0.109375q0.5 0 0.890625 0.1875q0.390625 0.171875 0.65625 0.5q0.28125 0.3125 0.421875 0.765625q0.140625 0.453125 0.140625 0.984375q0 0.578125 -0.171875 1.03125q-0.15625 0.453125 -0.46875 0.765625q-0.3125 0.3125 -0.75 0.484375q-0.421875 0.171875 -0.953125 0.171875q-0.59375 0 -1.046875 -0.078125q-0.4375 -0.078125 -0.734375 -0.171875l0 -6.703125l0.84375 -0.140625l0 2.515625zm0 3.734375q0.125 0.046875 0.34375 0.078125q0.234375 0.03125 0.578125 0.03125q0.671875 0 1.078125 -0.4375q0.40625 -0.453125 0.40625 -1.28125q0 -0.359375 -0.078125 -0.671875q-0.0625 -0.3125 -0.234375 -0.53125q-0.15625 -0.234375 -0.421875 -0.359375q-0.25 -0.140625 -0.609375 -0.140625q-0.34375 0 -0.640625 0.125q-0.28125 0.109375 -0.421875 0.234375l0 2.953125z" fill-rule="nonzero"></path><path fill="#cfe2f3" d="m318.59882 49.644787l52.251984 0l0 14.834644l-52.251984 0z" fill-rule="nonzero"></path><path stroke="#6d9eeb" stroke-width="1.0" stroke-linejoin="round" stroke-linecap="butt" d="m318.59882 49.644787l52.251984 0l0 14.834644l-52.251984 0z" fill-rule="nonzero"></path><path fill="#000000" d="m343.54016 56.053356q0.140625 -0.109375 0.453125 -0.203125q0.3125 -0.109375 0.71875 -0.109375q0.5 0 0.890625 0.1875q0.390625 0.171875 0.65625 0.5q0.28125 0.3125 0.421875 0.765625q0.140625 0.453125 0.140625 0.984375q0 0.578125 -0.171875 1.03125q-0.15625 0.453125 -0.46875 0.765625q-0.3125 0.3125 -0.75 0.484375q-0.421875 0.171875 -0.953125 0.171875q-0.59375 0 -1.046875 -0.078125q-0.4375 -0.078125 -0.734375 -0.171875l0 -6.703125l0.84375 -0.140625l0 2.515625zm0 3.734375q0.125 0.046875 0.34375 0.078125q0.234375 0.03125 0.578125 0.03125q0.671875 0 1.078125 -0.4375q0.40625 -0.453125 0.40625 -1.28125q0 -0.359375 -0.078125 -0.671875q-0.0625 -0.3125 -0.234375 -0.53125q-0.15625 -0.234375 -0.421875 -0.359375q-0.25 -0.140625 -0.609375 -0.140625q-0.34375 0 -0.640625 0.125q-0.28125 0.109375 -0.421875 0.234375l0 2.953125z" fill-rule="nonzero"></path><path fill="#cfe2f3" d="m370.8609 49.644787l52.251953 0l0 14.834644l-52.251953 0z" fill-rule="nonzero"></path><path stroke="#6d9eeb" stroke-width="1.0" stroke-linejoin="round" stroke-linecap="butt" d="m370.8609 49.644787l52.251953 0l0 14.834644l-52.251953 0z" fill-rule="nonzero"></path><path fill="#000000" d="m395.80225 56.053356q0.140625 -0.109375 0.453125 -0.203125q0.3125 -0.109375 0.71875 -0.109375q0.5 0 0.890625 0.1875q0.390625 0.171875 0.65625 0.5q0.28125 0.3125 0.421875 0.765625q0.140625 0.453125 0.140625 0.984375q0 0.578125 -0.171875 1.03125q-0.15625 0.453125 -0.46875 0.765625q-0.3125 0.3125 -0.75 0.484375q-0.421875 0.171875 -0.953125 0.171875q-0.59375 0 -1.046875 -0.078125q-0.4375 -0.078125 -0.734375 -0.171875l0 -6.703125l0.84375 -0.140625l0 2.515625zm0 3.734375q0.125 0.046875 0.34375 0.078125q0.234375 0.03125 0.578125 0.03125q0.671875 0 1.078125 -0.4375q0.40625 -0.453125 0.40625 -1.28125q0 -0.359375 -0.078125 -0.671875q-0.0625 -0.3125 -0.234375 -0.53125q-0.15625 -0.234375 -0.421875 -0.359375q-0.25 -0.140625 -0.609375 -0.140625q-0.34375 0 -0.640625 0.125q-0.28125 0.109375 -0.421875 0.234375l0 2.953125z" fill-rule="nonzero"></path><path fill="#cfe2f3" d="m5.0262465 64.49488l52.25197 0l0 14.834648l-52.25197 0z" fill-rule="nonzero"></path><path stroke="#6d9eeb" stroke-width="1.0" stroke-linejoin="round" stroke-linecap="butt" d="m5.0262465 64.49488l52.25197 0l0 14.834648l-52.25197 0z" fill-rule="nonzero"></path><path fill="#000000" d="m31.534723 75.37221l-0.84375 0l0 -4.6875l0.84375 0l0 4.6875zm-0.421875 -5.53125q-0.234375 0 -0.390625 -0.140625q-0.15625 -0.15625 -0.15625 -0.40625q0 -0.25 0.15625 -0.390625q0.15625 -0.15625 0.390625 -0.15625q0.21875 0 0.375 0.15625q0.15625 0.140625 0.15625 0.390625q0 0.25 -0.15625 0.40625q-0.15625 0.140625 -0.375 0.140625z" fill-rule="nonzero"></path><path fill="#cfe2f3" d="m57.28834 64.49488l52.251972 0l0 14.834648l-52.251972 0z" fill-rule="nonzero"></path><path stroke="#6d9eeb" stroke-width="1.0" stroke-linejoin="round" stroke-linecap="butt" d="m57.28834 64.49488l52.251972 0l0 14.834648l-52.251972 0z" fill-rule="nonzero"></path><path fill="#000000" d="m78.53576 75.37221l-0.84375 0l0 -4.6875l0.84375 0l0 4.6875zm-0.421875 -5.53125q-0.234375 0 -0.390625 -0.140625q-0.15625 -0.15625 -0.15625 -0.40625q0 -0.25 0.15625 -0.390625q0.15625 -0.15625 0.390625 -0.15625q0.21875 0 0.375 0.15625q0.15625 0.140625 0.15625 0.390625q0 0.25 -0.15625 0.40625q-0.15625 0.140625 -0.375 0.140625zm1.7037659 2.484375l1.6875 0l0 -1.859375l0.71875 0l0 1.859375l1.703125 0l0 0.703125l-1.703125 0l0 1.859375l-0.71875 0l0 -1.859375l-1.6875 0l0 -0.703125zm5.6204376 -1.90625q0.5 -0.1875 0.984375 -0.5q0.5 -0.3125 0.90625 -0.78125l0.59375 0l0 6.234375l-0.84375 0l0 -5.078125q-0.109375 0.09375 -0.265625 0.203125q-0.15625 0.109375 -0.34375 0.21875q-0.1875 0.09375 -0.390625 0.1875q-0.203125 0.078125 -0.390625 0.15625l-0.25 -0.640625z" fill-rule="nonzero"></path><path fill="#cfe2f3" d="m109.55044 64.49488l52.25196 0l0 14.834648l-52.25196 0z" fill-rule="nonzero"></path><path stroke="#6d9eeb" stroke-width="1.0" stroke-linejoin="round" stroke-linecap="butt" d="m109.55044 64.49488l52.25196 0l0 14.834648l-52.25196 0z" fill-rule="nonzero"></path><path fill="#000000" d="m130.79785 75.37221l-0.84375 0l0 -4.6875l0.84375 0l0 4.6875zm-0.421875 -5.53125q-0.234375 0 -0.390625 -0.140625q-0.15625 -0.15625 -0.15625 -0.40625q0 -0.25 0.15625 -0.390625q0.15625 -0.15625 0.390625 -0.15625q0.21875 0 0.375 0.15625q0.15625 0.140625 0.15625 0.390625q0 0.25 -0.15625 0.40625q-0.15625 0.140625 -0.375 0.140625zm1.7037659 2.484375l1.6875 0l0 -1.859375l0.71875 0l0 1.859375l1.703125 0l0 0.703125l-1.703125 0l0 1.859375l-0.71875 0l0 -1.859375l-1.6875 0l0 -0.703125zm8.979813 -1.59375q0 0.328125 -0.140625 0.625q-0.125 0.296875 -0.34375 0.59375q-0.203125 0.296875 -0.484375 0.578125q-0.265625 0.28125 -0.53125 0.546875q-0.15625 0.15625 -0.359375 0.359375q-0.203125 0.203125 -0.390625 0.4375q-0.171875 0.21875 -0.296875 0.4375q-0.125 0.203125 -0.125 0.34375l2.875 0l0 0.71875l-3.78125 0q0 -0.046875 0 -0.09375q0 -0.0625 0 -0.109375q0 -0.421875 0.140625 -0.78125q0.140625 -0.375 0.359375 -0.6875q0.21875 -0.328125 0.5 -0.609375q0.28125 -0.296875 0.546875 -0.578125q0.234375 -0.203125 0.4375 -0.40625q0.203125 -0.21875 0.359375 -0.4375q0.15625 -0.21875 0.25 -0.4375q0.09375 -0.21875 0.09375 -0.46875q0 -0.28125 -0.09375 -0.46875q-0.078125 -0.1875 -0.21875 -0.3125q-0.140625 -0.125 -0.34375 -0.1875q-0.1875 -0.0625 -0.40625 -0.0625q-0.265625 0 -0.484375 0.078125q-0.203125 0.078125 -0.375 0.171875q-0.171875 0.09375 -0.296875 0.203125q-0.109375 0.09375 -0.171875 0.140625l-0.421875 -0.59375q0.078125 -0.078125 0.234375 -0.203125q0.171875 -0.140625 0.390625 -0.25q0.234375 -0.125 0.515625 -0.203125q0.28125 -0.078125 0.59375 -0.078125q0.984375 0 1.46875 0.453125q0.5 0.453125 0.5 1.28125z" fill-rule="nonzero"></path><path fill="#cfe2f3" d="m161.81253 64.49488l52.25197 0l0 14.834648l-52.25197 0z" fill-rule="nonzero"></path><path stroke="#6d9eeb" stroke-width="1.0" stroke-linejoin="round" stroke-linecap="butt" d="m161.81253 64.49488l52.25197 0l0 14.834648l-52.25197 0z" fill-rule="nonzero"></path><path fill="#000000" d="m183.05995 75.37221l-0.84375 0l0 -4.6875l0.84375 0l0 4.6875zm-0.421875 -5.53125q-0.234375 0 -0.390625 -0.140625q-0.15625 -0.15625 -0.15625 -0.40625q0 -0.25 0.15625 -0.390625q0.15625 -0.15625 0.390625 -0.15625q0.21875 0 0.375 0.15625q0.15625 0.140625 0.15625 0.390625q0 0.25 -0.15625 0.40625q-0.15625 0.140625 -0.375 0.140625zm1.7037659 2.484375l1.6875 0l0 -1.859375l0.71875 0l0 1.859375l1.703125 0l0 0.703125l-1.703125 0l0 1.859375l-0.71875 0l0 -1.859375l-1.6875 0l0 -0.703125zm6.8079376 2.4375q0.796875 0 1.140625 -0.3125q0.359375 -0.3125 0.359375 -0.84375q0 -0.34375 -0.15625 -0.578125q-0.140625 -0.234375 -0.375 -0.375q-0.234375 -0.140625 -0.546875 -0.203125q-0.296875 -0.0625 -0.625 -0.0625l-0.21875 0l0 -0.671875l0.296875 0q0.234375 0 0.46875 -0.046875q0.234375 -0.046875 0.421875 -0.15625q0.203125 -0.125 0.328125 -0.328125q0.140625 -0.203125 0.140625 -0.515625q0 -0.25 -0.09375 -0.421875q-0.09375 -0.1875 -0.25 -0.296875q-0.140625 -0.125 -0.34375 -0.171875q-0.1875 -0.046875 -0.40625 -0.046875q-0.421875 0 -0.734375 0.125q-0.296875 0.125 -0.5 0.265625l-0.328125 -0.640625q0.109375 -0.078125 0.265625 -0.15625q0.171875 -0.09375 0.375 -0.15625q0.21875 -0.078125 0.453125 -0.125q0.234375 -0.046875 0.5 -0.046875q0.5 0 0.859375 0.125q0.359375 0.109375 0.59375 0.328125q0.234375 0.21875 0.34375 0.53125q0.125 0.296875 0.125 0.640625q0 0.5 -0.28125 0.84375q-0.28125 0.34375 -0.671875 0.515625q0.234375 0.078125 0.453125 0.21875q0.234375 0.125 0.390625 0.34375q0.171875 0.203125 0.28125 0.46875q0.109375 0.265625 0.109375 0.609375q0 0.40625 -0.140625 0.75q-0.140625 0.34375 -0.4375 0.59375q-0.296875 0.25 -0.734375 0.40625q-0.4375 0.140625 -1.046875 0.140625q-0.234375 0 -0.484375 -0.046875q-0.234375 -0.03125 -0.453125 -0.09375q-0.21875 -0.046875 -0.390625 -0.09375q-0.15625 -0.0625 -0.21875 -0.09375l0.15625 -0.734375q0.15625 0.078125 0.5 0.203125q0.359375 0.109375 0.875 0.109375z" fill-rule="nonzero"></path><path fill="#cfe2f3" d="m214.07463 64.49488l52.25197 0l0 14.834648l-52.25197 0z" fill-rule="nonzero"></path><path stroke="#6d9eeb" stroke-width="1.0" stroke-linejoin="round" stroke-linecap="butt" d="m214.07463 64.49488l52.25197 0l0 14.834648l-52.25197 0z" fill-rule="nonzero"></path><path fill="#000000" d="m235.32204 75.37221l-0.84375 0l0 -4.6875l0.84375 0l0 4.6875zm-0.421875 -5.53125q-0.234375 0 -0.390625 -0.140625q-0.15625 -0.15625 -0.15625 -0.40625q0 -0.25 0.15625 -0.390625q0.15625 -0.15625 0.390625 -0.15625q0.21875 0 0.375 0.15625q0.15625 0.140625 0.15625 0.390625q0 0.25 -0.15625 0.40625q-0.15625 0.140625 -0.375 0.140625zm1.7037659 2.484375l1.6875 0l0 -1.859375l0.71875 0l0 1.859375l1.703125 0l0 0.703125l-1.703125 0l0 1.859375l-0.71875 0l0 -1.859375l-1.6875 0l0 -0.703125zm5.1360626 0.890625q0.171875 -0.40625 0.46875 -0.921875q0.296875 -0.53125 0.671875 -1.078125q0.375 -0.5625 0.796875 -1.109375q0.4375 -0.546875 0.859375 -0.96875l0.796875 0l0 3.953125l0.75 0l0 0.6875l-0.75 0l0 1.59375l-0.796875 0l0 -1.59375l-2.796875 0l0 -0.5625zm2.796875 -3.09375q-0.28125 0.296875 -0.5625 0.65625q-0.265625 0.34375 -0.53125 0.734375q-0.25 0.390625 -0.484375 0.796875q-0.234375 0.40625 -0.40625 0.78125l1.984375 0l0 -2.96875z" fill-rule="nonzero"></path><path fill="#cfe2f3" d="m266.33673 64.49488l52.251953 0l0 14.834648l-52.251953 0z" fill-rule="nonzero"></path><path stroke="#6d9eeb" stroke-width="1.0" stroke-linejoin="round" stroke-linecap="butt" d="m266.33673 64.49488l52.251953 0l0 14.834648l-52.251953 0z" fill-rule="nonzero"></path><path fill="#000000" d="m287.58414 75.37221l-0.84375 0l0 -4.6875l0.84375 0l0 4.6875zm-0.421875 -5.53125q-0.234375 0 -0.390625 -0.140625q-0.15625 -0.15625 -0.15625 -0.40625q0 -0.25 0.15625 -0.390625q0.15625 -0.15625 0.390625 -0.15625q0.21875 0 0.375 0.15625q0.15625 0.140625 0.15625 0.390625q0 0.25 -0.15625 0.40625q-0.15625 0.140625 -0.375 0.140625zm1.7037659 2.484375l1.6875 0l0 -1.859375l0.71875 0l0 1.859375l1.703125 0l0 0.703125l-1.703125 0l0 1.859375l-0.71875 0l0 -1.859375l-1.6875 0l0 -0.703125zm6.5735474 -0.78125q1.359375 0.046875 1.984375 0.59375q0.640625 0.53125 0.640625 1.46875q0 0.40625 -0.140625 0.765625q-0.140625 0.34375 -0.421875 0.59375q-0.28125 0.25 -0.71875 0.40625q-0.4375 0.140625 -1.03125 0.140625q-0.234375 0 -0.484375 -0.046875q-0.234375 -0.03125 -0.4375 -0.09375q-0.203125 -0.046875 -0.375 -0.09375q-0.15625 -0.0625 -0.234375 -0.09375l0.171875 -0.734375q0.15625 0.078125 0.5 0.203125q0.34375 0.109375 0.84375 0.109375q0.40625 0 0.671875 -0.09375q0.28125 -0.09375 0.453125 -0.234375q0.171875 -0.15625 0.25 -0.359375q0.078125 -0.203125 0.078125 -0.4375q0 -0.328125 -0.125 -0.59375q-0.109375 -0.265625 -0.40625 -0.453125q-0.296875 -0.1875 -0.796875 -0.28125q-0.484375 -0.09375 -1.25 -0.09375q0.0625 -0.4375 0.09375 -0.8125q0.03125 -0.390625 0.046875 -0.765625q0.03125 -0.375 0.046875 -0.734375q0.015625 -0.359375 0.046875 -0.765625l3.0 0l0 0.703125l-2.28125 0q0 0.140625 -0.03125 0.375q-0.015625 0.21875 -0.03125 0.46875q-0.015625 0.25 -0.03125 0.484375q-0.015625 0.234375 -0.03125 0.375z" fill-rule="nonzero"></path><path fill="#cfe2f3" d="m318.59882 64.49488l52.251984 0l0 14.834648l-52.251984 0z" fill-rule="nonzero"></path><path stroke="#6d9eeb" stroke-width="1.0" stroke-linejoin="round" stroke-linecap="butt" d="m318.59882 64.49488l52.251984 0l0 14.834648l-52.251984 0z" fill-rule="nonzero"></path><path fill="#000000" d="m339.84622 75.37221l-0.84375 0l0 -4.6875l0.84375 0l0 4.6875zm-0.421875 -5.53125q-0.234375 0 -0.390625 -0.140625q-0.15625 -0.15625 -0.15625 -0.40625q0 -0.25 0.15625 -0.390625q0.15625 -0.15625 0.390625 -0.15625q0.21875 0 0.375 0.15625q0.15625 0.140625 0.15625 0.390625q0 0.25 -0.15625 0.40625q-0.15625 0.140625 -0.375 0.140625zm1.7037659 2.484375l1.6875 0l0 -1.859375l0.71875 0l0 1.859375l1.703125 0l0 0.703125l-1.703125 0l0 1.859375l-0.71875 0l0 -1.859375l-1.6875 0l0 -0.703125zm5.339203 0.546875q0 -0.90625 0.25 -1.609375q0.265625 -0.703125 0.71875 -1.171875q0.46875 -0.484375 1.125 -0.71875q0.671875 -0.25 1.5 -0.265625l0.0625 0.703125q-0.53125 0.015625 -0.96875 0.125q-0.4375 0.09375 -0.78125 0.328125q-0.34375 0.234375 -0.578125 0.609375q-0.234375 0.375 -0.359375 0.921875q0.234375 -0.109375 0.53125 -0.171875q0.296875 -0.078125 0.609375 -0.078125q0.53125 0 0.890625 0.171875q0.375 0.15625 0.609375 0.421875q0.234375 0.265625 0.328125 0.609375q0.109375 0.34375 0.109375 0.71875q0 0.34375 -0.109375 0.703125q-0.109375 0.359375 -0.359375 0.65625q-0.234375 0.296875 -0.609375 0.5q-0.359375 0.1875 -0.875 0.1875q-1.015625 0 -1.5625 -0.703125q-0.53125 -0.703125 -0.53125 -1.9375zm2.015625 -0.640625q-0.3125 0 -0.578125 0.0625q-0.265625 0.046875 -0.546875 0.171875q0 0.09375 -0.015625 0.203125q0 0.109375 0 0.203125q0 0.390625 0.046875 0.75q0.0625 0.34375 0.203125 0.609375q0.140625 0.265625 0.375 0.421875q0.234375 0.15625 0.59375 0.15625q0.296875 0 0.5 -0.125q0.203125 -0.125 0.34375 -0.3125q0.140625 -0.203125 0.1875 -0.4375q0.0625 -0.234375 0.0625 -0.4375q0 -0.625 -0.296875 -0.9375q-0.28125 -0.328125 -0.875 -0.328125z" fill-rule="nonzero"></path><path fill="#cfe2f3" d="m370.8609 64.49488l52.251953 0l0 14.834648l-52.251953 0z" fill-rule="nonzero"></path><path stroke="#6d9eeb" stroke-width="1.0" stroke-linejoin="round" stroke-linecap="butt" d="m370.8609 64.49488l52.251953 0l0 14.834648l-52.251953 0z" fill-rule="nonzero"></path><path fill="#000000" d="m392.1083 75.37221l-0.84375 0l0 -4.6875l0.84375 0l0 4.6875zm-0.421875 -5.53125q-0.234375 0 -0.390625 -0.140625q-0.15625 -0.15625 -0.15625 -0.40625q0 -0.25 0.15625 -0.390625q0.15625 -0.15625 0.390625 -0.15625q0.21875 0 0.375 0.15625q0.15625 0.140625 0.15625 0.390625q0 0.25 -0.15625 0.40625q-0.15625 0.140625 -0.375 0.140625zm1.7037659 2.484375l1.6875 0l0 -1.859375l0.71875 0l0 1.859375l1.703125 0l0 0.703125l-1.703125 0l0 1.859375l-0.71875 0l0 -1.859375l-1.6875 0l0 -0.703125zm6.2454224 3.046875q0.046875 -0.71875 0.25 -1.515625q0.203125 -0.796875 0.5 -1.546875q0.296875 -0.75 0.65625 -1.390625q0.359375 -0.65625 0.703125 -1.0625l-3.03125 0l0 -0.71875l3.96875 0l0 0.6875q-0.296875 0.34375 -0.671875 0.953125q-0.359375 0.59375 -0.671875 1.34375q-0.3125 0.734375 -0.546875 1.578125q-0.234375 0.828125 -0.28125 1.671875l-0.875 0z" fill-rule="nonzero"></path><path fill="#cfe2f3" d="m5.0262465 79.34498l52.25197 0l0 14.834648l-52.25197 0z" fill-rule="nonzero"></path><path stroke="#6d9eeb" stroke-width="1.0" stroke-linejoin="round" stroke-linecap="butt" d="m5.0262465 79.34498l52.25197 0l0 14.834648l-52.25197 0z" fill-rule="nonzero"></path><path fill="#000000" d="m29.41327 89.73793q0 0.234375 -0.15625 0.421875q-0.15625 0.171875 -0.4375 0.171875q-0.28125 0 -0.453125 -0.171875q-0.15625 -0.1875 -0.15625 -0.421875q0 -0.25 0.15625 -0.421875q0.171875 -0.1875 0.453125 -0.1875q0.28125 0 0.4375 0.1875q0.15625 0.171875 0.15625 0.421875zm2.2947235 0q0 0.234375 -0.15625 0.421875q-0.15625 0.171875 -0.4375 0.171875q-0.28125 0 -0.453125 -0.171875q-0.15625 -0.1875 -0.15625 -0.421875q0 -0.25 0.15625 -0.421875q0.171875 -0.1875 0.453125 -0.1875q0.28125 0 0.4375 0.1875q0.15625 0.171875 0.15625 0.421875zm2.2947216 0q0 0.234375 -0.15625 0.421875q-0.15625 0.171875 -0.4375 0.171875q-0.28125 0 -0.453125 -0.171875q-0.15625 -0.1875 -0.15625 -0.421875q0 -0.25 0.15625 -0.421875q0.171875 -0.1875 0.453125 -0.1875q0.28125 0 0.4375 0.1875q0.15625 0.171875 0.15625 0.421875z" fill-rule="nonzero"></path><path fill="#cfe2f3" d="m57.28834 79.34498l52.251972 0l0 14.834648l-52.251972 0z" fill-rule="nonzero"></path><path stroke="#6d9eeb" stroke-width="1.0" stroke-linejoin="round" stroke-linecap="butt" d="m57.28834 79.34498l52.251972 0l0 14.834648l-52.251972 0z" fill-rule="nonzero"></path><path fill="#000000" d="m81.67537 89.73793q0 0.234375 -0.15625 0.421875q-0.15625 0.171875 -0.4375 0.171875q-0.28125 0 -0.453125 -0.171875q-0.15625 -0.1875 -0.15625 -0.421875q0 -0.25 0.15625 -0.421875q0.171875 -0.1875 0.453125 -0.1875q0.28125 0 0.4375 0.1875q0.15625 0.171875 0.15625 0.421875zm2.2947235 0q0 0.234375 -0.15625 0.421875q-0.15625 0.171875 -0.4375 0.171875q-0.28125 0 -0.453125 -0.171875q-0.15625 -0.1875 -0.15625 -0.421875q0 -0.25 0.15625 -0.421875q0.171875 -0.1875 0.453125 -0.1875q0.28125 0 0.4375 0.1875q0.15625 0.171875 0.15625 0.421875zm2.2947235 0q0 0.234375 -0.15625 0.421875q-0.15625 0.171875 -0.4375 0.171875q-0.28125 0 -0.453125 -0.171875q-0.15625 -0.1875 -0.15625 -0.421875q0 -0.25 0.15625 -0.421875q0.171875 -0.1875 0.453125 -0.1875q0.28125 0 0.4375 0.1875q0.15625 0.171875 0.15625 0.421875z" fill-rule="nonzero"></path><path fill="#cfe2f3" d="m109.55044 79.34498l52.25196 0l0 14.834648l-52.25196 0z" fill-rule="nonzero"></path><path stroke="#6d9eeb" stroke-width="1.0" stroke-linejoin="round" stroke-linecap="butt" d="m109.55044 79.34498l52.25196 0l0 14.834648l-52.25196 0z" fill-rule="nonzero"></path><path fill="#000000" d="m133.93745 89.73793q0 0.234375 -0.15625 0.421875q-0.15625 0.171875 -0.4375 0.171875q-0.28125 0 -0.453125 -0.171875q-0.15625 -0.1875 -0.15625 -0.421875q0 -0.25 0.15625 -0.421875q0.171875 -0.1875 0.453125 -0.1875q0.28125 0 0.4375 0.1875q0.15625 0.171875 0.15625 0.421875zm2.2947235 0q0 0.234375 -0.15625 0.421875q-0.15625 0.171875 -0.4375 0.171875q-0.28125 0 -0.453125 -0.171875q-0.15625 -0.1875 -0.15625 -0.421875q0 -0.25 0.15625 -0.421875q0.171875 -0.1875 0.453125 -0.1875q0.28125 0 0.4375 0.1875q0.15625 0.171875 0.15625 0.421875zm2.2947235 0q0 0.234375 -0.15625 0.421875q-0.15625 0.171875 -0.4375 0.171875q-0.28125 0 -0.453125 -0.171875q-0.15625 -0.1875 -0.15625 -0.421875q0 -0.25 0.15625 -0.421875q0.171875 -0.1875 0.453125 -0.1875q0.28125 0 0.4375 0.1875q0.15625 0.171875 0.15625 0.421875z" fill-rule="nonzero"></path><path fill="#cfe2f3" d="m161.81253 79.34498l52.25197 0l0 14.834648l-52.25197 0z" fill-rule="nonzero"></path><path stroke="#6d9eeb" stroke-width="1.0" stroke-linejoin="round" stroke-linecap="butt" d="m161.81253 79.34498l52.25197 0l0 14.834648l-52.25197 0z" fill-rule="nonzero"></path><path fill="#000000" d="m186.19955 89.73793q0 0.234375 -0.15625 0.421875q-0.15625 0.171875 -0.4375 0.171875q-0.28125 0 -0.453125 -0.171875q-0.15625 -0.1875 -0.15625 -0.421875q0 -0.25 0.15625 -0.421875q0.171875 -0.1875 0.453125 -0.1875q0.28125 0 0.4375 0.1875q0.15625 0.171875 0.15625 0.421875zm2.2947235 0q0 0.234375 -0.15625 0.421875q-0.15625 0.171875 -0.4375 0.171875q-0.28125 0 -0.453125 -0.171875q-0.15625 -0.1875 -0.15625 -0.421875q0 -0.25 0.15625 -0.421875q0.171875 -0.1875 0.453125 -0.1875q0.28125 0 0.4375 0.1875q0.15625 0.171875 0.15625 0.421875zm2.2947235 0q0 0.234375 -0.15625 0.421875q-0.15625 0.171875 -0.4375 0.171875q-0.28125 0 -0.453125 -0.171875q-0.15625 -0.1875 -0.15625 -0.421875q0 -0.25 0.15625 -0.421875q0.171875 -0.1875 0.453125 -0.1875q0.28125 0 0.4375 0.1875q0.15625 0.171875 0.15625 0.421875z" fill-rule="nonzero"></path><path fill="#cfe2f3" d="m214.07463 79.34498l52.25197 0l0 14.834648l-52.25197 0z" fill-rule="nonzero"></path><path stroke="#6d9eeb" stroke-width="1.0" stroke-linejoin="round" stroke-linecap="butt" d="m214.07463 79.34498l52.25197 0l0 14.834648l-52.25197 0z" fill-rule="nonzero"></path><path fill="#000000" d="m238.46165 89.73793q0 0.234375 -0.15625 0.421875q-0.15625 0.171875 -0.4375 0.171875q-0.28125 0 -0.453125 -0.171875q-0.15625 -0.1875 -0.15625 -0.421875q0 -0.25 0.15625 -0.421875q0.171875 -0.1875 0.453125 -0.1875q0.28125 0 0.4375 0.1875q0.15625 0.171875 0.15625 0.421875zm2.2947235 0q0 0.234375 -0.15625 0.421875q-0.15625 0.171875 -0.4375 0.171875q-0.28125 0 -0.453125 -0.171875q-0.15625 -0.1875 -0.15625 -0.421875q0 -0.25 0.15625 -0.421875q0.171875 -0.1875 0.453125 -0.1875q0.28125 0 0.4375 0.1875q0.15625 0.171875 0.15625 0.421875zm2.2947235 0q0 0.234375 -0.15625 0.421875q-0.15625 0.171875 -0.4375 0.171875q-0.28125 0 -0.453125 -0.171875q-0.15625 -0.1875 -0.15625 -0.421875q0 -0.25 0.15625 -0.421875q0.171875 -0.1875 0.453125 -0.1875q0.28125 0 0.4375 0.1875q0.15625 0.171875 0.15625 0.421875z" fill-rule="nonzero"></path><path fill="#cfe2f3" d="m266.33673 79.34498l52.251953 0l0 14.834648l-52.251953 0z" fill-rule="nonzero"></path><path stroke="#6d9eeb" stroke-width="1.0" stroke-linejoin="round" stroke-linecap="butt" d="m266.33673 79.34498l52.251953 0l0 14.834648l-52.251953 0z" fill-rule="nonzero"></path><path fill="#000000" d="m290.72375 89.73793q0 0.234375 -0.15625 0.421875q-0.15625 0.171875 -0.4375 0.171875q-0.28125 0 -0.453125 -0.171875q-0.15625 -0.1875 -0.15625 -0.421875q0 -0.25 0.15625 -0.421875q0.171875 -0.1875 0.453125 -0.1875q0.28125 0 0.4375 0.1875q0.15625 0.171875 0.15625 0.421875zm2.2947083 0q0 0.234375 -0.15625 0.421875q-0.15625 0.171875 -0.4375 0.171875q-0.28125 0 -0.453125 -0.171875q-0.15625 -0.1875 -0.15625 -0.421875q0 -0.25 0.15625 -0.421875q0.171875 -0.1875 0.453125 -0.1875q0.28125 0 0.4375 0.1875q0.15625 0.171875 0.15625 0.421875zm2.2947388 0q0 0.234375 -0.15625 0.421875q-0.15625 0.171875 -0.4375 0.171875q-0.28125 0 -0.453125 -0.171875q-0.15625 -0.1875 -0.15625 -0.421875q0 -0.25 0.15625 -0.421875q0.171875 -0.1875 0.453125 -0.1875q0.28125 0 0.4375 0.1875q0.15625 0.171875 0.15625 0.421875z" fill-rule="nonzero"></path><path fill="#cfe2f3" d="m318.59882 79.34498l52.251984 0l0 14.834648l-52.251984 0z" fill-rule="nonzero"></path><path stroke="#6d9eeb" stroke-width="1.0" stroke-linejoin="round" stroke-linecap="butt" d="m318.59882 79.34498l52.251984 0l0 14.834648l-52.251984 0z" fill-rule="nonzero"></path><path fill="#000000" d="m342.98584 89.73793q0 0.234375 -0.15625 0.421875q-0.15625 0.171875 -0.4375 0.171875q-0.28125 0 -0.453125 -0.171875q-0.15625 -0.1875 -0.15625 -0.421875q0 -0.25 0.15625 -0.421875q0.171875 -0.1875 0.453125 -0.1875q0.28125 0 0.4375 0.1875q0.15625 0.171875 0.15625 0.421875zm2.2947388 0q0 0.234375 -0.15625 0.421875q-0.15625 0.171875 -0.4375 0.171875q-0.28125 0 -0.453125 -0.171875q-0.15625 -0.1875 -0.15625 -0.421875q0 -0.25 0.15625 -0.421875q0.171875 -0.1875 0.453125 -0.1875q0.28125 0 0.4375 0.1875q0.15625 0.171875 0.15625 0.421875zm2.2947083 0q0 0.234375 -0.15625 0.421875q-0.15625 0.171875 -0.4375 0.171875q-0.28125 0 -0.453125 -0.171875q-0.15625 -0.1875 -0.15625 -0.421875q0 -0.25 0.15625 -0.421875q0.171875 -0.1875 0.453125 -0.1875q0.28125 0 0.4375 0.1875q0.15625 0.171875 0.15625 0.421875z" fill-rule="nonzero"></path><path fill="#cfe2f3" d="m370.8609 79.34498l52.251953 0l0 14.834648l-52.251953 0z" fill-rule="nonzero"></path><path stroke="#6d9eeb" stroke-width="1.0" stroke-linejoin="round" stroke-linecap="butt" d="m370.8609 79.34498l52.251953 0l0 14.834648l-52.251953 0z" fill-rule="nonzero"></path><path fill="#000000" d="m395.24792 89.73793q0 0.234375 -0.15625 0.421875q-0.15625 0.171875 -0.4375 0.171875q-0.28125 0 -0.453125 -0.171875q-0.15625 -0.1875 -0.15625 -0.421875q0 -0.25 0.15625 -0.421875q0.171875 -0.1875 0.453125 -0.1875q0.28125 0 0.4375 0.1875q0.15625 0.171875 0.15625 0.421875zm2.2947083 0q0 0.234375 -0.15625 0.421875q-0.15625 0.171875 -0.4375 0.171875q-0.28125 0 -0.453125 -0.171875q-0.15625 -0.1875 -0.15625 -0.421875q0 -0.25 0.15625 -0.421875q0.171875 -0.1875 0.453125 -0.1875q0.28125 0 0.4375 0.1875q0.15625 0.171875 0.15625 0.421875zm2.2947388 0q0 0.234375 -0.15625 0.421875q-0.15625 0.171875 -0.4375 0.171875q-0.28125 0 -0.453125 -0.171875q-0.15625 -0.1875 -0.15625 -0.421875q0 -0.25 0.15625 -0.421875q0.171875 -0.1875 0.453125 -0.1875q0.28125 0 0.4375 0.1875q0.15625 0.171875 0.15625 0.421875z" fill-rule="nonzero"></path></g></svg>

