<?xml version="1.0" standalone="yes"?>

<svg version="1.1" viewBox="0.0 0.0 1014.0 383.0" fill="none" stroke="none" stroke-linecap="square" stroke-miterlimit="10" xmlns="http://www.w3.org/2000/svg" xmlns:xlink="http://www.w3.org/1999/xlink"><clipPath id="p.0"><path d="m0 0l1014.0 0l0 383.0l-1014.0 0l0 -383.0z" clip-rule="nonzero"></path></clipPath><g clip-path="url(#p.0)"><path fill="#000000" fill-opacity="0.0" d="m0 0l1014.73755 0l0 383.15747l-1014.73755 0z" fill-rule="nonzero"></path><path fill="#000000" fill-opacity="0.0" d="m52.631886 42.874016c7.19685 17.34602 45.94882 70.39895 43.181103 104.07612c-2.7677155 33.67717 -56.650482 66.33989 -59.7874 97.98688c-3.136921 31.646973 34.13823 76.57916 40.965874 91.89502" fill-rule="nonzero"></path><path stroke="#00ff00" stroke-width="4.0" stroke-linejoin="round" stroke-linecap="butt" d="m52.631886 42.874016c7.19685 17.34602 45.948826 70.39895 43.18111 104.07612c-2.767723 33.67717 -56.65049 66.33989 -59.787407 97.98688c-1.5684586 15.823486 6.966095 34.96826 16.746223 52.071686c2.445034 4.2758484 4.9679146 8.424103 7.4302444 12.360992c1.2311668 1.9684448 2.447197 3.8840332 3.630783 5.736328l0.75562286 1.1793213" fill-rule="evenodd"></path><path stroke="#00ff00" stroke-width="4.0" stroke-linecap="butt" d="m58.932198 319.69977l15.03727 12.126038l-3.724739 -18.954865z" fill-rule="evenodd"></path><path fill="#000000" fill-opacity="0.0" d="m84.63189 42.874016c7.196846 17.34602 45.948814 70.39895 43.1811 104.07612c-2.7677155 33.67717 -56.650482 66.33989 -59.7874 97.98688c-3.1369247 31.646973 34.13823 76.57916 40.965874 91.89502" fill-rule="nonzero"></path><path stroke="#00ff00" stroke-width="4.0" stroke-linejoin="round" stroke-linecap="butt" d="m84.63188 42.874016c7.1968613 17.34602 45.948822 70.39895 43.181114 104.07612c-2.767723 33.67717 -56.65049 66.33989 -59.787407 97.98688c-1.5684662 15.823486 6.966095 34.96826 16.746223 52.071686c2.4450302 4.2758484 4.967911 8.424103 7.4302444 12.360992c1.2311707 1.9684448 2.4471893 3.8840332 3.630783 5.736328l0.75562286 1.1793213" fill-rule="evenodd"></path><path stroke="#00ff00" stroke-width="4.0" stroke-linecap="butt" d="m90.9322 319.69977l15.037277 12.126038l-3.7247467 -18.954865z" fill-rule="evenodd"></path><path fill="#000000" fill-opacity="0.0" d="m116.63189 42.874016c7.196846 17.34602 45.948814 70.39895 43.1811 104.07612c-2.7677155 33.67717 -56.650482 66.33989 -59.7874 97.98688c-3.1369247 31.646973 34.13823 76.57916 40.96588 91.89502" fill-rule="nonzero"></path><path stroke="#00ff00" stroke-width="4.0" stroke-linejoin="round" stroke-linecap="butt" d="m116.63189 42.874016c7.1968536 17.34602 45.948814 70.39895 43.1811 104.07612c-2.7677155 33.67717 -56.650482 66.33989 -59.7874 97.98688c-1.5684662 15.823486 6.966095 34.96826 16.746231 52.071686c2.4450226 4.2758484 4.967903 8.424103 7.430237 12.360992c1.2311707 1.9684448 2.4471893 3.8840332 3.630783 5.736328l0.7556305 1.1793213" fill-rule="evenodd"></path><path stroke="#00ff00" stroke-width="4.0" stroke-linecap="butt" d="m122.9322 319.69977l15.03727 12.126038l-3.7247314 -18.954865z" fill-rule="evenodd"></path><path fill="#000000" fill-opacity="0.0" d="m148.63188 42.874016c7.1968536 17.34602 45.948822 70.39895 43.181107 104.07612c-2.7677155 33.67717 -56.650482 66.33989 -59.7874 97.98688c-3.136917 31.646973 34.13823 76.57916 40.96588 91.89502" fill-rule="nonzero"></path><path stroke="#00ff00" stroke-width="4.0" stroke-linejoin="round" stroke-linecap="butt" d="m148.6319 42.874016c7.1968384 17.34602 45.948807 70.39895 43.18109 104.07612c-2.7677155 33.67717 -56.650482 66.33989 -59.7874 97.98688c-1.5684662 15.823486 6.966095 34.96826 16.746231 52.071686c2.4450226 4.2758484 4.967911 8.424103 7.430237 12.360992c1.2311707 1.9684448 2.4471893 3.8840332 3.630783 5.736328l0.7556305 1.1793213" fill-rule="evenodd"></path><path stroke="#00ff00" stroke-width="4.0" stroke-linecap="butt" d="m154.9322 319.69977l15.037262 12.126038l-3.7247314 -18.954865z" fill-rule="evenodd"></path><path fill="#000000" fill-opacity="0.0" d="m180.63188 42.874016c7.1968536 17.34602 45.948822 70.39895 43.181107 104.07612c-2.7677155 33.67717 -56.650482 66.33989 -59.7874 97.98688c-3.136917 31.646973 34.13823 76.57916 40.96588 91.89502" fill-rule="nonzero"></path><path stroke="#00ff00" stroke-width="4.0" stroke-linejoin="round" stroke-linecap="butt" d="m180.6319 42.874016c7.1968384 17.34602 45.948807 70.39895 43.18109 104.07612c-2.7677155 33.67717 -56.650482 66.33989 -59.7874 97.98688c-1.5684662 15.823486 6.966095 34.96826 16.746231 52.071686c2.4450226 4.2758484 4.967911 8.424103 7.430237 12.360992c1.2311554 1.9684448 2.4472046 3.8840332 3.630783 5.736328l0.75561523 1.1793213" fill-rule="evenodd"></path><path stroke="#00ff00" stroke-width="4.0" stroke-linecap="butt" d="m186.9322 319.69977l15.037262 12.126038l-3.7247314 -18.954865z" fill-rule="evenodd"></path><path fill="#000000" fill-opacity="0.0" d="m212.63188 42.874016c7.1968536 17.34602 45.948837 70.39895 43.181107 104.07612c-2.7677155 33.67717 -56.650482 66.33989 -59.7874 97.98688c-3.136917 31.646973 34.13823 76.57916 40.96588 91.89502" fill-rule="nonzero"></path><path stroke="#00ff00" stroke-width="4.0" stroke-linejoin="round" stroke-linecap="butt" d="m212.6319 42.874016c7.1968384 17.34602 45.948822 70.39895 43.18109 104.07612c-2.7677155 33.67717 -56.650482 66.33989 -59.7874 97.98688c-1.5684509 15.823486 6.96611 34.96826 16.746231 52.071686c2.4450226 4.2758484 4.967911 8.424103 7.430237 12.360992c1.2311707 1.9684448 2.4472046 3.8840332 3.630783 5.736328l0.75561523 1.1793213" fill-rule="evenodd"></path><path stroke="#00ff00" stroke-width="4.0" stroke-linecap="butt" d="m218.9322 319.69977l15.037262 12.126038l-3.7247314 -18.954865z" fill-rule="evenodd"></path><path fill="#000000" fill-opacity="0.0" d="m244.63188 42.874016c7.1968536 17.34602 45.948837 70.39895 43.181107 104.07612c-2.7677307 33.67717 -56.650482 66.33989 -59.7874 97.98688c-3.136917 31.646973 34.13823 76.57916 40.965866 91.89502" fill-rule="nonzero"></path><path stroke="#00ff00" stroke-width="4.0" stroke-linejoin="round" stroke-linecap="butt" d="m244.6319 42.874016c7.1968384 17.34602 45.948822 70.39895 43.18109 104.07612c-2.7677002 33.67717 -56.650482 66.33989 -59.7874 97.98688c-1.5684509 15.823486 6.96611 34.96826 16.746231 52.071686c2.4450226 4.2758484 4.967911 8.424103 7.430237 12.360992c1.2311707 1.9684448 2.4472046 3.8840332 3.630783 5.736328l0.7556305 1.1793213" fill-rule="evenodd"></path><path stroke="#00ff00" stroke-width="4.0" stroke-linecap="butt" d="m250.9322 319.69977l15.037277 12.126038l-3.724762 -18.954865z" fill-rule="evenodd"></path><path fill="#000000" fill-opacity="0.0" d="m276.6319 42.874016c7.1968384 17.34602 45.948822 70.39895 43.18109 104.07612c-2.7677307 33.67717 -56.650482 66.33989 -59.787415 97.98688c-3.1369019 31.646973 34.138245 76.57916 40.96588 91.89502" fill-rule="nonzero"></path><path stroke="#00ff00" stroke-width="4.0" stroke-linejoin="round" stroke-linecap="butt" d="m276.6319 42.874016c7.1968384 17.34602 45.948822 70.39895 43.18109 104.07612c-2.7677002 33.67717 -56.650482 66.33989 -59.787384 97.98688c-1.5684509 15.823486 6.966095 34.96826 16.746216 52.071686c2.4450378 4.2758484 4.9678955 8.424103 7.430237 12.360992c1.2311707 1.9684448 2.4472046 3.8840332 3.6307983 5.736328l0.75561523 1.1793213" fill-rule="evenodd"></path><path stroke="#00ff00" stroke-width="4.0" stroke-linecap="butt" d="m282.9322 319.69977l15.0372925 12.126038l-3.724762 -18.954865z" fill-rule="evenodd"></path><path fill="#000000" fill-opacity="0.0" d="m372.6319 42.874016c7.1968384 17.34602 45.948822 70.39895 43.18109 104.07612c-2.7677307 33.67717 -56.650482 66.33989 -59.787415 97.98688c-3.1369019 31.646973 34.138245 76.57916 40.96588 91.89502" fill-rule="nonzero"></path><path stroke="#00ff00" stroke-width="4.0" stroke-linejoin="round" stroke-linecap="butt" d="m372.6319 42.874016c7.1968384 17.34602 45.948822 70.39895 43.18109 104.07612c-2.7677002 33.67717 -56.65045 66.33989 -59.787384 97.98688c-1.568512 15.823486 6.9660645 34.96826 16.746216 52.071686c2.4450378 4.2758484 4.967926 8.424103 7.430237 12.360992c1.2311707 1.9684448 2.447235 3.8840332 3.6307983 5.736328l0.75561523 1.1793213" fill-rule="evenodd"></path><path stroke="#00ff00" stroke-width="4.0" stroke-linecap="butt" d="m378.9322 319.69977l15.0372925 12.126038l-3.7247314 -18.954865z" fill-rule="evenodd"></path><path fill="#000000" fill-opacity="0.0" d="m404.6319 42.874016c7.1968384 17.34602 45.948822 70.39895 43.18109 104.07612c-2.7677307 33.67717 -56.650482 66.33989 -59.787415 97.98688c-3.1369019 31.646973 34.138245 76.57916 40.96588 91.89502" fill-rule="nonzero"></path><path stroke="#00ff00" stroke-width="4.0" stroke-linejoin="round" stroke-linecap="butt" d="m404.6319 42.874016c7.1968384 17.34602 45.948822 70.39895 43.18109 104.07612c-2.7677002 33.67717 -56.65045 66.33989 -59.787384 97.98688c-1.568512 15.823486 6.9660645 34.96826 16.746216 52.071686c2.4450378 4.2758484 4.967926 8.424103 7.430237 12.360992c1.2311707 1.9684448 2.447235 3.8840332 3.6307983 5.736328l0.75561523 1.1793213" fill-rule="evenodd"></path><path stroke="#00ff00" stroke-width="4.0" stroke-linecap="butt" d="m410.9322 319.69977l15.0372925 12.126038l-3.7247314 -18.954865z" fill-rule="evenodd"></path><path fill="#000000" fill-opacity="0.0" d="m436.6319 42.874016c7.1968384 17.34602 45.948822 70.39895 43.18109 104.07612c-2.7677307 33.67717 -56.650482 66.33989 -59.787415 97.98688c-3.1369019 31.646973 34.138245 76.57916 40.96588 91.89502" fill-rule="nonzero"></path><path stroke="#00ff00" stroke-width="4.0" stroke-linejoin="round" stroke-linecap="butt" d="m436.6319 42.874016c7.1968384 17.34602 45.948822 70.39895 43.18109 104.07612c-2.7677002 33.67717 -56.65045 66.33989 -59.787384 97.98688c-1.568512 15.823486 6.9660645 34.96826 16.746216 52.071686c2.4450378 4.2758484 4.967926 8.424103 7.430237 12.360992c1.2311707 1.9684448 2.447235 3.8840332 3.6307983 5.736328l0.75561523 1.1793213" fill-rule="evenodd"></path><path stroke="#00ff00" stroke-width="4.0" stroke-linecap="butt" d="m442.9322 319.69977l15.0372925 12.126038l-3.7247314 -18.954865z" fill-rule="evenodd"></path><path fill="#000000" fill-opacity="0.0" d="m468.6319 42.874016c7.1968384 17.34602 45.94879 70.39895 43.18109 104.07612c-2.7677307 33.67717 -56.650482 66.33989 -59.787415 97.98688c-3.1369019 31.646973 34.138245 76.57916 40.96588 91.89502" fill-rule="nonzero"></path><path stroke="#00ff00" stroke-width="4.0" stroke-linejoin="round" stroke-linecap="butt" d="m468.6319 42.874016c7.1968384 17.34602 45.94879 70.39895 43.18109 104.07612c-2.7677002 33.67717 -56.65045 66.33989 -59.787384 97.98688c-1.568512 15.823486 6.9660645 34.96826 16.746216 52.071686c2.4450378 4.2758484 4.967926 8.424103 7.430237 12.360992c1.2311707 1.9684448 2.447235 3.8840332 3.6307983 5.736328l0.75561523 1.1793213" fill-rule="evenodd"></path><path stroke="#00ff00" stroke-width="4.0" stroke-linecap="butt" d="m474.9322 319.69977l15.0372925 12.126038l-3.7247314 -18.954865z" fill-rule="evenodd"></path><path fill="#000000" fill-opacity="0.0" d="m500.6319 42.874016c7.1968384 17.34602 45.94879 70.39895 43.18109 104.07612c-2.7677002 33.67717 -56.650482 66.33989 -59.787415 97.98688c-3.1369019 31.646973 34.138245 76.57916 40.96588 91.89502" fill-rule="nonzero"></path><path stroke="#00ff00" stroke-width="4.0" stroke-linejoin="round" stroke-linecap="butt" d="m500.6319 42.874016c7.1968384 17.34602 45.94879 70.39895 43.18109 104.07612c-2.7677002 33.67717 -56.65045 66.33989 -59.787384 97.98688c-1.568512 15.823486 6.9660645 34.96826 16.746216 52.071686c2.4450378 4.2758484 4.967926 8.424103 7.430237 12.360992c1.2311707 1.9684448 2.447235 3.8840332 3.6307983 5.736328l0.7555847 1.1793213" fill-rule="evenodd"></path><path stroke="#00ff00" stroke-width="4.0" stroke-linecap="butt" d="m506.9322 319.69977l15.0372925 12.126038l-3.7247314 -18.954865z" fill-rule="evenodd"></path><path fill="#000000" fill-opacity="0.0" d="m532.6319 42.874016c7.1968384 17.34602 45.94879 70.39895 43.18109 104.07612c-2.7677002 33.67717 -56.65045 66.33989 -59.787415 97.98688c-3.1369019 31.646973 34.138245 76.57916 40.96588 91.89502" fill-rule="nonzero"></path><path stroke="#00ff00" stroke-width="4.0" stroke-linejoin="round" stroke-linecap="butt" d="m532.6319 42.874016c7.1968384 17.34602 45.94879 70.39895 43.18109 104.07612c-2.7677002 33.67717 -56.65045 66.33989 -59.787415 97.98688c-1.5684814 15.823486 6.9661255 34.96826 16.746216 52.071686c2.4450684 4.2758484 4.9679565 8.424103 7.430298 12.360992c1.2311401 1.9684448 2.4472046 3.8840332 3.6307373 5.736328l0.75561523 1.1793213" fill-rule="evenodd"></path><path stroke="#00ff00" stroke-width="4.0" stroke-linecap="butt" d="m538.9322 319.69977l15.0372925 12.126038l-3.7247314 -18.954865z" fill-rule="evenodd"></path><path fill="#000000" fill-opacity="0.0" d="m564.6319 42.874016c7.1968384 17.34602 45.94879 70.39895 43.18109 104.07612c-2.7677002 33.67717 -56.65045 66.33989 -59.787415 97.98688c-3.1369019 31.646973 34.138245 76.57916 40.96588 91.89502" fill-rule="nonzero"></path><path stroke="#00ff00" stroke-width="4.0" stroke-linejoin="round" stroke-linecap="butt" d="m564.6319 42.874016c7.1968384 17.34602 45.94879 70.39895 43.18109 104.07612c-2.7677002 33.67717 -56.65045 66.33989 -59.787415 97.98688c-1.5684814 15.823486 6.9661255 34.96826 16.746216 52.071686c2.4450684 4.2758484 4.9679565 8.424103 7.430298 12.360992c1.2311401 1.9684448 2.4472046 3.8840332 3.6307373 5.736328l0.75561523 1.1793213" fill-rule="evenodd"></path><path stroke="#00ff00" stroke-width="4.0" stroke-linecap="butt" d="m570.9322 319.69977l15.0372925 12.126038l-3.7247314 -18.954865z" fill-rule="evenodd"></path><path fill="#000000" fill-opacity="0.0" d="m596.6319 42.874016c7.1968384 17.34602 45.94879 70.39895 43.18109 104.07612c-2.7677002 33.67717 -56.65045 66.33989 -59.787415 97.98688c-3.1369019 31.646973 34.138245 76.57916 40.96588 91.89502" fill-rule="nonzero"></path><path stroke="#00ff00" stroke-width="4.0" stroke-linejoin="round" stroke-linecap="butt" d="m596.6319 42.874016c7.1968384 17.34602 45.94879 70.39895 43.18109 104.07612c-2.7677002 33.67717 -56.65045 66.33989 -59.787415 97.98688c-1.5684814 15.823486 6.9661255 34.96826 16.746216 52.071686c2.4450684 4.2758484 4.9679565 8.424103 7.430298 12.360992c1.2311401 1.9684448 2.4472046 3.8840332 3.6307373 5.736328l0.75561523 1.1793213" fill-rule="evenodd"></path><path stroke="#00ff00" stroke-width="4.0" stroke-linecap="butt" d="m602.9322 319.69977l15.0372925 12.126038l-3.7247314 -18.954865z" fill-rule="evenodd"></path><path fill="#000000" fill-opacity="0.0" d="m692.6319 42.874016c7.1968384 17.34602 45.94879 70.39895 43.18109 104.07612c-2.7677002 33.67717 -56.65045 66.33989 -59.787415 97.98688c-3.1369019 31.646973 34.138245 76.57916 40.96588 91.89502" fill-rule="nonzero"></path><path stroke="#00ff00" stroke-width="4.0" stroke-linejoin="round" stroke-linecap="butt" d="m692.6319 42.874016c7.1968384 17.34602 45.94879 70.39895 43.18109 104.07612c-2.7677002 33.67717 -56.65045 66.33989 -59.787415 97.98688c-1.5684814 15.823486 6.9661255 34.96826 16.746216 52.071686c2.4450684 4.2758484 4.9679565 8.424103 7.430237 12.360992c1.2312012 1.9684448 2.4472656 3.8840332 3.6307983 5.736328l0.75561523 1.1793518" fill-rule="evenodd"></path><path stroke="#00ff00" stroke-width="4.0" stroke-linecap="butt" d="m698.9322 319.69977l15.0372925 12.126038l-3.7247314 -18.954865z" fill-rule="evenodd"></path><path fill="#000000" fill-opacity="0.0" d="m724.6319 42.874016c7.1968384 17.34602 45.94879 70.39895 43.18109 104.07612c-2.7677002 33.67717 -56.65045 66.33989 -59.787415 97.98688c-3.1369019 31.646973 34.138245 76.57916 40.96588 91.89502" fill-rule="nonzero"></path><path stroke="#00ff00" stroke-width="4.0" stroke-linejoin="round" stroke-linecap="butt" d="m724.6319 42.874016c7.1968384 17.34602 45.94879 70.39895 43.18109 104.07612c-2.7677002 33.67717 -56.650513 66.33989 -59.787415 97.98688c-1.5683594 15.823486 6.9661255 34.96826 16.746216 52.071686c2.4450684 4.2758484 4.9679565 8.424103 7.430237 12.360992c1.2312012 1.9684448 2.4472656 3.8840332 3.6307983 5.736328l0.75567627 1.1793213" fill-rule="evenodd"></path><path stroke="#00ff00" stroke-width="4.0" stroke-linecap="butt" d="m730.9322 319.69977l15.0372925 12.126038l-3.7247314 -18.954865z" fill-rule="evenodd"></path><path fill="#000000" fill-opacity="0.0" d="m756.6319 42.874016c7.1968384 17.34602 45.94879 70.39895 43.18109 104.07612c-2.7677002 33.67717 -56.65045 66.33989 -59.787415 97.98688c-3.1369019 31.646973 34.138245 76.57916 40.96588 91.89502" fill-rule="nonzero"></path><path stroke="#00ff00" stroke-width="4.0" stroke-linejoin="round" stroke-linecap="butt" d="m756.6319 42.874016c7.1968384 17.34602 45.94879 70.39895 43.18109 104.07612c-2.7677002 33.67717 -56.650513 66.33989 -59.787415 97.98688c-1.5683594 15.823486 6.9661255 34.96826 16.746216 52.071686c2.4450684 4.2758484 4.9679565 8.424103 7.430237 12.360992c1.2312012 1.9684448 2.4472656 3.8840332 3.6307983 5.736328l0.75567627 1.1793213" fill-rule="evenodd"></path><path stroke="#00ff00" stroke-width="4.0" stroke-linecap="butt" d="m762.9322 319.69977l15.0372925 12.126038l-3.7247314 -18.954865z" fill-rule="evenodd"></path><path fill="#000000" fill-opacity="0.0" d="m788.6319 42.874016c7.1968384 17.34602 45.94879 70.39895 43.18109 104.07612c-2.7677002 33.67717 -56.65045 66.33989 -59.787415 97.98688c-3.1369019 31.646973 34.138245 76.57916 40.96588 91.89502" fill-rule="nonzero"></path><path stroke="#00ff00" stroke-width="4.0" stroke-linejoin="round" stroke-linecap="butt" d="m788.6319 42.874016c7.1968384 17.34602 45.94879 70.39895 43.18109 104.07612c-2.7677002 33.67717 -56.650513 66.33989 -59.787415 97.98688c-1.5683594 15.823486 6.9661255 34.96826 16.746216 52.071686c2.4450684 4.2758484 4.9679565 8.424103 7.430237 12.360992c1.2312012 1.9684448 2.4472656 3.8840332 3.6307983 5.736328l0.75567627 1.1793213" fill-rule="evenodd"></path><path stroke="#00ff00" stroke-width="4.0" stroke-linecap="butt" d="m794.9322 319.69977l15.0372925 12.126038l-3.7247314 -18.954865z" fill-rule="evenodd"></path><path fill="#000000" fill-opacity="0.0" d="m820.6319 42.874016c7.1968384 17.34602 45.94879 70.39895 43.18109 104.07612c-2.7677002 33.67717 -56.65045 66.33989 -59.787415 97.98688c-3.1369019 31.646973 34.138245 76.57916 40.96588 91.89502" fill-rule="nonzero"></path><path stroke="#00ff00" stroke-width="4.0" stroke-linejoin="round" stroke-linecap="butt" d="m820.6319 42.874016c7.1968384 17.34602 45.94879 70.39895 43.18109 104.07612c-2.7677002 33.67717 -56.650513 66.33989 -59.787415 97.98688c-1.5683594 15.823486 6.9661255 34.96826 16.746216 52.071686c2.4450684 4.2758484 4.9679565 8.424103 7.430237 12.360992c1.2312012 1.9684448 2.4472656 3.8840332 3.6307983 5.736328l0.75567627 1.1793213" fill-rule="evenodd"></path><path stroke="#00ff00" stroke-width="4.0" stroke-linecap="butt" d="m826.9322 319.69977l15.0372925 12.126038l-3.7247314 -18.954865z" fill-rule="evenodd"></path><path fill="#000000" fill-opacity="0.0" d="m852.6319 42.874016c7.1968384 17.34602 45.94879 70.39895 43.18109 104.07612c-2.7677002 33.67717 -56.65045 66.33989 -59.787415 97.98688c-3.1369019 31.646973 34.138245 76.57916 40.96588 91.89502" fill-rule="nonzero"></path><path stroke="#00ff00" stroke-width="4.0" stroke-linejoin="round" stroke-linecap="butt" d="m852.6319 42.874016c7.1968384 17.34602 45.94879 70.39895 43.18109 104.07612c-2.7677002 33.67717 -56.650513 66.33989 -59.787415 97.98688c-1.5683594 15.823486 6.9661255 34.96826 16.746216 52.071686c2.4450684 4.2758484 4.9679565 8.424103 7.430237 12.360992c1.2312012 1.9684448 2.4472656 3.8840332 3.6307983 5.736328l0.75567627 1.1793213" fill-rule="evenodd"></path><path stroke="#00ff00" stroke-width="4.0" stroke-linecap="butt" d="m858.9322 319.69977l15.0372925 12.126038l-3.7247314 -18.954865z" fill-rule="evenodd"></path><path fill="#000000" fill-opacity="0.0" d="m884.6319 42.874016c7.1968384 17.34602 45.94879 70.39895 43.18109 104.07612c-2.7677002 33.67717 -56.65045 66.33989 -59.787415 97.98688c-3.1369019 31.646973 34.138245 76.57916 40.96588 91.89502" fill-rule="nonzero"></path><path stroke="#00ff00" stroke-width="4.0" stroke-linejoin="round" stroke-linecap="butt" d="m884.6319 42.874016c7.1968384 17.34602 45.94879 70.39895 43.18109 104.07612c-2.7677002 33.67717 -56.650513 66.33989 -59.787415 97.98688c-1.5683594 15.823486 6.9661255 34.96826 16.746216 52.071686c2.4450684 4.2758484 4.9679565 8.424103 7.430237 12.360992c1.2312012 1.9684448 2.4472656 3.8840332 3.6307983 5.736328l0.75567627 1.1793213" fill-rule="evenodd"></path><path stroke="#00ff00" stroke-width="4.0" stroke-linecap="butt" d="m890.9322 319.69977l15.0372925 12.126038l-3.7247314 -18.954865z" fill-rule="evenodd"></path><path fill="#000000" fill-opacity="0.0" d="m916.6319 42.874016c7.1968384 17.34602 45.94879 70.39895 43.18109 104.07612c-2.7677002 33.67717 -56.65045 66.33989 -59.787415 97.98688c-3.1369019 31.646973 34.138245 76.57916 40.96588 91.89502" fill-rule="nonzero"></path><path stroke="#00ff00" stroke-width="4.0" stroke-linejoin="round" stroke-linecap="butt" d="m916.6319 42.874016c7.1968384 17.34602 45.94879 70.39895 43.18109 104.07612c-2.7677002 33.67717 -56.650513 66.33989 -59.787415 97.98688c-1.5683594 15.823486 6.9661255 34.96826 16.746216 52.071686c2.4450684 4.2758484 4.9679565 8.424103 7.430237 12.360992c1.2312012 1.9684448 2.4472656 3.8840332 3.6307983 5.736328l0.75567627 1.1793213" fill-rule="evenodd"></path><path stroke="#00ff00" stroke-width="4.0" stroke-linecap="butt" d="m922.9322 319.69977l15.0372925 12.126038l-3.7247314 -18.954865z" fill-rule="evenodd"></path><path fill="#ffffff" fill-opacity="0.1538" d="m26.020998 84.882904l0 0c0 -27.925007 22.637686 -50.562695 50.56269 -50.562695l202.24472 0l0 0c13.410034 0 26.270874 5.3271255 35.753204 14.809471c9.482361 9.482342 14.809479 22.343159 14.809479 35.753223l0 208.6069c0 27.924988 -22.637695 50.562683 -50.562683 50.562683l-202.24472 0l0 0c-27.925003 0 -50.56269 -22.637695 -50.56269 -50.562683z" fill-rule="nonzero"></path><path stroke="#efefef" stroke-width="2.0" stroke-linejoin="round" stroke-linecap="butt" d="m26.020998 84.882904l0 0c0 -27.925007 22.637686 -50.562695 50.56269 -50.562695l202.24472 0l0 0c13.410034 0 26.270874 5.3271255 35.753204 14.809471c9.482361 9.482342 14.809479 22.343159 14.809479 35.753223l0 208.6069c0 27.924988 -22.637695 50.562683 -50.562683 50.562683l-202.24472 0l0 0c-27.925003 0 -50.56269 -22.637695 -50.56269 -50.562683z" fill-rule="nonzero"></path><path fill="#ffffff" fill-opacity="0.1538" d="m346.021 84.882904l0 0c0 -27.925007 22.637695 -50.562695 50.562683 -50.562695l202.24469 0l0 0c13.410095 0 26.270874 5.3271255 35.753235 14.809471c9.482361 9.482342 14.809448 22.343159 14.809448 35.753223l0 208.6069c0 27.924988 -22.637634 50.562683 -50.562683 50.562683l-202.24469 0l0 0c-27.924988 0 -50.562683 -22.637695 -50.562683 -50.562683z" fill-rule="nonzero"></path><path stroke="#efefef" stroke-width="2.0" stroke-linejoin="round" stroke-linecap="butt" d="m346.021 84.882904l0 0c0 -27.925007 22.637695 -50.562695 50.562683 -50.562695l202.24469 0l0 0c13.410095 0 26.270874 5.3271255 35.753235 14.809471c9.482361 9.482342 14.809448 22.343159 14.809448 35.753223l0 208.6069c0 27.924988 -22.637634 50.562683 -50.562683 50.562683l-202.24469 0l0 0c-27.924988 0 -50.562683 -22.637695 -50.562683 -50.562683z" fill-rule="nonzero"></path><path fill="#ffffff" fill-opacity="0.1538" d="m666.021 84.882904l0 0c0 -27.925007 22.637695 -50.562695 50.562683 -50.562695l202.24469 0l0 0c13.410095 0 26.270874 5.3271255 35.753235 14.809471c9.482361 9.482342 14.809448 22.343159 14.809448 35.753223l0 208.6069c0 27.924988 -22.637634 50.562683 -50.562683 50.562683l-202.24469 0l0 0c-27.924988 0 -50.562683 -22.637695 -50.562683 -50.562683z" fill-rule="nonzero"></path><path stroke="#efefef" stroke-width="2.0" stroke-linejoin="round" stroke-linecap="butt" d="m666.021 84.882904l0 0c0 -27.925007 22.637695 -50.562695 50.562683 -50.562695l202.24469 0l0 0c13.410095 0 26.270874 5.3271255 35.753235 14.809471c9.482361 9.482342 14.809448 22.343159 14.809448 35.753223l0 208.6069c0 27.924988 -22.637634 50.562683 -50.562683 50.562683l-202.24469 0l0 0c-27.924988 0 -50.562683 -22.637695 -50.562683 -50.562683z" fill-rule="nonzero"></path></g></svg>
