<?xml version="1.0" standalone="yes"?>

<svg version="1.1" viewBox="0.0 0.0 114.0 183.0" fill="none" stroke="none" stroke-linecap="square" stroke-miterlimit="10" xmlns="http://www.w3.org/2000/svg" xmlns:xlink="http://www.w3.org/1999/xlink"><clipPath id="p.0"><path d="m0 0l114.0 0l0 183.0l-114.0 0l0 -183.0z" clip-rule="nonzero"></path></clipPath><g clip-path="url(#p.0)"><path fill="#000000" fill-opacity="0.0" d="m0 0l114.23622 0l0 183.04199l-114.23622 0z" fill-rule="nonzero"></path><path fill="#000000" fill-opacity="0.0" d="m20.081522 7.323937c2.3324986 5.621845 14.892012 22.8163 13.994993 33.73107c-0.8970146 10.914768 -18.36042 21.50076 -19.377094 31.757545c-1.016676 10.256783 11.064202 24.819313 13.277041 29.783173" fill-rule="nonzero"></path><path stroke="#00ff00" stroke-width="2.0" stroke-linejoin="round" stroke-linecap="butt" d="m20.081522 7.323937c2.3324986 5.621845 14.892012 22.816301 13.994997 33.731068c-0.89701843 10.914772 -18.360424 21.50076 -19.377098 31.75755c-0.508338 5.128395 2.2577124 11.333221 5.427453 16.876434c0.39621544 0.6929016 0.7987423 1.375473 1.2019672 2.044304l0.38246918 0.62779236" fill-rule="evenodd"></path><path stroke="#00ff00" stroke-width="2.0" stroke-linecap="butt" d="m18.89383 94.085815l7.5561256 6.016243l-1.9211636 -9.465698z" fill-rule="evenodd"></path><path fill="#71ff05" d="m17.029556 106.25104l0 0c0 -7.6293945E-5 6.1035156E-5 -1.296997E-4 1.335144E-4 -1.296997E-4l15.9998665 1.296997E-4c3.4332275E-5 0 6.866455E-5 1.5258789E-5 9.536743E-5 3.8146973E-5c2.2888184E-5 2.2888184E-5 3.8146973E-5 6.1035156E-5 3.8146973E-5 9.918213E-5l-1.335144E-4 16.881752c0 7.6293945E-5 -5.722046E-5 1.373291E-4 -1.335144E-4 1.373291E-4l-15.9998665 -1.373291E-4l0 0c-7.247925E-5 0 -1.335144E-4 -6.1035156E-5 -1.335144E-4 -1.296997E-4z" fill-rule="nonzero"></path><path stroke="#00ff00" stroke-width="1.0" stroke-linejoin="round" stroke-linecap="butt" d="m17.029556 106.25104l0 0c0 -7.6293945E-5 6.1035156E-5 -1.296997E-4 1.335144E-4 -1.296997E-4l15.9998665 1.296997E-4c3.4332275E-5 0 6.866455E-5 1.5258789E-5 9.536743E-5 3.8146973E-5c2.2888184E-5 2.2888184E-5 3.8146973E-5 6.1035156E-5 3.8146973E-5 9.918213E-5l-1.335144E-4 16.881752c0 7.6293945E-5 -5.722046E-5 1.373291E-4 -1.335144E-4 1.373291E-4l-15.9998665 -1.373291E-4l0 0c-7.247925E-5 0 -1.335144E-4 -6.1035156E-5 -1.335144E-4 -1.296997E-4z" fill-rule="nonzero"></path><path fill="#fcfffb" fill-opacity="0.3385" d="m17.83525 106.78332l0 0c0 -6.1035156E-5 4.7683716E-5 -1.0681152E-4 1.0871887E-4 -1.0681152E-4l13.039261 1.0681152E-4c2.861023E-5 0 5.722046E-5 1.5258789E-5 7.6293945E-5 3.0517578E-5c2.0980835E-5 2.2888184E-5 3.2424927E-5 5.340576E-5 3.2424927E-5 7.6293945E-5l-1.0871887E-4 13.763672c0 6.1035156E-5 -4.7683716E-5 1.0681152E-4 -1.0871887E-4 1.0681152E-4l-13.039261 -1.0681152E-4l0 0c-6.1035156E-5 0 -1.0871887E-4 -4.5776367E-5 -1.0871887E-4 -1.0681152E-4z" fill-rule="nonzero"></path><path fill="#333333" fill-opacity="0.7769" d="m362.1689 65.70308l0 0c0 -12.994167 10.5338745 -23.528027 23.528046 -23.528027l94.10928 0l0 0c6.2400208 0 12.224457 2.4788399 16.63684 6.891201c4.4123535 4.412361 6.891205 10.396809 6.891205 16.636826l0 97.06993c0 12.994171 -10.5338745 23.52803 -23.528046 23.52803l-94.10928 0l0 0c-12.994171 0 -23.528046 -10.533859 -23.528046 -23.52803z" fill-rule="nonzero"></path><path stroke="#efefef" stroke-width="1.0" stroke-linejoin="round" stroke-linecap="butt" d="m362.1689 65.70308l0 0c0 -12.994167 10.5338745 -23.528027 23.528046 -23.528027l94.10928 0l0 0c6.2400208 0 12.224457 2.4788399 16.63684 6.891201c4.4123535 4.412361 6.891205 10.396809 6.891205 16.636826l0 97.06993c0 12.994171 -10.5338745 23.52803 -23.528046 23.52803l-94.10928 0l0 0c-12.994171 0 -23.528046 -10.533859 -23.528046 -23.52803z" fill-rule="nonzero"></path><path fill="#000000" fill-opacity="0.0" d="m374.5509 46.155067c3.3486938 8.071102 21.380005 32.75663 20.092163 48.426613c-1.2878113 15.669991 -26.359467 30.867958 -27.819061 45.593292c-1.4596252 14.725342 15.8845215 35.632294 19.061401 42.75876" fill-rule="nonzero"></path><path stroke="#00ff00" stroke-width="2.0" stroke-linejoin="round" stroke-linecap="butt" d="m374.5509 46.155067c3.3486938 8.071102 21.380005 32.75663 20.092194 48.426613c-1.2878113 15.669991 -26.359497 30.867958 -27.819122 45.593292c-0.7298279 7.362671 3.2413025 16.270752 7.792053 24.228958c1.1376648 1.9895477 2.311554 3.9197388 3.4572449 5.7515717c0.2864685 0.45796204 0.5711365 0.9097748 0.85302734 1.3548279l0.7390442 1.1613007" fill-rule="evenodd"></path><path stroke="#00ff00" stroke-width="2.0" stroke-linecap="butt" d="m376.8403 174.38394l7.529602 6.049423l-1.8795166 -9.47406z" fill-rule="evenodd"></path><path fill="#000000" fill-opacity="0.0" d="m389.4403 46.155067c3.3486938 8.071102 21.379974 32.75663 20.092163 48.426613c-1.2878113 15.669991 -26.359467 30.867958 -27.819092 45.593292c-1.4595947 14.725342 15.8845215 35.632294 19.061432 42.75876" fill-rule="nonzero"></path><path stroke="#00ff00" stroke-width="2.0" stroke-linejoin="round" stroke-linecap="butt" d="m389.44028 46.155067c3.3487244 8.071102 21.380005 32.75663 20.092194 48.426613c-1.2878113 15.669991 -26.359497 30.867958 -27.819092 45.593292c-0.72979736 7.362671 3.241333 16.270752 7.7920227 24.228958c1.1376953 1.9895477 2.311554 3.9197388 3.4572754 5.7515717c0.2864685 0.45796204 0.57110596 0.9097748 0.85302734 1.3548279l0.7390442 1.1613007" fill-rule="evenodd"></path><path stroke="#00ff00" stroke-width="2.0" stroke-linecap="butt" d="m391.7297 174.38394l7.5295715 6.049423l-1.8794861 -9.47406z" fill-rule="evenodd"></path><path fill="#000000" fill-opacity="0.0" d="m404.32965 46.155067c3.3486938 8.071102 21.380005 32.75663 20.092163 48.426613c-1.2878113 15.669991 -26.359467 30.867958 -27.819061 45.593292c-1.4596252 14.725342 15.8845215 35.632294 19.061401 42.75876" fill-rule="nonzero"></path><path stroke="#00ff00" stroke-width="2.0" stroke-linejoin="round" stroke-linecap="butt" d="m404.32965 46.155067c3.3486938 8.071102 21.380005 32.75663 20.092194 48.426613c-1.2878113 15.669991 -26.359497 30.867958 -27.819122 45.593292c-0.72976685 7.362671 3.2413635 16.270752 7.792053 24.228958c1.1376648 1.9895477 2.311554 3.9197388 3.4572449 5.7515717c0.2864685 0.45796204 0.5711365 0.9097748 0.85302734 1.3548279l0.7390442 1.1613007" fill-rule="evenodd"></path><path stroke="#00ff00" stroke-width="2.0" stroke-linecap="butt" d="m406.61905 174.38394l7.529602 6.049423l-1.8795166 -9.47406z" fill-rule="evenodd"></path><path fill="#000000" fill-opacity="0.0" d="m419.21906 46.155067c3.3486938 8.071102 21.379974 32.75663 20.092163 48.426613c-1.2878113 15.669991 -26.359467 30.867958 -27.819092 45.593292c-1.4595947 14.725342 15.8845215 35.632294 19.061432 42.75876" fill-rule="nonzero"></path><path stroke="#00ff00" stroke-width="2.0" stroke-linejoin="round" stroke-linecap="butt" d="m419.21902 46.155067c3.3487244 8.071102 21.380005 32.75663 20.092194 48.426613c-1.2878113 15.669991 -26.359497 30.867958 -27.819092 45.593292c-0.7298279 7.362671 3.2413025 16.270752 7.7920227 24.228958c1.1376953 1.9895477 2.3115845 3.9197388 3.4572754 5.7515717c0.2864685 0.45796204 0.57110596 0.9097748 0.85302734 1.3548279l0.7390442 1.1613007" fill-rule="evenodd"></path><path stroke="#00ff00" stroke-width="2.0" stroke-linecap="butt" d="m421.50845 174.38394l7.5295715 6.049423l-1.8794861 -9.47406z" fill-rule="evenodd"></path><path fill="#000000" fill-opacity="0.0" d="m434.10846 46.155067c3.3486938 8.071102 21.379974 32.75663 20.092163 48.426613c-1.2878418 15.669991 -26.359467 30.867958 -27.819092 45.593292c-1.4595947 14.725342 15.8845215 35.632294 19.061432 42.75876" fill-rule="nonzero"></path><path stroke="#00ff00" stroke-width="2.0" stroke-linejoin="round" stroke-linecap="butt" d="m434.10843 46.155067c3.3487244 8.071102 21.380005 32.75663 20.092194 48.426613c-1.2878113 15.669991 -26.359497 30.867958 -27.819092 45.593292c-0.72979736 7.362671 3.241333 16.270752 7.7920227 24.228958c1.1376648 1.9895477 2.311554 3.9197388 3.4572754 5.7515717c0.286438 0.45796204 0.57110596 0.9097748 0.85302734 1.3548279l0.7390442 1.1613007" fill-rule="evenodd"></path><path stroke="#00ff00" stroke-width="2.0" stroke-linecap="butt" d="m436.39783 174.38394l7.529602 6.049423l-1.8795166 -9.47406z" fill-rule="evenodd"></path><path fill="#000000" fill-opacity="0.0" d="m448.9978 46.155067c3.3486938 8.071102 21.379974 32.75663 20.092163 48.426613c-1.2878113 15.669991 -26.359467 30.867958 -27.819092 45.593292c-1.4595947 14.725342 15.8845215 35.632294 19.061432 42.75876" fill-rule="nonzero"></path><path stroke="#00ff00" stroke-width="2.0" stroke-linejoin="round" stroke-linecap="butt" d="m448.99777 46.155067c3.3487244 8.071102 21.380005 32.75663 20.092194 48.426613c-1.2878113 15.669991 -26.359497 30.867958 -27.819092 45.593292c-0.72976685 7.362671 3.241333 16.270752 7.7920227 24.228958c1.1376953 1.9895477 2.3115845 3.9197388 3.4572754 5.7515717c0.2864685 0.45796204 0.57110596 0.9097748 0.85302734 1.3548279l0.7390442 1.1613007" fill-rule="evenodd"></path><path stroke="#00ff00" stroke-width="2.0" stroke-linecap="butt" d="m451.2872 174.38394l7.5295715 6.049423l-1.8794861 -9.47406z" fill-rule="evenodd"></path><path fill="#000000" fill-opacity="0.0" d="m463.8872 46.155067c3.3486938 8.071102 21.379974 32.75663 20.092163 48.426613c-1.2878418 15.669991 -26.359467 30.867958 -27.819092 45.593292c-1.4595947 14.725342 15.8845215 35.632294 19.061432 42.75876" fill-rule="nonzero"></path><path stroke="#00ff00" stroke-width="2.0" stroke-linejoin="round" stroke-linecap="butt" d="m463.88718 46.155067c3.3487244 8.071102 21.380005 32.75663 20.092194 48.426613c-1.2878113 15.669991 -26.359497 30.867958 -27.819092 45.593292c-0.7298279 7.362671 3.2413025 16.270752 7.7920227 24.228958c1.1376648 1.9895477 2.311554 3.9197388 3.4572754 5.7515717c0.2864685 0.45796204 0.57110596 0.9097748 0.85302734 1.3548279l0.7390442 1.1613007" fill-rule="evenodd"></path><path stroke="#00ff00" stroke-width="2.0" stroke-linecap="butt" d="m466.17657 174.38394l7.529602 6.049423l-1.8795166 -9.47406z" fill-rule="evenodd"></path><path fill="#000000" fill-opacity="0.0" d="m478.77655 46.155067c3.3486938 8.071102 21.379974 32.75663 20.092163 48.426613c-1.2878113 15.669991 -26.359467 30.867958 -27.819061 45.593292c-1.4596252 14.725342 15.884491 35.632294 19.061401 42.75876" fill-rule="nonzero"></path><path stroke="#00ff00" stroke-width="2.0" stroke-linejoin="round" stroke-linecap="butt" d="m478.77652 46.155067c3.3487244 8.071102 21.380005 32.75663 20.092194 48.426613c-1.2878113 15.669991 -26.359497 30.867958 -27.819092 45.593292c-0.7298279 7.362671 3.2413025 16.270752 7.7920227 24.228958c1.1376953 1.9895477 2.3115845 3.9197388 3.4572754 5.7515717c0.2864685 0.45796204 0.57110596 0.9097748 0.85302734 1.3548279l0.7390442 1.1613007" fill-rule="evenodd"></path><path stroke="#00ff00" stroke-width="2.0" stroke-linecap="butt" d="m481.06595 174.38394l7.5295715 6.049423l-1.8794861 -9.47406z" fill-rule="evenodd"></path><path fill="#333333" fill-opacity="0.7769" d="m362.1689 65.70308l0 0c0 -12.994167 10.5338745 -23.528027 23.528046 -23.528027l94.10928 0l0 0c6.2400208 0 12.224457 2.4788399 16.63684 6.891201c4.4123535 4.412361 6.891205 10.396809 6.891205 16.636826l0 97.06993c0 12.994171 -10.5338745 23.52803 -23.528046 23.52803l-94.10928 0l0 0c-12.994171 0 -23.528046 -10.533859 -23.528046 -23.52803z" fill-rule="nonzero"></path><path stroke="#efefef" stroke-width="1.0" stroke-linejoin="round" stroke-linecap="butt" d="m362.1689 65.70308l0 0c0 -12.994167 10.5338745 -23.528027 23.528046 -23.528027l94.10928 0l0 0c6.2400208 0 12.224457 2.4788399 16.63684 6.891201c4.4123535 4.412361 6.891205 10.396809 6.891205 16.636826l0 97.06993c0 12.994171 -10.5338745 23.52803 -23.528046 23.52803l-94.10928 0l0 0c-12.994171 0 -23.528046 -10.533859 -23.528046 -23.52803z" fill-rule="nonzero"></path><path fill="#000000" fill-opacity="0.0" d="m374.5509 46.155067c3.3486938 8.071102 21.380005 32.75663 20.092163 48.426613c-1.2878113 15.669991 -26.359467 30.867958 -27.819061 45.593292c-1.4596252 14.725342 15.8845215 35.632294 19.061401 42.75876" fill-rule="nonzero"></path><path stroke="#00ff00" stroke-width="2.0" stroke-linejoin="round" stroke-linecap="butt" d="m374.5509 46.155067c3.3486938 8.071102 21.380005 32.75663 20.092194 48.426613c-1.2878113 15.669991 -26.359497 30.867958 -27.819122 45.593292c-0.7298279 7.362671 3.2413025 16.270752 7.792053 24.228958c1.1376648 1.9895477 2.311554 3.9197388 3.4572449 5.7515717c0.2864685 0.45796204 0.5711365 0.9097748 0.85302734 1.3548279l0.7390442 1.1613007" fill-rule="evenodd"></path><path stroke="#00ff00" stroke-width="2.0" stroke-linecap="butt" d="m376.8403 174.38394l7.529602 6.049423l-1.8795166 -9.47406z" fill-rule="evenodd"></path><path fill="#000000" fill-opacity="0.0" d="m389.4403 46.155067c3.3486938 8.071102 21.379974 32.75663 20.092163 48.426613c-1.2878113 15.669991 -26.359467 30.867958 -27.819092 45.593292c-1.4595947 14.725342 15.8845215 35.632294 19.061432 42.75876" fill-rule="nonzero"></path><path stroke="#00ff00" stroke-width="2.0" stroke-linejoin="round" stroke-linecap="butt" d="m389.44028 46.155067c3.3487244 8.071102 21.380005 32.75663 20.092194 48.426613c-1.2878113 15.669991 -26.359497 30.867958 -27.819092 45.593292c-0.72979736 7.362671 3.241333 16.270752 7.7920227 24.228958c1.1376953 1.9895477 2.311554 3.9197388 3.4572754 5.7515717c0.2864685 0.45796204 0.57110596 0.9097748 0.85302734 1.3548279l0.7390442 1.1613007" fill-rule="evenodd"></path><path stroke="#00ff00" stroke-width="2.0" stroke-linecap="butt" d="m391.7297 174.38394l7.5295715 6.049423l-1.8794861 -9.47406z" fill-rule="evenodd"></path><path fill="#000000" fill-opacity="0.0" d="m404.32965 46.155067c3.3486938 8.071102 21.380005 32.75663 20.092163 48.426613c-1.2878113 15.669991 -26.359467 30.867958 -27.819061 45.593292c-1.4596252 14.725342 15.8845215 35.632294 19.061401 42.75876" fill-rule="nonzero"></path><path stroke="#00ff00" stroke-width="2.0" stroke-linejoin="round" stroke-linecap="butt" d="m404.32965 46.155067c3.3486938 8.071102 21.380005 32.75663 20.092194 48.426613c-1.2878113 15.669991 -26.359497 30.867958 -27.819122 45.593292c-0.72976685 7.362671 3.2413635 16.270752 7.792053 24.228958c1.1376648 1.9895477 2.311554 3.9197388 3.4572449 5.7515717c0.2864685 0.45796204 0.5711365 0.9097748 0.85302734 1.3548279l0.7390442 1.1613007" fill-rule="evenodd"></path><path stroke="#00ff00" stroke-width="2.0" stroke-linecap="butt" d="m406.61905 174.38394l7.529602 6.049423l-1.8795166 -9.47406z" fill-rule="evenodd"></path><path fill="#000000" fill-opacity="0.0" d="m419.21906 46.155067c3.3486938 8.071102 21.379974 32.75663 20.092163 48.426613c-1.2878113 15.669991 -26.359467 30.867958 -27.819092 45.593292c-1.4595947 14.725342 15.8845215 35.632294 19.061432 42.75876" fill-rule="nonzero"></path><path stroke="#00ff00" stroke-width="2.0" stroke-linejoin="round" stroke-linecap="butt" d="m419.21902 46.155067c3.3487244 8.071102 21.380005 32.75663 20.092194 48.426613c-1.2878113 15.669991 -26.359497 30.867958 -27.819092 45.593292c-0.7298279 7.362671 3.2413025 16.270752 7.7920227 24.228958c1.1376953 1.9895477 2.3115845 3.9197388 3.4572754 5.7515717c0.2864685 0.45796204 0.57110596 0.9097748 0.85302734 1.3548279l0.7390442 1.1613007" fill-rule="evenodd"></path><path stroke="#00ff00" stroke-width="2.0" stroke-linecap="butt" d="m421.50845 174.38394l7.5295715 6.049423l-1.8794861 -9.47406z" fill-rule="evenodd"></path><path fill="#000000" fill-opacity="0.0" d="m434.10846 46.155067c3.3486938 8.071102 21.379974 32.75663 20.092163 48.426613c-1.2878418 15.669991 -26.359467 30.867958 -27.819092 45.593292c-1.4595947 14.725342 15.8845215 35.632294 19.061432 42.75876" fill-rule="nonzero"></path><path stroke="#00ff00" stroke-width="2.0" stroke-linejoin="round" stroke-linecap="butt" d="m434.10843 46.155067c3.3487244 8.071102 21.380005 32.75663 20.092194 48.426613c-1.2878113 15.669991 -26.359497 30.867958 -27.819092 45.593292c-0.72979736 7.362671 3.241333 16.270752 7.7920227 24.228958c1.1376648 1.9895477 2.311554 3.9197388 3.4572754 5.7515717c0.286438 0.45796204 0.57110596 0.9097748 0.85302734 1.3548279l0.7390442 1.1613007" fill-rule="evenodd"></path><path stroke="#00ff00" stroke-width="2.0" stroke-linecap="butt" d="m436.39783 174.38394l7.529602 6.049423l-1.8795166 -9.47406z" fill-rule="evenodd"></path><path fill="#000000" fill-opacity="0.0" d="m448.9978 46.155067c3.3486938 8.071102 21.379974 32.75663 20.092163 48.426613c-1.2878113 15.669991 -26.359467 30.867958 -27.819092 45.593292c-1.4595947 14.725342 15.8845215 35.632294 19.061432 42.75876" fill-rule="nonzero"></path><path stroke="#00ff00" stroke-width="2.0" stroke-linejoin="round" stroke-linecap="butt" d="m448.99777 46.155067c3.3487244 8.071102 21.380005 32.75663 20.092194 48.426613c-1.2878113 15.669991 -26.359497 30.867958 -27.819092 45.593292c-0.72976685 7.362671 3.241333 16.270752 7.7920227 24.228958c1.1376953 1.9895477 2.3115845 3.9197388 3.4572754 5.7515717c0.2864685 0.45796204 0.57110596 0.9097748 0.85302734 1.3548279l0.7390442 1.1613007" fill-rule="evenodd"></path><path stroke="#00ff00" stroke-width="2.0" stroke-linecap="butt" d="m451.2872 174.38394l7.5295715 6.049423l-1.8794861 -9.47406z" fill-rule="evenodd"></path><path fill="#000000" fill-opacity="0.0" d="m463.8872 46.155067c3.3486938 8.071102 21.379974 32.75663 20.092163 48.426613c-1.2878418 15.669991 -26.359467 30.867958 -27.819092 45.593292c-1.4595947 14.725342 15.8845215 35.632294 19.061432 42.75876" fill-rule="nonzero"></path><path stroke="#00ff00" stroke-width="2.0" stroke-linejoin="round" stroke-linecap="butt" d="m463.88718 46.155067c3.3487244 8.071102 21.380005 32.75663 20.092194 48.426613c-1.2878113 15.669991 -26.359497 30.867958 -27.819092 45.593292c-0.7298279 7.362671 3.2413025 16.270752 7.7920227 24.228958c1.1376648 1.9895477 2.311554 3.9197388 3.4572754 5.7515717c0.2864685 0.45796204 0.57110596 0.9097748 0.85302734 1.3548279l0.7390442 1.1613007" fill-rule="evenodd"></path><path stroke="#00ff00" stroke-width="2.0" stroke-linecap="butt" d="m466.17657 174.38394l7.529602 6.049423l-1.8795166 -9.47406z" fill-rule="evenodd"></path><path fill="#000000" fill-opacity="0.0" d="m478.77655 46.155067c3.3486938 8.071102 21.379974 32.75663 20.092163 48.426613c-1.2878113 15.669991 -26.359467 30.867958 -27.819061 45.593292c-1.4596252 14.725342 15.884491 35.632294 19.061401 42.75876" fill-rule="nonzero"></path><path stroke="#00ff00" stroke-width="2.0" stroke-linejoin="round" stroke-linecap="butt" d="m478.77652 46.155067c3.3487244 8.071102 21.380005 32.75663 20.092194 48.426613c-1.2878113 15.669991 -26.359497 30.867958 -27.819092 45.593292c-0.7298279 7.362671 3.2413025 16.270752 7.7920227 24.228958c1.1376953 1.9895477 2.3115845 3.9197388 3.4572754 5.7515717c0.2864685 0.45796204 0.57110596 0.9097748 0.85302734 1.3548279l0.7390442 1.1613007" fill-rule="evenodd"></path><path stroke="#00ff00" stroke-width="2.0" stroke-linecap="butt" d="m481.06595 174.38394l7.5295715 6.049423l-1.8794861 -9.47406z" fill-rule="evenodd"></path><path fill="#71ff05" d="m39.318687 106.25104l0 0c0 -7.6293945E-5 6.1035156E-5 -1.296997E-4 1.335144E-4 -1.296997E-4l15.9998665 1.296997E-4c3.4332275E-5 0 6.866455E-5 1.5258789E-5 9.536743E-5 3.8146973E-5c2.2888184E-5 2.2888184E-5 3.8146973E-5 6.1035156E-5 3.8146973E-5 9.918213E-5l-1.335144E-4 16.881752c0 7.6293945E-5 -6.1035156E-5 1.373291E-4 -1.335144E-4 1.373291E-4l-15.9998665 -1.373291E-4l0 0c-7.247925E-5 0 -1.335144E-4 -6.1035156E-5 -1.335144E-4 -1.296997E-4z" fill-rule="nonzero"></path><path stroke="#00ff00" stroke-width="1.0" stroke-linejoin="round" stroke-linecap="butt" d="m39.318687 106.25104l0 0c0 -7.6293945E-5 6.1035156E-5 -1.296997E-4 1.335144E-4 -1.296997E-4l15.9998665 1.296997E-4c3.4332275E-5 0 6.866455E-5 1.5258789E-5 9.536743E-5 3.8146973E-5c2.2888184E-5 2.2888184E-5 3.8146973E-5 6.1035156E-5 3.8146973E-5 9.918213E-5l-1.335144E-4 16.881752c0 7.6293945E-5 -6.1035156E-5 1.373291E-4 -1.335144E-4 1.373291E-4l-15.9998665 -1.373291E-4l0 0c-7.247925E-5 0 -1.335144E-4 -6.1035156E-5 -1.335144E-4 -1.296997E-4z" fill-rule="nonzero"></path><path fill="#fcfffb" fill-opacity="0.3385" d="m40.124382 106.78332l0 0c0 -6.1035156E-5 4.5776367E-5 -1.0681152E-4 1.0681152E-4 -1.0681152E-4l13.039261 1.0681152E-4c3.0517578E-5 0 5.722046E-5 1.5258789E-5 7.6293945E-5 3.0517578E-5c2.2888184E-5 2.2888184E-5 3.4332275E-5 5.340576E-5 3.4332275E-5 7.6293945E-5l-1.1062622E-4 13.763672c0 6.1035156E-5 -4.9591064E-5 1.0681152E-4 -1.0681152E-4 1.0681152E-4l-13.039261 -1.0681152E-4l0 0c-6.1035156E-5 0 -1.1062622E-4 -4.5776367E-5 -1.1062622E-4 -1.0681152E-4z" fill-rule="nonzero"></path><path fill="#71ff05" d="m61.60782 106.25104l0 0c0 -7.6293945E-5 5.722046E-5 -1.296997E-4 1.335144E-4 -1.296997E-4l15.9998665 1.296997E-4c3.0517578E-5 0 6.866455E-5 1.5258789E-5 9.1552734E-5 3.8146973E-5c2.2888184E-5 2.2888184E-5 3.8146973E-5 6.1035156E-5 3.8146973E-5 9.918213E-5l-1.296997E-4 16.881752c0 7.6293945E-5 -6.1035156E-5 1.373291E-4 -1.373291E-4 1.373291E-4l-15.999863 -1.373291E-4l0 0c-7.6293945E-5 0 -1.335144E-4 -6.1035156E-5 -1.335144E-4 -1.296997E-4z" fill-rule="nonzero"></path><path stroke="#00ff00" stroke-width="1.0" stroke-linejoin="round" stroke-linecap="butt" d="m61.60782 106.25104l0 0c0 -7.6293945E-5 5.722046E-5 -1.296997E-4 1.335144E-4 -1.296997E-4l15.9998665 1.296997E-4c3.0517578E-5 0 6.866455E-5 1.5258789E-5 9.1552734E-5 3.8146973E-5c2.2888184E-5 2.2888184E-5 3.8146973E-5 6.1035156E-5 3.8146973E-5 9.918213E-5l-1.296997E-4 16.881752c0 7.6293945E-5 -6.1035156E-5 1.373291E-4 -1.373291E-4 1.373291E-4l-15.999863 -1.373291E-4l0 0c-7.6293945E-5 0 -1.335144E-4 -6.1035156E-5 -1.335144E-4 -1.296997E-4z" fill-rule="nonzero"></path><path fill="#fcfffb" fill-opacity="0.3385" d="m62.41351 106.78332l0 0c0 -6.1035156E-5 4.9591064E-5 -1.0681152E-4 1.1062622E-4 -1.0681152E-4l13.039261 1.0681152E-4c3.0517578E-5 0 5.340576E-5 1.5258789E-5 7.6293945E-5 3.0517578E-5c2.2888184E-5 2.2888184E-5 3.0517578E-5 5.340576E-5 3.0517578E-5 7.6293945E-5l-1.0681152E-4 13.763672c0 6.1035156E-5 -4.5776367E-5 1.0681152E-4 -1.0681152E-4 1.0681152E-4l-13.039265 -1.0681152E-4l0 0c-5.722046E-5 0 -1.0681152E-4 -4.5776367E-5 -1.0681152E-4 -1.0681152E-4z" fill-rule="nonzero"></path><path fill="#71ff05" d="m83.89695 106.25104l0 0c0 -7.6293945E-5 5.340576E-5 -1.296997E-4 1.296997E-4 -1.296997E-4l15.99987 1.296997E-4c3.0517578E-5 0 6.866455E-5 1.5258789E-5 9.1552734E-5 3.8146973E-5c2.2888184E-5 2.2888184E-5 3.8146973E-5 6.1035156E-5 3.8146973E-5 9.918213E-5l-1.296997E-4 16.881752c0 7.6293945E-5 -6.1035156E-5 1.373291E-4 -1.373291E-4 1.373291E-4l-15.999863 -1.373291E-4l0 0c-7.6293945E-5 0 -1.373291E-4 -6.1035156E-5 -1.373291E-4 -1.296997E-4z" fill-rule="nonzero"></path><path stroke="#00ff00" stroke-width="1.0" stroke-linejoin="round" stroke-linecap="butt" d="m83.89695 106.25104l0 0c0 -7.6293945E-5 5.340576E-5 -1.296997E-4 1.296997E-4 -1.296997E-4l15.99987 1.296997E-4c3.0517578E-5 0 6.866455E-5 1.5258789E-5 9.1552734E-5 3.8146973E-5c2.2888184E-5 2.2888184E-5 3.8146973E-5 6.1035156E-5 3.8146973E-5 9.918213E-5l-1.296997E-4 16.881752c0 7.6293945E-5 -6.1035156E-5 1.373291E-4 -1.373291E-4 1.373291E-4l-15.999863 -1.373291E-4l0 0c-7.6293945E-5 0 -1.373291E-4 -6.1035156E-5 -1.373291E-4 -1.296997E-4z" fill-rule="nonzero"></path><path fill="#fcfffb" fill-opacity="0.3385" d="m84.70264 106.78332l0 0c0 -6.1035156E-5 5.340576E-5 -1.0681152E-4 1.1444092E-4 -1.0681152E-4l13.039261 1.0681152E-4c3.0517578E-5 0 5.340576E-5 1.5258789E-5 7.6293945E-5 3.0517578E-5c2.2888184E-5 2.2888184E-5 3.0517578E-5 5.340576E-5 3.0517578E-5 7.6293945E-5l-1.0681152E-4 13.763672c0 6.1035156E-5 -5.340576E-5 1.0681152E-4 -1.0681152E-4 1.0681152E-4l-13.0392685 -1.0681152E-4l0 0c-5.340576E-5 0 -1.0681152E-4 -4.5776367E-5 -1.0681152E-4 -1.0681152E-4z" fill-rule="nonzero"></path><path fill="#000000" fill-opacity="0.0" d="m42.37065 7.323937c2.3325005 5.621845 14.892014 22.8163 13.994995 33.73107c-0.8970146 10.914768 -18.36042 21.50076 -19.377098 31.757545c-1.016674 10.256783 11.064201 24.819313 13.277042 29.783173" fill-rule="nonzero"></path><path stroke="#00ff00" stroke-width="2.0" stroke-linejoin="round" stroke-linecap="butt" d="m42.37065 7.323937c2.3325005 5.621845 14.89201 22.816301 13.994995 33.731068c-0.8970146 10.914772 -18.36042 21.50076 -19.377094 31.75755c-0.5083389 5.128395 2.2577095 11.333221 5.4274483 16.876434c0.39621735 0.6929016 0.7987442 1.375473 1.201973 2.044304l0.38246918 0.62779236" fill-rule="evenodd"></path><path stroke="#00ff00" stroke-width="2.0" stroke-linecap="butt" d="m41.182957 94.085815l7.5561256 6.0162354l-1.9211617 -9.465691z" fill-rule="evenodd"></path><path fill="#000000" fill-opacity="0.0" d="m64.65978 7.323937c2.3324966 5.621845 14.892014 22.8163 13.994995 33.73107c-0.89701843 10.914768 -18.36042 21.50076 -19.377098 31.757545c-1.016674 10.256783 11.064201 24.819313 13.277039 29.783173" fill-rule="nonzero"></path><path stroke="#00ff00" stroke-width="2.0" stroke-linejoin="round" stroke-linecap="butt" d="m64.65978 7.323937c2.3324966 5.621845 14.892014 22.816301 13.994995 33.731068c-0.89701843 10.914772 -18.36042 21.50076 -19.377094 31.75755c-0.5083351 5.128395 2.2577095 11.333221 5.4274483 16.876434c0.39621735 0.6929016 0.7987442 1.375473 1.201973 2.044304l0.38246918 0.62779236" fill-rule="evenodd"></path><path stroke="#00ff00" stroke-width="2.0" stroke-linecap="butt" d="m63.47209 94.085815l7.556122 6.0162354l-1.9211578 -9.465691z" fill-rule="evenodd"></path><path fill="#000000" fill-opacity="0.0" d="m86.94891 7.323937c2.3324966 5.621845 14.892014 22.8163 13.994995 33.73107c-0.89701843 10.914768 -18.36042 21.50076 -19.377098 31.757545c-1.0166779 10.256783 11.064201 24.819313 13.277039 29.783173" fill-rule="nonzero"></path><path stroke="#00ff00" stroke-width="2.0" stroke-linejoin="round" stroke-linecap="butt" d="m86.94891 7.323937c2.3325043 5.621845 14.892006 22.816301 13.994995 33.731068c-0.89702606 10.914772 -18.36042 21.50076 -19.377098 31.75755c-0.5083389 5.128395 2.2577133 11.333221 5.4274445 16.876434c0.39622498 0.6929016 0.7987442 1.375473 1.201973 2.044304l0.38246918 0.62779236" fill-rule="evenodd"></path><path stroke="#00ff00" stroke-width="2.0" stroke-linecap="butt" d="m85.761215 94.085815l7.5561295 6.016243l-1.9211655 -9.465698z" fill-rule="evenodd"></path><path fill="#4a86e8" d="m17.030151 130.2995l0 0c0 -7.6293945E-5 5.9127808E-5 -1.373291E-4 1.335144E-4 -1.373291E-4l15.9998665 1.373291E-4c3.4332275E-5 0 6.866455E-5 1.5258789E-5 9.536743E-5 4.5776367E-5c2.2888184E-5 1.5258789E-5 3.8146973E-5 6.1035156E-5 3.8146973E-5 9.1552734E-5l-1.335144E-4 45.48018c0 7.6293945E-5 -6.1035156E-5 1.373291E-4 -1.335144E-4 1.373291E-4l-15.9998665 -1.373291E-4l0 0c-7.43866E-5 0 -1.335144E-4 -6.1035156E-5 -1.335144E-4 -1.373291E-4z" fill-rule="nonzero"></path><path stroke="#1155cc" stroke-width="1.0" stroke-linejoin="round" stroke-linecap="butt" d="m17.030151 130.2995l0 0c0 -7.6293945E-5 5.9127808E-5 -1.373291E-4 1.335144E-4 -1.373291E-4l15.9998665 1.373291E-4c3.4332275E-5 0 6.866455E-5 1.5258789E-5 9.536743E-5 4.5776367E-5c2.2888184E-5 1.5258789E-5 3.8146973E-5 6.1035156E-5 3.8146973E-5 9.1552734E-5l-1.335144E-4 45.48018c0 7.6293945E-5 -6.1035156E-5 1.373291E-4 -1.335144E-4 1.373291E-4l-15.9998665 -1.373291E-4l0 0c-7.43866E-5 0 -1.335144E-4 -6.1035156E-5 -1.335144E-4 -1.373291E-4z" fill-rule="nonzero"></path><path fill="#fcfffb" fill-opacity="0.3385" d="m17.835829 131.73383l0 0c0 -6.1035156E-5 4.9591064E-5 -1.0681152E-4 1.0871887E-4 -1.0681152E-4l13.039263 1.0681152E-4c2.861023E-5 0 5.531311E-5 1.5258789E-5 7.6293945E-5 3.0517578E-5c2.0980835E-5 3.0517578E-5 3.2424927E-5 6.1035156E-5 3.2424927E-5 7.6293945E-5l-1.0871887E-4 37.102264c0 6.1035156E-5 -4.9591064E-5 1.0681152E-4 -1.0871887E-4 1.0681152E-4l-13.039263 -1.0681152E-4l0 0c-5.9127808E-5 0 -1.0871887E-4 -4.5776367E-5 -1.0871887E-4 -1.0681152E-4z" fill-rule="nonzero"></path><path fill="#4a86e8" d="m39.318867 130.2995l0 0c0 -7.6293945E-5 6.1035156E-5 -1.373291E-4 1.335144E-4 -1.373291E-4l15.9998665 1.373291E-4c3.8146973E-5 0 6.866455E-5 1.5258789E-5 9.536743E-5 4.5776367E-5c2.670288E-5 1.5258789E-5 3.8146973E-5 6.1035156E-5 3.8146973E-5 9.1552734E-5l-1.335144E-4 45.48018c0 7.6293945E-5 -5.722046E-5 1.373291E-4 -1.335144E-4 1.373291E-4l-15.9998665 -1.373291E-4l0 0c-7.247925E-5 0 -1.335144E-4 -6.1035156E-5 -1.335144E-4 -1.373291E-4z" fill-rule="nonzero"></path><path stroke="#1155cc" stroke-width="1.0" stroke-linejoin="round" stroke-linecap="butt" d="m39.318867 130.2995l0 0c0 -7.6293945E-5 6.1035156E-5 -1.373291E-4 1.335144E-4 -1.373291E-4l15.9998665 1.373291E-4c3.8146973E-5 0 6.866455E-5 1.5258789E-5 9.536743E-5 4.5776367E-5c2.670288E-5 1.5258789E-5 3.8146973E-5 6.1035156E-5 3.8146973E-5 9.1552734E-5l-1.335144E-4 45.48018c0 7.6293945E-5 -5.722046E-5 1.373291E-4 -1.335144E-4 1.373291E-4l-15.9998665 -1.373291E-4l0 0c-7.247925E-5 0 -1.335144E-4 -6.1035156E-5 -1.335144E-4 -1.373291E-4z" fill-rule="nonzero"></path><path fill="#fcfffb" fill-opacity="0.3385" d="m40.124546 131.73383l0 0c0 -6.1035156E-5 4.9591064E-5 -1.0681152E-4 1.1062622E-4 -1.0681152E-4l13.039261 1.0681152E-4c2.670288E-5 0 5.340576E-5 1.5258789E-5 7.6293945E-5 3.0517578E-5c1.9073486E-5 3.0517578E-5 3.0517578E-5 6.1035156E-5 3.0517578E-5 7.6293945E-5l-1.0681152E-4 37.102264c0 6.1035156E-5 -4.9591064E-5 1.0681152E-4 -1.1062622E-4 1.0681152E-4l-13.039261 -1.0681152E-4l0 0c-6.1035156E-5 0 -1.0681152E-4 -4.5776367E-5 -1.0681152E-4 -1.0681152E-4z" fill-rule="nonzero"></path><path fill="#4a86e8" d="m61.607586 130.2995l0 0c0 -7.6293945E-5 5.722046E-5 -1.373291E-4 1.335144E-4 -1.373291E-4l15.999863 1.373291E-4c3.8146973E-5 0 6.866455E-5 1.5258789E-5 9.918213E-5 4.5776367E-5c2.2888184E-5 1.5258789E-5 3.8146973E-5 6.1035156E-5 3.8146973E-5 9.1552734E-5l-1.373291E-4 45.48018c0 7.6293945E-5 -6.1035156E-5 1.373291E-4 -1.296997E-4 1.373291E-4l-15.9998665 -1.373291E-4l0 0c-7.6293945E-5 0 -1.335144E-4 -6.1035156E-5 -1.335144E-4 -1.373291E-4z" fill-rule="nonzero"></path><path stroke="#1155cc" stroke-width="1.0" stroke-linejoin="round" stroke-linecap="butt" d="m61.607586 130.2995l0 0c0 -7.6293945E-5 5.722046E-5 -1.373291E-4 1.335144E-4 -1.373291E-4l15.999863 1.373291E-4c3.8146973E-5 0 6.866455E-5 1.5258789E-5 9.918213E-5 4.5776367E-5c2.2888184E-5 1.5258789E-5 3.8146973E-5 6.1035156E-5 3.8146973E-5 9.1552734E-5l-1.373291E-4 45.48018c0 7.6293945E-5 -6.1035156E-5 1.373291E-4 -1.296997E-4 1.373291E-4l-15.9998665 -1.373291E-4l0 0c-7.6293945E-5 0 -1.335144E-4 -6.1035156E-5 -1.335144E-4 -1.373291E-4z" fill-rule="nonzero"></path><path fill="#fcfffb" fill-opacity="0.3385" d="m62.41326 131.73383l0 0c0 -6.1035156E-5 4.9591064E-5 -1.0681152E-4 1.1062622E-4 -1.0681152E-4l13.039265 1.0681152E-4c2.2888184E-5 0 5.340576E-5 1.5258789E-5 7.6293945E-5 3.0517578E-5c1.5258789E-5 3.0517578E-5 3.0517578E-5 6.1035156E-5 3.0517578E-5 7.6293945E-5l-1.0681152E-4 37.102264c0 6.1035156E-5 -5.340576E-5 1.0681152E-4 -1.1444092E-4 1.0681152E-4l-13.039261 -1.0681152E-4l0 0c-5.722046E-5 0 -1.0681152E-4 -4.5776367E-5 -1.0681152E-4 -1.0681152E-4z" fill-rule="nonzero"></path><path fill="#4a86e8" d="m83.8963 130.2995l0 0c0 -7.6293945E-5 6.1035156E-5 -1.373291E-4 1.296997E-4 -1.373291E-4l15.99987 1.373291E-4c3.8146973E-5 0 6.866455E-5 1.5258789E-5 9.1552734E-5 4.5776367E-5c3.0517578E-5 1.5258789E-5 3.8146973E-5 6.1035156E-5 3.8146973E-5 9.1552734E-5l-1.296997E-4 45.48018c0 7.6293945E-5 -6.1035156E-5 1.373291E-4 -1.373291E-4 1.373291E-4l-15.999863 -1.373291E-4l0 0c-7.6293945E-5 0 -1.373291E-4 -6.1035156E-5 -1.373291E-4 -1.373291E-4z" fill-rule="nonzero"></path><path stroke="#1155cc" stroke-width="1.0" stroke-linejoin="round" stroke-linecap="butt" d="m83.8963 130.2995l0 0c0 -7.6293945E-5 6.1035156E-5 -1.373291E-4 1.296997E-4 -1.373291E-4l15.99987 1.373291E-4c3.8146973E-5 0 6.866455E-5 1.5258789E-5 9.1552734E-5 4.5776367E-5c3.0517578E-5 1.5258789E-5 3.8146973E-5 6.1035156E-5 3.8146973E-5 9.1552734E-5l-1.296997E-4 45.48018c0 7.6293945E-5 -6.1035156E-5 1.373291E-4 -1.373291E-4 1.373291E-4l-15.999863 -1.373291E-4l0 0c-7.6293945E-5 0 -1.373291E-4 -6.1035156E-5 -1.373291E-4 -1.373291E-4z" fill-rule="nonzero"></path><path fill="#fcfffb" fill-opacity="0.3385" d="m84.70198 131.73383l0 0c0 -6.1035156E-5 4.5776367E-5 -1.0681152E-4 1.0681152E-4 -1.0681152E-4l13.039261 1.0681152E-4c3.0517578E-5 0 6.1035156E-5 1.5258789E-5 7.6293945E-5 3.0517578E-5c2.2888184E-5 3.0517578E-5 3.0517578E-5 6.1035156E-5 3.0517578E-5 7.6293945E-5l-1.0681152E-4 37.102264c0 6.1035156E-5 -4.5776367E-5 1.0681152E-4 -1.0681152E-4 1.0681152E-4l-13.039261 -1.0681152E-4l0 0c-6.1035156E-5 0 -1.0681152E-4 -4.5776367E-5 -1.0681152E-4 -1.0681152E-4z" fill-rule="nonzero"></path></g></svg>
