<?xml version="1.0" standalone="yes"?>

<svg version="1.1" viewBox="0.0 0.0 156.0 183.0" fill="none" stroke="none" stroke-linecap="square" stroke-miterlimit="10" xmlns="http://www.w3.org/2000/svg" xmlns:xlink="http://www.w3.org/1999/xlink"><clipPath id="p.0"><path d="m0 0l156.0 0l0 183.0l-156.0 0l0 -183.0z" clip-rule="nonzero"></path></clipPath><g clip-path="url(#p.0)"><path fill="#000000" fill-opacity="0.0" d="m0 0l156.5433 0l0 183.04199l-156.5433 0z" fill-rule="nonzero"></path><path fill="#000000" fill-opacity="0.0" d="m22.439894 7.295486c3.3486938 8.071102 21.379984 32.75663 20.092165 48.426617c-1.2878189 15.669987 -26.359468 30.867954 -27.819077 45.593296c-1.459609 14.725334 15.88452 35.632294 19.061424 42.758743" fill-rule="nonzero"></path><path stroke="#00ff00" stroke-width="2.0" stroke-linejoin="round" stroke-linecap="butt" d="m22.439894 7.295486c3.3486938 8.071102 21.379984 32.75663 20.092165 48.426617c-1.2878189 15.669979 -26.359467 30.867954 -27.819077 45.59329c-0.7298031 7.3626785 3.2413263 16.270752 7.79202 24.228958c1.1376743 1.9895554 2.3115711 3.9197464 3.4572926 5.7515793c0.28643227 0.45796204 0.57110214 0.9097748 0.85300255 1.3548126l0.7390423 1.1613007" fill-rule="evenodd"></path><path stroke="#00ff00" stroke-width="2.0" stroke-linecap="butt" d="m24.729296 135.52435l7.5295887 6.049423l-1.8795052 -9.474045z" fill-rule="evenodd"></path><path fill="#71ff05" d="m18.058308 149.3205l0 0c0 -1.0681152E-4 8.583069E-5 -1.8310547E-4 1.9073486E-4 -1.8310547E-4l22.991936 1.8310547E-4c4.9591064E-5 0 9.918213E-5 1.5258789E-5 1.335144E-4 6.1035156E-5c3.8146973E-5 3.0517578E-5 5.722046E-5 7.6293945E-5 5.722046E-5 1.373291E-4l-1.9073486E-4 24.220276c0 1.0681152E-4 -8.773804E-5 1.9836426E-4 -1.9073486E-4 1.9836426E-4l-22.991936 -1.9836426E-4l0 0c-1.0681152E-4 0 -1.9264221E-4 -9.1552734E-5 -1.9264221E-4 -1.9836426E-4z" fill-rule="nonzero"></path><path stroke="#00ff00" stroke-width="1.0" stroke-linejoin="round" stroke-linecap="butt" d="m18.058308 149.3205l0 0c0 -1.0681152E-4 8.583069E-5 -1.8310547E-4 1.9073486E-4 -1.8310547E-4l22.991936 1.8310547E-4c4.9591064E-5 0 9.918213E-5 1.5258789E-5 1.335144E-4 6.1035156E-5c3.8146973E-5 3.0517578E-5 5.722046E-5 7.6293945E-5 5.722046E-5 1.373291E-4l-1.9073486E-4 24.220276c0 1.0681152E-4 -8.773804E-5 1.9836426E-4 -1.9073486E-4 1.9836426E-4l-22.991936 -1.9836426E-4l0 0c-1.0681152E-4 0 -1.9264221E-4 -9.1552734E-5 -1.9264221E-4 -1.9836426E-4z" fill-rule="nonzero"></path><path fill="#fcfffb" fill-opacity="0.3385" d="m19.215023 150.08467l0 0c0 -9.1552734E-5 7.05719E-5 -1.6784668E-4 1.5640259E-4 -1.6784668E-4l18.740002 1.6784668E-4c4.196167E-5 0 8.010864E-5 1.5258789E-5 1.1062622E-4 4.5776367E-5c2.670288E-5 3.0517578E-5 4.5776367E-5 6.1035156E-5 4.5776367E-5 1.0681152E-4l-1.5640259E-4 19.779373c0 7.6293945E-5 -6.866455E-5 1.5258789E-4 -1.5640259E-4 1.5258789E-4l-18.740002 -1.5258789E-4l0 0c-8.583069E-5 0 -1.5640259E-4 -7.6293945E-5 -1.5640259E-4 -1.5258789E-4z" fill-rule="nonzero"></path><path fill="#333333" fill-opacity="0.7769" d="m362.1689 65.70308l0 0c0 -12.994167 10.5338745 -23.528027 23.528046 -23.528027l94.10928 0l0 0c6.2400208 0 12.224457 2.4788399 16.63684 6.891201c4.4123535 4.412361 6.891205 10.396809 6.891205 16.636826l0 97.06993c0 12.994171 -10.5338745 23.52803 -23.528046 23.52803l-94.10928 0l0 0c-12.994171 0 -23.528046 -10.533859 -23.528046 -23.52803z" fill-rule="nonzero"></path><path stroke="#efefef" stroke-width="1.0" stroke-linejoin="round" stroke-linecap="butt" d="m362.1689 65.70308l0 0c0 -12.994167 10.5338745 -23.528027 23.528046 -23.528027l94.10928 0l0 0c6.2400208 0 12.224457 2.4788399 16.63684 6.891201c4.4123535 4.412361 6.891205 10.396809 6.891205 16.636826l0 97.06993c0 12.994171 -10.5338745 23.52803 -23.528046 23.52803l-94.10928 0l0 0c-12.994171 0 -23.528046 -10.533859 -23.528046 -23.52803z" fill-rule="nonzero"></path><path fill="#000000" fill-opacity="0.0" d="m374.5509 46.155067c3.3486938 8.071102 21.380005 32.75663 20.092163 48.426613c-1.2878113 15.669991 -26.359467 30.867958 -27.819061 45.593292c-1.4596252 14.725342 15.8845215 35.632294 19.061401 42.75876" fill-rule="nonzero"></path><path stroke="#00ff00" stroke-width="2.0" stroke-linejoin="round" stroke-linecap="butt" d="m374.5509 46.155067c3.3486938 8.071102 21.380005 32.75663 20.092194 48.426613c-1.2878113 15.669991 -26.359497 30.867958 -27.819122 45.593292c-0.7298279 7.362671 3.2413025 16.270752 7.792053 24.228958c1.1376648 1.9895477 2.311554 3.9197388 3.4572449 5.7515717c0.2864685 0.45796204 0.5711365 0.9097748 0.85302734 1.3548279l0.7390442 1.1613007" fill-rule="evenodd"></path><path stroke="#00ff00" stroke-width="2.0" stroke-linecap="butt" d="m376.8403 174.38394l7.529602 6.049423l-1.8795166 -9.47406z" fill-rule="evenodd"></path><path fill="#000000" fill-opacity="0.0" d="m389.4403 46.155067c3.3486938 8.071102 21.379974 32.75663 20.092163 48.426613c-1.2878113 15.669991 -26.359467 30.867958 -27.819092 45.593292c-1.4595947 14.725342 15.8845215 35.632294 19.061432 42.75876" fill-rule="nonzero"></path><path stroke="#00ff00" stroke-width="2.0" stroke-linejoin="round" stroke-linecap="butt" d="m389.44028 46.155067c3.3487244 8.071102 21.380005 32.75663 20.092194 48.426613c-1.2878113 15.669991 -26.359497 30.867958 -27.819092 45.593292c-0.72979736 7.362671 3.241333 16.270752 7.7920227 24.228958c1.1376953 1.9895477 2.311554 3.9197388 3.4572754 5.7515717c0.2864685 0.45796204 0.57110596 0.9097748 0.85302734 1.3548279l0.7390442 1.1613007" fill-rule="evenodd"></path><path stroke="#00ff00" stroke-width="2.0" stroke-linecap="butt" d="m391.7297 174.38394l7.5295715 6.049423l-1.8794861 -9.47406z" fill-rule="evenodd"></path><path fill="#000000" fill-opacity="0.0" d="m404.32965 46.155067c3.3486938 8.071102 21.380005 32.75663 20.092163 48.426613c-1.2878113 15.669991 -26.359467 30.867958 -27.819061 45.593292c-1.4596252 14.725342 15.8845215 35.632294 19.061401 42.75876" fill-rule="nonzero"></path><path stroke="#00ff00" stroke-width="2.0" stroke-linejoin="round" stroke-linecap="butt" d="m404.32965 46.155067c3.3486938 8.071102 21.380005 32.75663 20.092194 48.426613c-1.2878113 15.669991 -26.359497 30.867958 -27.819122 45.593292c-0.72976685 7.362671 3.2413635 16.270752 7.792053 24.228958c1.1376648 1.9895477 2.311554 3.9197388 3.4572449 5.7515717c0.2864685 0.45796204 0.5711365 0.9097748 0.85302734 1.3548279l0.7390442 1.1613007" fill-rule="evenodd"></path><path stroke="#00ff00" stroke-width="2.0" stroke-linecap="butt" d="m406.61905 174.38394l7.529602 6.049423l-1.8795166 -9.47406z" fill-rule="evenodd"></path><path fill="#000000" fill-opacity="0.0" d="m419.21906 46.155067c3.3486938 8.071102 21.379974 32.75663 20.092163 48.426613c-1.2878113 15.669991 -26.359467 30.867958 -27.819092 45.593292c-1.4595947 14.725342 15.8845215 35.632294 19.061432 42.75876" fill-rule="nonzero"></path><path stroke="#00ff00" stroke-width="2.0" stroke-linejoin="round" stroke-linecap="butt" d="m419.21902 46.155067c3.3487244 8.071102 21.380005 32.75663 20.092194 48.426613c-1.2878113 15.669991 -26.359497 30.867958 -27.819092 45.593292c-0.7298279 7.362671 3.2413025 16.270752 7.7920227 24.228958c1.1376953 1.9895477 2.3115845 3.9197388 3.4572754 5.7515717c0.2864685 0.45796204 0.57110596 0.9097748 0.85302734 1.3548279l0.7390442 1.1613007" fill-rule="evenodd"></path><path stroke="#00ff00" stroke-width="2.0" stroke-linecap="butt" d="m421.50845 174.38394l7.5295715 6.049423l-1.8794861 -9.47406z" fill-rule="evenodd"></path><path fill="#000000" fill-opacity="0.0" d="m434.10846 46.155067c3.3486938 8.071102 21.379974 32.75663 20.092163 48.426613c-1.2878418 15.669991 -26.359467 30.867958 -27.819092 45.593292c-1.4595947 14.725342 15.8845215 35.632294 19.061432 42.75876" fill-rule="nonzero"></path><path stroke="#00ff00" stroke-width="2.0" stroke-linejoin="round" stroke-linecap="butt" d="m434.10843 46.155067c3.3487244 8.071102 21.380005 32.75663 20.092194 48.426613c-1.2878113 15.669991 -26.359497 30.867958 -27.819092 45.593292c-0.72979736 7.362671 3.241333 16.270752 7.7920227 24.228958c1.1376648 1.9895477 2.311554 3.9197388 3.4572754 5.7515717c0.286438 0.45796204 0.57110596 0.9097748 0.85302734 1.3548279l0.7390442 1.1613007" fill-rule="evenodd"></path><path stroke="#00ff00" stroke-width="2.0" stroke-linecap="butt" d="m436.39783 174.38394l7.529602 6.049423l-1.8795166 -9.47406z" fill-rule="evenodd"></path><path fill="#000000" fill-opacity="0.0" d="m448.9978 46.155067c3.3486938 8.071102 21.379974 32.75663 20.092163 48.426613c-1.2878113 15.669991 -26.359467 30.867958 -27.819092 45.593292c-1.4595947 14.725342 15.8845215 35.632294 19.061432 42.75876" fill-rule="nonzero"></path><path stroke="#00ff00" stroke-width="2.0" stroke-linejoin="round" stroke-linecap="butt" d="m448.99777 46.155067c3.3487244 8.071102 21.380005 32.75663 20.092194 48.426613c-1.2878113 15.669991 -26.359497 30.867958 -27.819092 45.593292c-0.72976685 7.362671 3.241333 16.270752 7.7920227 24.228958c1.1376953 1.9895477 2.3115845 3.9197388 3.4572754 5.7515717c0.2864685 0.45796204 0.57110596 0.9097748 0.85302734 1.3548279l0.7390442 1.1613007" fill-rule="evenodd"></path><path stroke="#00ff00" stroke-width="2.0" stroke-linecap="butt" d="m451.2872 174.38394l7.5295715 6.049423l-1.8794861 -9.47406z" fill-rule="evenodd"></path><path fill="#000000" fill-opacity="0.0" d="m463.8872 46.155067c3.3486938 8.071102 21.379974 32.75663 20.092163 48.426613c-1.2878418 15.669991 -26.359467 30.867958 -27.819092 45.593292c-1.4595947 14.725342 15.8845215 35.632294 19.061432 42.75876" fill-rule="nonzero"></path><path stroke="#00ff00" stroke-width="2.0" stroke-linejoin="round" stroke-linecap="butt" d="m463.88718 46.155067c3.3487244 8.071102 21.380005 32.75663 20.092194 48.426613c-1.2878113 15.669991 -26.359497 30.867958 -27.819092 45.593292c-0.7298279 7.362671 3.2413025 16.270752 7.7920227 24.228958c1.1376648 1.9895477 2.311554 3.9197388 3.4572754 5.7515717c0.2864685 0.45796204 0.57110596 0.9097748 0.85302734 1.3548279l0.7390442 1.1613007" fill-rule="evenodd"></path><path stroke="#00ff00" stroke-width="2.0" stroke-linecap="butt" d="m466.17657 174.38394l7.529602 6.049423l-1.8795166 -9.47406z" fill-rule="evenodd"></path><path fill="#000000" fill-opacity="0.0" d="m478.77655 46.155067c3.3486938 8.071102 21.379974 32.75663 20.092163 48.426613c-1.2878113 15.669991 -26.359467 30.867958 -27.819061 45.593292c-1.4596252 14.725342 15.884491 35.632294 19.061401 42.75876" fill-rule="nonzero"></path><path stroke="#00ff00" stroke-width="2.0" stroke-linejoin="round" stroke-linecap="butt" d="m478.77652 46.155067c3.3487244 8.071102 21.380005 32.75663 20.092194 48.426613c-1.2878113 15.669991 -26.359497 30.867958 -27.819092 45.593292c-0.7298279 7.362671 3.2413025 16.270752 7.7920227 24.228958c1.1376953 1.9895477 2.3115845 3.9197388 3.4572754 5.7515717c0.2864685 0.45796204 0.57110596 0.9097748 0.85302734 1.3548279l0.7390442 1.1613007" fill-rule="evenodd"></path><path stroke="#00ff00" stroke-width="2.0" stroke-linecap="butt" d="m481.06595 174.38394l7.5295715 6.049423l-1.8794861 -9.47406z" fill-rule="evenodd"></path><path fill="#333333" fill-opacity="0.7769" d="m362.1689 65.70308l0 0c0 -12.994167 10.5338745 -23.528027 23.528046 -23.528027l94.10928 0l0 0c6.2400208 0 12.224457 2.4788399 16.63684 6.891201c4.4123535 4.412361 6.891205 10.396809 6.891205 16.636826l0 97.06993c0 12.994171 -10.5338745 23.52803 -23.528046 23.52803l-94.10928 0l0 0c-12.994171 0 -23.528046 -10.533859 -23.528046 -23.52803z" fill-rule="nonzero"></path><path stroke="#efefef" stroke-width="1.0" stroke-linejoin="round" stroke-linecap="butt" d="m362.1689 65.70308l0 0c0 -12.994167 10.5338745 -23.528027 23.528046 -23.528027l94.10928 0l0 0c6.2400208 0 12.224457 2.4788399 16.63684 6.891201c4.4123535 4.412361 6.891205 10.396809 6.891205 16.636826l0 97.06993c0 12.994171 -10.5338745 23.52803 -23.528046 23.52803l-94.10928 0l0 0c-12.994171 0 -23.528046 -10.533859 -23.528046 -23.52803z" fill-rule="nonzero"></path><path fill="#000000" fill-opacity="0.0" d="m374.5509 46.155067c3.3486938 8.071102 21.380005 32.75663 20.092163 48.426613c-1.2878113 15.669991 -26.359467 30.867958 -27.819061 45.593292c-1.4596252 14.725342 15.8845215 35.632294 19.061401 42.75876" fill-rule="nonzero"></path><path stroke="#00ff00" stroke-width="2.0" stroke-linejoin="round" stroke-linecap="butt" d="m374.5509 46.155067c3.3486938 8.071102 21.380005 32.75663 20.092194 48.426613c-1.2878113 15.669991 -26.359497 30.867958 -27.819122 45.593292c-0.7298279 7.362671 3.2413025 16.270752 7.792053 24.228958c1.1376648 1.9895477 2.311554 3.9197388 3.4572449 5.7515717c0.2864685 0.45796204 0.5711365 0.9097748 0.85302734 1.3548279l0.7390442 1.1613007" fill-rule="evenodd"></path><path stroke="#00ff00" stroke-width="2.0" stroke-linecap="butt" d="m376.8403 174.38394l7.529602 6.049423l-1.8795166 -9.47406z" fill-rule="evenodd"></path><path fill="#000000" fill-opacity="0.0" d="m389.4403 46.155067c3.3486938 8.071102 21.379974 32.75663 20.092163 48.426613c-1.2878113 15.669991 -26.359467 30.867958 -27.819092 45.593292c-1.4595947 14.725342 15.8845215 35.632294 19.061432 42.75876" fill-rule="nonzero"></path><path stroke="#00ff00" stroke-width="2.0" stroke-linejoin="round" stroke-linecap="butt" d="m389.44028 46.155067c3.3487244 8.071102 21.380005 32.75663 20.092194 48.426613c-1.2878113 15.669991 -26.359497 30.867958 -27.819092 45.593292c-0.72979736 7.362671 3.241333 16.270752 7.7920227 24.228958c1.1376953 1.9895477 2.311554 3.9197388 3.4572754 5.7515717c0.2864685 0.45796204 0.57110596 0.9097748 0.85302734 1.3548279l0.7390442 1.1613007" fill-rule="evenodd"></path><path stroke="#00ff00" stroke-width="2.0" stroke-linecap="butt" d="m391.7297 174.38394l7.5295715 6.049423l-1.8794861 -9.47406z" fill-rule="evenodd"></path><path fill="#000000" fill-opacity="0.0" d="m404.32965 46.155067c3.3486938 8.071102 21.380005 32.75663 20.092163 48.426613c-1.2878113 15.669991 -26.359467 30.867958 -27.819061 45.593292c-1.4596252 14.725342 15.8845215 35.632294 19.061401 42.75876" fill-rule="nonzero"></path><path stroke="#00ff00" stroke-width="2.0" stroke-linejoin="round" stroke-linecap="butt" d="m404.32965 46.155067c3.3486938 8.071102 21.380005 32.75663 20.092194 48.426613c-1.2878113 15.669991 -26.359497 30.867958 -27.819122 45.593292c-0.72976685 7.362671 3.2413635 16.270752 7.792053 24.228958c1.1376648 1.9895477 2.311554 3.9197388 3.4572449 5.7515717c0.2864685 0.45796204 0.5711365 0.9097748 0.85302734 1.3548279l0.7390442 1.1613007" fill-rule="evenodd"></path><path stroke="#00ff00" stroke-width="2.0" stroke-linecap="butt" d="m406.61905 174.38394l7.529602 6.049423l-1.8795166 -9.47406z" fill-rule="evenodd"></path><path fill="#000000" fill-opacity="0.0" d="m419.21906 46.155067c3.3486938 8.071102 21.379974 32.75663 20.092163 48.426613c-1.2878113 15.669991 -26.359467 30.867958 -27.819092 45.593292c-1.4595947 14.725342 15.8845215 35.632294 19.061432 42.75876" fill-rule="nonzero"></path><path stroke="#00ff00" stroke-width="2.0" stroke-linejoin="round" stroke-linecap="butt" d="m419.21902 46.155067c3.3487244 8.071102 21.380005 32.75663 20.092194 48.426613c-1.2878113 15.669991 -26.359497 30.867958 -27.819092 45.593292c-0.7298279 7.362671 3.2413025 16.270752 7.7920227 24.228958c1.1376953 1.9895477 2.3115845 3.9197388 3.4572754 5.7515717c0.2864685 0.45796204 0.57110596 0.9097748 0.85302734 1.3548279l0.7390442 1.1613007" fill-rule="evenodd"></path><path stroke="#00ff00" stroke-width="2.0" stroke-linecap="butt" d="m421.50845 174.38394l7.5295715 6.049423l-1.8794861 -9.47406z" fill-rule="evenodd"></path><path fill="#000000" fill-opacity="0.0" d="m434.10846 46.155067c3.3486938 8.071102 21.379974 32.75663 20.092163 48.426613c-1.2878418 15.669991 -26.359467 30.867958 -27.819092 45.593292c-1.4595947 14.725342 15.8845215 35.632294 19.061432 42.75876" fill-rule="nonzero"></path><path stroke="#00ff00" stroke-width="2.0" stroke-linejoin="round" stroke-linecap="butt" d="m434.10843 46.155067c3.3487244 8.071102 21.380005 32.75663 20.092194 48.426613c-1.2878113 15.669991 -26.359497 30.867958 -27.819092 45.593292c-0.72979736 7.362671 3.241333 16.270752 7.7920227 24.228958c1.1376648 1.9895477 2.311554 3.9197388 3.4572754 5.7515717c0.286438 0.45796204 0.57110596 0.9097748 0.85302734 1.3548279l0.7390442 1.1613007" fill-rule="evenodd"></path><path stroke="#00ff00" stroke-width="2.0" stroke-linecap="butt" d="m436.39783 174.38394l7.529602 6.049423l-1.8795166 -9.47406z" fill-rule="evenodd"></path><path fill="#000000" fill-opacity="0.0" d="m448.9978 46.155067c3.3486938 8.071102 21.379974 32.75663 20.092163 48.426613c-1.2878113 15.669991 -26.359467 30.867958 -27.819092 45.593292c-1.4595947 14.725342 15.8845215 35.632294 19.061432 42.75876" fill-rule="nonzero"></path><path stroke="#00ff00" stroke-width="2.0" stroke-linejoin="round" stroke-linecap="butt" d="m448.99777 46.155067c3.3487244 8.071102 21.380005 32.75663 20.092194 48.426613c-1.2878113 15.669991 -26.359497 30.867958 -27.819092 45.593292c-0.72976685 7.362671 3.241333 16.270752 7.7920227 24.228958c1.1376953 1.9895477 2.3115845 3.9197388 3.4572754 5.7515717c0.2864685 0.45796204 0.57110596 0.9097748 0.85302734 1.3548279l0.7390442 1.1613007" fill-rule="evenodd"></path><path stroke="#00ff00" stroke-width="2.0" stroke-linecap="butt" d="m451.2872 174.38394l7.5295715 6.049423l-1.8794861 -9.47406z" fill-rule="evenodd"></path><path fill="#000000" fill-opacity="0.0" d="m463.8872 46.155067c3.3486938 8.071102 21.379974 32.75663 20.092163 48.426613c-1.2878418 15.669991 -26.359467 30.867958 -27.819092 45.593292c-1.4595947 14.725342 15.8845215 35.632294 19.061432 42.75876" fill-rule="nonzero"></path><path stroke="#00ff00" stroke-width="2.0" stroke-linejoin="round" stroke-linecap="butt" d="m463.88718 46.155067c3.3487244 8.071102 21.380005 32.75663 20.092194 48.426613c-1.2878113 15.669991 -26.359497 30.867958 -27.819092 45.593292c-0.7298279 7.362671 3.2413025 16.270752 7.7920227 24.228958c1.1376648 1.9895477 2.311554 3.9197388 3.4572754 5.7515717c0.2864685 0.45796204 0.57110596 0.9097748 0.85302734 1.3548279l0.7390442 1.1613007" fill-rule="evenodd"></path><path stroke="#00ff00" stroke-width="2.0" stroke-linecap="butt" d="m466.17657 174.38394l7.529602 6.049423l-1.8795166 -9.47406z" fill-rule="evenodd"></path><path fill="#000000" fill-opacity="0.0" d="m478.77655 46.155067c3.3486938 8.071102 21.379974 32.75663 20.092163 48.426613c-1.2878113 15.669991 -26.359467 30.867958 -27.819061 45.593292c-1.4596252 14.725342 15.884491 35.632294 19.061401 42.75876" fill-rule="nonzero"></path><path stroke="#00ff00" stroke-width="2.0" stroke-linejoin="round" stroke-linecap="butt" d="m478.77652 46.155067c3.3487244 8.071102 21.380005 32.75663 20.092194 48.426613c-1.2878113 15.669991 -26.359497 30.867958 -27.819092 45.593292c-0.7298279 7.362671 3.2413025 16.270752 7.7920227 24.228958c1.1376953 1.9895477 2.3115845 3.9197388 3.4572754 5.7515717c0.2864685 0.45796204 0.57110596 0.9097748 0.85302734 1.3548279l0.7390442 1.1613007" fill-rule="evenodd"></path><path stroke="#00ff00" stroke-width="2.0" stroke-linecap="butt" d="m481.06595 174.38394l7.5295715 6.049423l-1.8794861 -9.47406z" fill-rule="evenodd"></path><path fill="#71ff05" d="m50.058308 149.3205l0 0c0 -1.0681152E-4 8.392334E-5 -1.8310547E-4 1.9073486E-4 -1.8310547E-4l22.991932 1.8310547E-4c5.340576E-5 0 9.918213E-5 1.5258789E-5 1.373291E-4 6.1035156E-5c3.8146973E-5 3.0517578E-5 6.1035156E-5 7.6293945E-5 6.1035156E-5 1.373291E-4l-1.9836426E-4 24.220276c0 1.0681152E-4 -8.392334E-5 1.9836426E-4 -1.9073486E-4 1.9836426E-4l-22.991932 -1.9836426E-4l0 0c-1.0681152E-4 0 -1.9073486E-4 -9.1552734E-5 -1.9073486E-4 -1.9836426E-4z" fill-rule="nonzero"></path><path stroke="#00ff00" stroke-width="1.0" stroke-linejoin="round" stroke-linecap="butt" d="m50.058308 149.3205l0 0c0 -1.0681152E-4 8.392334E-5 -1.8310547E-4 1.9073486E-4 -1.8310547E-4l22.991932 1.8310547E-4c5.340576E-5 0 9.918213E-5 1.5258789E-5 1.373291E-4 6.1035156E-5c3.8146973E-5 3.0517578E-5 6.1035156E-5 7.6293945E-5 6.1035156E-5 1.373291E-4l-1.9836426E-4 24.220276c0 1.0681152E-4 -8.392334E-5 1.9836426E-4 -1.9073486E-4 1.9836426E-4l-22.991932 -1.9836426E-4l0 0c-1.0681152E-4 0 -1.9073486E-4 -9.1552734E-5 -1.9073486E-4 -1.9836426E-4z" fill-rule="nonzero"></path><path fill="#fcfffb" fill-opacity="0.3385" d="m51.215023 150.08467l0 0c0 -9.1552734E-5 6.866455E-5 -1.6784668E-4 1.5640259E-4 -1.6784668E-4l18.739998 1.6784668E-4c4.5776367E-5 0 8.392334E-5 1.5258789E-5 1.1444092E-4 4.5776367E-5c3.0517578E-5 3.0517578E-5 4.5776367E-5 6.1035156E-5 4.5776367E-5 1.0681152E-4l-1.6021729E-4 19.779373c0 7.6293945E-5 -6.866455E-5 1.5258789E-4 -1.5258789E-4 1.5258789E-4l-18.740002 -1.5258789E-4l0 0c-8.773804E-5 0 -1.5640259E-4 -7.6293945E-5 -1.5640259E-4 -1.5258789E-4z" fill-rule="nonzero"></path><path fill="#71ff05" d="m82.058304 149.3205l0 0c0 -1.0681152E-4 9.1552734E-5 -1.8310547E-4 1.9836426E-4 -1.8310547E-4l22.991928 1.8310547E-4c5.340576E-5 0 9.918213E-5 1.5258789E-5 1.373291E-4 6.1035156E-5c3.8146973E-5 3.0517578E-5 6.1035156E-5 7.6293945E-5 6.1035156E-5 1.373291E-4l-1.9836426E-4 24.220276c0 1.0681152E-4 -8.392334E-5 1.9836426E-4 -1.9073486E-4 1.9836426E-4l-22.991936 -1.9836426E-4l0 0c-9.918213E-5 0 -1.9073486E-4 -9.1552734E-5 -1.9073486E-4 -1.9836426E-4z" fill-rule="nonzero"></path><path stroke="#00ff00" stroke-width="1.0" stroke-linejoin="round" stroke-linecap="butt" d="m82.058304 149.3205l0 0c0 -1.0681152E-4 9.1552734E-5 -1.8310547E-4 1.9836426E-4 -1.8310547E-4l22.991928 1.8310547E-4c5.340576E-5 0 9.918213E-5 1.5258789E-5 1.373291E-4 6.1035156E-5c3.8146973E-5 3.0517578E-5 6.1035156E-5 7.6293945E-5 6.1035156E-5 1.373291E-4l-1.9836426E-4 24.220276c0 1.0681152E-4 -8.392334E-5 1.9836426E-4 -1.9073486E-4 1.9836426E-4l-22.991936 -1.9836426E-4l0 0c-9.918213E-5 0 -1.9073486E-4 -9.1552734E-5 -1.9073486E-4 -1.9836426E-4z" fill-rule="nonzero"></path><path fill="#fcfffb" fill-opacity="0.3385" d="m83.21503 150.08467l0 0c0 -9.1552734E-5 6.866455E-5 -1.6784668E-4 1.5258789E-4 -1.6784668E-4l18.739998 1.6784668E-4c4.5776367E-5 0 8.392334E-5 1.5258789E-5 1.1444092E-4 4.5776367E-5c3.0517578E-5 3.0517578E-5 4.5776367E-5 6.1035156E-5 4.5776367E-5 1.0681152E-4l-1.6021729E-4 19.779373c0 7.6293945E-5 -6.866455E-5 1.5258789E-4 -1.5258789E-4 1.5258789E-4l-18.739998 -1.5258789E-4l0 0c-9.1552734E-5 0 -1.6021729E-4 -7.6293945E-5 -1.6021729E-4 -1.5258789E-4z" fill-rule="nonzero"></path><path fill="#71ff05" d="m114.058304 149.3205l0 0c0 -1.0681152E-4 9.1552734E-5 -1.8310547E-4 1.9836426E-4 -1.8310547E-4l22.991928 1.8310547E-4c6.1035156E-5 0 1.0681152E-4 1.5258789E-5 1.373291E-4 6.1035156E-5c3.0517578E-5 3.0517578E-5 6.1035156E-5 7.6293945E-5 6.1035156E-5 1.373291E-4l-1.9836426E-4 24.220276c0 1.0681152E-4 -7.6293945E-5 1.9836426E-4 -1.8310547E-4 1.9836426E-4l-22.991943 -1.9836426E-4l0 0c-9.918213E-5 0 -1.9073486E-4 -9.1552734E-5 -1.9073486E-4 -1.9836426E-4z" fill-rule="nonzero"></path><path stroke="#00ff00" stroke-width="1.0" stroke-linejoin="round" stroke-linecap="butt" d="m114.058304 149.3205l0 0c0 -1.0681152E-4 9.1552734E-5 -1.8310547E-4 1.9836426E-4 -1.8310547E-4l22.991928 1.8310547E-4c6.1035156E-5 0 1.0681152E-4 1.5258789E-5 1.373291E-4 6.1035156E-5c3.0517578E-5 3.0517578E-5 6.1035156E-5 7.6293945E-5 6.1035156E-5 1.373291E-4l-1.9836426E-4 24.220276c0 1.0681152E-4 -7.6293945E-5 1.9836426E-4 -1.8310547E-4 1.9836426E-4l-22.991943 -1.9836426E-4l0 0c-9.918213E-5 0 -1.9073486E-4 -9.1552734E-5 -1.9073486E-4 -1.9836426E-4z" fill-rule="nonzero"></path><path fill="#fcfffb" fill-opacity="0.3385" d="m115.21503 150.08467l0 0c0 -9.1552734E-5 6.866455E-5 -1.6784668E-4 1.5258789E-4 -1.6784668E-4l18.740005 1.6784668E-4c3.0517578E-5 0 7.6293945E-5 1.5258789E-5 1.0681152E-4 4.5776367E-5c3.0517578E-5 3.0517578E-5 4.5776367E-5 6.1035156E-5 4.5776367E-5 1.0681152E-4l-1.5258789E-4 19.779373c0 7.6293945E-5 -7.6293945E-5 1.5258789E-4 -1.6784668E-4 1.5258789E-4l-18.73999 -1.5258789E-4l0 0c-9.1552734E-5 0 -1.6021729E-4 -7.6293945E-5 -1.6021729E-4 -1.5258789E-4z" fill-rule="nonzero"></path><path fill="#000000" fill-opacity="0.0" d="m54.43989 7.295486c3.3486938 8.071102 21.379986 32.75663 20.092167 48.426617c-1.2878189 15.669987 -26.359467 30.867954 -27.819077 45.593296c-1.45961 14.725334 15.884518 35.632294 19.061424 42.758743" fill-rule="nonzero"></path><path stroke="#00ff00" stroke-width="2.0" stroke-linejoin="round" stroke-linecap="butt" d="m54.439896 7.295486c3.34869 8.071102 21.379982 32.75663 20.092163 48.426617c-1.2878189 15.669979 -26.359467 30.867954 -27.819077 45.59329c-0.729805 7.3626785 3.2413254 16.270752 7.7920227 24.228958c1.1376724 1.9895554 2.3115654 3.9197464 3.4572906 5.7515793c0.28642654 0.45796204 0.5710983 0.9097748 0.85300446 1.3548126l0.7390404 1.1613007" fill-rule="evenodd"></path><path stroke="#00ff00" stroke-width="2.0" stroke-linecap="butt" d="m56.729298 135.52435l7.529583 6.049423l-1.8795013 -9.474045z" fill-rule="evenodd"></path><path fill="#000000" fill-opacity="0.0" d="m86.439896 7.295486c3.3486938 8.071102 21.379982 32.75663 20.092163 48.426617c-1.2878189 15.669987 -26.359467 30.867954 -27.819077 45.593296c-1.45961 14.725334 15.8845215 35.632294 19.061424 42.758743" fill-rule="nonzero"></path><path stroke="#00ff00" stroke-width="2.0" stroke-linejoin="round" stroke-linecap="butt" d="m86.43989 7.295486c3.3487015 8.071102 21.379997 32.75663 20.09217 48.426617c-1.2878189 15.669979 -26.359467 30.867954 -27.819077 45.59329c-0.729805 7.3626785 3.2413254 16.270752 7.7920227 24.228958c1.1376724 1.9895554 2.3115692 3.9197464 3.457283 5.7515793c0.286438 0.45796204 0.57110596 0.9097748 0.8530121 1.3548126l0.73903656 1.1613007" fill-rule="evenodd"></path><path stroke="#00ff00" stroke-width="2.0" stroke-linecap="butt" d="m88.729294 135.52435l7.529587 6.049423l-1.8795013 -9.474045z" fill-rule="evenodd"></path><path fill="#000000" fill-opacity="0.0" d="m118.439896 7.295486c3.3486938 8.071102 21.37999 32.75663 20.092163 48.426617c-1.2878113 15.669987 -26.359467 30.867954 -27.819077 45.593296c-1.45961 14.725334 15.8845215 35.632294 19.061417 42.758743" fill-rule="nonzero"></path><path stroke="#00ff00" stroke-width="2.0" stroke-linejoin="round" stroke-linecap="butt" d="m118.43989 7.295486c3.3487015 8.071102 21.379997 32.75663 20.09217 48.426617c-1.2878265 15.669979 -26.359467 30.867954 -27.819084 45.59329c-0.72979736 7.3626785 3.241333 16.270752 7.7920303 24.228958c1.1376724 1.9895554 2.3115692 3.9197464 3.457283 5.7515793c0.286438 0.45796204 0.57110596 0.9097748 0.8530121 1.3548126l0.73903656 1.1613007" fill-rule="evenodd"></path><path stroke="#00ff00" stroke-width="2.0" stroke-linecap="butt" d="m120.729294 135.52435l7.529587 6.049423l-1.8795013 -9.474045z" fill-rule="evenodd"></path></g></svg>
