<?xml version="1.0" standalone="yes"?>

<svg version="1.1" viewBox="0.0 0.0 226.0 202.0" fill="none" stroke="none" stroke-linecap="square" stroke-miterlimit="10" xmlns="http://www.w3.org/2000/svg" xmlns:xlink="http://www.w3.org/1999/xlink"><clipPath id="p.0"><path d="m0 0l226.0 0l0 202.0l-226.0 0l0 -202.0z" clip-rule="nonzero"></path></clipPath><g clip-path="url(#p.0)"><path fill="#000000" fill-opacity="0.0" d="m0 0l226.9685 0l0 202.04987l-226.9685 0z" fill-rule="nonzero"></path><path fill="#000000" fill-opacity="0.0" d="m19.643734 7.2775817c2.1425018 5.1639094 13.678963 20.957767 12.855015 30.983458c-0.8239498 10.025692 -16.86485 19.74939 -17.79871 29.170692c-0.93386173 9.42131 10.162952 22.797623 12.195541 27.357147" fill-rule="nonzero"></path><path stroke="#00ff00" stroke-width="2.0" stroke-linejoin="round" stroke-linecap="butt" d="m19.643734 7.2775817c2.1425018 5.1639104 13.678963 20.957767 12.855015 30.983461c-0.8239498 10.025692 -16.86485 19.749382 -17.79871 29.170689c-0.4669304 4.710655 2.0738068 10.410057 4.9853516 15.5017395c0.1819706 0.31822968 0.36539268 0.6340866 0.54961586 0.9471741l0.39974403 0.6709442" fill-rule="evenodd"></path><path stroke="#00ff00" stroke-width="2.0" stroke-linecap="butt" d="m17.81654 86.27513l7.553587 6.019432l-1.9171677 -9.466507z" fill-rule="evenodd"></path><path fill="#71ff05" d="m16.84032 98.14461l0 0c0 -6.866455E-5 5.531311E-5 -1.2207031E-4 1.2207031E-4 -1.2207031E-4l14.708538 1.2207031E-4c3.4332275E-5 0 6.484985E-5 1.5258789E-5 8.773804E-5 3.8146973E-5c2.2888184E-5 2.2888184E-5 3.6239624E-5 5.340576E-5 3.6239624E-5 8.392334E-5l-1.2397766E-4 15.495941c0 6.866455E-5 -5.340576E-5 1.2207031E-4 -1.2207031E-4 1.2207031E-4l-14.708538 -1.2207031E-4l0 0c-6.866455E-5 0 -1.2207031E-4 -5.340576E-5 -1.2207031E-4 -1.2207031E-4z" fill-rule="nonzero"></path><path stroke="#00ff00" stroke-width="1.0" stroke-linejoin="round" stroke-linecap="butt" d="m16.84032 98.14461l0 0c0 -6.866455E-5 5.531311E-5 -1.2207031E-4 1.2207031E-4 -1.2207031E-4l14.708538 1.2207031E-4c3.4332275E-5 0 6.484985E-5 1.5258789E-5 8.773804E-5 3.8146973E-5c2.2888184E-5 2.2888184E-5 3.6239624E-5 5.340576E-5 3.6239624E-5 8.392334E-5l-1.2397766E-4 15.495941c0 6.866455E-5 -5.340576E-5 1.2207031E-4 -1.2207031E-4 1.2207031E-4l-14.708538 -1.2207031E-4l0 0c-6.866455E-5 0 -1.2207031E-4 -5.340576E-5 -1.2207031E-4 -1.2207031E-4z" fill-rule="nonzero"></path><path fill="#fcfffb" fill-opacity="0.3385" d="m17.580368 98.63352l0 0c0 -6.1035156E-5 4.386902E-5 -9.918213E-5 9.918213E-5 -9.918213E-5l11.968405 9.918213E-5c2.670288E-5 0 5.1498413E-5 7.6293945E-6 7.05719E-5 2.2888184E-5c1.9073486E-5 2.2888184E-5 2.861023E-5 4.5776367E-5 2.861023E-5 7.6293945E-5l-9.918213E-5 12.629822c0 5.340576E-5 -4.386902E-5 9.918213E-5 -9.918213E-5 9.918213E-5l-11.968405 -9.918213E-5l0 0c-5.531311E-5 0 -9.918213E-5 -4.5776367E-5 -9.918213E-5 -9.918213E-5z" fill-rule="nonzero"></path><path fill="#333333" fill-opacity="0.7769" d="m354.1689 65.70308l0 0c0 -12.994167 10.5338745 -23.528027 23.528046 -23.528027l94.10928 0l0 0c6.2400208 0 12.224457 2.4788399 16.63684 6.891201c4.4123535 4.412361 6.891205 10.396809 6.891205 16.636826l0 97.06993c0 12.994171 -10.5338745 23.52803 -23.528046 23.52803l-94.10928 0l0 0c-12.994171 0 -23.528046 -10.533859 -23.528046 -23.52803z" fill-rule="nonzero"></path><path stroke="#efefef" stroke-width="1.0" stroke-linejoin="round" stroke-linecap="butt" d="m354.1689 65.70308l0 0c0 -12.994167 10.5338745 -23.528027 23.528046 -23.528027l94.10928 0l0 0c6.2400208 0 12.224457 2.4788399 16.63684 6.891201c4.4123535 4.412361 6.891205 10.396809 6.891205 16.636826l0 97.06993c0 12.994171 -10.5338745 23.52803 -23.528046 23.52803l-94.10928 0l0 0c-12.994171 0 -23.528046 -10.533859 -23.528046 -23.52803z" fill-rule="nonzero"></path><path fill="#000000" fill-opacity="0.0" d="m366.5509 46.155067c3.3486938 8.071102 21.380005 32.75663 20.092163 48.426613c-1.2878113 15.669991 -26.359467 30.867958 -27.819061 45.593292c-1.4596252 14.725342 15.8845215 35.632294 19.061401 42.75876" fill-rule="nonzero"></path><path stroke="#00ff00" stroke-width="2.0" stroke-linejoin="round" stroke-linecap="butt" d="m366.5509 46.155067c3.3486938 8.071102 21.380005 32.75663 20.092194 48.426613c-1.2878113 15.669991 -26.359497 30.867958 -27.819122 45.593292c-0.7298279 7.362671 3.2413025 16.270752 7.792053 24.228958c1.1376648 1.9895477 2.311554 3.9197388 3.4572449 5.7515717c0.2864685 0.45796204 0.5711365 0.9097748 0.85302734 1.3548279l0.7390442 1.1613007" fill-rule="evenodd"></path><path stroke="#00ff00" stroke-width="2.0" stroke-linecap="butt" d="m368.8403 174.38394l7.529602 6.049423l-1.8795166 -9.47406z" fill-rule="evenodd"></path><path fill="#000000" fill-opacity="0.0" d="m381.4403 46.155067c3.3486938 8.071102 21.379974 32.75663 20.092163 48.426613c-1.2878113 15.669991 -26.359467 30.867958 -27.819092 45.593292c-1.4595947 14.725342 15.8845215 35.632294 19.061432 42.75876" fill-rule="nonzero"></path><path stroke="#00ff00" stroke-width="2.0" stroke-linejoin="round" stroke-linecap="butt" d="m381.44028 46.155067c3.3487244 8.071102 21.380005 32.75663 20.092194 48.426613c-1.2878113 15.669991 -26.359497 30.867958 -27.819092 45.593292c-0.72979736 7.362671 3.241333 16.270752 7.7920227 24.228958c1.1376953 1.9895477 2.311554 3.9197388 3.4572754 5.7515717c0.2864685 0.45796204 0.57110596 0.9097748 0.85302734 1.3548279l0.7390442 1.1613007" fill-rule="evenodd"></path><path stroke="#00ff00" stroke-width="2.0" stroke-linecap="butt" d="m383.7297 174.38394l7.5295715 6.049423l-1.8794861 -9.47406z" fill-rule="evenodd"></path><path fill="#000000" fill-opacity="0.0" d="m396.32965 46.155067c3.3486938 8.071102 21.380005 32.75663 20.092163 48.426613c-1.2878113 15.669991 -26.359467 30.867958 -27.819061 45.593292c-1.4596252 14.725342 15.8845215 35.632294 19.061401 42.75876" fill-rule="nonzero"></path><path stroke="#00ff00" stroke-width="2.0" stroke-linejoin="round" stroke-linecap="butt" d="m396.32965 46.155067c3.3486938 8.071102 21.380005 32.75663 20.092194 48.426613c-1.2878113 15.669991 -26.359497 30.867958 -27.819122 45.593292c-0.72976685 7.362671 3.2413635 16.270752 7.792053 24.228958c1.1376648 1.9895477 2.311554 3.9197388 3.4572449 5.7515717c0.2864685 0.45796204 0.5711365 0.9097748 0.85302734 1.3548279l0.7390442 1.1613007" fill-rule="evenodd"></path><path stroke="#00ff00" stroke-width="2.0" stroke-linecap="butt" d="m398.61905 174.38394l7.529602 6.049423l-1.8795166 -9.47406z" fill-rule="evenodd"></path><path fill="#000000" fill-opacity="0.0" d="m411.21906 46.155067c3.3486938 8.071102 21.379974 32.75663 20.092163 48.426613c-1.2878113 15.669991 -26.359467 30.867958 -27.819092 45.593292c-1.4595947 14.725342 15.8845215 35.632294 19.061432 42.75876" fill-rule="nonzero"></path><path stroke="#00ff00" stroke-width="2.0" stroke-linejoin="round" stroke-linecap="butt" d="m411.21902 46.155067c3.3487244 8.071102 21.380005 32.75663 20.092194 48.426613c-1.2878113 15.669991 -26.359497 30.867958 -27.819092 45.593292c-0.7298279 7.362671 3.2413025 16.270752 7.7920227 24.228958c1.1376953 1.9895477 2.3115845 3.9197388 3.4572754 5.7515717c0.2864685 0.45796204 0.57110596 0.9097748 0.85302734 1.3548279l0.7390442 1.1613007" fill-rule="evenodd"></path><path stroke="#00ff00" stroke-width="2.0" stroke-linecap="butt" d="m413.50845 174.38394l7.5295715 6.049423l-1.8794861 -9.47406z" fill-rule="evenodd"></path><path fill="#000000" fill-opacity="0.0" d="m426.10846 46.155067c3.3486938 8.071102 21.379974 32.75663 20.092163 48.426613c-1.2878418 15.669991 -26.359467 30.867958 -27.819092 45.593292c-1.4595947 14.725342 15.8845215 35.632294 19.061432 42.75876" fill-rule="nonzero"></path><path stroke="#00ff00" stroke-width="2.0" stroke-linejoin="round" stroke-linecap="butt" d="m426.10843 46.155067c3.3487244 8.071102 21.380005 32.75663 20.092194 48.426613c-1.2878113 15.669991 -26.359497 30.867958 -27.819092 45.593292c-0.72979736 7.362671 3.241333 16.270752 7.7920227 24.228958c1.1376648 1.9895477 2.311554 3.9197388 3.4572754 5.7515717c0.286438 0.45796204 0.57110596 0.9097748 0.85302734 1.3548279l0.7390442 1.1613007" fill-rule="evenodd"></path><path stroke="#00ff00" stroke-width="2.0" stroke-linecap="butt" d="m428.39783 174.38394l7.529602 6.049423l-1.8795166 -9.47406z" fill-rule="evenodd"></path><path fill="#000000" fill-opacity="0.0" d="m440.9978 46.155067c3.3486938 8.071102 21.379974 32.75663 20.092163 48.426613c-1.2878113 15.669991 -26.359467 30.867958 -27.819092 45.593292c-1.4595947 14.725342 15.8845215 35.632294 19.061432 42.75876" fill-rule="nonzero"></path><path stroke="#00ff00" stroke-width="2.0" stroke-linejoin="round" stroke-linecap="butt" d="m440.99777 46.155067c3.3487244 8.071102 21.380005 32.75663 20.092194 48.426613c-1.2878113 15.669991 -26.359497 30.867958 -27.819092 45.593292c-0.72976685 7.362671 3.241333 16.270752 7.7920227 24.228958c1.1376953 1.9895477 2.3115845 3.9197388 3.4572754 5.7515717c0.2864685 0.45796204 0.57110596 0.9097748 0.85302734 1.3548279l0.7390442 1.1613007" fill-rule="evenodd"></path><path stroke="#00ff00" stroke-width="2.0" stroke-linecap="butt" d="m443.2872 174.38394l7.5295715 6.049423l-1.8794861 -9.47406z" fill-rule="evenodd"></path><path fill="#000000" fill-opacity="0.0" d="m455.8872 46.155067c3.3486938 8.071102 21.379974 32.75663 20.092163 48.426613c-1.2878418 15.669991 -26.359467 30.867958 -27.819092 45.593292c-1.4595947 14.725342 15.8845215 35.632294 19.061432 42.75876" fill-rule="nonzero"></path><path stroke="#00ff00" stroke-width="2.0" stroke-linejoin="round" stroke-linecap="butt" d="m455.88718 46.155067c3.3487244 8.071102 21.380005 32.75663 20.092194 48.426613c-1.2878113 15.669991 -26.359497 30.867958 -27.819092 45.593292c-0.7298279 7.362671 3.2413025 16.270752 7.7920227 24.228958c1.1376648 1.9895477 2.311554 3.9197388 3.4572754 5.7515717c0.2864685 0.45796204 0.57110596 0.9097748 0.85302734 1.3548279l0.7390442 1.1613007" fill-rule="evenodd"></path><path stroke="#00ff00" stroke-width="2.0" stroke-linecap="butt" d="m458.17657 174.38394l7.529602 6.049423l-1.8795166 -9.47406z" fill-rule="evenodd"></path><path fill="#000000" fill-opacity="0.0" d="m470.77655 46.155067c3.3486938 8.071102 21.379974 32.75663 20.092163 48.426613c-1.2878113 15.669991 -26.359467 30.867958 -27.819061 45.593292c-1.4596252 14.725342 15.884491 35.632294 19.061401 42.75876" fill-rule="nonzero"></path><path stroke="#00ff00" stroke-width="2.0" stroke-linejoin="round" stroke-linecap="butt" d="m470.77652 46.155067c3.3487244 8.071102 21.380005 32.75663 20.092194 48.426613c-1.2878113 15.669991 -26.359497 30.867958 -27.819092 45.593292c-0.7298279 7.362671 3.2413025 16.270752 7.7920227 24.228958c1.1376953 1.9895477 2.3115845 3.9197388 3.4572754 5.7515717c0.2864685 0.45796204 0.57110596 0.9097748 0.85302734 1.3548279l0.7390442 1.1613007" fill-rule="evenodd"></path><path stroke="#00ff00" stroke-width="2.0" stroke-linecap="butt" d="m473.06595 174.38394l7.5295715 6.049423l-1.8794861 -9.47406z" fill-rule="evenodd"></path><path fill="#333333" fill-opacity="0.7769" d="m354.1689 65.70308l0 0c0 -12.994167 10.5338745 -23.528027 23.528046 -23.528027l94.10928 0l0 0c6.2400208 0 12.224457 2.4788399 16.63684 6.891201c4.4123535 4.412361 6.891205 10.396809 6.891205 16.636826l0 97.06993c0 12.994171 -10.5338745 23.52803 -23.528046 23.52803l-94.10928 0l0 0c-12.994171 0 -23.528046 -10.533859 -23.528046 -23.52803z" fill-rule="nonzero"></path><path stroke="#efefef" stroke-width="1.0" stroke-linejoin="round" stroke-linecap="butt" d="m354.1689 65.70308l0 0c0 -12.994167 10.5338745 -23.528027 23.528046 -23.528027l94.10928 0l0 0c6.2400208 0 12.224457 2.4788399 16.63684 6.891201c4.4123535 4.412361 6.891205 10.396809 6.891205 16.636826l0 97.06993c0 12.994171 -10.5338745 23.52803 -23.528046 23.52803l-94.10928 0l0 0c-12.994171 0 -23.528046 -10.533859 -23.528046 -23.52803z" fill-rule="nonzero"></path><path fill="#000000" fill-opacity="0.0" d="m366.5509 46.155067c3.3486938 8.071102 21.380005 32.75663 20.092163 48.426613c-1.2878113 15.669991 -26.359467 30.867958 -27.819061 45.593292c-1.4596252 14.725342 15.8845215 35.632294 19.061401 42.75876" fill-rule="nonzero"></path><path stroke="#00ff00" stroke-width="2.0" stroke-linejoin="round" stroke-linecap="butt" d="m366.5509 46.155067c3.3486938 8.071102 21.380005 32.75663 20.092194 48.426613c-1.2878113 15.669991 -26.359497 30.867958 -27.819122 45.593292c-0.7298279 7.362671 3.2413025 16.270752 7.792053 24.228958c1.1376648 1.9895477 2.311554 3.9197388 3.4572449 5.7515717c0.2864685 0.45796204 0.5711365 0.9097748 0.85302734 1.3548279l0.7390442 1.1613007" fill-rule="evenodd"></path><path stroke="#00ff00" stroke-width="2.0" stroke-linecap="butt" d="m368.8403 174.38394l7.529602 6.049423l-1.8795166 -9.47406z" fill-rule="evenodd"></path><path fill="#000000" fill-opacity="0.0" d="m381.4403 46.155067c3.3486938 8.071102 21.379974 32.75663 20.092163 48.426613c-1.2878113 15.669991 -26.359467 30.867958 -27.819092 45.593292c-1.4595947 14.725342 15.8845215 35.632294 19.061432 42.75876" fill-rule="nonzero"></path><path stroke="#00ff00" stroke-width="2.0" stroke-linejoin="round" stroke-linecap="butt" d="m381.44028 46.155067c3.3487244 8.071102 21.380005 32.75663 20.092194 48.426613c-1.2878113 15.669991 -26.359497 30.867958 -27.819092 45.593292c-0.72979736 7.362671 3.241333 16.270752 7.7920227 24.228958c1.1376953 1.9895477 2.311554 3.9197388 3.4572754 5.7515717c0.2864685 0.45796204 0.57110596 0.9097748 0.85302734 1.3548279l0.7390442 1.1613007" fill-rule="evenodd"></path><path stroke="#00ff00" stroke-width="2.0" stroke-linecap="butt" d="m383.7297 174.38394l7.5295715 6.049423l-1.8794861 -9.47406z" fill-rule="evenodd"></path><path fill="#000000" fill-opacity="0.0" d="m396.32965 46.155067c3.3486938 8.071102 21.380005 32.75663 20.092163 48.426613c-1.2878113 15.669991 -26.359467 30.867958 -27.819061 45.593292c-1.4596252 14.725342 15.8845215 35.632294 19.061401 42.75876" fill-rule="nonzero"></path><path stroke="#00ff00" stroke-width="2.0" stroke-linejoin="round" stroke-linecap="butt" d="m396.32965 46.155067c3.3486938 8.071102 21.380005 32.75663 20.092194 48.426613c-1.2878113 15.669991 -26.359497 30.867958 -27.819122 45.593292c-0.72976685 7.362671 3.2413635 16.270752 7.792053 24.228958c1.1376648 1.9895477 2.311554 3.9197388 3.4572449 5.7515717c0.2864685 0.45796204 0.5711365 0.9097748 0.85302734 1.3548279l0.7390442 1.1613007" fill-rule="evenodd"></path><path stroke="#00ff00" stroke-width="2.0" stroke-linecap="butt" d="m398.61905 174.38394l7.529602 6.049423l-1.8795166 -9.47406z" fill-rule="evenodd"></path><path fill="#000000" fill-opacity="0.0" d="m411.21906 46.155067c3.3486938 8.071102 21.379974 32.75663 20.092163 48.426613c-1.2878113 15.669991 -26.359467 30.867958 -27.819092 45.593292c-1.4595947 14.725342 15.8845215 35.632294 19.061432 42.75876" fill-rule="nonzero"></path><path stroke="#00ff00" stroke-width="2.0" stroke-linejoin="round" stroke-linecap="butt" d="m411.21902 46.155067c3.3487244 8.071102 21.380005 32.75663 20.092194 48.426613c-1.2878113 15.669991 -26.359497 30.867958 -27.819092 45.593292c-0.7298279 7.362671 3.2413025 16.270752 7.7920227 24.228958c1.1376953 1.9895477 2.3115845 3.9197388 3.4572754 5.7515717c0.2864685 0.45796204 0.57110596 0.9097748 0.85302734 1.3548279l0.7390442 1.1613007" fill-rule="evenodd"></path><path stroke="#00ff00" stroke-width="2.0" stroke-linecap="butt" d="m413.50845 174.38394l7.5295715 6.049423l-1.8794861 -9.47406z" fill-rule="evenodd"></path><path fill="#000000" fill-opacity="0.0" d="m426.10846 46.155067c3.3486938 8.071102 21.379974 32.75663 20.092163 48.426613c-1.2878418 15.669991 -26.359467 30.867958 -27.819092 45.593292c-1.4595947 14.725342 15.8845215 35.632294 19.061432 42.75876" fill-rule="nonzero"></path><path stroke="#00ff00" stroke-width="2.0" stroke-linejoin="round" stroke-linecap="butt" d="m426.10843 46.155067c3.3487244 8.071102 21.380005 32.75663 20.092194 48.426613c-1.2878113 15.669991 -26.359497 30.867958 -27.819092 45.593292c-0.72979736 7.362671 3.241333 16.270752 7.7920227 24.228958c1.1376648 1.9895477 2.311554 3.9197388 3.4572754 5.7515717c0.286438 0.45796204 0.57110596 0.9097748 0.85302734 1.3548279l0.7390442 1.1613007" fill-rule="evenodd"></path><path stroke="#00ff00" stroke-width="2.0" stroke-linecap="butt" d="m428.39783 174.38394l7.529602 6.049423l-1.8795166 -9.47406z" fill-rule="evenodd"></path><path fill="#000000" fill-opacity="0.0" d="m440.9978 46.155067c3.3486938 8.071102 21.379974 32.75663 20.092163 48.426613c-1.2878113 15.669991 -26.359467 30.867958 -27.819092 45.593292c-1.4595947 14.725342 15.8845215 35.632294 19.061432 42.75876" fill-rule="nonzero"></path><path stroke="#00ff00" stroke-width="2.0" stroke-linejoin="round" stroke-linecap="butt" d="m440.99777 46.155067c3.3487244 8.071102 21.380005 32.75663 20.092194 48.426613c-1.2878113 15.669991 -26.359497 30.867958 -27.819092 45.593292c-0.72976685 7.362671 3.241333 16.270752 7.7920227 24.228958c1.1376953 1.9895477 2.3115845 3.9197388 3.4572754 5.7515717c0.2864685 0.45796204 0.57110596 0.9097748 0.85302734 1.3548279l0.7390442 1.1613007" fill-rule="evenodd"></path><path stroke="#00ff00" stroke-width="2.0" stroke-linecap="butt" d="m443.2872 174.38394l7.5295715 6.049423l-1.8794861 -9.47406z" fill-rule="evenodd"></path><path fill="#000000" fill-opacity="0.0" d="m455.8872 46.155067c3.3486938 8.071102 21.379974 32.75663 20.092163 48.426613c-1.2878418 15.669991 -26.359467 30.867958 -27.819092 45.593292c-1.4595947 14.725342 15.8845215 35.632294 19.061432 42.75876" fill-rule="nonzero"></path><path stroke="#00ff00" stroke-width="2.0" stroke-linejoin="round" stroke-linecap="butt" d="m455.88718 46.155067c3.3487244 8.071102 21.380005 32.75663 20.092194 48.426613c-1.2878113 15.669991 -26.359497 30.867958 -27.819092 45.593292c-0.7298279 7.362671 3.2413025 16.270752 7.7920227 24.228958c1.1376648 1.9895477 2.311554 3.9197388 3.4572754 5.7515717c0.2864685 0.45796204 0.57110596 0.9097748 0.85302734 1.3548279l0.7390442 1.1613007" fill-rule="evenodd"></path><path stroke="#00ff00" stroke-width="2.0" stroke-linecap="butt" d="m458.17657 174.38394l7.529602 6.049423l-1.8795166 -9.47406z" fill-rule="evenodd"></path><path fill="#000000" fill-opacity="0.0" d="m470.77655 46.155067c3.3486938 8.071102 21.379974 32.75663 20.092163 48.426613c-1.2878113 15.669991 -26.359467 30.867958 -27.819061 45.593292c-1.4596252 14.725342 15.884491 35.632294 19.061401 42.75876" fill-rule="nonzero"></path><path stroke="#00ff00" stroke-width="2.0" stroke-linejoin="round" stroke-linecap="butt" d="m470.77652 46.155067c3.3487244 8.071102 21.380005 32.75663 20.092194 48.426613c-1.2878113 15.669991 -26.359497 30.867958 -27.819092 45.593292c-0.7298279 7.362671 3.2413025 16.270752 7.7920227 24.228958c1.1376953 1.9895477 2.3115845 3.9197388 3.4572754 5.7515717c0.2864685 0.45796204 0.57110596 0.9097748 0.85302734 1.3548279l0.7390442 1.1613007" fill-rule="evenodd"></path><path stroke="#00ff00" stroke-width="2.0" stroke-linecap="butt" d="m473.06595 174.38394l7.5295715 6.049423l-1.8794861 -9.47406z" fill-rule="evenodd"></path><path fill="#71ff05" d="m37.313393 98.14461l0 0c0 -6.866455E-5 5.340576E-5 -1.2207031E-4 1.2207031E-4 -1.2207031E-4l14.708538 1.2207031E-4c3.0517578E-5 0 6.484985E-5 1.5258789E-5 8.773804E-5 3.8146973E-5c2.2888184E-5 2.2888184E-5 3.4332275E-5 5.340576E-5 3.4332275E-5 8.392334E-5l-1.2207031E-4 15.495941c0 6.866455E-5 -5.722046E-5 1.2207031E-4 -1.2207031E-4 1.2207031E-4l-14.708538 -1.2207031E-4l0 0c-6.866455E-5 0 -1.2588501E-4 -5.340576E-5 -1.2588501E-4 -1.2207031E-4z" fill-rule="nonzero"></path><path stroke="#00ff00" stroke-width="1.0" stroke-linejoin="round" stroke-linecap="butt" d="m37.313393 98.14461l0 0c0 -6.866455E-5 5.340576E-5 -1.2207031E-4 1.2207031E-4 -1.2207031E-4l14.708538 1.2207031E-4c3.0517578E-5 0 6.484985E-5 1.5258789E-5 8.773804E-5 3.8146973E-5c2.2888184E-5 2.2888184E-5 3.4332275E-5 5.340576E-5 3.4332275E-5 8.392334E-5l-1.2207031E-4 15.495941c0 6.866455E-5 -5.722046E-5 1.2207031E-4 -1.2207031E-4 1.2207031E-4l-14.708538 -1.2207031E-4l0 0c-6.866455E-5 0 -1.2588501E-4 -5.340576E-5 -1.2588501E-4 -1.2207031E-4z" fill-rule="nonzero"></path><path fill="#fcfffb" fill-opacity="0.3385" d="m38.05344 98.63352l0 0c0 -6.1035156E-5 4.196167E-5 -9.918213E-5 9.918213E-5 -9.918213E-5l11.968403 9.918213E-5c2.670288E-5 0 5.340576E-5 7.6293945E-6 7.247925E-5 2.2888184E-5c1.5258789E-5 2.2888184E-5 2.670288E-5 4.5776367E-5 2.670288E-5 7.6293945E-5l-9.918213E-5 12.629822c0 5.340576E-5 -4.5776367E-5 9.918213E-5 -9.918213E-5 9.918213E-5l-11.968403 -9.918213E-5l0 0c-5.722046E-5 0 -1.02996826E-4 -4.5776367E-5 -1.02996826E-4 -9.918213E-5z" fill-rule="nonzero"></path><path fill="#71ff05" d="m57.78646 98.14461l0 0c0 -6.866455E-5 5.722046E-5 -1.2207031E-4 1.2207031E-4 -1.2207031E-4l14.708542 1.2207031E-4c3.0517578E-5 0 6.1035156E-5 1.5258789E-5 8.392334E-5 3.8146973E-5c2.2888184E-5 2.2888184E-5 3.8146973E-5 5.340576E-5 3.8146973E-5 8.392334E-5l-1.2207031E-4 15.495941c0 6.866455E-5 -5.340576E-5 1.2207031E-4 -1.2207031E-4 1.2207031E-4l-14.708542 -1.2207031E-4l0 0c-6.866455E-5 0 -1.2207031E-4 -5.340576E-5 -1.2207031E-4 -1.2207031E-4z" fill-rule="nonzero"></path><path stroke="#00ff00" stroke-width="1.0" stroke-linejoin="round" stroke-linecap="butt" d="m57.78646 98.14461l0 0c0 -6.866455E-5 5.722046E-5 -1.2207031E-4 1.2207031E-4 -1.2207031E-4l14.708542 1.2207031E-4c3.0517578E-5 0 6.1035156E-5 1.5258789E-5 8.392334E-5 3.8146973E-5c2.2888184E-5 2.2888184E-5 3.8146973E-5 5.340576E-5 3.8146973E-5 8.392334E-5l-1.2207031E-4 15.495941c0 6.866455E-5 -5.340576E-5 1.2207031E-4 -1.2207031E-4 1.2207031E-4l-14.708542 -1.2207031E-4l0 0c-6.866455E-5 0 -1.2207031E-4 -5.340576E-5 -1.2207031E-4 -1.2207031E-4z" fill-rule="nonzero"></path><path fill="#fcfffb" fill-opacity="0.3385" d="m58.52651 98.63352l0 0c0 -6.1035156E-5 4.5776367E-5 -9.918213E-5 9.918213E-5 -9.918213E-5l11.968403 9.918213E-5c3.0517578E-5 0 5.340576E-5 7.6293945E-6 7.6293945E-5 2.2888184E-5c1.5258789E-5 2.2888184E-5 2.2888184E-5 4.5776367E-5 2.2888184E-5 7.6293945E-5l-9.918213E-5 12.629822c0 5.340576E-5 -4.5776367E-5 9.918213E-5 -9.918213E-5 9.918213E-5l-11.968403 -9.918213E-5l0 0c-5.340576E-5 0 -9.918213E-5 -4.5776367E-5 -9.918213E-5 -9.918213E-5z" fill-rule="nonzero"></path><path fill="#71ff05" d="m78.25953 98.14461l0 0c0 -6.866455E-5 6.1035156E-5 -1.2207031E-4 1.2207031E-4 -1.2207031E-4l14.708542 1.2207031E-4c3.0517578E-5 0 6.1035156E-5 1.5258789E-5 8.392334E-5 3.8146973E-5c2.2888184E-5 2.2888184E-5 3.8146973E-5 5.340576E-5 3.8146973E-5 8.392334E-5l-1.2207031E-4 15.495941c0 6.866455E-5 -5.340576E-5 1.2207031E-4 -1.2207031E-4 1.2207031E-4l-14.708542 -1.2207031E-4l0 0c-6.866455E-5 0 -1.2207031E-4 -5.340576E-5 -1.2207031E-4 -1.2207031E-4z" fill-rule="nonzero"></path><path stroke="#00ff00" stroke-width="1.0" stroke-linejoin="round" stroke-linecap="butt" d="m78.25953 98.14461l0 0c0 -6.866455E-5 6.1035156E-5 -1.2207031E-4 1.2207031E-4 -1.2207031E-4l14.708542 1.2207031E-4c3.0517578E-5 0 6.1035156E-5 1.5258789E-5 8.392334E-5 3.8146973E-5c2.2888184E-5 2.2888184E-5 3.8146973E-5 5.340576E-5 3.8146973E-5 8.392334E-5l-1.2207031E-4 15.495941c0 6.866455E-5 -5.340576E-5 1.2207031E-4 -1.2207031E-4 1.2207031E-4l-14.708542 -1.2207031E-4l0 0c-6.866455E-5 0 -1.2207031E-4 -5.340576E-5 -1.2207031E-4 -1.2207031E-4z" fill-rule="nonzero"></path><path fill="#fcfffb" fill-opacity="0.3385" d="m78.99958 98.63352l0 0c0 -6.1035156E-5 4.5776367E-5 -9.918213E-5 9.918213E-5 -9.918213E-5l11.968407 9.918213E-5c2.2888184E-5 0 4.5776367E-5 7.6293945E-6 6.866455E-5 2.2888184E-5c1.5258789E-5 2.2888184E-5 3.0517578E-5 4.5776367E-5 3.0517578E-5 7.6293945E-5l-9.918213E-5 12.629822c0 5.340576E-5 -4.5776367E-5 9.918213E-5 -9.918213E-5 9.918213E-5l-11.968407 -9.918213E-5l0 0c-5.340576E-5 0 -9.918213E-5 -4.5776367E-5 -9.918213E-5 -9.918213E-5z" fill-rule="nonzero"></path><path fill="#000000" fill-opacity="0.0" d="m40.116806 7.2775817c2.1425018 5.1639094 13.678963 20.957767 12.855011 30.983458c-0.8239479 10.025692 -16.864845 19.74939 -17.79871 29.170692c-0.9338608 9.42131 10.162952 22.797623 12.195545 27.357147" fill-rule="nonzero"></path><path stroke="#00ff00" stroke-width="2.0" stroke-linejoin="round" stroke-linecap="butt" d="m40.116802 7.2775817c2.1425056 5.1639104 13.6789665 20.957767 12.855019 30.983461c-0.8239517 10.025692 -16.86485 19.749382 -17.798714 29.170689c-0.4669304 4.710655 2.0738106 10.410057 4.9853516 15.5017395c0.18197632 0.31822968 0.3653946 0.6340866 0.54961777 0.9471741l0.39974594 0.67095184" fill-rule="evenodd"></path><path stroke="#00ff00" stroke-width="2.0" stroke-linecap="butt" d="m38.28961 86.27513l7.553589 6.019432l-1.9171715 -9.466507z" fill-rule="evenodd"></path><path fill="#000000" fill-opacity="0.0" d="m60.589874 7.2775817c2.1425018 5.1639094 13.678963 20.957767 12.855011 30.983458c-0.8239441 10.025692 -16.864845 19.74939 -17.798706 29.170692c-0.9338608 9.42131 10.162949 22.797623 12.195541 27.357147" fill-rule="nonzero"></path><path stroke="#00ff00" stroke-width="2.0" stroke-linejoin="round" stroke-linecap="butt" d="m60.589874 7.2775817c2.1425018 5.1639104 13.678963 20.957767 12.855011 30.983461c-0.8239441 10.025692 -16.864841 19.749382 -17.798702 29.170689c-0.46693802 4.710655 2.073803 10.410057 4.9853477 15.5017395c0.1819725 0.31822968 0.3653946 0.6340866 0.54961777 0.9471741l0.3997383 0.6709442" fill-rule="evenodd"></path><path stroke="#00ff00" stroke-width="2.0" stroke-linecap="butt" d="m58.76268 86.27513l7.553589 6.019432l-1.9171677 -9.466507z" fill-rule="evenodd"></path><path fill="#000000" fill-opacity="0.0" d="m81.06294 7.2775817c2.1425018 5.1639094 13.678963 20.957767 12.855019 30.983458c-0.8239517 10.025692 -16.864853 19.74939 -17.798714 29.170692c-0.9338608 9.42131 10.162956 22.797623 12.195541 27.357147" fill-rule="nonzero"></path><path stroke="#00ff00" stroke-width="2.0" stroke-linejoin="round" stroke-linecap="butt" d="m81.06294 7.2775817c2.1425018 5.1639104 13.67897 20.957767 12.855019 30.983461c-0.8239517 10.025692 -16.864853 19.749382 -17.798714 29.170689c-0.46692657 4.710655 2.0738068 10.410057 4.9853516 15.5017395c0.18197632 0.31822968 0.3653946 0.6340866 0.5496216 0.9471741l0.39974213 0.67095184" fill-rule="evenodd"></path><path stroke="#00ff00" stroke-width="2.0" stroke-linecap="butt" d="m79.235756 86.27513l7.553589 6.019432l-1.9171753 -9.466507z" fill-rule="evenodd"></path><path fill="#4a86e8" d="m16.840866 120.23373l0 0c0 -6.866455E-5 5.531311E-5 -1.296997E-4 1.2207031E-4 -1.296997E-4l14.70854 1.296997E-4c3.2424927E-5 0 6.2942505E-5 7.6293945E-6 8.583069E-5 3.0517578E-5c2.2888184E-5 2.2888184E-5 3.6239624E-5 5.340576E-5 3.6239624E-5 9.1552734E-5l-1.2207031E-4 41.76365c0 7.6293945E-5 -5.531311E-5 1.2207031E-4 -1.2397766E-4 1.2207031E-4l-14.708538 -1.2207031E-4l0 0c-6.866455E-5 0 -1.2207031E-4 -4.5776367E-5 -1.2207031E-4 -1.2207031E-4z" fill-rule="nonzero"></path><path stroke="#1155cc" stroke-width="1.0" stroke-linejoin="round" stroke-linecap="butt" d="m16.840866 120.23373l0 0c0 -6.866455E-5 5.531311E-5 -1.296997E-4 1.2207031E-4 -1.296997E-4l14.70854 1.296997E-4c3.2424927E-5 0 6.2942505E-5 7.6293945E-6 8.583069E-5 3.0517578E-5c2.2888184E-5 2.2888184E-5 3.6239624E-5 5.340576E-5 3.6239624E-5 9.1552734E-5l-1.2207031E-4 41.76365c0 7.6293945E-5 -5.531311E-5 1.2207031E-4 -1.2397766E-4 1.2207031E-4l-14.708538 -1.2207031E-4l0 0c-6.866455E-5 0 -1.2207031E-4 -4.5776367E-5 -1.2207031E-4 -1.2207031E-4z" fill-rule="nonzero"></path><path fill="#fcfffb" fill-opacity="0.3385" d="m17.5809 121.55119l0 0c0 -6.1035156E-5 4.386902E-5 -9.918213E-5 9.918213E-5 -9.918213E-5l11.968405 9.918213E-5c2.670288E-5 0 5.1498413E-5 7.6293945E-6 7.05719E-5 2.2888184E-5c1.9073486E-5 2.2888184E-5 2.861023E-5 4.5776367E-5 2.861023E-5 7.6293945E-5l-9.918213E-5 34.078636c0 6.1035156E-5 -4.5776367E-5 1.0681152E-4 -1.0108948E-4 1.0681152E-4l-11.968403 -1.0681152E-4l0 0c-5.531311E-5 0 -1.0108948E-4 -4.5776367E-5 -1.0108948E-4 -9.1552734E-5z" fill-rule="nonzero"></path><path fill="#4a86e8" d="m37.313557 120.23373l0 0c0 -6.866455E-5 5.340576E-5 -1.296997E-4 1.2207031E-4 -1.296997E-4l14.708538 1.296997E-4c3.4332275E-5 0 6.484985E-5 7.6293945E-6 8.773804E-5 3.0517578E-5c2.2888184E-5 2.2888184E-5 3.4332275E-5 5.340576E-5 3.4332275E-5 9.1552734E-5l-1.2207031E-4 41.76365c0 7.6293945E-5 -5.340576E-5 1.2207031E-4 -1.2207031E-4 1.2207031E-4l-14.708538 -1.2207031E-4l0 0c-6.866455E-5 0 -1.2207031E-4 -4.5776367E-5 -1.2207031E-4 -1.2207031E-4z" fill-rule="nonzero"></path><path stroke="#1155cc" stroke-width="1.0" stroke-linejoin="round" stroke-linecap="butt" d="m37.313557 120.23373l0 0c0 -6.866455E-5 5.340576E-5 -1.296997E-4 1.2207031E-4 -1.296997E-4l14.708538 1.296997E-4c3.4332275E-5 0 6.484985E-5 7.6293945E-6 8.773804E-5 3.0517578E-5c2.2888184E-5 2.2888184E-5 3.4332275E-5 5.340576E-5 3.4332275E-5 9.1552734E-5l-1.2207031E-4 41.76365c0 7.6293945E-5 -5.340576E-5 1.2207031E-4 -1.2207031E-4 1.2207031E-4l-14.708538 -1.2207031E-4l0 0c-6.866455E-5 0 -1.2207031E-4 -4.5776367E-5 -1.2207031E-4 -1.2207031E-4z" fill-rule="nonzero"></path><path fill="#fcfffb" fill-opacity="0.3385" d="m38.053593 121.55119l0 0c0 -6.1035156E-5 4.196167E-5 -9.918213E-5 9.918213E-5 -9.918213E-5l11.968403 9.918213E-5c2.670288E-5 0 5.340576E-5 7.6293945E-6 6.866455E-5 2.2888184E-5c1.9073486E-5 2.2888184E-5 3.0517578E-5 4.5776367E-5 3.0517578E-5 7.6293945E-5l-9.918213E-5 34.078636c0 6.1035156E-5 -4.5776367E-5 1.0681152E-4 -9.918213E-5 1.0681152E-4l-11.968403 -1.0681152E-4l0 0c-5.722046E-5 0 -1.02996826E-4 -4.5776367E-5 -1.02996826E-4 -9.1552734E-5z" fill-rule="nonzero"></path><path fill="#4a86e8" d="m57.786247 120.23373l0 0c0 -6.866455E-5 5.722046E-5 -1.296997E-4 1.2207031E-4 -1.296997E-4l14.708542 1.296997E-4c3.0517578E-5 0 6.1035156E-5 7.6293945E-6 8.392334E-5 3.0517578E-5c2.2888184E-5 2.2888184E-5 3.8146973E-5 5.340576E-5 3.8146973E-5 9.1552734E-5l-1.2207031E-4 41.76365c0 7.6293945E-5 -5.340576E-5 1.2207031E-4 -1.2207031E-4 1.2207031E-4l-14.708542 -1.2207031E-4l0 0c-6.866455E-5 0 -1.2207031E-4 -4.5776367E-5 -1.2207031E-4 -1.2207031E-4z" fill-rule="nonzero"></path><path stroke="#1155cc" stroke-width="1.0" stroke-linejoin="round" stroke-linecap="butt" d="m57.786247 120.23373l0 0c0 -6.866455E-5 5.722046E-5 -1.296997E-4 1.2207031E-4 -1.296997E-4l14.708542 1.296997E-4c3.0517578E-5 0 6.1035156E-5 7.6293945E-6 8.392334E-5 3.0517578E-5c2.2888184E-5 2.2888184E-5 3.8146973E-5 5.340576E-5 3.8146973E-5 9.1552734E-5l-1.2207031E-4 41.76365c0 7.6293945E-5 -5.340576E-5 1.2207031E-4 -1.2207031E-4 1.2207031E-4l-14.708542 -1.2207031E-4l0 0c-6.866455E-5 0 -1.2207031E-4 -4.5776367E-5 -1.2207031E-4 -1.2207031E-4z" fill-rule="nonzero"></path><path fill="#fcfffb" fill-opacity="0.3385" d="m58.526283 121.55119l0 0c0 -6.1035156E-5 4.196167E-5 -9.918213E-5 9.918213E-5 -9.918213E-5l11.968407 9.918213E-5c2.2888184E-5 0 4.5776367E-5 7.6293945E-6 6.866455E-5 2.2888184E-5c1.5258789E-5 2.2888184E-5 3.0517578E-5 4.5776367E-5 3.0517578E-5 7.6293945E-5l-9.918213E-5 34.078636c0 6.1035156E-5 -4.5776367E-5 1.0681152E-4 -1.0681152E-4 1.0681152E-4l-11.968399 -1.0681152E-4l0 0c-5.722046E-5 0 -1.02996826E-4 -4.5776367E-5 -1.02996826E-4 -9.1552734E-5z" fill-rule="nonzero"></path><path fill="#4a86e8" d="m78.25894 120.23373l0 0c0 -6.866455E-5 5.340576E-5 -1.296997E-4 1.2207031E-4 -1.296997E-4l14.708534 1.296997E-4c3.0517578E-5 0 6.866455E-5 7.6293945E-6 9.1552734E-5 3.0517578E-5c2.2888184E-5 2.2888184E-5 3.0517578E-5 5.340576E-5 3.0517578E-5 9.1552734E-5l-1.2207031E-4 41.76365c0 7.6293945E-5 -5.340576E-5 1.2207031E-4 -1.2207031E-4 1.2207031E-4l-14.708534 -1.2207031E-4l0 0c-6.866455E-5 0 -1.296997E-4 -4.5776367E-5 -1.296997E-4 -1.2207031E-4z" fill-rule="nonzero"></path><path stroke="#1155cc" stroke-width="1.0" stroke-linejoin="round" stroke-linecap="butt" d="m78.25894 120.23373l0 0c0 -6.866455E-5 5.340576E-5 -1.296997E-4 1.2207031E-4 -1.296997E-4l14.708534 1.296997E-4c3.0517578E-5 0 6.866455E-5 7.6293945E-6 9.1552734E-5 3.0517578E-5c2.2888184E-5 2.2888184E-5 3.0517578E-5 5.340576E-5 3.0517578E-5 9.1552734E-5l-1.2207031E-4 41.76365c0 7.6293945E-5 -5.340576E-5 1.2207031E-4 -1.2207031E-4 1.2207031E-4l-14.708534 -1.2207031E-4l0 0c-6.866455E-5 0 -1.296997E-4 -4.5776367E-5 -1.296997E-4 -1.2207031E-4z" fill-rule="nonzero"></path><path fill="#fcfffb" fill-opacity="0.3385" d="m78.99897 121.55119l0 0c0 -6.1035156E-5 4.5776367E-5 -9.918213E-5 9.918213E-5 -9.918213E-5l11.968407 9.918213E-5c2.2888184E-5 0 5.340576E-5 7.6293945E-6 6.866455E-5 2.2888184E-5c2.2888184E-5 2.2888184E-5 3.0517578E-5 4.5776367E-5 3.0517578E-5 7.6293945E-5l-9.918213E-5 34.078636c0 6.1035156E-5 -4.5776367E-5 1.0681152E-4 -9.918213E-5 1.0681152E-4l-11.968407 -1.0681152E-4l0 0c-5.340576E-5 0 -9.918213E-5 -4.5776367E-5 -9.918213E-5 -9.1552734E-5z" fill-rule="nonzero"></path><path fill="#000000" fill-opacity="0.0" d="m129.86646 7.2775817c2.1425018 5.1639094 13.678955 20.957767 12.855011 30.983458c-0.8239441 10.025692 -16.864853 19.74939 -17.798714 29.170692c-0.9338608 9.42131 10.162956 22.797623 12.195549 27.357147" fill-rule="nonzero"></path><path stroke="#00ff00" stroke-width="2.0" stroke-linejoin="round" stroke-linecap="butt" d="m129.86646 7.2775817c2.1425018 5.1639104 13.678955 20.957767 12.855011 30.983461c-0.8239441 10.025692 -16.864845 19.749382 -17.798706 29.170689c-0.46692657 4.710655 2.0738068 10.410057 4.9853516 15.5017395c0.18196106 0.31822968 0.36538696 0.6340866 0.5496063 0.9471741l0.39974976 0.6709442" fill-rule="evenodd"></path><path stroke="#00ff00" stroke-width="2.0" stroke-linecap="butt" d="m128.03926 86.27513l7.5535736 6.019432l-1.91716 -9.466507z" fill-rule="evenodd"></path><path fill="#71ff05" d="m127.063034 98.14461l0 0c0 -6.866455E-5 6.1035156E-5 -1.2207031E-4 1.2207031E-4 -1.2207031E-4l14.708542 1.2207031E-4c3.0517578E-5 0 6.1035156E-5 1.5258789E-5 9.1552734E-5 3.8146973E-5c1.5258789E-5 2.2888184E-5 3.0517578E-5 5.340576E-5 3.0517578E-5 8.392334E-5l-1.2207031E-4 15.495941c0 6.866455E-5 -6.1035156E-5 1.2207031E-4 -1.2207031E-4 1.2207031E-4l-14.708542 -1.2207031E-4l0 0c-6.866455E-5 0 -1.2207031E-4 -5.340576E-5 -1.2207031E-4 -1.2207031E-4z" fill-rule="nonzero"></path><path stroke="#00ff00" stroke-width="1.0" stroke-linejoin="round" stroke-linecap="butt" d="m127.063034 98.14461l0 0c0 -6.866455E-5 6.1035156E-5 -1.2207031E-4 1.2207031E-4 -1.2207031E-4l14.708542 1.2207031E-4c3.0517578E-5 0 6.1035156E-5 1.5258789E-5 9.1552734E-5 3.8146973E-5c1.5258789E-5 2.2888184E-5 3.0517578E-5 5.340576E-5 3.0517578E-5 8.392334E-5l-1.2207031E-4 15.495941c0 6.866455E-5 -6.1035156E-5 1.2207031E-4 -1.2207031E-4 1.2207031E-4l-14.708542 -1.2207031E-4l0 0c-6.866455E-5 0 -1.2207031E-4 -5.340576E-5 -1.2207031E-4 -1.2207031E-4z" fill-rule="nonzero"></path><path fill="#fcfffb" fill-opacity="0.3385" d="m127.803085 98.63352l0 0c0 -6.1035156E-5 4.5776367E-5 -9.918213E-5 9.918213E-5 -9.918213E-5l11.968407 9.918213E-5c3.0517578E-5 0 4.5776367E-5 7.6293945E-6 6.1035156E-5 2.2888184E-5c3.0517578E-5 2.2888184E-5 3.0517578E-5 4.5776367E-5 3.0517578E-5 7.6293945E-5l-9.1552734E-5 12.629822c0 5.340576E-5 -4.5776367E-5 9.918213E-5 -1.0681152E-4 9.918213E-5l-11.968399 -9.918213E-5l0 0c-5.340576E-5 0 -9.918213E-5 -4.5776367E-5 -9.918213E-5 -9.918213E-5z" fill-rule="nonzero"></path><path fill="#71ff05" d="m147.5361 98.14461l0 0c0 -6.866455E-5 6.1035156E-5 -1.2207031E-4 1.2207031E-4 -1.2207031E-4l14.708542 1.2207031E-4c3.0517578E-5 0 6.1035156E-5 1.5258789E-5 9.1552734E-5 3.8146973E-5c1.5258789E-5 2.2888184E-5 3.0517578E-5 5.340576E-5 3.0517578E-5 8.392334E-5l-1.2207031E-4 15.495941c0 6.866455E-5 -4.5776367E-5 1.2207031E-4 -1.2207031E-4 1.2207031E-4l-14.708542 -1.2207031E-4l0 0c-6.1035156E-5 0 -1.2207031E-4 -5.340576E-5 -1.2207031E-4 -1.2207031E-4z" fill-rule="nonzero"></path><path stroke="#00ff00" stroke-width="1.0" stroke-linejoin="round" stroke-linecap="butt" d="m147.5361 98.14461l0 0c0 -6.866455E-5 6.1035156E-5 -1.2207031E-4 1.2207031E-4 -1.2207031E-4l14.708542 1.2207031E-4c3.0517578E-5 0 6.1035156E-5 1.5258789E-5 9.1552734E-5 3.8146973E-5c1.5258789E-5 2.2888184E-5 3.0517578E-5 5.340576E-5 3.0517578E-5 8.392334E-5l-1.2207031E-4 15.495941c0 6.866455E-5 -4.5776367E-5 1.2207031E-4 -1.2207031E-4 1.2207031E-4l-14.708542 -1.2207031E-4l0 0c-6.1035156E-5 0 -1.2207031E-4 -5.340576E-5 -1.2207031E-4 -1.2207031E-4z" fill-rule="nonzero"></path><path fill="#fcfffb" fill-opacity="0.3385" d="m148.27615 98.63352l0 0c0 -6.1035156E-5 4.5776367E-5 -9.918213E-5 1.0681152E-4 -9.918213E-5l11.968399 9.918213E-5c3.0517578E-5 0 4.5776367E-5 7.6293945E-6 7.6293945E-5 2.2888184E-5c1.5258789E-5 2.2888184E-5 1.5258789E-5 4.5776367E-5 1.5258789E-5 7.6293945E-5l-9.1552734E-5 12.629822c0 5.340576E-5 -4.5776367E-5 9.918213E-5 -1.0681152E-4 9.918213E-5l-11.968399 -9.918213E-5l0 0c-6.1035156E-5 0 -9.1552734E-5 -4.5776367E-5 -9.1552734E-5 -9.918213E-5z" fill-rule="nonzero"></path><path fill="#71ff05" d="m168.00917 98.14461l0 0c0 -6.866455E-5 6.1035156E-5 -1.2207031E-4 1.373291E-4 -1.2207031E-4l14.708527 1.2207031E-4c3.0517578E-5 0 6.1035156E-5 1.5258789E-5 9.1552734E-5 3.8146973E-5c1.5258789E-5 2.2888184E-5 3.0517578E-5 5.340576E-5 3.0517578E-5 8.392334E-5l-1.2207031E-4 15.495941c0 6.866455E-5 -4.5776367E-5 1.2207031E-4 -1.2207031E-4 1.2207031E-4l-14.708542 -1.2207031E-4l0 0c-6.1035156E-5 0 -1.2207031E-4 -5.340576E-5 -1.2207031E-4 -1.2207031E-4z" fill-rule="nonzero"></path><path stroke="#00ff00" stroke-width="1.0" stroke-linejoin="round" stroke-linecap="butt" d="m168.00917 98.14461l0 0c0 -6.866455E-5 6.1035156E-5 -1.2207031E-4 1.373291E-4 -1.2207031E-4l14.708527 1.2207031E-4c3.0517578E-5 0 6.1035156E-5 1.5258789E-5 9.1552734E-5 3.8146973E-5c1.5258789E-5 2.2888184E-5 3.0517578E-5 5.340576E-5 3.0517578E-5 8.392334E-5l-1.2207031E-4 15.495941c0 6.866455E-5 -4.5776367E-5 1.2207031E-4 -1.2207031E-4 1.2207031E-4l-14.708542 -1.2207031E-4l0 0c-6.1035156E-5 0 -1.2207031E-4 -5.340576E-5 -1.2207031E-4 -1.2207031E-4z" fill-rule="nonzero"></path><path fill="#fcfffb" fill-opacity="0.3385" d="m168.74922 98.63352l0 0c0 -6.1035156E-5 4.5776367E-5 -9.918213E-5 1.0681152E-4 -9.918213E-5l11.968399 9.918213E-5c3.0517578E-5 0 6.1035156E-5 7.6293945E-6 7.6293945E-5 2.2888184E-5c1.5258789E-5 2.2888184E-5 3.0517578E-5 4.5776367E-5 3.0517578E-5 7.6293945E-5l-1.0681152E-4 12.629822c0 5.340576E-5 -4.5776367E-5 9.918213E-5 -9.1552734E-5 9.918213E-5l-11.968414 -9.918213E-5l0 0c-4.5776367E-5 0 -9.1552734E-5 -4.5776367E-5 -9.1552734E-5 -9.918213E-5z" fill-rule="nonzero"></path><path fill="#71ff05" d="m188.48225 98.14461l0 0c0 -6.866455E-5 4.5776367E-5 -1.2207031E-4 1.2207031E-4 -1.2207031E-4l14.708527 1.2207031E-4c4.5776367E-5 0 7.6293945E-5 1.5258789E-5 9.1552734E-5 3.8146973E-5c3.0517578E-5 2.2888184E-5 3.0517578E-5 5.340576E-5 3.0517578E-5 8.392334E-5l-1.2207031E-4 15.495941c0 6.866455E-5 -4.5776367E-5 1.2207031E-4 -1.2207031E-4 1.2207031E-4l-14.708527 -1.2207031E-4l0 0c-7.6293945E-5 0 -1.2207031E-4 -5.340576E-5 -1.2207031E-4 -1.2207031E-4z" fill-rule="nonzero"></path><path stroke="#00ff00" stroke-width="1.0" stroke-linejoin="round" stroke-linecap="butt" d="m188.48225 98.14461l0 0c0 -6.866455E-5 4.5776367E-5 -1.2207031E-4 1.2207031E-4 -1.2207031E-4l14.708527 1.2207031E-4c4.5776367E-5 0 7.6293945E-5 1.5258789E-5 9.1552734E-5 3.8146973E-5c3.0517578E-5 2.2888184E-5 3.0517578E-5 5.340576E-5 3.0517578E-5 8.392334E-5l-1.2207031E-4 15.495941c0 6.866455E-5 -4.5776367E-5 1.2207031E-4 -1.2207031E-4 1.2207031E-4l-14.708527 -1.2207031E-4l0 0c-7.6293945E-5 0 -1.2207031E-4 -5.340576E-5 -1.2207031E-4 -1.2207031E-4z" fill-rule="nonzero"></path><path fill="#fcfffb" fill-opacity="0.3385" d="m189.22229 98.63352l0 0c0 -6.1035156E-5 4.5776367E-5 -9.918213E-5 1.0681152E-4 -9.918213E-5l11.968399 9.918213E-5c3.0517578E-5 0 6.1035156E-5 7.6293945E-6 7.6293945E-5 2.2888184E-5c1.5258789E-5 2.2888184E-5 3.0517578E-5 4.5776367E-5 3.0517578E-5 7.6293945E-5l-1.0681152E-4 12.629822c0 5.340576E-5 -4.5776367E-5 9.918213E-5 -9.1552734E-5 9.918213E-5l-11.968414 -9.918213E-5l0 0c-4.5776367E-5 0 -9.1552734E-5 -4.5776367E-5 -9.1552734E-5 -9.918213E-5z" fill-rule="nonzero"></path><path fill="#000000" fill-opacity="0.0" d="m150.33952 7.2775817c2.1425018 5.1639094 13.678955 20.957767 12.855011 30.983458c-0.8239441 10.025692 -16.864853 19.74939 -17.798706 29.170692c-0.9338684 9.42131 10.162949 22.797623 12.195541 27.357147" fill-rule="nonzero"></path><path stroke="#00ff00" stroke-width="2.0" stroke-linejoin="round" stroke-linecap="butt" d="m150.33951 7.2775817c2.142517 5.1639104 13.67897 20.957767 12.855026 30.983461c-0.82395935 10.025692 -16.864853 19.749382 -17.798706 29.170689c-0.4669342 4.710655 2.0738068 10.410057 4.9853363 15.5017395c0.18197632 0.31822968 0.36540222 0.6340866 0.54963684 0.9471741l0.3997345 0.67095184" fill-rule="evenodd"></path><path stroke="#00ff00" stroke-width="2.0" stroke-linecap="butt" d="m148.51233 86.27513l7.553589 6.019432l-1.9171753 -9.466507z" fill-rule="evenodd"></path><path fill="#000000" fill-opacity="0.0" d="m170.81259 7.2775817c2.1425018 5.1639094 13.67897 20.957767 12.855011 30.983458c-0.8239441 10.025692 -16.864853 19.74939 -17.798706 29.170692c-0.9338684 9.42131 10.162949 22.797623 12.195541 27.357147" fill-rule="nonzero"></path><path stroke="#00ff00" stroke-width="2.0" stroke-linejoin="round" stroke-linecap="butt" d="m170.81259 7.2775817c2.1425018 5.1639104 13.678955 20.957767 12.855011 30.983461c-0.82395935 10.025692 -16.864838 19.749382 -17.798706 29.170689c-0.4669342 4.710655 2.0738068 10.410057 4.9853516 15.5017395c0.18197632 0.31822968 0.36538696 0.6340866 0.5496063 0.9471741l0.39974976 0.67095184" fill-rule="evenodd"></path><path stroke="#00ff00" stroke-width="2.0" stroke-linecap="butt" d="m168.9854 86.27513l7.553589 6.019432l-1.91716 -9.466507z" fill-rule="evenodd"></path><path fill="#000000" fill-opacity="0.0" d="m191.28566 7.2775817c2.1425018 5.1639094 13.67897 20.957767 12.855011 30.983458c-0.8239441 10.025692 -16.864838 19.74939 -17.798706 29.170692c-0.93385315 9.42131 10.162949 22.797623 12.195541 27.357147" fill-rule="nonzero"></path><path stroke="#00ff00" stroke-width="2.0" stroke-linejoin="round" stroke-linecap="butt" d="m191.28566 7.2775817c2.142517 5.1639104 13.67897 20.957767 12.855011 30.983461c-0.8239441 10.025692 -16.864838 19.749382 -17.798706 29.170689c-0.46691895 4.710655 2.0738068 10.410057 4.9853363 15.5017395c0.18199158 0.31822968 0.36540222 0.6340866 0.5496216 0.9471741l0.39974976 0.6709442" fill-rule="evenodd"></path><path stroke="#00ff00" stroke-width="2.0" stroke-linecap="butt" d="m189.45847 86.27513l7.553589 6.0194244l-1.9171753 -9.466499z" fill-rule="evenodd"></path><path fill="#4a86e8" d="m127.06358 120.23373l0 0c0 -6.866455E-5 5.340576E-5 -1.296997E-4 1.2207031E-4 -1.296997E-4l14.708542 1.296997E-4c3.0517578E-5 0 6.1035156E-5 7.6293945E-6 7.6293945E-5 3.0517578E-5c3.0517578E-5 2.2888184E-5 4.5776367E-5 5.340576E-5 4.5776367E-5 9.1552734E-5l-1.2207031E-4 41.76365c0 7.6293945E-5 -6.1035156E-5 1.2207031E-4 -1.2207031E-4 1.2207031E-4l-14.708542 -1.2207031E-4l0 0c-6.866455E-5 0 -1.2207031E-4 -4.5776367E-5 -1.2207031E-4 -1.2207031E-4z" fill-rule="nonzero"></path><path stroke="#1155cc" stroke-width="1.0" stroke-linejoin="round" stroke-linecap="butt" d="m127.06358 120.23373l0 0c0 -6.866455E-5 5.340576E-5 -1.296997E-4 1.2207031E-4 -1.296997E-4l14.708542 1.296997E-4c3.0517578E-5 0 6.1035156E-5 7.6293945E-6 7.6293945E-5 3.0517578E-5c3.0517578E-5 2.2888184E-5 4.5776367E-5 5.340576E-5 4.5776367E-5 9.1552734E-5l-1.2207031E-4 41.76365c0 7.6293945E-5 -6.1035156E-5 1.2207031E-4 -1.2207031E-4 1.2207031E-4l-14.708542 -1.2207031E-4l0 0c-6.866455E-5 0 -1.2207031E-4 -4.5776367E-5 -1.2207031E-4 -1.2207031E-4z" fill-rule="nonzero"></path><path fill="#fcfffb" fill-opacity="0.3385" d="m127.80362 121.55119l0 0c0 -6.1035156E-5 3.8146973E-5 -9.918213E-5 9.918213E-5 -9.918213E-5l11.968407 9.918213E-5c1.5258789E-5 0 4.5776367E-5 7.6293945E-6 6.1035156E-5 2.2888184E-5c3.0517578E-5 2.2888184E-5 3.0517578E-5 4.5776367E-5 3.0517578E-5 7.6293945E-5l-9.1552734E-5 34.078636c0 6.1035156E-5 -4.5776367E-5 1.0681152E-4 -1.0681152E-4 1.0681152E-4l-11.968399 -1.0681152E-4l0 0c-6.1035156E-5 0 -9.918213E-5 -4.5776367E-5 -9.918213E-5 -9.1552734E-5z" fill-rule="nonzero"></path><path fill="#4a86e8" d="m147.53627 120.23373l0 0c0 -6.866455E-5 6.1035156E-5 -1.296997E-4 1.2207031E-4 -1.296997E-4l14.708542 1.296997E-4c3.0517578E-5 0 6.1035156E-5 7.6293945E-6 9.1552734E-5 3.0517578E-5c1.5258789E-5 2.2888184E-5 3.0517578E-5 5.340576E-5 3.0517578E-5 9.1552734E-5l-1.2207031E-4 41.76365c0 7.6293945E-5 -6.1035156E-5 1.2207031E-4 -1.2207031E-4 1.2207031E-4l-14.708542 -1.2207031E-4l0 0c-6.1035156E-5 0 -1.2207031E-4 -4.5776367E-5 -1.2207031E-4 -1.2207031E-4z" fill-rule="nonzero"></path><path stroke="#1155cc" stroke-width="1.0" stroke-linejoin="round" stroke-linecap="butt" d="m147.53627 120.23373l0 0c0 -6.866455E-5 6.1035156E-5 -1.296997E-4 1.2207031E-4 -1.296997E-4l14.708542 1.296997E-4c3.0517578E-5 0 6.1035156E-5 7.6293945E-6 9.1552734E-5 3.0517578E-5c1.5258789E-5 2.2888184E-5 3.0517578E-5 5.340576E-5 3.0517578E-5 9.1552734E-5l-1.2207031E-4 41.76365c0 7.6293945E-5 -6.1035156E-5 1.2207031E-4 -1.2207031E-4 1.2207031E-4l-14.708542 -1.2207031E-4l0 0c-6.1035156E-5 0 -1.2207031E-4 -4.5776367E-5 -1.2207031E-4 -1.2207031E-4z" fill-rule="nonzero"></path><path fill="#fcfffb" fill-opacity="0.3385" d="m148.2763 121.55119l0 0c0 -6.1035156E-5 4.5776367E-5 -9.918213E-5 1.0681152E-4 -9.918213E-5l11.968399 9.918213E-5c3.0517578E-5 0 4.5776367E-5 7.6293945E-6 7.6293945E-5 2.2888184E-5c1.5258789E-5 2.2888184E-5 1.5258789E-5 4.5776367E-5 1.5258789E-5 7.6293945E-5l-9.1552734E-5 34.078636c0 6.1035156E-5 -4.5776367E-5 1.0681152E-4 -1.0681152E-4 1.0681152E-4l-11.968399 -1.0681152E-4l0 0c-6.1035156E-5 0 -9.1552734E-5 -4.5776367E-5 -9.1552734E-5 -9.1552734E-5z" fill-rule="nonzero"></path><path fill="#4a86e8" d="m168.00896 120.23373l0 0c0 -6.866455E-5 6.1035156E-5 -1.296997E-4 1.373291E-4 -1.296997E-4l14.708527 1.296997E-4c3.0517578E-5 0 6.1035156E-5 7.6293945E-6 9.1552734E-5 3.0517578E-5c1.5258789E-5 2.2888184E-5 3.0517578E-5 5.340576E-5 3.0517578E-5 9.1552734E-5l-1.2207031E-4 41.76365c0 7.6293945E-5 -4.5776367E-5 1.2207031E-4 -1.2207031E-4 1.2207031E-4l-14.708542 -1.2207031E-4l0 0c-6.1035156E-5 0 -1.2207031E-4 -4.5776367E-5 -1.2207031E-4 -1.2207031E-4z" fill-rule="nonzero"></path><path stroke="#1155cc" stroke-width="1.0" stroke-linejoin="round" stroke-linecap="butt" d="m168.00896 120.23373l0 0c0 -6.866455E-5 6.1035156E-5 -1.296997E-4 1.373291E-4 -1.296997E-4l14.708527 1.296997E-4c3.0517578E-5 0 6.1035156E-5 7.6293945E-6 9.1552734E-5 3.0517578E-5c1.5258789E-5 2.2888184E-5 3.0517578E-5 5.340576E-5 3.0517578E-5 9.1552734E-5l-1.2207031E-4 41.76365c0 7.6293945E-5 -4.5776367E-5 1.2207031E-4 -1.2207031E-4 1.2207031E-4l-14.708542 -1.2207031E-4l0 0c-6.1035156E-5 0 -1.2207031E-4 -4.5776367E-5 -1.2207031E-4 -1.2207031E-4z" fill-rule="nonzero"></path><path fill="#fcfffb" fill-opacity="0.3385" d="m168.749 121.55119l0 0c0 -6.1035156E-5 4.5776367E-5 -9.918213E-5 1.0681152E-4 -9.918213E-5l11.968399 9.918213E-5c3.0517578E-5 0 6.1035156E-5 7.6293945E-6 7.6293945E-5 2.2888184E-5c1.5258789E-5 2.2888184E-5 3.0517578E-5 4.5776367E-5 3.0517578E-5 7.6293945E-5l-1.0681152E-4 34.078636c0 6.1035156E-5 -4.5776367E-5 1.0681152E-4 -9.1552734E-5 1.0681152E-4l-11.968414 -1.0681152E-4l0 0c-4.5776367E-5 0 -9.1552734E-5 -4.5776367E-5 -9.1552734E-5 -9.1552734E-5z" fill-rule="nonzero"></path><path fill="#4a86e8" d="m188.48166 120.23373l0 0c0 -6.866455E-5 4.5776367E-5 -1.296997E-4 1.2207031E-4 -1.296997E-4l14.708542 1.296997E-4c3.0517578E-5 0 6.1035156E-5 7.6293945E-6 7.6293945E-5 3.0517578E-5c3.0517578E-5 2.2888184E-5 4.5776367E-5 5.340576E-5 4.5776367E-5 9.1552734E-5l-1.2207031E-4 41.76365c0 7.6293945E-5 -6.1035156E-5 1.2207031E-4 -1.2207031E-4 1.2207031E-4l-14.708542 -1.2207031E-4l0 0c-7.6293945E-5 0 -1.2207031E-4 -4.5776367E-5 -1.2207031E-4 -1.2207031E-4z" fill-rule="nonzero"></path><path stroke="#1155cc" stroke-width="1.0" stroke-linejoin="round" stroke-linecap="butt" d="m188.48166 120.23373l0 0c0 -6.866455E-5 4.5776367E-5 -1.296997E-4 1.2207031E-4 -1.296997E-4l14.708542 1.296997E-4c3.0517578E-5 0 6.1035156E-5 7.6293945E-6 7.6293945E-5 3.0517578E-5c3.0517578E-5 2.2888184E-5 4.5776367E-5 5.340576E-5 4.5776367E-5 9.1552734E-5l-1.2207031E-4 41.76365c0 7.6293945E-5 -6.1035156E-5 1.2207031E-4 -1.2207031E-4 1.2207031E-4l-14.708542 -1.2207031E-4l0 0c-7.6293945E-5 0 -1.2207031E-4 -4.5776367E-5 -1.2207031E-4 -1.2207031E-4z" fill-rule="nonzero"></path><path fill="#fcfffb" fill-opacity="0.3385" d="m189.2217 121.55119l0 0c0 -6.1035156E-5 4.5776367E-5 -9.918213E-5 9.1552734E-5 -9.918213E-5l11.968399 9.918213E-5c3.0517578E-5 0 6.1035156E-5 7.6293945E-6 7.6293945E-5 2.2888184E-5c1.5258789E-5 2.2888184E-5 3.0517578E-5 4.5776367E-5 3.0517578E-5 7.6293945E-5l-1.0681152E-4 34.078636c0 6.1035156E-5 -3.0517578E-5 1.0681152E-4 -9.1552734E-5 1.0681152E-4l-11.968399 -1.0681152E-4l0 0c-6.1035156E-5 0 -1.0681152E-4 -4.5776367E-5 -1.0681152E-4 -9.1552734E-5z" fill-rule="nonzero"></path><path fill="#71ff05" d="m15.7556305 179.62724l0 0c0 -8.69751E-4 7.05719E-4 -0.0015716553 0.0015773773 -0.0015716553l189.35275 0.0015716553c4.272461E-4 0 8.239746E-4 1.6784668E-4 0.0011291504 4.5776367E-4c2.89917E-4 3.0517578E-4 4.5776367E-4 7.019043E-4 4.5776367E-4 0.0011291504l-0.0015869141 15.494476c0 8.69751E-4 -7.019043E-4 0.0015869141 -0.0015716553 0.0015869141l-189.35275 -0.0015869141l0 0c-8.716583E-4 0 -0.001578331 -7.019043E-4 -0.001578331 -0.0015716553z" fill-rule="nonzero"></path><path stroke="#00ff00" stroke-width="1.0" stroke-linejoin="round" stroke-linecap="butt" d="m15.7556305 179.62724l0 0c0 -8.69751E-4 7.05719E-4 -0.0015716553 0.0015773773 -0.0015716553l189.35275 0.0015716553c4.272461E-4 0 8.239746E-4 1.6784668E-4 0.0011291504 4.5776367E-4c2.89917E-4 3.0517578E-4 4.5776367E-4 7.019043E-4 4.5776367E-4 0.0011291504l-0.0015869141 15.494476c0 8.69751E-4 -7.019043E-4 0.0015869141 -0.0015716553 0.0015869141l-189.35275 -0.0015869141l0 0c-8.716583E-4 0 -0.001578331 -7.019043E-4 -0.001578331 -0.0015716553z" fill-rule="nonzero"></path><path fill="#fcfffb" fill-opacity="0.3385" d="m17.579594 179.62747l0 0c0 -8.544922E-4 6.8473816E-4 -0.0015411377 0.0015296936 -0.0015411377l183.62051 0.0015411377c3.9672852E-4 0 7.9345703E-4 1.5258789E-4 0.001083374 4.4250488E-4c2.746582E-4 2.89917E-4 4.4250488E-4 6.713867E-4 4.4250488E-4 0.001083374l-0.0015258789 12.628387c0 8.544922E-4 -6.866455E-4 0.0015411377 -0.0015411377 0.0015411377l-183.62051 -0.0015411377l0 0c-8.4495544E-4 0 -0.0015296936 -6.866455E-4 -0.0015296936 -0.0015258789z" fill-rule="nonzero"></path></g></svg>
