<?xml version="1.0" standalone="yes"?>

<svg version="1.1" viewBox="0.0 0.0 701.0 272.0" fill="none" stroke="none" stroke-linecap="square" stroke-miterlimit="10" xmlns="http://www.w3.org/2000/svg" xmlns:xlink="http://www.w3.org/1999/xlink"><clipPath id="p.0"><path d="m0 0l701.0 0l0 272.0l-701.0 0l0 -272.0z" clip-rule="nonzero"></path></clipPath><g clip-path="url(#p.0)"><path fill="#000000" fill-opacity="0.0" d="m0 0l701.85565 0l0 272.7953l-701.85565 0z" fill-rule="nonzero"></path><path fill="#69ff0b" d="m15.572179 19.33071l54.236217 0l0 39.74803l-54.236217 0z" fill-rule="nonzero"></path><path stroke="#f3f3f3" stroke-width="1.0" stroke-linejoin="round" stroke-linecap="butt" d="m15.572179 19.33071l54.236217 0l0 39.74803l-54.236217 0z" fill-rule="nonzero"></path><path fill="#000000" d="m38.16685 46.12472l3.59375 -5.125l-3.328125 -4.734375l2.09375 0l1.515625 2.3125q0.421875 0.65625 0.671875 1.109375q0.421875 -0.609375 0.765625 -1.09375l1.65625 -2.328125l1.984375 0l-3.390625 4.640625l3.65625 5.21875l-2.046875 0l-2.03125 -3.0625l-0.53125 -0.828125l-2.59375 3.890625l-2.015625 0z" fill-rule="nonzero"></path><path fill="#f3f3f3" d="m71.57218 19.33071l54.236214 0l0 39.74803l-54.236214 0z" fill-rule="nonzero"></path><path stroke="#efefef" stroke-width="1.0" stroke-linejoin="round" stroke-linecap="butt" d="m71.57218 19.33071l54.236214 0l0 39.74803l-54.236214 0z" fill-rule="nonzero"></path><path fill="#000000" d="m95.198105 49.921597l-0.171875 -1.5625q0.546875 0.140625 0.953125 0.140625q0.546875 0 0.875 -0.1875q0.34375 -0.1875 0.5625 -0.515625q0.15625 -0.25 0.5 -1.25q0.046875 -0.140625 0.15625 -0.40625l-3.734375 -9.875l1.796875 0l2.046875 5.71875q0.40625 1.078125 0.71875 2.28125q0.28125 -1.15625 0.6875 -2.25l2.09375 -5.75l1.671875 0l-3.75 10.03125q-0.59375 1.625 -0.9375 2.234375q-0.4375 0.828125 -1.015625 1.203125q-0.578125 0.390625 -1.375 0.390625q-0.484375 0 -1.078125 -0.203125z" fill-rule="nonzero"></path><path fill="#d64426" d="m127.57218 19.33071l54.236214 0l0 39.74803l-54.236214 0z" fill-rule="nonzero"></path><path stroke="#efefef" stroke-width="1.0" stroke-linejoin="round" stroke-linecap="butt" d="m127.57218 19.33071l54.236214 0l0 39.74803l-54.236214 0z" fill-rule="nonzero"></path><path fill="#000000" d="m150.40123 46.12472l0 -1.359375l6.265625 -7.1875q-1.0625 0.046875 -1.875 0.046875l-4.015625 0l0 -1.359375l8.046875 0l0 1.109375l-5.34375 6.25l-1.015625 1.140625q1.109375 -0.078125 2.09375 -0.078125l4.5625 0l0 1.4375l-8.71875 0z" fill-rule="nonzero"></path><path fill="#69ff0b" d="m183.57217 19.33071l54.23622 0l0 39.74803l-54.23622 0z" fill-rule="nonzero"></path><path stroke="#f3f3f3" stroke-width="1.0" stroke-linejoin="round" stroke-linecap="butt" d="m183.57217 19.33071l54.23622 0l0 39.74803l-54.23622 0z" fill-rule="nonzero"></path><path fill="#000000" d="m206.16685 46.12472l3.59375 -5.125l-3.328125 -4.734375l2.09375 0l1.515625 2.3125q0.421875 0.65625 0.671875 1.109375q0.421875 -0.609375 0.765625 -1.09375l1.65625 -2.328125l1.984375 0l-3.390625 4.640625l3.65625 5.21875l-2.046875 0l-2.03125 -3.0625l-0.53125 -0.828125l-2.59375 3.890625l-2.015625 0z" fill-rule="nonzero"></path><path fill="#f3f3f3" d="m239.57217 19.33071l54.236237 0l0 39.74803l-54.236237 0z" fill-rule="nonzero"></path><path stroke="#efefef" stroke-width="1.0" stroke-linejoin="round" stroke-linecap="butt" d="m239.57217 19.33071l54.236237 0l0 39.74803l-54.236237 0z" fill-rule="nonzero"></path><path fill="#000000" d="m263.1981 49.921597l-0.171875 -1.5625q0.546875 0.140625 0.953125 0.140625q0.546875 0 0.875 -0.1875q0.34375 -0.1875 0.5625 -0.515625q0.15625 -0.25 0.5 -1.25q0.046875 -0.140625 0.15625 -0.40625l-3.734375 -9.875l1.796875 0l2.046875 5.71875q0.40625 1.078125 0.71875 2.28125q0.28125 -1.15625 0.6875 -2.25l2.09375 -5.75l1.671875 0l-3.75 10.03125q-0.59375 1.625 -0.9375 2.234375q-0.4375 0.828125 -1.015625 1.203125q-0.578125 0.390625 -1.375 0.390625q-0.484375 0 -1.078125 -0.203125z" fill-rule="nonzero"></path><path fill="#d64426" d="m295.57217 19.33071l54.236237 0l0 39.74803l-54.236237 0z" fill-rule="nonzero"></path><path stroke="#efefef" stroke-width="1.0" stroke-linejoin="round" stroke-linecap="butt" d="m295.57217 19.33071l54.236237 0l0 39.74803l-54.236237 0z" fill-rule="nonzero"></path><path fill="#000000" d="m318.4012 46.12472l0 -1.359375l6.265625 -7.1875q-1.0625 0.046875 -1.875 0.046875l-4.015625 0l0 -1.359375l8.046875 0l0 1.109375l-5.34375 6.25l-1.015625 1.140625q1.109375 -0.078125 2.09375 -0.078125l4.5625 0l0 1.4375l-8.71875 0z" fill-rule="nonzero"></path><path fill="#69ff0b" d="m351.57217 19.33071l54.236237 0l0 39.74803l-54.236237 0z" fill-rule="nonzero"></path><path stroke="#f3f3f3" stroke-width="1.0" stroke-linejoin="round" stroke-linecap="butt" d="m351.57217 19.33071l54.236237 0l0 39.74803l-54.236237 0z" fill-rule="nonzero"></path><path fill="#000000" d="m374.16684 46.12472l3.59375 -5.125l-3.328125 -4.734375l2.09375 0l1.515625 2.3125q0.421875 0.65625 0.671875 1.109375q0.421875 -0.609375 0.765625 -1.09375l1.65625 -2.328125l1.984375 0l-3.390625 4.640625l3.65625 5.21875l-2.046875 0l-2.03125 -3.0625l-0.53125 -0.828125l-2.59375 3.890625l-2.015625 0z" fill-rule="nonzero"></path><path fill="#f3f3f3" d="m407.57217 19.33071l54.236237 0l0 39.74803l-54.236237 0z" fill-rule="nonzero"></path><path stroke="#efefef" stroke-width="1.0" stroke-linejoin="round" stroke-linecap="butt" d="m407.57217 19.33071l54.236237 0l0 39.74803l-54.236237 0z" fill-rule="nonzero"></path><path fill="#000000" d="m431.1981 49.921597l-0.171875 -1.5625q0.546875 0.140625 0.953125 0.140625q0.546875 0 0.875 -0.1875q0.34375 -0.1875 0.5625 -0.515625q0.15625 -0.25 0.5 -1.25q0.046875 -0.140625 0.15625 -0.40625l-3.734375 -9.875l1.796875 0l2.046875 5.71875q0.40625 1.078125 0.71875 2.28125q0.28125 -1.15625 0.6875 -2.25l2.09375 -5.75l1.671875 0l-3.75 10.03125q-0.59375 1.625 -0.9375 2.234375q-0.4375 0.828125 -1.015625 1.203125q-0.578125 0.390625 -1.375 0.390625q-0.484375 0 -1.078125 -0.203125z" fill-rule="nonzero"></path><path fill="#d64426" d="m463.57217 19.33071l54.236237 0l0 39.74803l-54.236237 0z" fill-rule="nonzero"></path><path stroke="#efefef" stroke-width="1.0" stroke-linejoin="round" stroke-linecap="butt" d="m463.57217 19.33071l54.236237 0l0 39.74803l-54.236237 0z" fill-rule="nonzero"></path><path fill="#000000" d="m486.4012 46.12472l0 -1.359375l6.265625 -7.1875q-1.0625 0.046875 -1.875 0.046875l-4.015625 0l0 -1.359375l8.046875 0l0 1.109375l-5.34375 6.25l-1.015625 1.140625q1.109375 -0.078125 2.09375 -0.078125l4.5625 0l0 1.4375l-8.71875 0z" fill-rule="nonzero"></path><path fill="#69ff0b" d="m519.5722 19.33071l54.236206 0l0 39.74803l-54.236206 0z" fill-rule="nonzero"></path><path stroke="#f3f3f3" stroke-width="1.0" stroke-linejoin="round" stroke-linecap="butt" d="m519.5722 19.33071l54.236206 0l0 39.74803l-54.236206 0z" fill-rule="nonzero"></path><path fill="#000000" d="m542.1669 46.12472l3.59375 -5.125l-3.328125 -4.734375l2.09375 0l1.515625 2.3125q0.421875 0.65625 0.671875 1.109375q0.421875 -0.609375 0.765625 -1.09375l1.65625 -2.328125l1.984375 0l-3.390625 4.640625l3.65625 5.21875l-2.046875 0l-2.03125 -3.0625l-0.53125 -0.828125l-2.59375 3.890625l-2.015625 0z" fill-rule="nonzero"></path><path fill="#f3f3f3" d="m575.5722 19.33071l54.236206 0l0 39.74803l-54.236206 0z" fill-rule="nonzero"></path><path stroke="#efefef" stroke-width="1.0" stroke-linejoin="round" stroke-linecap="butt" d="m575.5722 19.33071l54.236206 0l0 39.74803l-54.236206 0z" fill-rule="nonzero"></path><path fill="#000000" d="m599.1981 49.921597l-0.171875 -1.5625q0.546875 0.140625 0.953125 0.140625q0.546875 0 0.875 -0.1875q0.34375 -0.1875 0.5625 -0.515625q0.15625 -0.25 0.5 -1.25q0.046875 -0.140625 0.15625 -0.40625l-3.734375 -9.875l1.796875 0l2.046875 5.71875q0.40625 1.078125 0.71875 2.28125q0.28125 -1.15625 0.6875 -2.25l2.09375 -5.75l1.671875 0l-3.75 10.03125q-0.59375 1.625 -0.9375 2.234375q-0.4375 0.828125 -1.015625 1.203125q-0.578125 0.390625 -1.375 0.390625q-0.484375 0 -1.078125 -0.203125z" fill-rule="nonzero"></path><path fill="#d64426" d="m631.5722 19.33071l54.236206 0l0 39.74803l-54.236206 0z" fill-rule="nonzero"></path><path stroke="#efefef" stroke-width="1.0" stroke-linejoin="round" stroke-linecap="butt" d="m631.5722 19.33071l54.236206 0l0 39.74803l-54.236206 0z" fill-rule="nonzero"></path><path fill="#000000" d="m654.40125 46.12472l0 -1.359375l6.265625 -7.1875q-1.0625 0.046875 -1.875 0.046875l-4.015625 0l0 -1.359375l8.046875 0l0 1.109375l-5.34375 6.25l-1.015625 1.140625q1.109375 -0.078125 2.09375 -0.078125l4.5625 0l0 1.4375l-8.71875 0z" fill-rule="nonzero"></path><path fill="#69ff0b" d="m223.57217 123.33071l54.236237 0l0 39.748024l-54.236237 0z" fill-rule="nonzero"></path><path stroke="#f3f3f3" stroke-width="1.0" stroke-linejoin="round" stroke-linecap="butt" d="m223.57217 123.33071l54.236237 0l0 39.748024l-54.236237 0z" fill-rule="nonzero"></path><path fill="#000000" d="m246.16685 150.12473l3.59375 -5.125l-3.328125 -4.734375l2.09375 0l1.515625 2.3125q0.421875 0.65625 0.671875 1.109375q0.421875 -0.609375 0.765625 -1.09375l1.65625 -2.328125l1.984375 0l-3.390625 4.640625l3.65625 5.21875l-2.046875 0l-2.03125 -3.0625l-0.53125 -0.828125l-2.59375 3.890625l-2.015625 0z" fill-rule="nonzero"></path><path fill="#f3f3f3" d="m223.57217 171.3307l54.236237 0l0 39.74803l-54.236237 0z" fill-rule="nonzero"></path><path stroke="#efefef" stroke-width="1.0" stroke-linejoin="round" stroke-linecap="butt" d="m223.57217 171.3307l54.236237 0l0 39.74803l-54.236237 0z" fill-rule="nonzero"></path><path fill="#000000" d="m247.1981 201.9216l-0.171875 -1.5625q0.546875 0.140625 0.953125 0.140625q0.546875 0 0.875 -0.1875q0.34375 -0.1875 0.5625 -0.515625q0.15625 -0.25 0.5 -1.25q0.046875 -0.140625 0.15625 -0.40625l-3.734375 -9.875l1.796875 0l2.046875 5.71875q0.40625 1.078125 0.71875 2.28125q0.28125 -1.15625 0.6875 -2.25l2.09375 -5.75l1.671875 0l-3.75 10.03125q-0.59375 1.625 -0.9375 2.234375q-0.4375 0.828125 -1.015625 1.203125q-0.578125 0.390625 -1.375 0.390625q-0.484375 0 -1.078125 -0.203125z" fill-rule="nonzero"></path><path fill="#d64426" d="m223.57217 219.3307l54.236237 0l0 39.74803l-54.236237 0z" fill-rule="nonzero"></path><path stroke="#efefef" stroke-width="1.0" stroke-linejoin="round" stroke-linecap="butt" d="m223.57217 219.3307l54.236237 0l0 39.74803l-54.236237 0z" fill-rule="nonzero"></path><path fill="#000000" d="m246.40123 246.12473l0 -1.359375l6.265625 -7.1875q-1.0625 0.046875 -1.875 0.046875l-4.015625 0l0 -1.359375l8.046875 0l0 1.109375l-5.34375 6.25l-1.015625 1.140625q1.109375 -0.078125 2.09375 -0.078125l4.5625 0l0 1.4375l-8.71875 0z" fill-rule="nonzero"></path><path fill="#69ff0b" d="m279.57217 123.33071l54.236237 0l0 39.748024l-54.236237 0z" fill-rule="nonzero"></path><path stroke="#f3f3f3" stroke-width="1.0" stroke-linejoin="round" stroke-linecap="butt" d="m279.57217 123.33071l54.236237 0l0 39.748024l-54.236237 0z" fill-rule="nonzero"></path><path fill="#000000" d="m302.16684 150.12473l3.59375 -5.125l-3.328125 -4.734375l2.09375 0l1.515625 2.3125q0.421875 0.65625 0.671875 1.109375q0.421875 -0.609375 0.765625 -1.09375l1.65625 -2.328125l1.984375 0l-3.390625 4.640625l3.65625 5.21875l-2.046875 0l-2.03125 -3.0625l-0.53125 -0.828125l-2.59375 3.890625l-2.015625 0z" fill-rule="nonzero"></path><path fill="#f3f3f3" d="m279.57217 171.3307l54.236237 0l0 39.74803l-54.236237 0z" fill-rule="nonzero"></path><path stroke="#efefef" stroke-width="1.0" stroke-linejoin="round" stroke-linecap="butt" d="m279.57217 171.3307l54.236237 0l0 39.74803l-54.236237 0z" fill-rule="nonzero"></path><path fill="#000000" d="m303.1981 201.9216l-0.171875 -1.5625q0.546875 0.140625 0.953125 0.140625q0.546875 0 0.875 -0.1875q0.34375 -0.1875 0.5625 -0.515625q0.15625 -0.25 0.5 -1.25q0.046875 -0.140625 0.15625 -0.40625l-3.734375 -9.875l1.796875 0l2.046875 5.71875q0.40625 1.078125 0.71875 2.28125q0.28125 -1.15625 0.6875 -2.25l2.09375 -5.75l1.671875 0l-3.75 10.03125q-0.59375 1.625 -0.9375 2.234375q-0.4375 0.828125 -1.015625 1.203125q-0.578125 0.390625 -1.375 0.390625q-0.484375 0 -1.078125 -0.203125z" fill-rule="nonzero"></path><path fill="#d64426" d="m279.57217 219.3307l54.236237 0l0 39.74803l-54.236237 0z" fill-rule="nonzero"></path><path stroke="#efefef" stroke-width="1.0" stroke-linejoin="round" stroke-linecap="butt" d="m279.57217 219.3307l54.236237 0l0 39.74803l-54.236237 0z" fill-rule="nonzero"></path><path fill="#000000" d="m302.4012 246.12473l0 -1.359375l6.265625 -7.1875q-1.0625 0.046875 -1.875 0.046875l-4.015625 0l0 -1.359375l8.046875 0l0 1.109375l-5.34375 6.25l-1.015625 1.140625q1.109375 -0.078125 2.09375 -0.078125l4.5625 0l0 1.4375l-8.71875 0z" fill-rule="nonzero"></path><path fill="#69ff0b" d="m335.57217 123.33071l54.236237 0l0 39.748024l-54.236237 0z" fill-rule="nonzero"></path><path stroke="#f3f3f3" stroke-width="1.0" stroke-linejoin="round" stroke-linecap="butt" d="m335.57217 123.33071l54.236237 0l0 39.748024l-54.236237 0z" fill-rule="nonzero"></path><path fill="#000000" d="m358.16684 150.12473l3.59375 -5.125l-3.328125 -4.734375l2.09375 0l1.515625 2.3125q0.421875 0.65625 0.671875 1.109375q0.421875 -0.609375 0.765625 -1.09375l1.65625 -2.328125l1.984375 0l-3.390625 4.640625l3.65625 5.21875l-2.046875 0l-2.03125 -3.0625l-0.53125 -0.828125l-2.59375 3.890625l-2.015625 0z" fill-rule="nonzero"></path><path fill="#f3f3f3" d="m335.57217 171.3307l54.236237 0l0 39.74803l-54.236237 0z" fill-rule="nonzero"></path><path stroke="#efefef" stroke-width="1.0" stroke-linejoin="round" stroke-linecap="butt" d="m335.57217 171.3307l54.236237 0l0 39.74803l-54.236237 0z" fill-rule="nonzero"></path><path fill="#000000" d="m359.1981 201.9216l-0.171875 -1.5625q0.546875 0.140625 0.953125 0.140625q0.546875 0 0.875 -0.1875q0.34375 -0.1875 0.5625 -0.515625q0.15625 -0.25 0.5 -1.25q0.046875 -0.140625 0.15625 -0.40625l-3.734375 -9.875l1.796875 0l2.046875 5.71875q0.40625 1.078125 0.71875 2.28125q0.28125 -1.15625 0.6875 -2.25l2.09375 -5.75l1.671875 0l-3.75 10.03125q-0.59375 1.625 -0.9375 2.234375q-0.4375 0.828125 -1.015625 1.203125q-0.578125 0.390625 -1.375 0.390625q-0.484375 0 -1.078125 -0.203125z" fill-rule="nonzero"></path><path fill="#d64426" d="m335.57217 219.3307l54.236237 0l0 39.74803l-54.236237 0z" fill-rule="nonzero"></path><path stroke="#efefef" stroke-width="1.0" stroke-linejoin="round" stroke-linecap="butt" d="m335.57217 219.3307l54.236237 0l0 39.74803l-54.236237 0z" fill-rule="nonzero"></path><path fill="#000000" d="m358.4012 246.12473l0 -1.359375l6.265625 -7.1875q-1.0625 0.046875 -1.875 0.046875l-4.015625 0l0 -1.359375l8.046875 0l0 1.109375l-5.34375 6.25l-1.015625 1.140625q1.109375 -0.078125 2.09375 -0.078125l4.5625 0l0 1.4375l-8.71875 0z" fill-rule="nonzero"></path><path fill="#69ff0b" d="m391.57217 123.33071l54.236237 0l0 39.748024l-54.236237 0z" fill-rule="nonzero"></path><path stroke="#f3f3f3" stroke-width="1.0" stroke-linejoin="round" stroke-linecap="butt" d="m391.57217 123.33071l54.236237 0l0 39.748024l-54.236237 0z" fill-rule="nonzero"></path><path fill="#000000" d="m414.16684 150.12473l3.59375 -5.125l-3.328125 -4.734375l2.09375 0l1.515625 2.3125q0.421875 0.65625 0.671875 1.109375q0.421875 -0.609375 0.765625 -1.09375l1.65625 -2.328125l1.984375 0l-3.390625 4.640625l3.65625 5.21875l-2.046875 0l-2.03125 -3.0625l-0.53125 -0.828125l-2.59375 3.890625l-2.015625 0z" fill-rule="nonzero"></path><path fill="#f3f3f3" d="m391.57217 171.3307l54.236237 0l0 39.74803l-54.236237 0z" fill-rule="nonzero"></path><path stroke="#efefef" stroke-width="1.0" stroke-linejoin="round" stroke-linecap="butt" d="m391.57217 171.3307l54.236237 0l0 39.74803l-54.236237 0z" fill-rule="nonzero"></path><path fill="#000000" d="m415.1981 201.9216l-0.171875 -1.5625q0.546875 0.140625 0.953125 0.140625q0.546875 0 0.875 -0.1875q0.34375 -0.1875 0.5625 -0.515625q0.15625 -0.25 0.5 -1.25q0.046875 -0.140625 0.15625 -0.40625l-3.734375 -9.875l1.796875 0l2.046875 5.71875q0.40625 1.078125 0.71875 2.28125q0.28125 -1.15625 0.6875 -2.25l2.09375 -5.75l1.671875 0l-3.75 10.03125q-0.59375 1.625 -0.9375 2.234375q-0.4375 0.828125 -1.015625 1.203125q-0.578125 0.390625 -1.375 0.390625q-0.484375 0 -1.078125 -0.203125z" fill-rule="nonzero"></path><path fill="#d64426" d="m391.57217 219.3307l54.236237 0l0 39.74803l-54.236237 0z" fill-rule="nonzero"></path><path stroke="#efefef" stroke-width="1.0" stroke-linejoin="round" stroke-linecap="butt" d="m391.57217 219.3307l54.236237 0l0 39.74803l-54.236237 0z" fill-rule="nonzero"></path><path fill="#000000" d="m414.4012 246.12473l0 -1.359375l6.265625 -7.1875q-1.0625 0.046875 -1.875 0.046875l-4.015625 0l0 -1.359375l8.046875 0l0 1.109375l-5.34375 6.25l-1.015625 1.140625q1.109375 -0.078125 2.09375 -0.078125l4.5625 0l0 1.4375l-8.71875 0z" fill-rule="nonzero"></path><path fill="#ffffff" d="m304.27823 91.015785l19.420197 0l0 -12.276939l19.805237 0l0 12.276939l19.420227 0l-29.322845 11.786049z" fill-rule="nonzero"></path><path stroke="#b7b7b7" stroke-width="1.0" stroke-linejoin="round" stroke-linecap="butt" d="m304.27823 91.015785l19.420197 0l0 -12.276939l19.805237 0l0 12.276939l19.420227 0l-29.322845 11.786049z" fill-rule="nonzero"></path></g></svg>
