<?xml version="1.0" standalone="yes"?>

<svg version="1.1" viewBox="0.0 0.0 815.0 100.0" fill="none" stroke="none" stroke-linecap="square" stroke-miterlimit="10" xmlns="http://www.w3.org/2000/svg" xmlns:xlink="http://www.w3.org/1999/xlink"><clipPath id="p.0"><path d="m0 0l815.0 0l0 100.0l-815.0 0l0 -100.0z" clip-rule="nonzero"></path></clipPath><g clip-path="url(#p.0)"><path fill="#000000" fill-opacity="0.0" d="m0 0l815.5407 0l0 100.0l-815.5407 0z" fill-rule="nonzero"></path><path fill="#ffffff" d="m23.493439 29.929134l30.740158 0l0 30.07874l-30.740158 0z" fill-rule="nonzero"></path><path stroke="#ffffff" stroke-width="1.0" stroke-linejoin="round" stroke-linecap="butt" d="m23.493439 29.929134l30.740158 0l0 30.07874l-30.740158 0z" fill-rule="nonzero"></path><path fill="#000000" d="m35.352814 48.708504l0 -6.9375l-2.59375 0l0 -0.9375l6.234375 0l0 0.9375l-2.609375 0l0 6.9375l-1.03125 0z" fill-rule="nonzero"></path><path fill="#000000" d="m39.299576 50.239754q0 -0.890625 0.171875 -1.421875q0.1875 -0.546875 0.546875 -0.84375q0.359375 -0.296875 0.90625 -0.296875q0.40625 0 0.703125 0.171875q0.3125 0.15625 0.5 0.46875q0.203125 0.296875 0.3125 0.734375q0.125 0.4375 0.125 1.1875q0 0.875 -0.1875 1.421875q-0.171875 0.546875 -0.546875 0.84375q-0.359375 0.28125 -0.90625 0.28125q-0.71875 0 -1.140625 -0.515625q-0.484375 -0.625 -0.484375 -2.03125zm0.625 0q0 1.234375 0.28125 1.640625q0.296875 0.40625 0.71875 0.40625q0.421875 0 0.703125 -0.40625q0.296875 -0.40625 0.296875 -1.640625q0 -1.234375 -0.296875 -1.640625q-0.28125 -0.40625 -0.703125 -0.40625q-0.421875 0 -0.6875 0.359375q-0.3125 0.453125 -0.3125 1.6875z" fill-rule="nonzero"></path><path fill="#ffffff" d="m55.49344 29.929134l30.740158 0l0 30.07874l-30.740158 0z" fill-rule="nonzero"></path><path stroke="#ffffff" stroke-width="1.0" stroke-linejoin="round" stroke-linecap="butt" d="m55.49344 29.929134l30.740158 0l0 30.07874l-30.740158 0z" fill-rule="nonzero"></path><path fill="#000000" d="m67.35281 48.708504l0 -6.9375l-2.59375 0l0 -0.9375l6.234375 0l0 0.9375l-2.609375 0l0 6.9375l-1.03125 0z" fill-rule="nonzero"></path><path fill="#000000" d="m71.299576 50.239754q0 -0.890625 0.171875 -1.421875q0.1875 -0.546875 0.546875 -0.84375q0.359375 -0.296875 0.90625 -0.296875q0.40625 0 0.703125 0.171875q0.3125 0.15625 0.5 0.46875q0.203125 0.296875 0.3125 0.734375q0.125 0.4375 0.125 1.1875q0 0.875 -0.1875 1.421875q-0.171875 0.546875 -0.546875 0.84375q-0.359375 0.28125 -0.90625 0.28125q-0.71875 0 -1.140625 -0.515625q-0.484375 -0.625 -0.484375 -2.03125zm0.625 0q0 1.234375 0.28125 1.640625q0.296875 0.40625 0.71875 0.40625q0.421875 0 0.703125 -0.40625q0.296875 -0.40625 0.296875 -1.640625q0 -1.234375 -0.296875 -1.640625q-0.28125 -0.40625 -0.703125 -0.40625q-0.421875 0 -0.6875 0.359375q-0.3125 0.453125 -0.3125 1.6875z" fill-rule="nonzero"></path><path fill="#ffffff" d="m87.49344 29.929134l30.740158 0l0 30.07874l-30.740158 0z" fill-rule="nonzero"></path><path stroke="#ffffff" stroke-width="1.0" stroke-linejoin="round" stroke-linecap="butt" d="m87.49344 29.929134l30.740158 0l0 30.07874l-30.740158 0z" fill-rule="nonzero"></path><path fill="#000000" d="m99.35281 48.708504l0 -6.9375l-2.59375 0l0 -0.9375l6.234375 0l0 0.9375l-2.609375 0l0 6.9375l-1.03125 0z" fill-rule="nonzero"></path><path fill="#000000" d="m103.299576 50.239754q0 -0.890625 0.171875 -1.421875q0.1875 -0.546875 0.546875 -0.84375q0.359375 -0.296875 0.90625 -0.296875q0.40625 0 0.703125 0.171875q0.3125 0.15625 0.5 0.46875q0.203125 0.296875 0.3125 0.734375q0.125 0.4375 0.125 1.1875q0 0.875 -0.1875 1.421875q-0.171875 0.546875 -0.546875 0.84375q-0.359375 0.28125 -0.90625 0.28125q-0.71875 0 -1.140625 -0.515625q-0.484375 -0.625 -0.484375 -2.03125zm0.625 0q0 1.234375 0.28125 1.640625q0.296875 0.40625 0.71875 0.40625q0.421875 0 0.703125 -0.40625q0.296875 -0.40625 0.296875 -1.640625q0 -1.234375 -0.296875 -1.640625q-0.28125 -0.40625 -0.703125 -0.40625q-0.421875 0 -0.6875 0.359375q-0.3125 0.453125 -0.3125 1.6875z" fill-rule="nonzero"></path><path fill="#ffffff" d="m119.49344 29.929134l30.740158 0l0 30.07874l-30.740158 0z" fill-rule="nonzero"></path><path stroke="#ffffff" stroke-width="1.0" stroke-linejoin="round" stroke-linecap="butt" d="m119.49344 29.929134l30.740158 0l0 30.07874l-30.740158 0z" fill-rule="nonzero"></path><path fill="#000000" d="m131.35281 48.708504l0 -6.9375l-2.59375 0l0 -0.9375l6.234375 0l0 0.9375l-2.609375 0l0 6.9375l-1.03125 0z" fill-rule="nonzero"></path><path fill="#000000" d="m135.29958 50.239754q0 -0.890625 0.171875 -1.421875q0.1875 -0.546875 0.546875 -0.84375q0.359375 -0.296875 0.90625 -0.296875q0.40625 0 0.703125 0.171875q0.3125 0.15625 0.5 0.46875q0.203125 0.296875 0.3125 0.734375q0.125 0.4375 0.125 1.1875q0 0.875 -0.1875 1.421875q-0.171875 0.546875 -0.546875 0.84375q-0.359375 0.28125 -0.90625 0.28125q-0.71875 0 -1.140625 -0.515625q-0.484375 -0.625 -0.484375 -2.03125zm0.625 0q0 1.234375 0.28125 1.640625q0.296875 0.40625 0.71875 0.40625q0.421875 0 0.703125 -0.40625q0.296875 -0.40625 0.296875 -1.640625q0 -1.234375 -0.296875 -1.640625q-0.28125 -0.40625 -0.703125 -0.40625q-0.421875 0 -0.6875 0.359375q-0.3125 0.453125 -0.3125 1.6875z" fill-rule="nonzero"></path><path fill="#ffffff" d="m151.49344 29.929134l30.740158 0l0 30.07874l-30.740158 0z" fill-rule="nonzero"></path><path stroke="#ffffff" stroke-width="1.0" stroke-linejoin="round" stroke-linecap="butt" d="m151.49344 29.929134l30.740158 0l0 30.07874l-30.740158 0z" fill-rule="nonzero"></path><path fill="#000000" d="m163.35281 48.708504l0 -6.9375l-2.59375 0l0 -0.9375l6.234375 0l0 0.9375l-2.609375 0l0 6.9375l-1.03125 0z" fill-rule="nonzero"></path><path fill="#000000" d="m167.29958 50.239754q0 -0.890625 0.171875 -1.421875q0.1875 -0.546875 0.546875 -0.84375q0.359375 -0.296875 0.90625 -0.296875q0.40625 0 0.703125 0.171875q0.3125 0.15625 0.5 0.46875q0.203125 0.296875 0.3125 0.734375q0.125 0.4375 0.125 1.1875q0 0.875 -0.1875 1.421875q-0.171875 0.546875 -0.546875 0.84375q-0.359375 0.28125 -0.90625 0.28125q-0.71875 0 -1.140625 -0.515625q-0.484375 -0.625 -0.484375 -2.03125zm0.625 0q0 1.234375 0.28125 1.640625q0.296875 0.40625 0.71875 0.40625q0.421875 0 0.703125 -0.40625q0.296875 -0.40625 0.296875 -1.640625q0 -1.234375 -0.296875 -1.640625q-0.28125 -0.40625 -0.703125 -0.40625q-0.421875 0 -0.6875 0.359375q-0.3125 0.453125 -0.3125 1.6875z" fill-rule="nonzero"></path><path fill="#ffffff" d="m215.49344 29.929134l30.740158 0l0 30.07874l-30.740158 0z" fill-rule="nonzero"></path><path stroke="#ffffff" stroke-width="1.0" stroke-linejoin="round" stroke-linecap="butt" d="m215.49344 29.929134l30.740158 0l0 30.07874l-30.740158 0z" fill-rule="nonzero"></path><path fill="#000000" d="m227.35281 48.708504l0 -6.9375l-2.59375 0l0 -0.9375l6.234375 0l0 0.9375l-2.609375 0l0 6.9375l-1.03125 0z" fill-rule="nonzero"></path><path fill="#000000" d="m231.29958 50.239754q0 -0.890625 0.171875 -1.421875q0.1875 -0.546875 0.546875 -0.84375q0.359375 -0.296875 0.90625 -0.296875q0.40625 0 0.703125 0.171875q0.3125 0.15625 0.5 0.46875q0.203125 0.296875 0.3125 0.734375q0.125 0.4375 0.125 1.1875q0 0.875 -0.1875 1.421875q-0.171875 0.546875 -0.546875 0.84375q-0.359375 0.28125 -0.90625 0.28125q-0.71875 0 -1.140625 -0.515625q-0.484375 -0.625 -0.484375 -2.03125zm0.625 0q0 1.234375 0.28125 1.640625q0.296875 0.40625 0.71875 0.40625q0.421875 0 0.703125 -0.40625q0.296875 -0.40625 0.296875 -1.640625q0 -1.234375 -0.296875 -1.640625q-0.28125 -0.40625 -0.703125 -0.40625q-0.421875 0 -0.6875 0.359375q-0.3125 0.453125 -0.3125 1.6875z" fill-rule="nonzero"></path><path fill="#ffffff" d="m247.49344 29.929134l30.740143 0l0 30.07874l-30.740143 0z" fill-rule="nonzero"></path><path stroke="#ffffff" stroke-width="1.0" stroke-linejoin="round" stroke-linecap="butt" d="m247.49344 29.929134l30.740143 0l0 30.07874l-30.740143 0z" fill-rule="nonzero"></path><path fill="#000000" d="m259.3528 48.708504l0 -6.9375l-2.59375 0l0 -0.9375l6.234375 0l0 0.9375l-2.609375 0l0 6.9375l-1.03125 0z" fill-rule="nonzero"></path><path fill="#000000" d="m263.29956 50.239754q0 -0.890625 0.171875 -1.421875q0.1875 -0.546875 0.546875 -0.84375q0.359375 -0.296875 0.90625 -0.296875q0.40625 0 0.703125 0.171875q0.3125 0.15625 0.5 0.46875q0.203125 0.296875 0.3125 0.734375q0.125 0.4375 0.125 1.1875q0 0.875 -0.1875 1.421875q-0.171875 0.546875 -0.546875 0.84375q-0.359375 0.28125 -0.90625 0.28125q-0.71875 0 -1.140625 -0.515625q-0.484375 -0.625 -0.484375 -2.03125zm0.625 0q0 1.234375 0.28125 1.640625q0.296875 0.40625 0.71875 0.40625q0.421875 0 0.703125 -0.40625q0.296875 -0.40625 0.296875 -1.640625q0 -1.234375 -0.296875 -1.640625q-0.28125 -0.40625 -0.703125 -0.40625q-0.421875 0 -0.6875 0.359375q-0.3125 0.453125 -0.3125 1.6875z" fill-rule="nonzero"></path><path fill="#d9d9d9" d="m279.49344 29.929134l30.740143 0l0 30.07874l-30.740143 0z" fill-rule="nonzero"></path><path stroke="#ffffff" stroke-width="1.0" stroke-linejoin="round" stroke-linecap="butt" d="m279.49344 29.929134l30.740143 0l0 30.07874l-30.740143 0z" fill-rule="nonzero"></path><path fill="#000000" d="m291.3528 48.708504l0 -6.9375l-2.59375 0l0 -0.9375l6.234375 0l0 0.9375l-2.609375 0l0 6.9375l-1.03125 0z" fill-rule="nonzero"></path><path fill="#000000" d="m297.61206 52.708504l-0.609375 0l0 -3.921875q-0.234375 0.21875 -0.59375 0.4375q-0.359375 0.203125 -0.640625 0.3125l0 -0.609375q0.515625 -0.234375 0.890625 -0.578125q0.390625 -0.34375 0.5625 -0.671875l0.390625 0l0 5.03125z" fill-rule="nonzero"></path><path fill="#d9d9d9" d="m311.49344 29.929134l30.740143 0l0 30.07874l-30.740143 0z" fill-rule="nonzero"></path><path stroke="#ffffff" stroke-width="1.0" stroke-linejoin="round" stroke-linecap="butt" d="m311.49344 29.929134l30.740143 0l0 30.07874l-30.740143 0z" fill-rule="nonzero"></path><path fill="#000000" d="m323.3528 48.708504l0 -6.9375l-2.59375 0l0 -0.9375l6.234375 0l0 0.9375l-2.609375 0l0 6.9375l-1.03125 0z" fill-rule="nonzero"></path><path fill="#000000" d="m329.61206 52.708504l-0.609375 0l0 -3.921875q-0.234375 0.21875 -0.59375 0.4375q-0.359375 0.203125 -0.640625 0.3125l0 -0.609375q0.515625 -0.234375 0.890625 -0.578125q0.390625 -0.34375 0.5625 -0.671875l0.390625 0l0 5.03125z" fill-rule="nonzero"></path><path fill="#d9d9d9" d="m343.49344 29.929134l30.740143 0l0 30.07874l-30.740143 0z" fill-rule="nonzero"></path><path stroke="#ffffff" stroke-width="1.0" stroke-linejoin="round" stroke-linecap="butt" d="m343.49344 29.929134l30.740143 0l0 30.07874l-30.740143 0z" fill-rule="nonzero"></path><path fill="#000000" d="m355.3528 48.708504l0 -6.9375l-2.59375 0l0 -0.9375l6.234375 0l0 0.9375l-2.609375 0l0 6.9375l-1.03125 0z" fill-rule="nonzero"></path><path fill="#000000" d="m361.61206 52.708504l-0.609375 0l0 -3.921875q-0.234375 0.21875 -0.59375 0.4375q-0.359375 0.203125 -0.640625 0.3125l0 -0.609375q0.515625 -0.234375 0.890625 -0.578125q0.390625 -0.34375 0.5625 -0.671875l0.390625 0l0 5.03125z" fill-rule="nonzero"></path><path fill="#d9d9d9" d="m375.49344 29.929134l30.740143 0l0 30.07874l-30.740143 0z" fill-rule="nonzero"></path><path stroke="#ffffff" stroke-width="1.0" stroke-linejoin="round" stroke-linecap="butt" d="m375.49344 29.929134l30.740143 0l0 30.07874l-30.740143 0z" fill-rule="nonzero"></path><path fill="#000000" d="m387.3528 48.708504l0 -6.9375l-2.59375 0l0 -0.9375l6.234375 0l0 0.9375l-2.609375 0l0 6.9375l-1.03125 0z" fill-rule="nonzero"></path><path fill="#000000" d="m393.61206 52.708504l-0.609375 0l0 -3.921875q-0.234375 0.21875 -0.59375 0.4375q-0.359375 0.203125 -0.640625 0.3125l0 -0.609375q0.515625 -0.234375 0.890625 -0.578125q0.390625 -0.34375 0.5625 -0.671875l0.390625 0l0 5.03125z" fill-rule="nonzero"></path><path fill="#d9d9d9" d="m407.49344 29.929134l30.740143 0l0 30.07874l-30.740143 0z" fill-rule="nonzero"></path><path stroke="#ffffff" stroke-width="1.0" stroke-linejoin="round" stroke-linecap="butt" d="m407.49344 29.929134l30.740143 0l0 30.07874l-30.740143 0z" fill-rule="nonzero"></path><path fill="#000000" d="m419.3528 48.708504l0 -6.9375l-2.59375 0l0 -0.9375l6.234375 0l0 0.9375l-2.609375 0l0 6.9375l-1.03125 0z" fill-rule="nonzero"></path><path fill="#000000" d="m425.61206 52.708504l-0.609375 0l0 -3.921875q-0.234375 0.21875 -0.59375 0.4375q-0.359375 0.203125 -0.640625 0.3125l0 -0.609375q0.515625 -0.234375 0.890625 -0.578125q0.390625 -0.34375 0.5625 -0.671875l0.390625 0l0 5.03125z" fill-rule="nonzero"></path><path fill="#d9d9d9" d="m471.49344 29.929134l30.740143 0l0 30.07874l-30.740143 0z" fill-rule="nonzero"></path><path stroke="#ffffff" stroke-width="1.0" stroke-linejoin="round" stroke-linecap="butt" d="m471.49344 29.929134l30.740143 0l0 30.07874l-30.740143 0z" fill-rule="nonzero"></path><path fill="#000000" d="m483.3528 48.708504l0 -6.9375l-2.59375 0l0 -0.9375l6.234375 0l0 0.9375l-2.609375 0l0 6.9375l-1.03125 0z" fill-rule="nonzero"></path><path fill="#000000" d="m489.61206 52.708504l-0.609375 0l0 -3.921875q-0.234375 0.21875 -0.59375 0.4375q-0.359375 0.203125 -0.640625 0.3125l0 -0.609375q0.515625 -0.234375 0.890625 -0.578125q0.390625 -0.34375 0.5625 -0.671875l0.390625 0l0 5.03125z" fill-rule="nonzero"></path><path fill="#d9d9d9" d="m503.49344 29.929134l30.740143 0l0 30.07874l-30.740143 0z" fill-rule="nonzero"></path><path stroke="#ffffff" stroke-width="1.0" stroke-linejoin="round" stroke-linecap="butt" d="m503.49344 29.929134l30.740143 0l0 30.07874l-30.740143 0z" fill-rule="nonzero"></path><path fill="#000000" d="m515.3528 48.708504l0 -6.9375l-2.59375 0l0 -0.9375l6.234375 0l0 0.9375l-2.609375 0l0 6.9375l-1.03125 0z" fill-rule="nonzero"></path><path fill="#000000" d="m521.61206 52.708504l-0.609375 0l0 -3.921875q-0.234375 0.21875 -0.59375 0.4375q-0.359375 0.203125 -0.640625 0.3125l0 -0.609375q0.515625 -0.234375 0.890625 -0.578125q0.390625 -0.34375 0.5625 -0.671875l0.390625 0l0 5.03125z" fill-rule="nonzero"></path><path fill="#b7b7b7" d="m535.4934 29.929134l30.740173 0l0 30.07874l-30.740173 0z" fill-rule="nonzero"></path><path stroke="#ffffff" stroke-width="1.0" stroke-linejoin="round" stroke-linecap="butt" d="m535.4934 29.929134l30.740173 0l0 30.07874l-30.740173 0z" fill-rule="nonzero"></path><path fill="#000000" d="m547.3528 48.708504l0 -6.9375l-2.59375 0l0 -0.9375l6.234375 0l0 0.9375l-2.609375 0l0 6.9375l-1.03125 0z" fill-rule="nonzero"></path><path fill="#000000" d="m554.53394 52.114754l0 0.59375l-3.3125 0q-0.015625 -0.21875 0.0625 -0.421875q0.125 -0.34375 0.40625 -0.671875q0.28125 -0.328125 0.8125 -0.765625q0.8125 -0.65625 1.09375 -1.046875q0.296875 -0.40625 0.296875 -0.75q0 -0.359375 -0.265625 -0.609375q-0.265625 -0.25 -0.6875 -0.25q-0.4375 0 -0.703125 0.265625q-0.265625 0.265625 -0.28125 0.734375l-0.625 -0.0625q0.0625 -0.71875 0.484375 -1.078125q0.421875 -0.375 1.140625 -0.375q0.71875 0 1.140625 0.40625q0.421875 0.390625 0.421875 0.984375q0 0.296875 -0.125 0.59375q-0.125 0.28125 -0.40625 0.609375q-0.28125 0.328125 -0.953125 0.875q-0.546875 0.46875 -0.703125 0.640625q-0.15625 0.15625 -0.265625 0.328125l2.46875 0z" fill-rule="nonzero"></path><path fill="#b7b7b7" d="m567.4934 29.929134l30.740173 0l0 30.07874l-30.740173 0z" fill-rule="nonzero"></path><path stroke="#ffffff" stroke-width="1.0" stroke-linejoin="round" stroke-linecap="butt" d="m567.4934 29.929134l30.740173 0l0 30.07874l-30.740173 0z" fill-rule="nonzero"></path><path fill="#000000" d="m579.3528 48.708504l0 -6.9375l-2.59375 0l0 -0.9375l6.234375 0l0 0.9375l-2.609375 0l0 6.9375l-1.03125 0z" fill-rule="nonzero"></path><path fill="#000000" d="m586.53394 52.114754l0 0.59375l-3.3125 0q-0.015625 -0.21875 0.0625 -0.421875q0.125 -0.34375 0.40625 -0.671875q0.28125 -0.328125 0.8125 -0.765625q0.8125 -0.65625 1.09375 -1.046875q0.296875 -0.40625 0.296875 -0.75q0 -0.359375 -0.265625 -0.609375q-0.265625 -0.25 -0.6875 -0.25q-0.4375 0 -0.703125 0.265625q-0.265625 0.265625 -0.28125 0.734375l-0.625 -0.0625q0.0625 -0.71875 0.484375 -1.078125q0.421875 -0.375 1.140625 -0.375q0.71875 0 1.140625 0.40625q0.421875 0.390625 0.421875 0.984375q0 0.296875 -0.125 0.59375q-0.125 0.28125 -0.40625 0.609375q-0.28125 0.328125 -0.953125 0.875q-0.546875 0.46875 -0.703125 0.640625q-0.15625 0.15625 -0.265625 0.328125l2.46875 0z" fill-rule="nonzero"></path><path fill="#b7b7b7" d="m599.4934 29.929134l30.740173 0l0 30.07874l-30.740173 0z" fill-rule="nonzero"></path><path stroke="#ffffff" stroke-width="1.0" stroke-linejoin="round" stroke-linecap="butt" d="m599.4934 29.929134l30.740173 0l0 30.07874l-30.740173 0z" fill-rule="nonzero"></path><path fill="#000000" d="m611.3528 48.708504l0 -6.9375l-2.59375 0l0 -0.9375l6.234375 0l0 0.9375l-2.609375 0l0 6.9375l-1.03125 0z" fill-rule="nonzero"></path><path fill="#000000" d="m618.53394 52.114754l0 0.59375l-3.3125 0q-0.015625 -0.21875 0.0625 -0.421875q0.125 -0.34375 0.40625 -0.671875q0.28125 -0.328125 0.8125 -0.765625q0.8125 -0.65625 1.09375 -1.046875q0.296875 -0.40625 0.296875 -0.75q0 -0.359375 -0.265625 -0.609375q-0.265625 -0.25 -0.6875 -0.25q-0.4375 0 -0.703125 0.265625q-0.265625 0.265625 -0.28125 0.734375l-0.625 -0.0625q0.0625 -0.71875 0.484375 -1.078125q0.421875 -0.375 1.140625 -0.375q0.71875 0 1.140625 0.40625q0.421875 0.390625 0.421875 0.984375q0 0.296875 -0.125 0.59375q-0.125 0.28125 -0.40625 0.609375q-0.28125 0.328125 -0.953125 0.875q-0.546875 0.46875 -0.703125 0.640625q-0.15625 0.15625 -0.265625 0.328125l2.46875 0z" fill-rule="nonzero"></path><path fill="#b7b7b7" d="m631.4934 29.929134l30.740173 0l0 30.07874l-30.740173 0z" fill-rule="nonzero"></path><path stroke="#ffffff" stroke-width="1.0" stroke-linejoin="round" stroke-linecap="butt" d="m631.4934 29.929134l30.740173 0l0 30.07874l-30.740173 0z" fill-rule="nonzero"></path><path fill="#000000" d="m643.3528 48.708504l0 -6.9375l-2.59375 0l0 -0.9375l6.234375 0l0 0.9375l-2.609375 0l0 6.9375l-1.03125 0z" fill-rule="nonzero"></path><path fill="#000000" d="m650.53394 52.114754l0 0.59375l-3.3125 0q-0.015625 -0.21875 0.0625 -0.421875q0.125 -0.34375 0.40625 -0.671875q0.28125 -0.328125 0.8125 -0.765625q0.8125 -0.65625 1.09375 -1.046875q0.296875 -0.40625 0.296875 -0.75q0 -0.359375 -0.265625 -0.609375q-0.265625 -0.25 -0.6875 -0.25q-0.4375 0 -0.703125 0.265625q-0.265625 0.265625 -0.28125 0.734375l-0.625 -0.0625q0.0625 -0.71875 0.484375 -1.078125q0.421875 -0.375 1.140625 -0.375q0.71875 0 1.140625 0.40625q0.421875 0.390625 0.421875 0.984375q0 0.296875 -0.125 0.59375q-0.125 0.28125 -0.40625 0.609375q-0.28125 0.328125 -0.953125 0.875q-0.546875 0.46875 -0.703125 0.640625q-0.15625 0.15625 -0.265625 0.328125l2.46875 0z" fill-rule="nonzero"></path><path fill="#b7b7b7" d="m663.4934 29.929134l30.740173 0l0 30.07874l-30.740173 0z" fill-rule="nonzero"></path><path stroke="#ffffff" stroke-width="1.0" stroke-linejoin="round" stroke-linecap="butt" d="m663.4934 29.929134l30.740173 0l0 30.07874l-30.740173 0z" fill-rule="nonzero"></path><path fill="#000000" d="m675.3528 48.708504l0 -6.9375l-2.59375 0l0 -0.9375l6.234375 0l0 0.9375l-2.609375 0l0 6.9375l-1.03125 0z" fill-rule="nonzero"></path><path fill="#000000" d="m682.53394 52.114754l0 0.59375l-3.3125 0q-0.015625 -0.21875 0.0625 -0.421875q0.125 -0.34375 0.40625 -0.671875q0.28125 -0.328125 0.8125 -0.765625q0.8125 -0.65625 1.09375 -1.046875q0.296875 -0.40625 0.296875 -0.75q0 -0.359375 -0.265625 -0.609375q-0.265625 -0.25 -0.6875 -0.25q-0.4375 0 -0.703125 0.265625q-0.265625 0.265625 -0.28125 0.734375l-0.625 -0.0625q0.0625 -0.71875 0.484375 -1.078125q0.421875 -0.375 1.140625 -0.375q0.71875 0 1.140625 0.40625q0.421875 0.390625 0.421875 0.984375q0 0.296875 -0.125 0.59375q-0.125 0.28125 -0.40625 0.609375q-0.28125 0.328125 -0.953125 0.875q-0.546875 0.46875 -0.703125 0.640625q-0.15625 0.15625 -0.265625 0.328125l2.46875 0z" fill-rule="nonzero"></path><path fill="#b7b7b7" d="m727.4934 29.929134l30.740173 0l0 30.07874l-30.740173 0z" fill-rule="nonzero"></path><path stroke="#ffffff" stroke-width="1.0" stroke-linejoin="round" stroke-linecap="butt" d="m727.4934 29.929134l30.740173 0l0 30.07874l-30.740173 0z" fill-rule="nonzero"></path><path fill="#000000" d="m739.3528 48.708504l0 -6.9375l-2.59375 0l0 -0.9375l6.234375 0l0 0.9375l-2.609375 0l0 6.9375l-1.03125 0z" fill-rule="nonzero"></path><path fill="#000000" d="m746.53394 52.114754l0 0.59375l-3.3125 0q-0.015625 -0.21875 0.0625 -0.421875q0.125 -0.34375 0.40625 -0.671875q0.28125 -0.328125 0.8125 -0.765625q0.8125 -0.65625 1.09375 -1.046875q0.296875 -0.40625 0.296875 -0.75q0 -0.359375 -0.265625 -0.609375q-0.265625 -0.25 -0.6875 -0.25q-0.4375 0 -0.703125 0.265625q-0.265625 0.265625 -0.28125 0.734375l-0.625 -0.0625q0.0625 -0.71875 0.484375 -1.078125q0.421875 -0.375 1.140625 -0.375q0.71875 0 1.140625 0.40625q0.421875 0.390625 0.421875 0.984375q0 0.296875 -0.125 0.59375q-0.125 0.28125 -0.40625 0.609375q-0.28125 0.328125 -0.953125 0.875q-0.546875 0.46875 -0.703125 0.640625q-0.15625 0.15625 -0.265625 0.328125l2.46875 0z" fill-rule="nonzero"></path><path fill="#b7b7b7" d="m759.4934 29.929134l30.740173 0l0 30.07874l-30.740173 0z" fill-rule="nonzero"></path><path stroke="#ffffff" stroke-width="1.0" stroke-linejoin="round" stroke-linecap="butt" d="m759.4934 29.929134l30.740173 0l0 30.07874l-30.740173 0z" fill-rule="nonzero"></path><path fill="#000000" d="m771.3528 48.708504l0 -6.9375l-2.59375 0l0 -0.9375l6.234375 0l0 0.9375l-2.609375 0l0 6.9375l-1.03125 0z" fill-rule="nonzero"></path><path fill="#000000" d="m778.53394 52.114754l0 0.59375l-3.3125 0q-0.015625 -0.21875 0.0625 -0.421875q0.125 -0.34375 0.40625 -0.671875q0.28125 -0.328125 0.8125 -0.765625q0.8125 -0.65625 1.09375 -1.046875q0.296875 -0.40625 0.296875 -0.75q0 -0.359375 -0.265625 -0.609375q-0.265625 -0.25 -0.6875 -0.25q-0.4375 0 -0.703125 0.265625q-0.265625 0.265625 -0.28125 0.734375l-0.625 -0.0625q0.0625 -0.71875 0.484375 -1.078125q0.421875 -0.375 1.140625 -0.375q0.71875 0 1.140625 0.40625q0.421875 0.390625 0.421875 0.984375q0 0.296875 -0.125 0.59375q-0.125 0.28125 -0.40625 0.609375q-0.28125 0.328125 -0.953125 0.875q-0.546875 0.46875 -0.703125 0.640625q-0.15625 0.15625 -0.265625 0.328125l2.46875 0z" fill-rule="nonzero"></path><path fill="#000000" fill-opacity="0.0" d="m182.2336 36.71391l33.259842 0l0 15.149609l-33.259842 0z" fill-rule="nonzero"></path><path fill="#ffffff" d="m192.31172 49.368713l0 -2.0625l2.0625 0l0 2.0625l-2.0625 0zm4.0719757 0l0 -2.0625l2.0625 0l0 2.0625l-2.0625 0zm4.0719757 0l0 -2.0625l2.0625 0l0 2.0625l-2.0625 0z" fill-rule="nonzero"></path><path fill="#000000" fill-opacity="0.0" d="m438.23358 36.71391l33.259857 0l0 15.149609l-33.259857 0z" fill-rule="nonzero"></path><path fill="#ffffff" d="m448.3117 49.368713l0 -2.0625l2.0625 0l0 2.0625l-2.0625 0zm4.071991 0l0 -2.0625l2.0625 0l0 2.0625l-2.0625 0zm4.0719604 0l0 -2.0625l2.0625 0l0 2.0625l-2.0625 0z" fill-rule="nonzero"></path><path fill="#000000" fill-opacity="0.0" d="m694.2336 36.71391l33.259827 0l0 15.149609l-33.259827 0z" fill-rule="nonzero"></path><path fill="#ffffff" d="m704.3117 49.368713l0 -2.0625l2.0625 0l0 2.0625l-2.0625 0zm4.0719604 0l0 -2.0625l2.0625 0l0 2.0625l-2.0625 0zm4.0720215 0l0 -2.0625l2.0625 0l0 2.0625l-2.0625 0z" fill-rule="nonzero"></path></g></svg>
