<?xml version="1.0" standalone="yes"?>

<svg version="1.1" viewBox="0.0 0.0 247.0 161.0" fill="none" stroke="none" stroke-linecap="square" stroke-miterlimit="10" xmlns="http://www.w3.org/2000/svg" xmlns:xlink="http://www.w3.org/1999/xlink"><clipPath id="p.0"><path d="m0 0l247.0 0l0 161.0l-247.0 0l0 -161.0z" clip-rule="nonzero"></path></clipPath><g clip-path="url(#p.0)"><path fill="#000000" fill-opacity="0.0" d="m0 0l247.88452 0l0 161.36482l-247.88452 0z" fill-rule="nonzero"></path><path fill="#000000" fill-opacity="0.0" d="m36.32966 14.155066c3.3486938 8.071104 21.379982 32.75663 20.092167 48.42662c-1.2878189 15.669987 -26.35947 30.867954 -27.81908 45.59329c-1.4596081 14.725342 15.8845215 35.632294 19.061424 42.75876" fill-rule="nonzero"></path><path stroke="#00ff00" stroke-width="2.0" stroke-linejoin="round" stroke-linecap="butt" d="m36.32966 14.155066c3.3486938 8.071102 21.379982 32.75663 20.092167 48.42662c-1.2878189 15.669979 -26.359472 30.867954 -27.819078 45.59329c-0.729805 7.3626785 3.2413254 16.270752 7.792021 24.228958c1.1376724 1.9895477 2.3115692 3.9197388 3.4572906 5.7515717c0.28643036 0.45796204 0.57110214 0.9097748 0.85300064 1.3548279l0.7390442 1.1613007" fill-rule="evenodd"></path><path stroke="#00ff00" stroke-width="2.0" stroke-linecap="butt" d="m38.61906 142.38394l7.529587 6.049423l-1.8795052 -9.47406z" fill-rule="evenodd"></path><path fill="#d9d9d9" fill-opacity="0.4692" d="m90.91338 91.95276l17.622047 -17.622047l0 8.81102l7.6850433 0l0 -8.81102l17.62204 17.622047l-17.62204 17.622047l0 -8.811028l-7.6850433 0l0 8.811028z" fill-rule="nonzero"></path><path stroke="#cccccc" stroke-width="2.0" stroke-linejoin="round" stroke-linecap="butt" d="m90.91338 91.95276l17.622047 -17.622047l0 8.81102l7.6850433 0l0 -8.81102l17.62204 17.622047l-17.62204 17.622047l0 -8.811028l-7.6850433 0l0 8.811028z" fill-rule="nonzero"></path><path fill="#71ff05" d="m154.69554 63.05797l0 0c0 -6.233261 5.053055 -11.286316 11.286316 -11.286316l45.143906 0l0 0c2.9933167 0 5.864029 1.1890907 7.9806213 3.305687c2.1165924 2.1165924 3.3056946 4.9873123 3.3056946 7.980629l0 47.348633c0 6.2332535 -5.053055 11.286316 -11.286316 11.286316l-45.143906 0c-6.233261 0 -11.286316 -5.0530624 -11.286316 -11.286316z" fill-rule="nonzero"></path><path stroke="#38761d" stroke-width="1.0" stroke-linejoin="round" stroke-linecap="butt" d="m154.69554 63.05797l0 0c0 -6.233261 5.053055 -11.286316 11.286316 -11.286316l45.143906 0l0 0c2.9933167 0 5.864029 1.1890907 7.9806213 3.305687c2.1165924 2.1165924 3.3056946 4.9873123 3.3056946 7.980629l0 47.348633c0 6.2332535 -5.053055 11.286316 -11.286316 11.286316l-45.143906 0c-6.233261 0 -11.286316 -5.0530624 -11.286316 -11.286316z" fill-rule="nonzero"></path><path fill="#fcfffb" fill-opacity="0.3385" d="m158.09973 63.17866l0 0c0 -5.082279 4.1200104 -9.202282 9.202286 -9.202282l36.80803 0l0 0c2.4405975 0 4.7812347 0.96952057 6.507004 2.6952858c1.725769 1.7257614 2.695282 4.0663986 2.695282 6.506996l0 38.6348c0 5.082283 -4.119995 9.202286 -9.202286 9.202286l-36.80803 0c-5.0822754 0 -9.202286 -4.1200027 -9.202286 -9.202286z" fill-rule="nonzero"></path><path fill="#fcfffb" fill-opacity="0.3385" d="m158.09973 61.750813l0 0c0 -4.293701 3.4807434 -7.774433 7.7744446 -7.774433l31.096802 0l0 0c2.061905 0 4.0393677 0.819088 5.497345 2.2770767c1.4579926 1.4579887 2.2770844 3.4354477 2.2770844 5.4973564l0 32.041683c0 4.293701 -3.4807281 7.774437 -7.7744293 7.774437l-31.096802 0l0 0c-4.293701 0 -7.7744446 -3.4807358 -7.7744446 -7.774437z" fill-rule="nonzero"></path></g></svg>
