<?xml version="1.0" encoding="utf-8" standalone="no"?>
<!DOCTYPE svg PUBLIC "-//W3C//DTD SVG 1.1//EN"
  "http://www.w3.org/Graphics/SVG/1.1/DTD/svg11.dtd">
<!-- Created with matplotlib (http://matplotlib.org/) -->
<svg height="694pt" version="1.1" viewBox="0 0 1410 694" width="1410pt" xmlns="http://www.w3.org/2000/svg" xmlns:xlink="http://www.w3.org/1999/xlink">
 <defs>
  <style type="text/css">
*{stroke-linecap:butt;stroke-linejoin:round;}
  </style>
 </defs>
 <g id="figure_1">
  <g id="patch_1">
   <path d="
M0 694.526
L1410.23 694.526
L1410.23 -1.13687e-13
L0 -1.13687e-13
z
" style="fill:none;"/>
  </g>
  <g id="axes_1">
   <g id="patch_2">
    <path d="
M63.8269 606.436
L1403.03 606.436
L1403.03 30.4362
L63.8269 30.4362
z
" style="fill:none;"/>
   </g>
   <g id="line2d_1">
    <path clip-path="url(#pbaabc94176)" d="
M74.1284 600.618
L74.1284 583.164
L74.1284 565.709
L74.1284 542.436
L74.1284 519.164
L74.1284 501.709
L74.1284 484.254
L74.1284 460.982
L74.1284 437.709
L74.1284 420.254
L74.1284 402.8
L74.1284 385.345
L74.1284 362.073
L74.1284 344.618
L74.1284 327.164
L74.1284 309.709
L74.1284 292.254
L74.1284 274.8
L74.1284 257.345
L74.1284 239.891
L74.1284 222.436
L74.1284 204.982
L74.1284 193.345
L74.1284 175.891
L74.1284 158.436
L74.1284 140.982
L74.1284 129.345
L74.1284 111.891
L74.1284 94.4362
L74.1284 82.7999
L74.1284 65.3453
L74.1284 53.709
L74.1284 36.2544" style="fill:none;opacity:0.3;stroke:#ffffff;stroke-dasharray:1.000000,3.000000;stroke-dashoffset:0.0;"/>
   </g>
   <g id="line2d_2">
    <path clip-path="url(#pbaabc94176)" d="
M115.335 600.618
L115.335 583.164
L115.335 565.709
L115.335 542.436
L115.335 519.164
L115.335 501.709
L115.335 484.254
L115.335 460.982
L115.335 437.709
L115.335 420.254
L115.335 402.8
L115.335 385.345
L115.335 362.073
L115.335 344.618
L115.335 327.164
L115.335 309.709
L115.335 292.254
L115.335 274.8
L115.335 257.345
L115.335 239.891
L115.335 222.436
L115.335 204.982
L115.335 193.345
L115.335 175.891
L115.335 158.436
L115.335 140.982
L115.335 129.345
L115.335 111.891
L115.335 94.4362
L115.335 82.7999
L115.335 65.3453
L115.335 53.709
L115.335 36.2544" style="fill:none;opacity:0.3;stroke:#ffffff;stroke-dasharray:1.000000,3.000000;stroke-dashoffset:0.0;"/>
   </g>
   <g id="line2d_3">
    <path clip-path="url(#pbaabc94176)" d="
M156.541 600.618
L156.541 583.164
L156.541 565.709
L156.541 542.436
L156.541 519.164
L156.541 501.709
L156.541 484.254
L156.541 460.982
L156.541 437.709
L156.541 420.254
L156.541 402.8
L156.541 385.345
L156.541 362.073
L156.541 344.618
L156.541 327.164
L156.541 309.709
L156.541 292.254
L156.541 274.8
L156.541 257.345
L156.541 239.891
L156.541 222.436
L156.541 204.982
L156.541 193.345
L156.541 175.891
L156.541 158.436
L156.541 140.982
L156.541 129.345
L156.541 111.891
L156.541 94.4362
L156.541 82.7999
L156.541 65.3453
L156.541 53.709
L156.541 36.2544" style="fill:none;opacity:0.3;stroke:#ffffff;stroke-dasharray:1.000000,3.000000;stroke-dashoffset:0.0;"/>
   </g>
   <g id="line2d_4">
    <path clip-path="url(#pbaabc94176)" d="
M197.747 600.618
L197.747 583.164
L197.747 565.709
L197.747 542.436
L197.747 519.164
L197.747 501.709
L197.747 484.254
L197.747 460.982
L197.747 437.709
L197.747 420.254
L197.747 402.8
L197.747 385.345
L197.747 362.073
L197.747 344.618
L197.747 327.164
L197.747 309.709
L197.747 292.254
L197.747 274.8
L197.747 257.345
L197.747 239.891
L197.747 222.436
L197.747 204.982
L197.747 193.345
L197.747 175.891
L197.747 158.436
L197.747 140.982
L197.747 129.345
L197.747 111.891
L197.747 94.4362
L197.747 82.7999
L197.747 65.3453
L197.747 53.709
L197.747 36.2544" style="fill:none;opacity:0.3;stroke:#ffffff;stroke-dasharray:1.000000,3.000000;stroke-dashoffset:0.0;"/>
   </g>
   <g id="line2d_5">
    <path clip-path="url(#pbaabc94176)" d="
M238.953 600.618
L238.953 583.164
L238.953 565.709
L238.953 542.436
L238.953 519.164
L238.953 501.709
L238.953 484.254
L238.953 460.982
L238.953 437.709
L238.953 420.254
L238.953 402.8
L238.953 385.345
L238.953 362.073
L238.953 344.618
L238.953 327.164
L238.953 309.709
L238.953 292.254
L238.953 274.8
L238.953 257.345
L238.953 239.891
L238.953 222.436
L238.953 204.982
L238.953 193.345
L238.953 175.891
L238.953 158.436
L238.953 140.982
L238.953 129.345
L238.953 111.891
L238.953 94.4362
L238.953 82.7999
L238.953 65.3453
L238.953 53.709
L238.953 36.2544" style="fill:none;opacity:0.3;stroke:#ffffff;stroke-dasharray:1.000000,3.000000;stroke-dashoffset:0.0;"/>
   </g>
   <g id="line2d_6">
    <path clip-path="url(#pbaabc94176)" d="
M280.159 600.618
L280.159 583.164
L280.159 565.709
L280.159 542.436
L280.159 519.164
L280.159 501.709
L280.159 484.254
L280.159 460.982
L280.159 437.709
L280.159 420.254
L280.159 402.8
L280.159 385.345
L280.159 362.073
L280.159 344.618
L280.159 327.164
L280.159 309.709
L280.159 292.254
L280.159 274.8
L280.159 257.345
L280.159 239.891
L280.159 222.436
L280.159 204.982
L280.159 193.345
L280.159 175.891
L280.159 158.436
L280.159 140.982
L280.159 129.345
L280.159 111.891
L280.159 94.4362
L280.159 82.7999
L280.159 65.3453
L280.159 53.709
L280.159 36.2544" style="fill:none;opacity:0.3;stroke:#ffffff;stroke-dasharray:1.000000,3.000000;stroke-dashoffset:0.0;"/>
   </g>
   <g id="line2d_7">
    <path clip-path="url(#pbaabc94176)" d="
M321.365 600.618
L321.365 583.164
L321.365 565.709
L321.365 542.436
L321.365 519.164
L321.365 501.709
L321.365 484.254
L321.365 460.982
L321.365 437.709
L321.365 420.254
L321.365 402.8
L321.365 385.345
L321.365 362.073
L321.365 344.618
L321.365 327.164
L321.365 309.709
L321.365 292.254
L321.365 274.8
L321.365 257.345
L321.365 239.891
L321.365 222.436
L321.365 204.982
L321.365 193.345
L321.365 175.891
L321.365 158.436
L321.365 140.982
L321.365 129.345
L321.365 111.891
L321.365 94.4362
L321.365 82.7999
L321.365 65.3453
L321.365 53.709
L321.365 36.2544" style="fill:none;opacity:0.3;stroke:#ffffff;stroke-dasharray:1.000000,3.000000;stroke-dashoffset:0.0;"/>
   </g>
   <g id="line2d_8">
    <path clip-path="url(#pbaabc94176)" d="
M362.571 600.618
L362.571 583.164
L362.571 565.709
L362.571 542.436
L362.571 519.164
L362.571 501.709
L362.571 484.254
L362.571 460.982
L362.571 437.709
L362.571 420.254
L362.571 402.8
L362.571 385.345
L362.571 362.073
L362.571 344.618
L362.571 327.164
L362.571 309.709
L362.571 292.254
L362.571 274.8
L362.571 257.345
L362.571 239.891
L362.571 222.436
L362.571 204.982
L362.571 193.345
L362.571 175.891
L362.571 158.436
L362.571 140.982
L362.571 129.345
L362.571 111.891
L362.571 94.4362
L362.571 82.7999
L362.571 65.3453
L362.571 53.709
L362.571 36.2544" style="fill:none;opacity:0.3;stroke:#ffffff;stroke-dasharray:1.000000,3.000000;stroke-dashoffset:0.0;"/>
   </g>
   <g id="line2d_9">
    <path clip-path="url(#pbaabc94176)" d="
M403.778 600.618
L403.778 583.164
L403.778 565.709
L403.778 542.436
L403.778 519.164
L403.778 501.709
L403.778 484.254
L403.778 460.982
L403.778 437.709
L403.778 420.254
L403.778 402.8
L403.778 385.345
L403.778 362.073
L403.778 344.618
L403.778 327.164
L403.778 309.709
L403.778 292.254
L403.778 274.8
L403.778 257.345
L403.778 239.891
L403.778 222.436
L403.778 204.982
L403.778 193.345
L403.778 175.891
L403.778 158.436
L403.778 140.982
L403.778 129.345
L403.778 111.891
L403.778 94.4362
L403.778 82.7999
L403.778 65.3453
L403.778 53.709
L403.778 36.2544" style="fill:none;opacity:0.3;stroke:#ffffff;stroke-dasharray:1.000000,3.000000;stroke-dashoffset:0.0;"/>
   </g>
   <g id="line2d_10">
    <path clip-path="url(#pbaabc94176)" d="
M444.984 600.618
L444.984 583.164
L444.984 565.709
L444.984 542.436
L444.984 519.164
L444.984 501.709
L444.984 484.254
L444.984 460.982
L444.984 437.709
L444.984 420.254
L444.984 402.8
L444.984 385.345
L444.984 362.073
L444.984 344.618
L444.984 327.164
L444.984 309.709
L444.984 292.254
L444.984 274.8
L444.984 257.345
L444.984 239.891
L444.984 222.436
L444.984 204.982
L444.984 193.345
L444.984 175.891
L444.984 158.436
L444.984 140.982
L444.984 129.345
L444.984 111.891
L444.984 94.4362
L444.984 82.7999
L444.984 65.3453
L444.984 53.709
L444.984 36.2544" style="fill:none;opacity:0.3;stroke:#ffffff;stroke-dasharray:1.000000,3.000000;stroke-dashoffset:0.0;"/>
   </g>
   <g id="line2d_11">
    <path clip-path="url(#pbaabc94176)" d="
M486.19 600.618
L486.19 583.164
L486.19 565.709
L486.19 542.436
L486.19 519.164
L486.19 501.709
L486.19 484.254
L486.19 460.982
L486.19 437.709
L486.19 420.254
L486.19 402.8
L486.19 385.345
L486.19 362.073
L486.19 344.618
L486.19 327.164
L486.19 309.709
L486.19 292.254
L486.19 274.8
L486.19 257.345
L486.19 239.891
L486.19 222.436
L486.19 204.982
L486.19 193.345
L486.19 175.891
L486.19 158.436
L486.19 140.982
L486.19 129.345
L486.19 111.891
L486.19 94.4362
L486.19 82.7999
L486.19 65.3453
L486.19 53.709
L486.19 36.2544" style="fill:none;opacity:0.3;stroke:#ffffff;stroke-dasharray:1.000000,3.000000;stroke-dashoffset:0.0;"/>
   </g>
   <g id="line2d_12">
    <path clip-path="url(#pbaabc94176)" d="
M527.396 600.618
L527.396 583.164
L527.396 565.709
L527.396 542.436
L527.396 519.164
L527.396 501.709
L527.396 484.254
L527.396 460.982
L527.396 437.709
L527.396 420.254
L527.396 402.8
L527.396 385.345
L527.396 362.073
L527.396 344.618
L527.396 327.164
L527.396 309.709
L527.396 292.254
L527.396 274.8
L527.396 257.345
L527.396 239.891
L527.396 222.436
L527.396 204.982
L527.396 193.345
L527.396 175.891
L527.396 158.436
L527.396 140.982
L527.396 129.345
L527.396 111.891
L527.396 94.4362
L527.396 82.7999
L527.396 65.3453
L527.396 53.709
L527.396 36.2544" style="fill:none;opacity:0.3;stroke:#ffffff;stroke-dasharray:1.000000,3.000000;stroke-dashoffset:0.0;"/>
   </g>
   <g id="line2d_13">
    <path clip-path="url(#pbaabc94176)" d="
M568.602 600.618
L568.602 583.164
L568.602 565.709
L568.602 542.436
L568.602 519.164
L568.602 501.709
L568.602 484.254
L568.602 460.982
L568.602 437.709
L568.602 420.254
L568.602 402.8
L568.602 385.345
L568.602 362.073
L568.602 344.618
L568.602 327.164
L568.602 309.709
L568.602 292.254
L568.602 274.8
L568.602 257.345
L568.602 239.891
L568.602 222.436
L568.602 204.982
L568.602 193.345
L568.602 175.891
L568.602 158.436
L568.602 140.982
L568.602 129.345
L568.602 111.891
L568.602 94.4362
L568.602 82.7999
L568.602 65.3453
L568.602 53.709
L568.602 36.2544" style="fill:none;opacity:0.3;stroke:#ffffff;stroke-dasharray:1.000000,3.000000;stroke-dashoffset:0.0;"/>
   </g>
   <g id="line2d_14">
    <path clip-path="url(#pbaabc94176)" d="
M609.808 600.618
L609.808 583.164
L609.808 565.709
L609.808 542.436
L609.808 519.164
L609.808 501.709
L609.808 484.254
L609.808 460.982
L609.808 437.709
L609.808 420.254
L609.808 402.8
L609.808 385.345
L609.808 362.073
L609.808 344.618
L609.808 327.164
L609.808 309.709
L609.808 292.254
L609.808 274.8
L609.808 257.345
L609.808 239.891
L609.808 222.436
L609.808 204.982
L609.808 193.345
L609.808 175.891
L609.808 158.436
L609.808 140.982
L609.808 129.345
L609.808 111.891
L609.808 94.4362
L609.808 82.7999
L609.808 65.3453
L609.808 53.709
L609.808 36.2544" style="fill:none;opacity:0.3;stroke:#ffffff;stroke-dasharray:1.000000,3.000000;stroke-dashoffset:0.0;"/>
   </g>
   <g id="line2d_15">
    <path clip-path="url(#pbaabc94176)" d="
M651.015 600.618
L651.015 583.164
L651.015 565.709
L651.015 542.436
L651.015 519.164
L651.015 501.709
L651.015 484.254
L651.015 460.982
L651.015 437.709
L651.015 420.254
L651.015 402.8
L651.015 385.345
L651.015 362.073
L651.015 344.618
L651.015 327.164
L651.015 309.709
L651.015 292.254
L651.015 274.8
L651.015 257.345
L651.015 239.891
L651.015 222.436
L651.015 204.982
L651.015 193.345
L651.015 175.891
L651.015 158.436
L651.015 140.982
L651.015 129.345
L651.015 111.891
L651.015 94.4362
L651.015 82.7999
L651.015 65.3453
L651.015 53.709
L651.015 36.2544" style="fill:none;opacity:0.3;stroke:#ffffff;stroke-dasharray:1.000000,3.000000;stroke-dashoffset:0.0;"/>
   </g>
   <g id="line2d_16">
    <path clip-path="url(#pbaabc94176)" d="
M692.221 600.618
L692.221 583.164
L692.221 565.709
L692.221 542.436
L692.221 519.164
L692.221 501.709
L692.221 484.254
L692.221 460.982
L692.221 437.709
L692.221 420.254
L692.221 402.8
L692.221 385.345
L692.221 362.073
L692.221 344.618
L692.221 327.164
L692.221 309.709
L692.221 292.254
L692.221 274.8
L692.221 257.345
L692.221 239.891
L692.221 222.436
L692.221 204.982
L692.221 193.345
L692.221 175.891
L692.221 158.436
L692.221 140.982
L692.221 129.345
L692.221 111.891
L692.221 94.4362
L692.221 82.7999
L692.221 65.3453
L692.221 53.709
L692.221 36.2544" style="fill:none;opacity:0.3;stroke:#ffffff;stroke-dasharray:1.000000,3.000000;stroke-dashoffset:0.0;"/>
   </g>
   <g id="line2d_17">
    <path clip-path="url(#pbaabc94176)" d="
M733.427 600.618
L733.427 583.164
L733.427 565.709
L733.427 542.436
L733.427 519.164
L733.427 501.709
L733.427 484.254
L733.427 460.982
L733.427 437.709
L733.427 420.254
L733.427 402.8
L733.427 385.345
L733.427 362.073
L733.427 344.618
L733.427 327.164
L733.427 309.709
L733.427 292.254
L733.427 274.8
L733.427 257.345
L733.427 239.891
L733.427 222.436
L733.427 204.982
L733.427 193.345
L733.427 175.891
L733.427 158.436
L733.427 140.982
L733.427 129.345
L733.427 111.891
L733.427 94.4362
L733.427 82.7999
L733.427 65.3453
L733.427 53.709
L733.427 36.2544" style="fill:none;opacity:0.3;stroke:#ffffff;stroke-dasharray:1.000000,3.000000;stroke-dashoffset:0.0;"/>
   </g>
   <g id="line2d_18">
    <path clip-path="url(#pbaabc94176)" d="
M774.633 600.618
L774.633 583.164
L774.633 565.709
L774.633 542.436
L774.633 519.164
L774.633 501.709
L774.633 484.254
L774.633 460.982
L774.633 437.709
L774.633 420.254
L774.633 402.8
L774.633 385.345
L774.633 362.073
L774.633 344.618
L774.633 327.164
L774.633 309.709
L774.633 292.254
L774.633 274.8
L774.633 257.345
L774.633 239.891
L774.633 222.436
L774.633 204.982
L774.633 193.345
L774.633 175.891
L774.633 158.436
L774.633 140.982
L774.633 129.345
L774.633 111.891
L774.633 94.4362
L774.633 82.7999
L774.633 65.3453
L774.633 53.709
L774.633 36.2544" style="fill:none;opacity:0.3;stroke:#ffffff;stroke-dasharray:1.000000,3.000000;stroke-dashoffset:0.0;"/>
   </g>
   <g id="line2d_19">
    <path clip-path="url(#pbaabc94176)" d="
M815.839 600.618
L815.839 583.164
L815.839 565.709
L815.839 542.436
L815.839 519.164
L815.839 501.709
L815.839 484.254
L815.839 460.982
L815.839 437.709
L815.839 420.254
L815.839 402.8
L815.839 385.345
L815.839 362.073
L815.839 344.618
L815.839 327.164
L815.839 309.709
L815.839 292.254
L815.839 274.8
L815.839 257.345
L815.839 239.891
L815.839 222.436
L815.839 204.982
L815.839 193.345
L815.839 175.891
L815.839 158.436
L815.839 140.982
L815.839 129.345
L815.839 111.891
L815.839 94.4362
L815.839 82.7999
L815.839 65.3453
L815.839 53.709
L815.839 36.2544" style="fill:none;opacity:0.3;stroke:#ffffff;stroke-dasharray:1.000000,3.000000;stroke-dashoffset:0.0;"/>
   </g>
   <g id="line2d_20">
    <path clip-path="url(#pbaabc94176)" d="
M857.045 600.618
L857.045 583.164
L857.045 565.709
L857.045 542.436
L857.045 519.164
L857.045 501.709
L857.045 484.254
L857.045 460.982
L857.045 437.709
L857.045 420.254
L857.045 402.8
L857.045 385.345
L857.045 362.073
L857.045 344.618
L857.045 327.164
L857.045 309.709
L857.045 292.254
L857.045 274.8
L857.045 257.345
L857.045 239.891
L857.045 222.436
L857.045 204.982
L857.045 193.345
L857.045 175.891
L857.045 158.436
L857.045 140.982
L857.045 129.345
L857.045 111.891
L857.045 94.4362
L857.045 82.7999
L857.045 65.3453
L857.045 53.709
L857.045 36.2544" style="fill:none;opacity:0.3;stroke:#ffffff;stroke-dasharray:1.000000,3.000000;stroke-dashoffset:0.0;"/>
   </g>
   <g id="line2d_21">
    <path clip-path="url(#pbaabc94176)" d="
M898.251 600.618
L898.251 583.164
L898.251 565.709
L898.251 542.436
L898.251 519.164
L898.251 501.709
L898.251 484.254
L898.251 460.982
L898.251 437.709
L898.251 420.254
L898.251 402.8
L898.251 385.345
L898.251 362.073
L898.251 344.618
L898.251 327.164
L898.251 309.709
L898.251 292.254
L898.251 274.8
L898.251 257.345
L898.251 239.891
L898.251 222.436
L898.251 204.982
L898.251 193.345
L898.251 175.891
L898.251 158.436
L898.251 140.982
L898.251 129.345
L898.251 111.891
L898.251 94.4362
L898.251 82.7999
L898.251 65.3453
L898.251 53.709
L898.251 36.2544" style="fill:none;opacity:0.3;stroke:#ffffff;stroke-dasharray:1.000000,3.000000;stroke-dashoffset:0.0;"/>
   </g>
   <g id="line2d_22">
    <path clip-path="url(#pbaabc94176)" d="
M939.458 600.618
L939.458 583.164
L939.458 565.709
L939.458 542.436
L939.458 519.164
L939.458 501.709
L939.458 484.254
L939.458 460.982
L939.458 437.709
L939.458 420.254
L939.458 402.8
L939.458 385.345
L939.458 362.073
L939.458 344.618
L939.458 327.164
L939.458 309.709
L939.458 292.254
L939.458 274.8
L939.458 257.345
L939.458 239.891
L939.458 222.436
L939.458 204.982
L939.458 193.345
L939.458 175.891
L939.458 158.436
L939.458 140.982
L939.458 129.345
L939.458 111.891
L939.458 94.4362
L939.458 82.7999
L939.458 65.3453
L939.458 53.709
L939.458 36.2544" style="fill:none;opacity:0.3;stroke:#ffffff;stroke-dasharray:1.000000,3.000000;stroke-dashoffset:0.0;"/>
   </g>
   <g id="line2d_23">
    <path clip-path="url(#pbaabc94176)" d="
M980.664 600.618
L980.664 583.164
L980.664 565.709
L980.664 542.436
L980.664 519.164
L980.664 501.709
L980.664 484.254
L980.664 460.982
L980.664 437.709
L980.664 420.254
L980.664 402.8
L980.664 385.345
L980.664 362.073
L980.664 344.618
L980.664 327.164
L980.664 309.709
L980.664 292.254
L980.664 274.8
L980.664 257.345
L980.664 239.891
L980.664 222.436
L980.664 204.982
L980.664 193.345
L980.664 175.891
L980.664 158.436
L980.664 140.982
L980.664 129.345
L980.664 111.891
L980.664 94.4362
L980.664 82.7999
L980.664 65.3453
L980.664 53.709
L980.664 36.2544" style="fill:none;opacity:0.3;stroke:#ffffff;stroke-dasharray:1.000000,3.000000;stroke-dashoffset:0.0;"/>
   </g>
   <g id="line2d_24">
    <path clip-path="url(#pbaabc94176)" d="
M1021.87 600.618
L1021.87 583.164
L1021.87 565.709
L1021.87 542.436
L1021.87 519.164
L1021.87 501.709
L1021.87 484.254
L1021.87 460.982
L1021.87 437.709
L1021.87 420.254
L1021.87 402.8
L1021.87 385.345
L1021.87 362.073
L1021.87 344.618
L1021.87 327.164
L1021.87 309.709
L1021.87 292.254
L1021.87 274.8
L1021.87 257.345
L1021.87 239.891
L1021.87 222.436
L1021.87 204.982
L1021.87 193.345
L1021.87 175.891
L1021.87 158.436
L1021.87 140.982
L1021.87 129.345
L1021.87 111.891
L1021.87 94.4362
L1021.87 82.7999
L1021.87 65.3453
L1021.87 53.709
L1021.87 36.2544" style="fill:none;opacity:0.3;stroke:#ffffff;stroke-dasharray:1.000000,3.000000;stroke-dashoffset:0.0;"/>
   </g>
   <g id="line2d_25">
    <path clip-path="url(#pbaabc94176)" d="
M1063.08 600.618
L1063.08 583.164
L1063.08 565.709
L1063.08 542.436
L1063.08 519.164
L1063.08 501.709
L1063.08 484.254
L1063.08 460.982
L1063.08 437.709
L1063.08 420.254
L1063.08 402.8
L1063.08 385.345
L1063.08 362.073
L1063.08 344.618
L1063.08 327.164
L1063.08 309.709
L1063.08 292.254
L1063.08 274.8
L1063.08 257.345
L1063.08 239.891
L1063.08 222.436
L1063.08 204.982
L1063.08 193.345
L1063.08 175.891
L1063.08 158.436
L1063.08 140.982
L1063.08 129.345
L1063.08 111.891
L1063.08 94.4362
L1063.08 82.7999
L1063.08 65.3453
L1063.08 53.709
L1063.08 36.2544" style="fill:none;opacity:0.3;stroke:#ffffff;stroke-dasharray:1.000000,3.000000;stroke-dashoffset:0.0;"/>
   </g>
   <g id="line2d_26">
    <path clip-path="url(#pbaabc94176)" d="
M1104.28 600.618
L1104.28 583.164
L1104.28 565.709
L1104.28 542.436
L1104.28 519.164
L1104.28 501.709
L1104.28 484.254
L1104.28 460.982
L1104.28 437.709
L1104.28 420.254
L1104.28 402.8
L1104.28 385.345
L1104.28 362.073
L1104.28 344.618
L1104.28 327.164
L1104.28 309.709
L1104.28 292.254
L1104.28 274.8
L1104.28 257.345
L1104.28 239.891
L1104.28 222.436
L1104.28 204.982
L1104.28 193.345
L1104.28 175.891
L1104.28 158.436
L1104.28 140.982
L1104.28 129.345
L1104.28 111.891
L1104.28 94.4362
L1104.28 82.7999
L1104.28 65.3453
L1104.28 53.709
L1104.28 36.2544" style="fill:none;opacity:0.3;stroke:#ffffff;stroke-dasharray:1.000000,3.000000;stroke-dashoffset:0.0;"/>
   </g>
   <g id="line2d_27">
    <path clip-path="url(#pbaabc94176)" d="
M1145.49 600.618
L1145.49 583.164
L1145.49 565.709
L1145.49 542.436
L1145.49 519.164
L1145.49 501.709
L1145.49 484.254
L1145.49 460.982
L1145.49 437.709
L1145.49 420.254
L1145.49 402.8
L1145.49 385.345
L1145.49 362.073
L1145.49 344.618
L1145.49 327.164
L1145.49 309.709
L1145.49 292.254
L1145.49 274.8
L1145.49 257.345
L1145.49 239.891
L1145.49 222.436
L1145.49 204.982
L1145.49 193.345
L1145.49 175.891
L1145.49 158.436
L1145.49 140.982
L1145.49 129.345
L1145.49 111.891
L1145.49 94.4362
L1145.49 82.7999
L1145.49 65.3453
L1145.49 53.709
L1145.49 36.2544" style="fill:none;opacity:0.3;stroke:#ffffff;stroke-dasharray:1.000000,3.000000;stroke-dashoffset:0.0;"/>
   </g>
   <g id="line2d_28">
    <path clip-path="url(#pbaabc94176)" d="
M1186.69 600.618
L1186.69 583.164
L1186.69 565.709
L1186.69 542.436
L1186.69 519.164
L1186.69 501.709
L1186.69 484.254
L1186.69 460.982
L1186.69 437.709
L1186.69 420.254
L1186.69 402.8
L1186.69 385.345
L1186.69 362.073
L1186.69 344.618
L1186.69 327.164
L1186.69 309.709
L1186.69 292.254
L1186.69 274.8
L1186.69 257.345
L1186.69 239.891
L1186.69 222.436
L1186.69 204.982
L1186.69 193.345
L1186.69 175.891
L1186.69 158.436
L1186.69 140.982
L1186.69 129.345
L1186.69 111.891
L1186.69 94.4362
L1186.69 82.7999
L1186.69 65.3453
L1186.69 53.709
L1186.69 36.2544" style="fill:none;opacity:0.3;stroke:#ffffff;stroke-dasharray:1.000000,3.000000;stroke-dashoffset:0.0;"/>
   </g>
   <g id="line2d_29">
    <path clip-path="url(#pbaabc94176)" d="
M1227.9 600.618
L1227.9 583.164
L1227.9 565.709
L1227.9 542.436
L1227.9 519.164
L1227.9 501.709
L1227.9 484.254
L1227.9 460.982
L1227.9 437.709
L1227.9 420.254
L1227.9 402.8
L1227.9 385.345
L1227.9 362.073
L1227.9 344.618
L1227.9 327.164
L1227.9 309.709
L1227.9 292.254
L1227.9 274.8
L1227.9 257.345
L1227.9 239.891
L1227.9 222.436
L1227.9 204.982
L1227.9 193.345
L1227.9 175.891
L1227.9 158.436
L1227.9 140.982
L1227.9 129.345
L1227.9 111.891
L1227.9 94.4362
L1227.9 82.7999
L1227.9 65.3453
L1227.9 53.709
L1227.9 36.2544" style="fill:none;opacity:0.3;stroke:#ffffff;stroke-dasharray:1.000000,3.000000;stroke-dashoffset:0.0;"/>
   </g>
   <g id="line2d_30">
    <path clip-path="url(#pbaabc94176)" d="
M1269.11 600.618
L1269.11 583.164
L1269.11 565.709
L1269.11 542.436
L1269.11 519.164
L1269.11 501.709
L1269.11 484.254
L1269.11 460.982
L1269.11 437.709
L1269.11 420.254
L1269.11 402.8
L1269.11 385.345
L1269.11 362.073
L1269.11 344.618
L1269.11 327.164
L1269.11 309.709
L1269.11 292.254
L1269.11 274.8
L1269.11 257.345
L1269.11 239.891
L1269.11 222.436
L1269.11 204.982
L1269.11 193.345
L1269.11 175.891
L1269.11 158.436
L1269.11 140.982
L1269.11 129.345
L1269.11 111.891
L1269.11 94.4362
L1269.11 82.7999
L1269.11 65.3453
L1269.11 53.709
L1269.11 36.2544" style="fill:none;opacity:0.3;stroke:#ffffff;stroke-dasharray:1.000000,3.000000;stroke-dashoffset:0.0;"/>
   </g>
   <g id="line2d_31">
    <path clip-path="url(#pbaabc94176)" d="
M1310.31 600.618
L1310.31 583.164
L1310.31 565.709
L1310.31 542.436
L1310.31 519.164
L1310.31 501.709
L1310.31 484.254
L1310.31 460.982
L1310.31 437.709
L1310.31 420.254
L1310.31 402.8
L1310.31 385.345
L1310.31 362.073
L1310.31 344.618
L1310.31 327.164
L1310.31 309.709
L1310.31 292.254
L1310.31 274.8
L1310.31 257.345
L1310.31 239.891
L1310.31 222.436
L1310.31 204.982
L1310.31 193.345
L1310.31 175.891
L1310.31 158.436
L1310.31 140.982
L1310.31 129.345
L1310.31 111.891
L1310.31 94.4362
L1310.31 82.7999
L1310.31 65.3453
L1310.31 53.709
L1310.31 36.2544" style="fill:none;opacity:0.3;stroke:#ffffff;stroke-dasharray:1.000000,3.000000;stroke-dashoffset:0.0;"/>
   </g>
   <g id="line2d_32">
    <path clip-path="url(#pbaabc94176)" d="
M1351.52 600.618
L1351.52 583.164
L1351.52 565.709
L1351.52 542.436
L1351.52 519.164
L1351.52 501.709
L1351.52 484.254
L1351.52 460.982
L1351.52 437.709
L1351.52 420.254
L1351.52 402.8
L1351.52 385.345
L1351.52 362.073
L1351.52 344.618
L1351.52 327.164
L1351.52 309.709
L1351.52 292.254
L1351.52 274.8
L1351.52 257.345
L1351.52 239.891
L1351.52 222.436
L1351.52 204.982
L1351.52 193.345
L1351.52 175.891
L1351.52 158.436
L1351.52 140.982
L1351.52 129.345
L1351.52 111.891
L1351.52 94.4362
L1351.52 82.7999
L1351.52 65.3453
L1351.52 53.709
L1351.52 36.2544" style="fill:none;opacity:0.3;stroke:#ffffff;stroke-dasharray:1.000000,3.000000;stroke-dashoffset:0.0;"/>
   </g>
   <g id="line2d_33">
    <path clip-path="url(#pbaabc94176)" d="
M1392.73 600.618
L1392.73 583.164
L1392.73 565.709
L1392.73 542.436
L1392.73 519.164
L1392.73 501.709
L1392.73 484.254
L1392.73 460.982
L1392.73 437.709
L1392.73 420.254
L1392.73 402.8
L1392.73 385.345
L1392.73 362.073
L1392.73 344.618
L1392.73 327.164
L1392.73 309.709
L1392.73 292.254
L1392.73 274.8
L1392.73 257.345
L1392.73 239.891
L1392.73 222.436
L1392.73 204.982
L1392.73 193.345
L1392.73 175.891
L1392.73 158.436
L1392.73 140.982
L1392.73 129.345
L1392.73 111.891
L1392.73 94.4362
L1392.73 82.7999
L1392.73 65.3453
L1392.73 53.709
L1392.73 36.2544" style="fill:none;opacity:0.3;stroke:#ffffff;stroke-dasharray:1.000000,3.000000;stroke-dashoffset:0.0;"/>
   </g>
   <g id="line2d_34">
    <path clip-path="url(#pbaabc94176)" d="
M74.1284 600.618
L115.335 600.618
L156.541 600.618
L197.747 600.618
L238.953 600.618
L280.159 600.618
L321.365 600.618
L362.571 600.618
L403.778 600.618
L444.984 600.618
L486.19 600.618
L527.396 600.618
L568.602 600.618
L609.808 600.618
L651.015 600.618
L692.221 600.618
L733.427 600.618
L774.633 600.618
L815.839 600.618
L857.045 600.618
L898.251 600.618
L939.458 600.618
L980.664 600.618
L1021.87 600.618
L1063.08 600.618
L1104.28 600.618
L1145.49 600.618
L1186.69 600.618
L1227.9 600.618
L1269.11 600.618
L1310.31 600.618
L1351.52 600.618
L1392.73 600.618" style="fill:none;opacity:0.3;stroke:#ffffff;stroke-dasharray:1.000000,3.000000;stroke-dashoffset:0.0;"/>
   </g>
   <g id="line2d_35">
    <path clip-path="url(#pbaabc94176)" d="
M74.1284 583.164
L115.335 583.164
L156.541 583.164
L197.747 583.164
L238.953 583.164
L280.159 583.164
L321.365 583.164
L362.571 583.164
L403.778 583.164
L444.984 583.164
L486.19 583.164
L527.396 583.164
L568.602 583.164
L609.808 583.164
L651.015 583.164
L692.221 583.164
L733.427 583.164
L774.633 583.164
L815.839 583.164
L857.045 583.164
L898.251 583.164
L939.458 583.164
L980.664 583.164
L1021.87 583.164
L1063.08 583.164
L1104.28 583.164
L1145.49 583.164
L1186.69 583.164
L1227.9 583.164
L1269.11 583.164
L1310.31 583.164
L1351.52 583.164
L1392.73 583.164" style="fill:none;opacity:0.3;stroke:#ffffff;stroke-dasharray:1.000000,3.000000;stroke-dashoffset:0.0;"/>
   </g>
   <g id="line2d_36">
    <path clip-path="url(#pbaabc94176)" d="
M74.1284 565.709
L115.335 565.709
L156.541 565.709
L197.747 565.709
L238.953 565.709
L280.159 565.709
L321.365 565.709
L362.571 565.709
L403.778 565.709
L444.984 565.709
L486.19 565.709
L527.396 565.709
L568.602 565.709
L609.808 565.709
L651.015 565.709
L692.221 565.709
L733.427 565.709
L774.633 565.709
L815.839 565.709
L857.045 565.709
L898.251 565.709
L939.458 565.709
L980.664 565.709
L1021.87 565.709
L1063.08 565.709
L1104.28 565.709
L1145.49 565.709
L1186.69 565.709
L1227.9 565.709
L1269.11 565.709
L1310.31 565.709
L1351.52 565.709
L1392.73 565.709" style="fill:none;opacity:0.3;stroke:#ffffff;stroke-dasharray:1.000000,3.000000;stroke-dashoffset:0.0;"/>
   </g>
   <g id="line2d_37">
    <path clip-path="url(#pbaabc94176)" d="
M74.1284 542.436
L115.335 542.436
L156.541 542.436
L197.747 542.436
L238.953 542.436
L280.159 542.436
L321.365 542.436
L362.571 542.436
L403.778 542.436
L444.984 542.436
L486.19 542.436
L527.396 542.436
L568.602 542.436
L609.808 542.436
L651.015 542.436
L692.221 542.436
L733.427 542.436
L774.633 542.436
L815.839 542.436
L857.045 542.436
L898.251 542.436
L939.458 542.436
L980.664 542.436
L1021.87 542.436
L1063.08 542.436
L1104.28 542.436
L1145.49 542.436
L1186.69 542.436
L1227.9 542.436
L1269.11 542.436
L1310.31 542.436
L1351.52 542.436
L1392.73 542.436" style="fill:none;opacity:0.3;stroke:#ffffff;stroke-dasharray:1.000000,3.000000;stroke-dashoffset:0.0;"/>
   </g>
   <g id="line2d_38">
    <path clip-path="url(#pbaabc94176)" d="
M74.1284 519.164
L115.335 519.164
L156.541 519.164
L197.747 519.164
L238.953 519.164
L280.159 519.164
L321.365 519.164
L362.571 519.164
L403.778 519.164
L444.984 519.164
L486.19 519.164
L527.396 519.164
L568.602 519.164
L609.808 519.164
L651.015 519.164
L692.221 519.164
L733.427 519.164
L774.633 519.164
L815.839 519.164
L857.045 519.164
L898.251 519.164
L939.458 519.164
L980.664 519.164
L1021.87 519.164
L1063.08 519.164
L1104.28 519.164
L1145.49 519.164
L1186.69 519.164
L1227.9 519.164
L1269.11 519.164
L1310.31 519.164
L1351.52 519.164
L1392.73 519.164" style="fill:none;opacity:0.3;stroke:#ffffff;stroke-dasharray:1.000000,3.000000;stroke-dashoffset:0.0;"/>
   </g>
   <g id="line2d_39">
    <path clip-path="url(#pbaabc94176)" d="
M74.1284 501.709
L115.335 501.709
L156.541 501.709
L197.747 501.709
L238.953 501.709
L280.159 501.709
L321.365 501.709
L362.571 501.709
L403.778 501.709
L444.984 501.709
L486.19 501.709
L527.396 501.709
L568.602 501.709
L609.808 501.709
L651.015 501.709
L692.221 501.709
L733.427 501.709
L774.633 501.709
L815.839 501.709
L857.045 501.709
L898.251 501.709
L939.458 501.709
L980.664 501.709
L1021.87 501.709
L1063.08 501.709
L1104.28 501.709
L1145.49 501.709
L1186.69 501.709
L1227.9 501.709
L1269.11 501.709
L1310.31 501.709
L1351.52 501.709
L1392.73 501.709" style="fill:none;opacity:0.3;stroke:#ffffff;stroke-dasharray:1.000000,3.000000;stroke-dashoffset:0.0;"/>
   </g>
   <g id="line2d_40">
    <path clip-path="url(#pbaabc94176)" d="
M74.1284 484.254
L115.335 484.254
L156.541 484.254
L197.747 484.254
L238.953 484.254
L280.159 484.254
L321.365 484.254
L362.571 484.254
L403.778 484.254
L444.984 484.254
L486.19 484.254
L527.396 484.254
L568.602 484.254
L609.808 484.254
L651.015 484.254
L692.221 484.254
L733.427 484.254
L774.633 484.254
L815.839 484.254
L857.045 484.254
L898.251 484.254
L939.458 484.254
L980.664 484.254
L1021.87 484.254
L1063.08 484.254
L1104.28 484.254
L1145.49 484.254
L1186.69 484.254
L1227.9 484.254
L1269.11 484.254
L1310.31 484.254
L1351.52 484.254
L1392.73 484.254" style="fill:none;opacity:0.3;stroke:#ffffff;stroke-dasharray:1.000000,3.000000;stroke-dashoffset:0.0;"/>
   </g>
   <g id="line2d_41">
    <path clip-path="url(#pbaabc94176)" d="
M74.1284 460.982
L115.335 460.982
L156.541 460.982
L197.747 460.982
L238.953 460.982
L280.159 460.982
L321.365 460.982
L362.571 460.982
L403.778 460.982
L444.984 460.982
L486.19 460.982
L527.396 460.982
L568.602 460.982
L609.808 460.982
L651.015 460.982
L692.221 460.982
L733.427 460.982
L774.633 460.982
L815.839 460.982
L857.045 460.982
L898.251 460.982
L939.458 460.982
L980.664 460.982
L1021.87 460.982
L1063.08 460.982
L1104.28 460.982
L1145.49 460.982
L1186.69 460.982
L1227.9 460.982
L1269.11 460.982
L1310.31 460.982
L1351.52 460.982
L1392.73 460.982" style="fill:none;opacity:0.3;stroke:#ffffff;stroke-dasharray:1.000000,3.000000;stroke-dashoffset:0.0;"/>
   </g>
   <g id="line2d_42">
    <path clip-path="url(#pbaabc94176)" d="
M74.1284 437.709
L115.335 437.709
L156.541 437.709
L197.747 437.709
L238.953 437.709
L280.159 437.709
L321.365 437.709
L362.571 437.709
L403.778 437.709
L444.984 437.709
L486.19 437.709
L527.396 437.709
L568.602 437.709
L609.808 437.709
L651.015 437.709
L692.221 437.709
L733.427 437.709
L774.633 437.709
L815.839 437.709
L857.045 437.709
L898.251 437.709
L939.458 437.709
L980.664 437.709
L1021.87 437.709
L1063.08 437.709
L1104.28 437.709
L1145.49 437.709
L1186.69 437.709
L1227.9 437.709
L1269.11 437.709
L1310.31 437.709
L1351.52 437.709
L1392.73 437.709" style="fill:none;opacity:0.3;stroke:#ffffff;stroke-dasharray:1.000000,3.000000;stroke-dashoffset:0.0;"/>
   </g>
   <g id="line2d_43">
    <path clip-path="url(#pbaabc94176)" d="
M74.1284 420.254
L115.335 420.254
L156.541 420.254
L197.747 420.254
L238.953 420.254
L280.159 420.254
L321.365 420.254
L362.571 420.254
L403.778 420.254
L444.984 420.254
L486.19 420.254
L527.396 420.254
L568.602 420.254
L609.808 420.254
L651.015 420.254
L692.221 420.254
L733.427 420.254
L774.633 420.254
L815.839 420.254
L857.045 420.254
L898.251 420.254
L939.458 420.254
L980.664 420.254
L1021.87 420.254
L1063.08 420.254
L1104.28 420.254
L1145.49 420.254
L1186.69 420.254
L1227.9 420.254
L1269.11 420.254
L1310.31 420.254
L1351.52 420.254
L1392.73 420.254" style="fill:none;opacity:0.3;stroke:#ffffff;stroke-dasharray:1.000000,3.000000;stroke-dashoffset:0.0;"/>
   </g>
   <g id="line2d_44">
    <path clip-path="url(#pbaabc94176)" d="
M74.1284 402.8
L115.335 402.8
L156.541 402.8
L197.747 402.8
L238.953 402.8
L280.159 402.8
L321.365 402.8
L362.571 402.8
L403.778 402.8
L444.984 402.8
L486.19 402.8
L527.396 402.8
L568.602 402.8
L609.808 402.8
L651.015 402.8
L692.221 402.8
L733.427 402.8
L774.633 402.8
L815.839 402.8
L857.045 402.8
L898.251 402.8
L939.458 402.8
L980.664 402.8
L1021.87 402.8
L1063.08 402.8
L1104.28 402.8
L1145.49 402.8
L1186.69 402.8
L1227.9 402.8
L1269.11 402.8
L1310.31 402.8
L1351.52 402.8
L1392.73 402.8" style="fill:none;opacity:0.3;stroke:#ffffff;stroke-dasharray:1.000000,3.000000;stroke-dashoffset:0.0;"/>
   </g>
   <g id="line2d_45">
    <path clip-path="url(#pbaabc94176)" d="
M74.1284 385.345
L115.335 385.345
L156.541 385.345
L197.747 385.345
L238.953 385.345
L280.159 385.345
L321.365 385.345
L362.571 385.345
L403.778 385.345
L444.984 385.345
L486.19 385.345
L527.396 385.345
L568.602 385.345
L609.808 385.345
L651.015 385.345
L692.221 385.345
L733.427 385.345
L774.633 385.345
L815.839 385.345
L857.045 385.345
L898.251 385.345
L939.458 385.345
L980.664 385.345
L1021.87 385.345
L1063.08 385.345
L1104.28 385.345
L1145.49 385.345
L1186.69 385.345
L1227.9 385.345
L1269.11 385.345
L1310.31 385.345
L1351.52 385.345
L1392.73 385.345" style="fill:none;opacity:0.3;stroke:#ffffff;stroke-dasharray:1.000000,3.000000;stroke-dashoffset:0.0;"/>
   </g>
   <g id="line2d_46">
    <path clip-path="url(#pbaabc94176)" d="
M74.1284 362.073
L115.335 362.073
L156.541 362.073
L197.747 362.073
L238.953 362.073
L280.159 362.073
L321.365 362.073
L362.571 362.073
L403.778 362.073
L444.984 362.073
L486.19 362.073
L527.396 362.073
L568.602 362.073
L609.808 362.073
L651.015 362.073
L692.221 362.073
L733.427 362.073
L774.633 362.073
L815.839 362.073
L857.045 362.073
L898.251 362.073
L939.458 362.073
L980.664 362.073
L1021.87 362.073
L1063.08 362.073
L1104.28 362.073
L1145.49 362.073
L1186.69 362.073
L1227.9 362.073
L1269.11 362.073
L1310.31 362.073
L1351.52 362.073
L1392.73 362.073" style="fill:none;opacity:0.3;stroke:#ffffff;stroke-dasharray:1.000000,3.000000;stroke-dashoffset:0.0;"/>
   </g>
   <g id="line2d_47">
    <path clip-path="url(#pbaabc94176)" d="
M74.1284 344.618
L115.335 344.618
L156.541 344.618
L197.747 344.618
L238.953 344.618
L280.159 344.618
L321.365 344.618
L362.571 344.618
L403.778 344.618
L444.984 344.618
L486.19 344.618
L527.396 344.618
L568.602 344.618
L609.808 344.618
L651.015 344.618
L692.221 344.618
L733.427 344.618
L774.633 344.618
L815.839 344.618
L857.045 344.618
L898.251 344.618
L939.458 344.618
L980.664 344.618
L1021.87 344.618
L1063.08 344.618
L1104.28 344.618
L1145.49 344.618
L1186.69 344.618
L1227.9 344.618
L1269.11 344.618
L1310.31 344.618
L1351.52 344.618
L1392.73 344.618" style="fill:none;opacity:0.3;stroke:#ffffff;stroke-dasharray:1.000000,3.000000;stroke-dashoffset:0.0;"/>
   </g>
   <g id="line2d_48">
    <path clip-path="url(#pbaabc94176)" d="
M74.1284 327.164
L115.335 327.164
L156.541 327.164
L197.747 327.164
L238.953 327.164
L280.159 327.164
L321.365 327.164
L362.571 327.164
L403.778 327.164
L444.984 327.164
L486.19 327.164
L527.396 327.164
L568.602 327.164
L609.808 327.164
L651.015 327.164
L692.221 327.164
L733.427 327.164
L774.633 327.164
L815.839 327.164
L857.045 327.164
L898.251 327.164
L939.458 327.164
L980.664 327.164
L1021.87 327.164
L1063.08 327.164
L1104.28 327.164
L1145.49 327.164
L1186.69 327.164
L1227.9 327.164
L1269.11 327.164
L1310.31 327.164
L1351.52 327.164
L1392.73 327.164" style="fill:none;opacity:0.3;stroke:#ffffff;stroke-dasharray:1.000000,3.000000;stroke-dashoffset:0.0;"/>
   </g>
   <g id="line2d_49">
    <path clip-path="url(#pbaabc94176)" d="
M74.1284 309.709
L115.335 309.709
L156.541 309.709
L197.747 309.709
L238.953 309.709
L280.159 309.709
L321.365 309.709
L362.571 309.709
L403.778 309.709
L444.984 309.709
L486.19 309.709
L527.396 309.709
L568.602 309.709
L609.808 309.709
L651.015 309.709
L692.221 309.709
L733.427 309.709
L774.633 309.709
L815.839 309.709
L857.045 309.709
L898.251 309.709
L939.458 309.709
L980.664 309.709
L1021.87 309.709
L1063.08 309.709
L1104.28 309.709
L1145.49 309.709
L1186.69 309.709
L1227.9 309.709
L1269.11 309.709
L1310.31 309.709
L1351.52 309.709
L1392.73 309.709" style="fill:none;opacity:0.3;stroke:#ffffff;stroke-dasharray:1.000000,3.000000;stroke-dashoffset:0.0;"/>
   </g>
   <g id="line2d_50">
    <path clip-path="url(#pbaabc94176)" d="
M74.1284 292.254
L115.335 292.254
L156.541 292.254
L197.747 292.254
L238.953 292.254
L280.159 292.254
L321.365 292.254
L362.571 292.254
L403.778 292.254
L444.984 292.254
L486.19 292.254
L527.396 292.254
L568.602 292.254
L609.808 292.254
L651.015 292.254
L692.221 292.254
L733.427 292.254
L774.633 292.254
L815.839 292.254
L857.045 292.254
L898.251 292.254
L939.458 292.254
L980.664 292.254
L1021.87 292.254
L1063.08 292.254
L1104.28 292.254
L1145.49 292.254
L1186.69 292.254
L1227.9 292.254
L1269.11 292.254
L1310.31 292.254
L1351.52 292.254
L1392.73 292.254" style="fill:none;opacity:0.3;stroke:#ffffff;stroke-dasharray:1.000000,3.000000;stroke-dashoffset:0.0;"/>
   </g>
   <g id="line2d_51">
    <path clip-path="url(#pbaabc94176)" d="
M74.1284 274.8
L115.335 274.8
L156.541 274.8
L197.747 274.8
L238.953 274.8
L280.159 274.8
L321.365 274.8
L362.571 274.8
L403.778 274.8
L444.984 274.8
L486.19 274.8
L527.396 274.8
L568.602 274.8
L609.808 274.8
L651.015 274.8
L692.221 274.8
L733.427 274.8
L774.633 274.8
L815.839 274.8
L857.045 274.8
L898.251 274.8
L939.458 274.8
L980.664 274.8
L1021.87 274.8
L1063.08 274.8
L1104.28 274.8
L1145.49 274.8
L1186.69 274.8
L1227.9 274.8
L1269.11 274.8
L1310.31 274.8
L1351.52 274.8
L1392.73 274.8" style="fill:none;opacity:0.3;stroke:#ffffff;stroke-dasharray:1.000000,3.000000;stroke-dashoffset:0.0;"/>
   </g>
   <g id="line2d_52">
    <path clip-path="url(#pbaabc94176)" d="
M74.1284 257.345
L115.335 257.345
L156.541 257.345
L197.747 257.345
L238.953 257.345
L280.159 257.345
L321.365 257.345
L362.571 257.345
L403.778 257.345
L444.984 257.345
L486.19 257.345
L527.396 257.345
L568.602 257.345
L609.808 257.345
L651.015 257.345
L692.221 257.345
L733.427 257.345
L774.633 257.345
L815.839 257.345
L857.045 257.345
L898.251 257.345
L939.458 257.345
L980.664 257.345
L1021.87 257.345
L1063.08 257.345
L1104.28 257.345
L1145.49 257.345
L1186.69 257.345
L1227.9 257.345
L1269.11 257.345
L1310.31 257.345
L1351.52 257.345
L1392.73 257.345" style="fill:none;opacity:0.3;stroke:#ffffff;stroke-dasharray:1.000000,3.000000;stroke-dashoffset:0.0;"/>
   </g>
   <g id="line2d_53">
    <path clip-path="url(#pbaabc94176)" d="
M74.1284 239.891
L115.335 239.891
L156.541 239.891
L197.747 239.891
L238.953 239.891
L280.159 239.891
L321.365 239.891
L362.571 239.891
L403.778 239.891
L444.984 239.891
L486.19 239.891
L527.396 239.891
L568.602 239.891
L609.808 239.891
L651.015 239.891
L692.221 239.891
L733.427 239.891
L774.633 239.891
L815.839 239.891
L857.045 239.891
L898.251 239.891
L939.458 239.891
L980.664 239.891
L1021.87 239.891
L1063.08 239.891
L1104.28 239.891
L1145.49 239.891
L1186.69 239.891
L1227.9 239.891
L1269.11 239.891
L1310.31 239.891
L1351.52 239.891
L1392.73 239.891" style="fill:none;opacity:0.3;stroke:#ffffff;stroke-dasharray:1.000000,3.000000;stroke-dashoffset:0.0;"/>
   </g>
   <g id="line2d_54">
    <path clip-path="url(#pbaabc94176)" d="
M74.1284 222.436
L115.335 222.436
L156.541 222.436
L197.747 222.436
L238.953 222.436
L280.159 222.436
L321.365 222.436
L362.571 222.436
L403.778 222.436
L444.984 222.436
L486.19 222.436
L527.396 222.436
L568.602 222.436
L609.808 222.436
L651.015 222.436
L692.221 222.436
L733.427 222.436
L774.633 222.436
L815.839 222.436
L857.045 222.436
L898.251 222.436
L939.458 222.436
L980.664 222.436
L1021.87 222.436
L1063.08 222.436
L1104.28 222.436
L1145.49 222.436
L1186.69 222.436
L1227.9 222.436
L1269.11 222.436
L1310.31 222.436
L1351.52 222.436
L1392.73 222.436" style="fill:none;opacity:0.3;stroke:#ffffff;stroke-dasharray:1.000000,3.000000;stroke-dashoffset:0.0;"/>
   </g>
   <g id="line2d_55">
    <path clip-path="url(#pbaabc94176)" d="
M74.1284 204.982
L115.335 204.982
L156.541 204.982
L197.747 204.982
L238.953 204.982
L280.159 204.982
L321.365 204.982
L362.571 204.982
L403.778 204.982
L444.984 204.982
L486.19 204.982
L527.396 204.982
L568.602 204.982
L609.808 204.982
L651.015 204.982
L692.221 204.982
L733.427 204.982
L774.633 204.982
L815.839 204.982
L857.045 204.982
L898.251 204.982
L939.458 204.982
L980.664 204.982
L1021.87 204.982
L1063.08 204.982
L1104.28 204.982
L1145.49 204.982
L1186.69 204.982
L1227.9 204.982
L1269.11 204.982
L1310.31 204.982
L1351.52 204.982
L1392.73 204.982" style="fill:none;opacity:0.3;stroke:#ffffff;stroke-dasharray:1.000000,3.000000;stroke-dashoffset:0.0;"/>
   </g>
   <g id="line2d_56">
    <path clip-path="url(#pbaabc94176)" d="
M74.1284 193.345
L115.335 193.345
L156.541 193.345
L197.747 193.345
L238.953 193.345
L280.159 193.345
L321.365 193.345
L362.571 193.345
L403.778 193.345
L444.984 193.345
L486.19 193.345
L527.396 193.345
L568.602 193.345
L609.808 193.345
L651.015 193.345
L692.221 193.345
L733.427 193.345
L774.633 193.345
L815.839 193.345
L857.045 193.345
L898.251 193.345
L939.458 193.345
L980.664 193.345
L1021.87 193.345
L1063.08 193.345
L1104.28 193.345
L1145.49 193.345
L1186.69 193.345
L1227.9 193.345
L1269.11 193.345
L1310.31 193.345
L1351.52 193.345
L1392.73 193.345" style="fill:none;opacity:0.3;stroke:#ffffff;stroke-dasharray:1.000000,3.000000;stroke-dashoffset:0.0;"/>
   </g>
   <g id="line2d_57">
    <path clip-path="url(#pbaabc94176)" d="
M74.1284 175.891
L115.335 175.891
L156.541 175.891
L197.747 175.891
L238.953 175.891
L280.159 175.891
L321.365 175.891
L362.571 175.891
L403.778 175.891
L444.984 175.891
L486.19 175.891
L527.396 175.891
L568.602 175.891
L609.808 175.891
L651.015 175.891
L692.221 175.891
L733.427 175.891
L774.633 175.891
L815.839 175.891
L857.045 175.891
L898.251 175.891
L939.458 175.891
L980.664 175.891
L1021.87 175.891
L1063.08 175.891
L1104.28 175.891
L1145.49 175.891
L1186.69 175.891
L1227.9 175.891
L1269.11 175.891
L1310.31 175.891
L1351.52 175.891
L1392.73 175.891" style="fill:none;opacity:0.3;stroke:#ffffff;stroke-dasharray:1.000000,3.000000;stroke-dashoffset:0.0;"/>
   </g>
   <g id="line2d_58">
    <path clip-path="url(#pbaabc94176)" d="
M74.1284 158.436
L115.335 158.436
L156.541 158.436
L197.747 158.436
L238.953 158.436
L280.159 158.436
L321.365 158.436
L362.571 158.436
L403.778 158.436
L444.984 158.436
L486.19 158.436
L527.396 158.436
L568.602 158.436
L609.808 158.436
L651.015 158.436
L692.221 158.436
L733.427 158.436
L774.633 158.436
L815.839 158.436
L857.045 158.436
L898.251 158.436
L939.458 158.436
L980.664 158.436
L1021.87 158.436
L1063.08 158.436
L1104.28 158.436
L1145.49 158.436
L1186.69 158.436
L1227.9 158.436
L1269.11 158.436
L1310.31 158.436
L1351.52 158.436
L1392.73 158.436" style="fill:none;opacity:0.3;stroke:#ffffff;stroke-dasharray:1.000000,3.000000;stroke-dashoffset:0.0;"/>
   </g>
   <g id="line2d_59">
    <path clip-path="url(#pbaabc94176)" d="
M74.1284 140.982
L115.335 140.982
L156.541 140.982
L197.747 140.982
L238.953 140.982
L280.159 140.982
L321.365 140.982
L362.571 140.982
L403.778 140.982
L444.984 140.982
L486.19 140.982
L527.396 140.982
L568.602 140.982
L609.808 140.982
L651.015 140.982
L692.221 140.982
L733.427 140.982
L774.633 140.982
L815.839 140.982
L857.045 140.982
L898.251 140.982
L939.458 140.982
L980.664 140.982
L1021.87 140.982
L1063.08 140.982
L1104.28 140.982
L1145.49 140.982
L1186.69 140.982
L1227.9 140.982
L1269.11 140.982
L1310.31 140.982
L1351.52 140.982
L1392.73 140.982" style="fill:none;opacity:0.3;stroke:#ffffff;stroke-dasharray:1.000000,3.000000;stroke-dashoffset:0.0;"/>
   </g>
   <g id="line2d_60">
    <path clip-path="url(#pbaabc94176)" d="
M74.1284 129.345
L115.335 129.345
L156.541 129.345
L197.747 129.345
L238.953 129.345
L280.159 129.345
L321.365 129.345
L362.571 129.345
L403.778 129.345
L444.984 129.345
L486.19 129.345
L527.396 129.345
L568.602 129.345
L609.808 129.345
L651.015 129.345
L692.221 129.345
L733.427 129.345
L774.633 129.345
L815.839 129.345
L857.045 129.345
L898.251 129.345
L939.458 129.345
L980.664 129.345
L1021.87 129.345
L1063.08 129.345
L1104.28 129.345
L1145.49 129.345
L1186.69 129.345
L1227.9 129.345
L1269.11 129.345
L1310.31 129.345
L1351.52 129.345
L1392.73 129.345" style="fill:none;opacity:0.3;stroke:#ffffff;stroke-dasharray:1.000000,3.000000;stroke-dashoffset:0.0;"/>
   </g>
   <g id="line2d_61">
    <path clip-path="url(#pbaabc94176)" d="
M74.1284 111.891
L115.335 111.891
L156.541 111.891
L197.747 111.891
L238.953 111.891
L280.159 111.891
L321.365 111.891
L362.571 111.891
L403.778 111.891
L444.984 111.891
L486.19 111.891
L527.396 111.891
L568.602 111.891
L609.808 111.891
L651.015 111.891
L692.221 111.891
L733.427 111.891
L774.633 111.891
L815.839 111.891
L857.045 111.891
L898.251 111.891
L939.458 111.891
L980.664 111.891
L1021.87 111.891
L1063.08 111.891
L1104.28 111.891
L1145.49 111.891
L1186.69 111.891
L1227.9 111.891
L1269.11 111.891
L1310.31 111.891
L1351.52 111.891
L1392.73 111.891" style="fill:none;opacity:0.3;stroke:#ffffff;stroke-dasharray:1.000000,3.000000;stroke-dashoffset:0.0;"/>
   </g>
   <g id="line2d_62">
    <path clip-path="url(#pbaabc94176)" d="
M74.1284 94.4362
L115.335 94.4362
L156.541 94.4362
L197.747 94.4362
L238.953 94.4362
L280.159 94.4362
L321.365 94.4362
L362.571 94.4362
L403.778 94.4362
L444.984 94.4362
L486.19 94.4362
L527.396 94.4362
L568.602 94.4362
L609.808 94.4362
L651.015 94.4362
L692.221 94.4362
L733.427 94.4362
L774.633 94.4362
L815.839 94.4362
L857.045 94.4362
L898.251 94.4362
L939.458 94.4362
L980.664 94.4362
L1021.87 94.4362
L1063.08 94.4362
L1104.28 94.4362
L1145.49 94.4362
L1186.69 94.4362
L1227.9 94.4362
L1269.11 94.4362
L1310.31 94.4362
L1351.52 94.4362
L1392.73 94.4362" style="fill:none;opacity:0.3;stroke:#ffffff;stroke-dasharray:1.000000,3.000000;stroke-dashoffset:0.0;"/>
   </g>
   <g id="line2d_63">
    <path clip-path="url(#pbaabc94176)" d="
M74.1284 82.7999
L115.335 82.7999
L156.541 82.7999
L197.747 82.7999
L238.953 82.7999
L280.159 82.7999
L321.365 82.7999
L362.571 82.7999
L403.778 82.7999
L444.984 82.7999
L486.19 82.7999
L527.396 82.7999
L568.602 82.7999
L609.808 82.7999
L651.015 82.7999
L692.221 82.7999
L733.427 82.7999
L774.633 82.7999
L815.839 82.7999
L857.045 82.7999
L898.251 82.7999
L939.458 82.7999
L980.664 82.7999
L1021.87 82.7999
L1063.08 82.7999
L1104.28 82.7999
L1145.49 82.7999
L1186.69 82.7999
L1227.9 82.7999
L1269.11 82.7999
L1310.31 82.7999
L1351.52 82.7999
L1392.73 82.7999" style="fill:none;opacity:0.3;stroke:#ffffff;stroke-dasharray:1.000000,3.000000;stroke-dashoffset:0.0;"/>
   </g>
   <g id="line2d_64">
    <path clip-path="url(#pbaabc94176)" d="
M74.1284 65.3453
L115.335 65.3453
L156.541 65.3453
L197.747 65.3453
L238.953 65.3453
L280.159 65.3453
L321.365 65.3453
L362.571 65.3453
L403.778 65.3453
L444.984 65.3453
L486.19 65.3453
L527.396 65.3453
L568.602 65.3453
L609.808 65.3453
L651.015 65.3453
L692.221 65.3453
L733.427 65.3453
L774.633 65.3453
L815.839 65.3453
L857.045 65.3453
L898.251 65.3453
L939.458 65.3453
L980.664 65.3453
L1021.87 65.3453
L1063.08 65.3453
L1104.28 65.3453
L1145.49 65.3453
L1186.69 65.3453
L1227.9 65.3453
L1269.11 65.3453
L1310.31 65.3453
L1351.52 65.3453
L1392.73 65.3453" style="fill:none;opacity:0.3;stroke:#ffffff;stroke-dasharray:1.000000,3.000000;stroke-dashoffset:0.0;"/>
   </g>
   <g id="line2d_65">
    <path clip-path="url(#pbaabc94176)" d="
M74.1284 53.709
L115.335 53.709
L156.541 53.709
L197.747 53.709
L238.953 53.709
L280.159 53.709
L321.365 53.709
L362.571 53.709
L403.778 53.709
L444.984 53.709
L486.19 53.709
L527.396 53.709
L568.602 53.709
L609.808 53.709
L651.015 53.709
L692.221 53.709
L733.427 53.709
L774.633 53.709
L815.839 53.709
L857.045 53.709
L898.251 53.709
L939.458 53.709
L980.664 53.709
L1021.87 53.709
L1063.08 53.709
L1104.28 53.709
L1145.49 53.709
L1186.69 53.709
L1227.9 53.709
L1269.11 53.709
L1310.31 53.709
L1351.52 53.709
L1392.73 53.709" style="fill:none;opacity:0.3;stroke:#ffffff;stroke-dasharray:1.000000,3.000000;stroke-dashoffset:0.0;"/>
   </g>
   <g id="line2d_66">
    <path clip-path="url(#pbaabc94176)" d="
M74.1284 36.2544
L115.335 36.2544
L156.541 36.2544
L197.747 36.2544
L238.953 36.2544
L280.159 36.2544
L321.365 36.2544
L362.571 36.2544
L403.778 36.2544
L444.984 36.2544
L486.19 36.2544
L527.396 36.2544
L568.602 36.2544
L609.808 36.2544
L651.015 36.2544
L692.221 36.2544
L733.427 36.2544
L774.633 36.2544
L815.839 36.2544
L857.045 36.2544
L898.251 36.2544
L939.458 36.2544
L980.664 36.2544
L1021.87 36.2544
L1063.08 36.2544
L1104.28 36.2544
L1145.49 36.2544
L1186.69 36.2544
L1227.9 36.2544
L1269.11 36.2544
L1310.31 36.2544
L1351.52 36.2544
L1392.73 36.2544" style="fill:none;opacity:0.3;stroke:#ffffff;stroke-dasharray:1.000000,3.000000;stroke-dashoffset:0.0;"/>
   </g>
   <g id="line2d_67">
    <path clip-path="url(#pbaabc94176)" d="
M74.1284 600.618
L74.1284 583.164
L115.335 583.164
L115.335 565.709
L156.541 565.709
L156.541 542.436
L197.747 542.436
L197.747 519.164
L238.953 519.164
L238.953 501.709
L280.159 501.709
L280.159 484.254
L321.365 484.254
L321.365 460.982
L362.571 460.982
L362.571 437.709
L403.778 437.709
L403.778 420.254
L444.984 420.254
L444.984 402.8
L486.19 402.8
L486.19 385.345
L527.396 385.345
L527.396 362.073
L568.602 362.073
L568.602 344.618
L609.808 344.618
L609.808 327.164
L651.015 327.164
L651.015 309.709
L692.221 309.709
L692.221 292.254
L733.427 292.254
L733.427 274.8
L774.633 274.8
L774.633 257.345
L815.839 257.345
L815.839 239.891
L857.045 239.891
L857.045 222.436
L898.251 222.436
L898.251 204.982
L939.458 204.982
L939.458 193.345
L980.664 193.345
L980.664 175.891
L1021.87 175.891
L1021.87 158.436
L1063.08 158.436
L1063.08 140.982
L1104.28 140.982
L1104.28 129.345
L1145.49 129.345
L1145.49 111.891
L1186.69 111.891
L1186.69 94.4363
L1227.9 94.4363
L1227.9 82.7999
L1269.11 82.7999
L1269.11 65.3453
L1310.31 65.3453
L1310.31 53.709
L1351.52 53.709
L1351.52 36.2544
L1392.73 36.2544" style="fill:none;stroke:#66ff33;stroke-linecap:square;stroke-width:2.5;"/>
   </g>
   <g id="matplotlib.axis_1">
    <g id="xtick_1">
     <g id="text_1">
      <!-- 0 -->
      <defs>
       <path d="
M31.7812 66.4062
Q24.1719 66.4062 20.3281 58.9062
Q16.5 51.4219 16.5 36.375
Q16.5 21.3906 20.3281 13.8906
Q24.1719 6.39062 31.7812 6.39062
Q39.4531 6.39062 43.2812 13.8906
Q47.125 21.3906 47.125 36.375
Q47.125 51.4219 43.2812 58.9062
Q39.4531 66.4062 31.7812 66.4062
M31.7812 74.2188
Q44.0469 74.2188 50.5156 64.5156
Q56.9844 54.8281 56.9844 36.375
Q56.9844 17.9688 50.5156 8.26562
Q44.0469 -1.42188 31.7812 -1.42188
Q19.5312 -1.42188 13.0625 8.26562
Q6.59375 17.9688 6.59375 36.375
Q6.59375 54.8281 13.0625 64.5156
Q19.5312 74.2188 31.7812 74.2188" id="DejaVuSans-30"/>
      </defs>
      <g style="fill:#f0e7d5;" transform="translate(79.6471634615 620.514375)rotate(-90.0)scale(0.2 -0.2)">
       <use xlink:href="#DejaVuSans-30"/>
      </g>
     </g>
    </g>
    <g id="xtick_2">
     <g id="text_2">
      <!-- 128 -->
      <defs>
       <path d="
M12.4062 8.29688
L28.5156 8.29688
L28.5156 63.9219
L10.9844 60.4062
L10.9844 69.3906
L28.4219 72.9062
L38.2812 72.9062
L38.2812 8.29688
L54.3906 8.29688
L54.3906 0
L12.4062 0
z
" id="DejaVuSans-31"/>
       <path d="
M31.7812 34.625
Q24.75 34.625 20.7188 30.8594
Q16.7031 27.0938 16.7031 20.5156
Q16.7031 13.9219 20.7188 10.1562
Q24.75 6.39062 31.7812 6.39062
Q38.8125 6.39062 42.8594 10.1719
Q46.9219 13.9688 46.9219 20.5156
Q46.9219 27.0938 42.8906 30.8594
Q38.875 34.625 31.7812 34.625
M21.9219 38.8125
Q15.5781 40.375 12.0312 44.7188
Q8.5 49.0781 8.5 55.3281
Q8.5 64.0625 14.7188 69.1406
Q20.9531 74.2188 31.7812 74.2188
Q42.6719 74.2188 48.875 69.1406
Q55.0781 64.0625 55.0781 55.3281
Q55.0781 49.0781 51.5312 44.7188
Q48 40.375 41.7031 38.8125
Q48.8281 37.1562 52.7969 32.3125
Q56.7812 27.4844 56.7812 20.5156
Q56.7812 9.90625 50.3125 4.23438
Q43.8438 -1.42188 31.7812 -1.42188
Q19.7344 -1.42188 13.25 4.23438
Q6.78125 9.90625 6.78125 20.5156
Q6.78125 27.4844 10.7812 32.3125
Q14.7969 37.1562 21.9219 38.8125
M18.3125 54.3906
Q18.3125 48.7344 21.8438 45.5625
Q25.3906 42.3906 31.7812 42.3906
Q38.1406 42.3906 41.7188 45.5625
Q45.3125 48.7344 45.3125 54.3906
Q45.3125 60.0625 41.7188 63.2344
Q38.1406 66.4062 31.7812 66.4062
Q25.3906 66.4062 21.8438 63.2344
Q18.3125 60.0625 18.3125 54.3906" id="DejaVuSans-38"/>
       <path d="
M19.1875 8.29688
L53.6094 8.29688
L53.6094 0
L7.32812 0
L7.32812 8.29688
Q12.9375 14.1094 22.625 23.8906
Q32.3281 33.6875 34.8125 36.5312
Q39.5469 41.8438 41.4219 45.5312
Q43.3125 49.2188 43.3125 52.7812
Q43.3125 58.5938 39.2344 62.25
Q35.1562 65.9219 28.6094 65.9219
Q23.9688 65.9219 18.8125 64.3125
Q13.6719 62.7031 7.8125 59.4219
L7.8125 69.3906
Q13.7656 71.7812 18.9375 73
Q24.125 74.2188 28.4219 74.2188
Q39.75 74.2188 46.4844 68.5469
Q53.2188 62.8906 53.2188 53.4219
Q53.2188 48.9219 51.5312 44.8906
Q49.8594 40.875 45.4062 35.4062
Q44.1875 33.9844 37.6406 27.2188
Q31.1094 20.4531 19.1875 8.29688" id="DejaVuSans-32"/>
      </defs>
      <g style="fill:#f0e7d5;" transform="translate(120.853317308 645.045625)rotate(-90.0)scale(0.2 -0.2)">
       <use xlink:href="#DejaVuSans-31"/>
       <use x="63.623046875" xlink:href="#DejaVuSans-32"/>
       <use x="127.24609375" xlink:href="#DejaVuSans-38"/>
      </g>
     </g>
    </g>
    <g id="xtick_3">
     <g id="text_3">
      <!-- 256 -->
      <defs>
       <path d="
M10.7969 72.9062
L49.5156 72.9062
L49.5156 64.5938
L19.8281 64.5938
L19.8281 46.7344
Q21.9688 47.4688 24.1094 47.8281
Q26.2656 48.1875 28.4219 48.1875
Q40.625 48.1875 47.75 41.5
Q54.8906 34.8125 54.8906 23.3906
Q54.8906 11.625 47.5625 5.09375
Q40.2344 -1.42188 26.9062 -1.42188
Q22.3125 -1.42188 17.5469 -0.640625
Q12.7969 0.140625 7.71875 1.70312
L7.71875 11.625
Q12.1094 9.23438 16.7969 8.0625
Q21.4844 6.89062 26.7031 6.89062
Q35.1562 6.89062 40.0781 11.3281
Q45.0156 15.7656 45.0156 23.3906
Q45.0156 31 40.0781 35.4375
Q35.1562 39.8906 26.7031 39.8906
Q22.75 39.8906 18.8125 39.0156
Q14.8906 38.1406 10.7969 36.2812
z
" id="DejaVuSans-35"/>
       <path d="
M33.0156 40.375
Q26.375 40.375 22.4844 35.8281
Q18.6094 31.2969 18.6094 23.3906
Q18.6094 15.5312 22.4844 10.9531
Q26.375 6.39062 33.0156 6.39062
Q39.6562 6.39062 43.5312 10.9531
Q47.4062 15.5312 47.4062 23.3906
Q47.4062 31.2969 43.5312 35.8281
Q39.6562 40.375 33.0156 40.375
M52.5938 71.2969
L52.5938 62.3125
Q48.875 64.0625 45.0938 64.9844
Q41.3125 65.9219 37.5938 65.9219
Q27.8281 65.9219 22.6719 59.3281
Q17.5312 52.7344 16.7969 39.4062
Q19.6719 43.6562 24.0156 45.9219
Q28.375 48.1875 33.5938 48.1875
Q44.5781 48.1875 50.9531 41.5156
Q57.3281 34.8594 57.3281 23.3906
Q57.3281 12.1562 50.6875 5.35938
Q44.0469 -1.42188 33.0156 -1.42188
Q20.3594 -1.42188 13.6719 8.26562
Q6.98438 17.9688 6.98438 36.375
Q6.98438 53.6562 15.1875 63.9375
Q23.3906 74.2188 37.2031 74.2188
Q40.9219 74.2188 44.7031 73.4844
Q48.4844 72.75 52.5938 71.2969" id="DejaVuSans-36"/>
      </defs>
      <g style="fill:#f0e7d5;" transform="translate(162.059471154 645.88625)rotate(-90.0)scale(0.2 -0.2)">
       <use xlink:href="#DejaVuSans-32"/>
       <use x="63.623046875" xlink:href="#DejaVuSans-35"/>
       <use x="127.24609375" xlink:href="#DejaVuSans-36"/>
      </g>
     </g>
    </g>
    <g id="xtick_4">
     <g id="text_4">
      <!-- 384 -->
      <defs>
       <path d="
M40.5781 39.3125
Q47.6562 37.7969 51.625 33
Q55.6094 28.2188 55.6094 21.1875
Q55.6094 10.4062 48.1875 4.48438
Q40.7656 -1.42188 27.0938 -1.42188
Q22.5156 -1.42188 17.6562 -0.515625
Q12.7969 0.390625 7.625 2.20312
L7.625 11.7188
Q11.7188 9.32812 16.5938 8.10938
Q21.4844 6.89062 26.8125 6.89062
Q36.0781 6.89062 40.9375 10.5469
Q45.7969 14.2031 45.7969 21.1875
Q45.7969 27.6406 41.2812 31.2656
Q36.7656 34.9062 28.7188 34.9062
L20.2188 34.9062
L20.2188 43.0156
L29.1094 43.0156
Q36.375 43.0156 40.2344 45.9219
Q44.0938 48.8281 44.0938 54.2969
Q44.0938 59.9062 40.1094 62.9062
Q36.1406 65.9219 28.7188 65.9219
Q24.6562 65.9219 20.0156 65.0312
Q15.375 64.1562 9.8125 62.3125
L9.8125 71.0938
Q15.4375 72.6562 20.3438 73.4375
Q25.25 74.2188 29.5938 74.2188
Q40.8281 74.2188 47.3594 69.1094
Q53.9062 64.0156 53.9062 55.3281
Q53.9062 49.2656 50.4375 45.0938
Q46.9688 40.9219 40.5781 39.3125" id="DejaVuSans-33"/>
       <path d="
M37.7969 64.3125
L12.8906 25.3906
L37.7969 25.3906
z

M35.2031 72.9062
L47.6094 72.9062
L47.6094 25.3906
L58.0156 25.3906
L58.0156 17.1875
L47.6094 17.1875
L47.6094 0
L37.7969 0
L37.7969 17.1875
L4.89062 17.1875
L4.89062 26.7031
z
" id="DejaVuSans-34"/>
      </defs>
      <g style="fill:#f0e7d5;" transform="translate(203.265625 645.964375)rotate(-90.0)scale(0.2 -0.2)">
       <use xlink:href="#DejaVuSans-33"/>
       <use x="63.623046875" xlink:href="#DejaVuSans-38"/>
       <use x="127.24609375" xlink:href="#DejaVuSans-34"/>
      </g>
     </g>
    </g>
    <g id="xtick_5">
     <g id="text_5">
      <!-- 512 -->
      <g style="fill:#f0e7d5;" transform="translate(244.471778846 645.064375)rotate(-90.0)scale(0.2 -0.2)">
       <use xlink:href="#DejaVuSans-35"/>
       <use x="63.623046875" xlink:href="#DejaVuSans-31"/>
       <use x="127.24609375" xlink:href="#DejaVuSans-32"/>
      </g>
     </g>
    </g>
    <g id="xtick_6">
     <g id="text_6">
      <!-- 640 -->
      <g style="fill:#f0e7d5;" transform="translate(285.677932692 645.88625)rotate(-90.0)scale(0.2 -0.2)">
       <use xlink:href="#DejaVuSans-36"/>
       <use x="63.623046875" xlink:href="#DejaVuSans-34"/>
       <use x="127.24609375" xlink:href="#DejaVuSans-30"/>
      </g>
     </g>
    </g>
    <g id="xtick_7">
     <g id="text_7">
      <!-- 768 -->
      <defs>
       <path d="
M8.20312 72.9062
L55.0781 72.9062
L55.0781 68.7031
L28.6094 0
L18.3125 0
L43.2188 64.5938
L8.20312 64.5938
z
" id="DejaVuSans-37"/>
      </defs>
      <g style="fill:#f0e7d5;" transform="translate(326.884086538 645.601875)rotate(-90.0)scale(0.2 -0.2)">
       <use xlink:href="#DejaVuSans-37"/>
       <use x="63.623046875" xlink:href="#DejaVuSans-36"/>
       <use x="127.24609375" xlink:href="#DejaVuSans-38"/>
      </g>
     </g>
    </g>
    <g id="xtick_8">
     <g id="text_8">
      <!-- 896 -->
      <defs>
       <path d="
M10.9844 1.51562
L10.9844 10.5
Q14.7031 8.73438 18.5 7.8125
Q22.3125 6.89062 25.9844 6.89062
Q35.75 6.89062 40.8906 13.4531
Q46.0469 20.0156 46.7812 33.4062
Q43.9531 29.2031 39.5938 26.9531
Q35.25 24.7031 29.9844 24.7031
Q19.0469 24.7031 12.6719 31.3125
Q6.29688 37.9375 6.29688 49.4219
Q6.29688 60.6406 12.9375 67.4219
Q19.5781 74.2188 30.6094 74.2188
Q43.2656 74.2188 49.9219 64.5156
Q56.5938 54.8281 56.5938 36.375
Q56.5938 19.1406 48.4062 8.85938
Q40.2344 -1.42188 26.4219 -1.42188
Q22.7031 -1.42188 18.8906 -0.6875
Q15.0938 0.046875 10.9844 1.51562
M30.6094 32.4219
Q37.25 32.4219 41.125 36.9531
Q45.0156 41.5 45.0156 49.4219
Q45.0156 57.2812 41.125 61.8438
Q37.25 66.4062 30.6094 66.4062
Q23.9688 66.4062 20.0938 61.8438
Q16.2188 57.2812 16.2188 49.4219
Q16.2188 41.5 20.0938 36.9531
Q23.9688 32.4219 30.6094 32.4219" id="DejaVuSans-39"/>
      </defs>
      <g style="fill:#f0e7d5;" transform="translate(368.090240385 645.995625)rotate(-90.0)scale(0.2 -0.2)">
       <use xlink:href="#DejaVuSans-38"/>
       <use x="63.623046875" xlink:href="#DejaVuSans-39"/>
       <use x="127.24609375" xlink:href="#DejaVuSans-36"/>
      </g>
     </g>
    </g>
    <g id="xtick_9">
     <g id="text_9">
      <!-- 1024 -->
      <g style="fill:#f0e7d5;" transform="translate(409.296394231 658.0175)rotate(-90.0)scale(0.2 -0.2)">
       <use xlink:href="#DejaVuSans-31"/>
       <use x="63.623046875" xlink:href="#DejaVuSans-30"/>
       <use x="127.24609375" xlink:href="#DejaVuSans-32"/>
       <use x="190.869140625" xlink:href="#DejaVuSans-34"/>
      </g>
     </g>
    </g>
    <g id="xtick_10">
     <g id="text_10">
      <!-- 1152 -->
      <g style="fill:#f0e7d5;" transform="translate(450.502548077 657.13625)rotate(-90.0)scale(0.2 -0.2)">
       <use xlink:href="#DejaVuSans-31"/>
       <use x="63.623046875" xlink:href="#DejaVuSans-31"/>
       <use x="127.24609375" xlink:href="#DejaVuSans-35"/>
       <use x="190.869140625" xlink:href="#DejaVuSans-32"/>
      </g>
     </g>
    </g>
    <g id="xtick_11">
     <g id="text_11">
      <!-- 1280 -->
      <g style="fill:#f0e7d5;" transform="translate(491.708701923 657.81125)rotate(-90.0)scale(0.2 -0.2)">
       <use xlink:href="#DejaVuSans-31"/>
       <use x="63.623046875" xlink:href="#DejaVuSans-32"/>
       <use x="127.24609375" xlink:href="#DejaVuSans-38"/>
       <use x="190.869140625" xlink:href="#DejaVuSans-30"/>
      </g>
     </g>
    </g>
    <g id="xtick_12">
     <g id="text_12">
      <!-- 1408 -->
      <g style="fill:#f0e7d5;" transform="translate(532.914855769 657.770625)rotate(-90.0)scale(0.2 -0.2)">
       <use xlink:href="#DejaVuSans-31"/>
       <use x="63.623046875" xlink:href="#DejaVuSans-34"/>
       <use x="127.24609375" xlink:href="#DejaVuSans-30"/>
       <use x="190.869140625" xlink:href="#DejaVuSans-38"/>
      </g>
     </g>
    </g>
    <g id="xtick_13">
     <g id="text_13">
      <!-- 1536 -->
      <g style="fill:#f0e7d5;" transform="translate(574.121009615 657.88)rotate(-90.0)scale(0.2 -0.2)">
       <use xlink:href="#DejaVuSans-31"/>
       <use x="63.623046875" xlink:href="#DejaVuSans-35"/>
       <use x="127.24609375" xlink:href="#DejaVuSans-33"/>
       <use x="190.869140625" xlink:href="#DejaVuSans-36"/>
      </g>
     </g>
    </g>
    <g id="xtick_14">
     <g id="text_14">
      <!-- 1664 -->
      <g style="fill:#f0e7d5;" transform="translate(615.327163462 658.0175)rotate(-90.0)scale(0.2 -0.2)">
       <use xlink:href="#DejaVuSans-31"/>
       <use x="63.623046875" xlink:href="#DejaVuSans-36"/>
       <use x="127.24609375" xlink:href="#DejaVuSans-36"/>
       <use x="190.869140625" xlink:href="#DejaVuSans-34"/>
      </g>
     </g>
    </g>
    <g id="xtick_15">
     <g id="text_15">
      <!-- 1792 -->
      <g style="fill:#f0e7d5;" transform="translate(656.533317308 657.13625)rotate(-90.0)scale(0.2 -0.2)">
       <use xlink:href="#DejaVuSans-31"/>
       <use x="63.623046875" xlink:href="#DejaVuSans-37"/>
       <use x="127.24609375" xlink:href="#DejaVuSans-39"/>
       <use x="190.869140625" xlink:href="#DejaVuSans-32"/>
      </g>
     </g>
    </g>
    <g id="xtick_16">
     <g id="text_16">
      <!-- 1920 -->
      <g style="fill:#f0e7d5;" transform="translate(697.739471154 657.81125)rotate(-90.0)scale(0.2 -0.2)">
       <use xlink:href="#DejaVuSans-31"/>
       <use x="63.623046875" xlink:href="#DejaVuSans-39"/>
       <use x="127.24609375" xlink:href="#DejaVuSans-32"/>
       <use x="190.869140625" xlink:href="#DejaVuSans-30"/>
      </g>
     </g>
    </g>
    <g id="xtick_17">
     <g id="text_17">
      <!-- 2048 -->
      <g style="fill:#f0e7d5;" transform="translate(738.945625 658.501875)rotate(-90.0)scale(0.2 -0.2)">
       <use xlink:href="#DejaVuSans-32"/>
       <use x="63.623046875" xlink:href="#DejaVuSans-30"/>
       <use x="127.24609375" xlink:href="#DejaVuSans-34"/>
       <use x="190.869140625" xlink:href="#DejaVuSans-38"/>
      </g>
     </g>
    </g>
    <g id="xtick_18">
     <g id="text_18">
      <!-- 2176 -->
      <g style="fill:#f0e7d5;" transform="translate(780.151778846 658.61125)rotate(-90.0)scale(0.2 -0.2)">
       <use xlink:href="#DejaVuSans-32"/>
       <use x="63.623046875" xlink:href="#DejaVuSans-31"/>
       <use x="127.24609375" xlink:href="#DejaVuSans-37"/>
       <use x="190.869140625" xlink:href="#DejaVuSans-36"/>
      </g>
     </g>
    </g>
    <g id="xtick_19">
     <g id="text_19">
      <!-- 2304 -->
      <g style="fill:#f0e7d5;" transform="translate(821.357932692 658.74875)rotate(-90.0)scale(0.2 -0.2)">
       <use xlink:href="#DejaVuSans-32"/>
       <use x="63.623046875" xlink:href="#DejaVuSans-33"/>
       <use x="127.24609375" xlink:href="#DejaVuSans-30"/>
       <use x="190.869140625" xlink:href="#DejaVuSans-34"/>
      </g>
     </g>
    </g>
    <g id="xtick_20">
     <g id="text_20">
      <!-- 2432 -->
      <g style="fill:#f0e7d5;" transform="translate(862.564086538 657.8675)rotate(-90.0)scale(0.2 -0.2)">
       <use xlink:href="#DejaVuSans-32"/>
       <use x="63.623046875" xlink:href="#DejaVuSans-34"/>
       <use x="127.24609375" xlink:href="#DejaVuSans-33"/>
       <use x="190.869140625" xlink:href="#DejaVuSans-32"/>
      </g>
     </g>
    </g>
    <g id="xtick_21">
     <g id="text_21">
      <!-- 2560 -->
      <g style="fill:#f0e7d5;" transform="translate(903.770240385 658.5425)rotate(-90.0)scale(0.2 -0.2)">
       <use xlink:href="#DejaVuSans-32"/>
       <use x="63.623046875" xlink:href="#DejaVuSans-35"/>
       <use x="127.24609375" xlink:href="#DejaVuSans-36"/>
       <use x="190.869140625" xlink:href="#DejaVuSans-30"/>
      </g>
     </g>
    </g>
    <g id="xtick_22">
     <g id="text_22">
      <!-- 2688 -->
      <g style="fill:#f0e7d5;" transform="translate(944.976394231 658.501875)rotate(-90.0)scale(0.2 -0.2)">
       <use xlink:href="#DejaVuSans-32"/>
       <use x="63.623046875" xlink:href="#DejaVuSans-36"/>
       <use x="127.24609375" xlink:href="#DejaVuSans-38"/>
       <use x="190.869140625" xlink:href="#DejaVuSans-38"/>
      </g>
     </g>
    </g>
    <g id="xtick_23">
     <g id="text_23">
      <!-- 2816 -->
      <g style="fill:#f0e7d5;" transform="translate(986.182548077 658.61125)rotate(-90.0)scale(0.2 -0.2)">
       <use xlink:href="#DejaVuSans-32"/>
       <use x="63.623046875" xlink:href="#DejaVuSans-38"/>
       <use x="127.24609375" xlink:href="#DejaVuSans-31"/>
       <use x="190.869140625" xlink:href="#DejaVuSans-36"/>
      </g>
     </g>
    </g>
    <g id="xtick_24">
     <g id="text_24">
      <!-- 2944 -->
      <g style="fill:#f0e7d5;" transform="translate(1027.38870192 658.74875)rotate(-90.0)scale(0.2 -0.2)">
       <use xlink:href="#DejaVuSans-32"/>
       <use x="63.623046875" xlink:href="#DejaVuSans-39"/>
       <use x="127.24609375" xlink:href="#DejaVuSans-34"/>
       <use x="190.869140625" xlink:href="#DejaVuSans-34"/>
      </g>
     </g>
    </g>
    <g id="xtick_25">
     <g id="text_25">
      <!-- 3072 -->
      <g style="fill:#f0e7d5;" transform="translate(1068.59485577 657.808125)rotate(-90.0)scale(0.2 -0.2)">
       <use xlink:href="#DejaVuSans-33"/>
       <use x="63.623046875" xlink:href="#DejaVuSans-30"/>
       <use x="127.24609375" xlink:href="#DejaVuSans-37"/>
       <use x="190.869140625" xlink:href="#DejaVuSans-32"/>
      </g>
     </g>
    </g>
    <g id="xtick_26">
     <g id="text_26">
      <!-- 3200 -->
      <g style="fill:#f0e7d5;" transform="translate(1109.80100962 658.483125)rotate(-90.0)scale(0.2 -0.2)">
       <use xlink:href="#DejaVuSans-33"/>
       <use x="63.623046875" xlink:href="#DejaVuSans-32"/>
       <use x="127.24609375" xlink:href="#DejaVuSans-30"/>
       <use x="190.869140625" xlink:href="#DejaVuSans-30"/>
      </g>
     </g>
    </g>
    <g id="xtick_27">
     <g id="text_27">
      <!-- 3328 -->
      <g style="fill:#f0e7d5;" transform="translate(1151.00716346 658.4425)rotate(-90.0)scale(0.2 -0.2)">
       <use xlink:href="#DejaVuSans-33"/>
       <use x="63.623046875" xlink:href="#DejaVuSans-33"/>
       <use x="127.24609375" xlink:href="#DejaVuSans-32"/>
       <use x="190.869140625" xlink:href="#DejaVuSans-38"/>
      </g>
     </g>
    </g>
    <g id="xtick_28">
     <g id="text_28">
      <!-- 3456 -->
      <g style="fill:#f0e7d5;" transform="translate(1192.21331731 658.551875)rotate(-90.0)scale(0.2 -0.2)">
       <use xlink:href="#DejaVuSans-33"/>
       <use x="63.623046875" xlink:href="#DejaVuSans-34"/>
       <use x="127.24609375" xlink:href="#DejaVuSans-35"/>
       <use x="190.869140625" xlink:href="#DejaVuSans-36"/>
      </g>
     </g>
    </g>
    <g id="xtick_29">
     <g id="text_29">
      <!-- 3584 -->
      <g style="fill:#f0e7d5;" transform="translate(1233.41947115 658.689375)rotate(-90.0)scale(0.2 -0.2)">
       <use xlink:href="#DejaVuSans-33"/>
       <use x="63.623046875" xlink:href="#DejaVuSans-35"/>
       <use x="127.24609375" xlink:href="#DejaVuSans-38"/>
       <use x="190.869140625" xlink:href="#DejaVuSans-34"/>
      </g>
     </g>
    </g>
    <g id="xtick_30">
     <g id="text_30">
      <!-- 3712 -->
      <g style="fill:#f0e7d5;" transform="translate(1274.625625 657.808125)rotate(-90.0)scale(0.2 -0.2)">
       <use xlink:href="#DejaVuSans-33"/>
       <use x="63.623046875" xlink:href="#DejaVuSans-37"/>
       <use x="127.24609375" xlink:href="#DejaVuSans-31"/>
       <use x="190.869140625" xlink:href="#DejaVuSans-32"/>
      </g>
     </g>
    </g>
    <g id="xtick_31">
     <g id="text_31">
      <!-- 3840 -->
      <g style="fill:#f0e7d5;" transform="translate(1315.83177885 658.483125)rotate(-90.0)scale(0.2 -0.2)">
       <use xlink:href="#DejaVuSans-33"/>
       <use x="63.623046875" xlink:href="#DejaVuSans-38"/>
       <use x="127.24609375" xlink:href="#DejaVuSans-34"/>
       <use x="190.869140625" xlink:href="#DejaVuSans-30"/>
      </g>
     </g>
    </g>
    <g id="xtick_32">
     <g id="text_32">
      <!-- 3968 -->
      <g style="fill:#f0e7d5;" transform="translate(1357.03793269 658.4425)rotate(-90.0)scale(0.2 -0.2)">
       <use xlink:href="#DejaVuSans-33"/>
       <use x="63.623046875" xlink:href="#DejaVuSans-39"/>
       <use x="127.24609375" xlink:href="#DejaVuSans-36"/>
       <use x="190.869140625" xlink:href="#DejaVuSans-38"/>
      </g>
     </g>
    </g>
    <g id="xtick_33">
     <g id="text_33">
      <!-- 4096 -->
      <g style="fill:#f0e7d5;" transform="translate(1398.24408654 659.09875)rotate(-90.0)scale(0.2 -0.2)">
       <use xlink:href="#DejaVuSans-34"/>
       <use x="63.623046875" xlink:href="#DejaVuSans-30"/>
       <use x="127.24609375" xlink:href="#DejaVuSans-39"/>
       <use x="190.869140625" xlink:href="#DejaVuSans-36"/>
      </g>
     </g>
    </g>
    <g id="text_34">
     <!-- Array offset relative to 16384, bytes -->
     <defs>
      <path d="
M11.7188 12.4062
L22.0156 12.4062
L22.0156 4
L14.0156 -11.625
L7.71875 -11.625
L11.7188 4
z
" id="DejaVuSans-2c"/>
      <path d="
M56.2031 29.5938
L56.2031 25.2031
L14.8906 25.2031
Q15.4844 15.9219 20.4844 11.0625
Q25.4844 6.20312 34.4219 6.20312
Q39.5938 6.20312 44.4531 7.46875
Q49.3125 8.73438 54.1094 11.2812
L54.1094 2.78125
Q49.2656 0.734375 44.1875 -0.34375
Q39.1094 -1.42188 33.8906 -1.42188
Q20.7969 -1.42188 13.1562 6.1875
Q5.51562 13.8125 5.51562 26.8125
Q5.51562 40.2344 12.7656 48.1094
Q20.0156 56 32.3281 56
Q43.3594 56 49.7812 48.8906
Q56.2031 41.7969 56.2031 29.5938
M47.2188 32.2344
Q47.125 39.5938 43.0938 43.9844
Q39.0625 48.3906 32.4219 48.3906
Q24.9062 48.3906 20.3906 44.1406
Q15.875 39.8906 15.1875 32.1719
z
" id="DejaVuSans-65"/>
      <path d="
M30.6094 48.3906
Q23.3906 48.3906 19.1875 42.75
Q14.9844 37.1094 14.9844 27.2969
Q14.9844 17.4844 19.1562 11.8438
Q23.3438 6.20312 30.6094 6.20312
Q37.7969 6.20312 41.9844 11.8594
Q46.1875 17.5312 46.1875 27.2969
Q46.1875 37.0156 41.9844 42.7031
Q37.7969 48.3906 30.6094 48.3906
M30.6094 56
Q42.3281 56 49.0156 48.375
Q55.7188 40.7656 55.7188 27.2969
Q55.7188 13.875 49.0156 6.21875
Q42.3281 -1.42188 30.6094 -1.42188
Q18.8438 -1.42188 12.1719 6.21875
Q5.51562 13.875 5.51562 27.2969
Q5.51562 40.7656 12.1719 48.375
Q18.8438 56 30.6094 56" id="DejaVuSans-6f"/>
      <path d="
M9.42188 75.9844
L18.4062 75.9844
L18.4062 0
L9.42188 0
z
" id="DejaVuSans-6c"/>
      <path id="DejaVuSans-20"/>
      <path d="
M2.98438 54.6875
L12.5 54.6875
L29.5938 8.79688
L46.6875 54.6875
L56.2031 54.6875
L35.6875 0
L23.4844 0
z
" id="DejaVuSans-76"/>
      <path d="
M32.1719 -5.07812
Q28.375 -14.8438 24.75 -17.8125
Q21.1406 -20.7969 15.0938 -20.7969
L7.90625 -20.7969
L7.90625 -13.2812
L13.1875 -13.2812
Q16.8906 -13.2812 18.9375 -11.5156
Q21 -9.76562 23.4844 -3.21875
L25.0938 0.875
L2.98438 54.6875
L12.5 54.6875
L29.5938 11.9219
L46.6875 54.6875
L56.2031 54.6875
z
" id="DejaVuSans-79"/>
      <path d="
M34.1875 63.1875
L20.7969 26.9062
L47.6094 26.9062
z

M28.6094 72.9062
L39.7969 72.9062
L67.5781 0
L57.3281 0
L50.6875 18.7031
L17.8281 18.7031
L11.1875 0
L0.78125 0
z
" id="DejaVuSans-41"/>
      <path d="
M9.42188 54.6875
L18.4062 54.6875
L18.4062 0
L9.42188 0
z

M9.42188 75.9844
L18.4062 75.9844
L18.4062 64.5938
L9.42188 64.5938
z
" id="DejaVuSans-69"/>
      <path d="
M37.1094 75.9844
L37.1094 68.5
L28.5156 68.5
Q23.6875 68.5 21.7969 66.5469
Q19.9219 64.5938 19.9219 59.5156
L19.9219 54.6875
L34.7188 54.6875
L34.7188 47.7031
L19.9219 47.7031
L19.9219 0
L10.8906 0
L10.8906 47.7031
L2.29688 47.7031
L2.29688 54.6875
L10.8906 54.6875
L10.8906 58.5
Q10.8906 67.625 15.1406 71.7969
Q19.3906 75.9844 28.6094 75.9844
z
" id="DejaVuSans-66"/>
      <path d="
M18.3125 70.2188
L18.3125 54.6875
L36.8125 54.6875
L36.8125 47.7031
L18.3125 47.7031
L18.3125 18.0156
Q18.3125 11.3281 20.1406 9.42188
Q21.9688 7.51562 27.5938 7.51562
L36.8125 7.51562
L36.8125 0
L27.5938 0
Q17.1875 0 13.2344 3.875
Q9.28125 7.76562 9.28125 18.0156
L9.28125 47.7031
L2.6875 47.7031
L2.6875 54.6875
L9.28125 54.6875
L9.28125 70.2188
z
" id="DejaVuSans-74"/>
      <path d="
M41.1094 46.2969
Q39.5938 47.1719 37.8125 47.5781
Q36.0312 48 33.8906 48
Q26.2656 48 22.1875 43.0469
Q18.1094 38.0938 18.1094 28.8125
L18.1094 0
L9.07812 0
L9.07812 54.6875
L18.1094 54.6875
L18.1094 46.1875
Q20.9531 51.1719 25.4844 53.5781
Q30.0312 56 36.5312 56
Q37.4531 56 38.5781 55.875
Q39.7031 55.7656 41.0625 55.5156
z
" id="DejaVuSans-72"/>
      <path d="
M48.6875 27.2969
Q48.6875 37.2031 44.6094 42.8438
Q40.5312 48.4844 33.4062 48.4844
Q26.2656 48.4844 22.1875 42.8438
Q18.1094 37.2031 18.1094 27.2969
Q18.1094 17.3906 22.1875 11.75
Q26.2656 6.10938 33.4062 6.10938
Q40.5312 6.10938 44.6094 11.75
Q48.6875 17.3906 48.6875 27.2969
M18.1094 46.3906
Q20.9531 51.2656 25.2656 53.625
Q29.5938 56 35.5938 56
Q45.5625 56 51.7812 48.0938
Q58.0156 40.1875 58.0156 27.2969
Q58.0156 14.4062 51.7812 6.48438
Q45.5625 -1.42188 35.5938 -1.42188
Q29.5938 -1.42188 25.2656 0.953125
Q20.9531 3.32812 18.1094 8.20312
L18.1094 0
L9.07812 0
L9.07812 75.9844
L18.1094 75.9844
z
" id="DejaVuSans-62"/>
      <path d="
M44.2812 53.0781
L44.2812 44.5781
Q40.4844 46.5312 36.375 47.5
Q32.2812 48.4844 27.875 48.4844
Q21.1875 48.4844 17.8438 46.4375
Q14.5 44.3906 14.5 40.2812
Q14.5 37.1562 16.8906 35.375
Q19.2812 33.5938 26.5156 31.9844
L29.5938 31.2969
Q39.1562 29.25 43.1875 25.5156
Q47.2188 21.7812 47.2188 15.0938
Q47.2188 7.46875 41.1875 3.01562
Q35.1562 -1.42188 24.6094 -1.42188
Q20.2188 -1.42188 15.4531 -0.5625
Q10.6875 0.296875 5.42188 2
L5.42188 11.2812
Q10.4062 8.6875 15.2344 7.39062
Q20.0625 6.10938 24.8125 6.10938
Q31.1562 6.10938 34.5625 8.28125
Q37.9844 10.4531 37.9844 14.4062
Q37.9844 18.0625 35.5156 20.0156
Q33.0625 21.9688 24.7031 23.7812
L21.5781 24.5156
Q13.2344 26.2656 9.51562 29.9062
Q5.8125 33.5469 5.8125 39.8906
Q5.8125 47.6094 11.2812 51.7969
Q16.75 56 26.8125 56
Q31.7812 56 36.1719 55.2656
Q40.5781 54.5469 44.2812 53.0781" id="DejaVuSans-73"/>
      <path d="
M34.2812 27.4844
Q23.3906 27.4844 19.1875 25
Q14.9844 22.5156 14.9844 16.5
Q14.9844 11.7188 18.1406 8.90625
Q21.2969 6.10938 26.7031 6.10938
Q34.1875 6.10938 38.7031 11.4062
Q43.2188 16.7031 43.2188 25.4844
L43.2188 27.4844
z

M52.2031 31.2031
L52.2031 0
L43.2188 0
L43.2188 8.29688
Q40.1406 3.32812 35.5469 0.953125
Q30.9531 -1.42188 24.3125 -1.42188
Q15.9219 -1.42188 10.9531 3.29688
Q6 8.01562 6 15.9219
Q6 25.1406 12.1719 29.8281
Q18.3594 34.5156 30.6094 34.5156
L43.2188 34.5156
L43.2188 35.4062
Q43.2188 41.6094 39.1406 45
Q35.0625 48.3906 27.6875 48.3906
Q23 48.3906 18.5469 47.2656
Q14.1094 46.1406 10.0156 43.8906
L10.0156 52.2031
Q14.9375 54.1094 19.5781 55.0469
Q24.2188 56 28.6094 56
Q40.4844 56 46.3438 49.8438
Q52.2031 43.7031 52.2031 31.2031" id="DejaVuSans-61"/>
     </defs>
     <g style="fill:#f0e7d5;" transform="translate(516.136875 682.335)scale(0.24 -0.24)">
      <use xlink:href="#DejaVuSans-41"/>
      <use x="68.408203125" xlink:href="#DejaVuSans-72"/>
      <use x="107.771484375" xlink:href="#DejaVuSans-72"/>
      <use x="148.884765625" xlink:href="#DejaVuSans-61"/>
      <use x="210.1640625" xlink:href="#DejaVuSans-79"/>
      <use x="269.34375" xlink:href="#DejaVuSans-20"/>
      <use x="301.130859375" xlink:href="#DejaVuSans-6f"/>
      <use x="362.3125" xlink:href="#DejaVuSans-66"/>
      <use x="397.517578125" xlink:href="#DejaVuSans-66"/>
      <use x="432.72265625" xlink:href="#DejaVuSans-73"/>
      <use x="484.822265625" xlink:href="#DejaVuSans-65"/>
      <use x="546.345703125" xlink:href="#DejaVuSans-74"/>
      <use x="585.5546875" xlink:href="#DejaVuSans-20"/>
      <use x="617.341796875" xlink:href="#DejaVuSans-72"/>
      <use x="656.205078125" xlink:href="#DejaVuSans-65"/>
      <use x="717.728515625" xlink:href="#DejaVuSans-6c"/>
      <use x="745.51171875" xlink:href="#DejaVuSans-61"/>
      <use x="806.791015625" xlink:href="#DejaVuSans-74"/>
      <use x="846.0" xlink:href="#DejaVuSans-69"/>
      <use x="873.783203125" xlink:href="#DejaVuSans-76"/>
      <use x="932.962890625" xlink:href="#DejaVuSans-65"/>
      <use x="994.486328125" xlink:href="#DejaVuSans-20"/>
      <use x="1026.2734375" xlink:href="#DejaVuSans-74"/>
      <use x="1065.48242188" xlink:href="#DejaVuSans-6f"/>
      <use x="1126.6640625" xlink:href="#DejaVuSans-20"/>
      <use x="1158.45117188" xlink:href="#DejaVuSans-31"/>
      <use x="1222.07421875" xlink:href="#DejaVuSans-36"/>
      <use x="1285.69726562" xlink:href="#DejaVuSans-33"/>
      <use x="1349.3203125" xlink:href="#DejaVuSans-38"/>
      <use x="1412.94335938" xlink:href="#DejaVuSans-34"/>
      <use x="1476.56640625" xlink:href="#DejaVuSans-2c"/>
      <use x="1508.35351562" xlink:href="#DejaVuSans-20"/>
      <use x="1540.140625" xlink:href="#DejaVuSans-62"/>
      <use x="1603.6171875" xlink:href="#DejaVuSans-79"/>
      <use x="1662.796875" xlink:href="#DejaVuSans-74"/>
      <use x="1702.00585938" xlink:href="#DejaVuSans-65"/>
      <use x="1763.52929688" xlink:href="#DejaVuSans-73"/>
     </g>
    </g>
   </g>
   <g id="matplotlib.axis_2">
    <g id="ytick_1">
     <g id="text_35">
      <!-- 34 -->
      <g style="fill:#f0e7d5;" transform="translate(43.8646875 604.481193182)scale(0.14 -0.14)">
       <use xlink:href="#DejaVuSans-33"/>
       <use x="63.623046875" xlink:href="#DejaVuSans-34"/>
      </g>
     </g>
    </g>
    <g id="ytick_2">
     <g id="text_36">
      <!-- 37 -->
      <g style="fill:#f0e7d5;" transform="translate(44.2759375 587.026647727)scale(0.14 -0.14)">
       <use xlink:href="#DejaVuSans-33"/>
       <use x="63.623046875" xlink:href="#DejaVuSans-37"/>
      </g>
     </g>
    </g>
    <g id="ytick_3">
     <g id="text_37">
      <!-- 40 -->
      <g style="fill:#f0e7d5;" transform="translate(43.62625 569.572102273)scale(0.14 -0.14)">
       <use xlink:href="#DejaVuSans-34"/>
       <use x="63.623046875" xlink:href="#DejaVuSans-30"/>
      </g>
     </g>
    </g>
    <g id="ytick_4">
     <g id="text_38">
      <!-- 44 -->
      <g style="fill:#f0e7d5;" transform="translate(43.481875 546.299375)scale(0.14 -0.14)">
       <use xlink:href="#DejaVuSans-34"/>
       <use x="63.623046875" xlink:href="#DejaVuSans-34"/>
      </g>
     </g>
    </g>
    <g id="ytick_5">
     <g id="text_39">
      <!-- 48 -->
      <g style="fill:#f0e7d5;" transform="translate(43.6546875 523.026647727)scale(0.14 -0.14)">
       <use xlink:href="#DejaVuSans-34"/>
       <use x="63.623046875" xlink:href="#DejaVuSans-38"/>
      </g>
     </g>
    </g>
    <g id="ytick_6">
     <g id="text_40">
      <!-- 51 -->
      <g style="fill:#f0e7d5;" transform="translate(44.3853125 505.572102273)scale(0.14 -0.14)">
       <use xlink:href="#DejaVuSans-35"/>
       <use x="63.623046875" xlink:href="#DejaVuSans-31"/>
      </g>
     </g>
    </g>
    <g id="ytick_7">
     <g id="text_41">
      <!-- 54 -->
      <g style="fill:#f0e7d5;" transform="translate(43.8778125 488.117556818)scale(0.14 -0.14)">
       <use xlink:href="#DejaVuSans-35"/>
       <use x="63.623046875" xlink:href="#DejaVuSans-34"/>
      </g>
     </g>
    </g>
    <g id="ytick_8">
     <g id="text_42">
      <!-- 58 -->
      <g style="fill:#f0e7d5;" transform="translate(44.050625 464.844829545)scale(0.14 -0.14)">
       <use xlink:href="#DejaVuSans-35"/>
       <use x="63.623046875" xlink:href="#DejaVuSans-38"/>
      </g>
     </g>
    </g>
    <g id="ytick_9">
     <g id="text_43">
      <!-- 62 -->
      <g style="fill:#f0e7d5;" transform="translate(44.391875 441.572102273)scale(0.14 -0.14)">
       <use xlink:href="#DejaVuSans-36"/>
       <use x="63.623046875" xlink:href="#DejaVuSans-32"/>
      </g>
     </g>
    </g>
    <g id="ytick_10">
     <g id="text_44">
      <!-- 65 -->
      <g style="fill:#f0e7d5;" transform="translate(44.2125 424.117556818)scale(0.14 -0.14)">
       <use xlink:href="#DejaVuSans-36"/>
       <use x="63.623046875" xlink:href="#DejaVuSans-35"/>
      </g>
     </g>
    </g>
    <g id="ytick_11">
     <g id="text_45">
      <!-- 68 -->
      <g style="fill:#f0e7d5;" transform="translate(43.9478125 406.663011364)scale(0.14 -0.14)">
       <use xlink:href="#DejaVuSans-36"/>
       <use x="63.623046875" xlink:href="#DejaVuSans-38"/>
      </g>
     </g>
    </g>
    <g id="ytick_12">
     <g id="text_46">
      <!-- 71 -->
      <g style="fill:#f0e7d5;" transform="translate(44.453125 389.208465909)scale(0.14 -0.14)">
       <use xlink:href="#DejaVuSans-37"/>
       <use x="63.623046875" xlink:href="#DejaVuSans-31"/>
      </g>
     </g>
    </g>
    <g id="ytick_13">
     <g id="text_47">
      <!-- 75 -->
      <g style="fill:#f0e7d5;" transform="translate(44.383125 365.935738636)scale(0.14 -0.14)">
       <use xlink:href="#DejaVuSans-37"/>
       <use x="63.623046875" xlink:href="#DejaVuSans-35"/>
      </g>
     </g>
    </g>
    <g id="ytick_14">
     <g id="text_48">
      <!-- 78 -->
      <g style="fill:#f0e7d5;" transform="translate(44.1184375 348.481193182)scale(0.14 -0.14)">
       <use xlink:href="#DejaVuSans-37"/>
       <use x="63.623046875" xlink:href="#DejaVuSans-38"/>
      </g>
     </g>
    </g>
    <g id="ytick_15">
     <g id="text_49">
      <!-- 81 -->
      <g style="fill:#f0e7d5;" transform="translate(44.2540625 331.026647727)scale(0.14 -0.14)">
       <use xlink:href="#DejaVuSans-38"/>
       <use x="63.623046875" xlink:href="#DejaVuSans-31"/>
      </g>
     </g>
    </g>
    <g id="ytick_16">
     <g id="text_50">
      <!-- 84 -->
      <g style="fill:#f0e7d5;" transform="translate(43.7465625 313.572102273)scale(0.14 -0.14)">
       <use xlink:href="#DejaVuSans-38"/>
       <use x="63.623046875" xlink:href="#DejaVuSans-34"/>
      </g>
     </g>
    </g>
    <g id="ytick_17">
     <g id="text_51">
      <!-- 87 -->
      <g style="fill:#f0e7d5;" transform="translate(44.1578125 296.117556818)scale(0.14 -0.14)">
       <use xlink:href="#DejaVuSans-38"/>
       <use x="63.623046875" xlink:href="#DejaVuSans-37"/>
      </g>
     </g>
    </g>
    <g id="ytick_18">
     <g id="text_52">
      <!-- 90 -->
      <g style="fill:#f0e7d5;" transform="translate(43.823125 278.663011364)scale(0.14 -0.14)">
       <use xlink:href="#DejaVuSans-39"/>
       <use x="63.623046875" xlink:href="#DejaVuSans-30"/>
      </g>
     </g>
    </g>
    <g id="ytick_19">
     <g id="text_53">
      <!-- 93 -->
      <g style="fill:#f0e7d5;" transform="translate(44.015625 261.208465909)scale(0.14 -0.14)">
       <use xlink:href="#DejaVuSans-39"/>
       <use x="63.623046875" xlink:href="#DejaVuSans-33"/>
      </g>
     </g>
    </g>
    <g id="ytick_20">
     <g id="text_54">
      <!-- 96 -->
      <g style="fill:#f0e7d5;" transform="translate(43.775 243.753920455)scale(0.14 -0.14)">
       <use xlink:href="#DejaVuSans-39"/>
       <use x="63.623046875" xlink:href="#DejaVuSans-36"/>
      </g>
     </g>
    </g>
    <g id="ytick_21">
     <g id="text_55">
      <!-- 99 -->
      <g style="fill:#f0e7d5;" transform="translate(43.8778125 226.299375)scale(0.14 -0.14)">
       <use xlink:href="#DejaVuSans-39"/>
       <use x="63.623046875" xlink:href="#DejaVuSans-39"/>
      </g>
     </g>
    </g>
    <g id="ytick_22">
     <g id="text_56">
      <!-- 102 -->
      <g style="fill:#f0e7d5;" transform="translate(36.044375 208.844829545)scale(0.14 -0.14)">
       <use xlink:href="#DejaVuSans-31"/>
       <use x="63.623046875" xlink:href="#DejaVuSans-30"/>
       <use x="127.24609375" xlink:href="#DejaVuSans-32"/>
      </g>
     </g>
    </g>
    <g id="ytick_23">
     <g id="text_57">
      <!-- 104 -->
      <g style="fill:#f0e7d5;" transform="translate(35.4275 197.208465909)scale(0.14 -0.14)">
       <use xlink:href="#DejaVuSans-31"/>
       <use x="63.623046875" xlink:href="#DejaVuSans-30"/>
       <use x="127.24609375" xlink:href="#DejaVuSans-34"/>
      </g>
     </g>
    </g>
    <g id="ytick_24">
     <g id="text_58">
      <!-- 107 -->
      <g style="fill:#f0e7d5;" transform="translate(35.83875 179.753920455)scale(0.14 -0.14)">
       <use xlink:href="#DejaVuSans-31"/>
       <use x="63.623046875" xlink:href="#DejaVuSans-30"/>
       <use x="127.24609375" xlink:href="#DejaVuSans-37"/>
      </g>
     </g>
    </g>
    <g id="ytick_25">
     <g id="text_59">
      <!-- 110 -->
      <g style="fill:#f0e7d5;" transform="translate(35.571875 162.299375)scale(0.14 -0.14)">
       <use xlink:href="#DejaVuSans-31"/>
       <use x="63.623046875" xlink:href="#DejaVuSans-31"/>
       <use x="127.24609375" xlink:href="#DejaVuSans-30"/>
      </g>
     </g>
    </g>
    <g id="ytick_26">
     <g id="text_60">
      <!-- 113 -->
      <g style="fill:#f0e7d5;" transform="translate(35.764375 144.844829545)scale(0.14 -0.14)">
       <use xlink:href="#DejaVuSans-31"/>
       <use x="63.623046875" xlink:href="#DejaVuSans-31"/>
       <use x="127.24609375" xlink:href="#DejaVuSans-33"/>
      </g>
     </g>
    </g>
    <g id="ytick_27">
     <g id="text_61">
      <!-- 115 -->
      <g style="fill:#f0e7d5;" transform="translate(35.865 133.208465909)scale(0.14 -0.14)">
       <use xlink:href="#DejaVuSans-31"/>
       <use x="63.623046875" xlink:href="#DejaVuSans-31"/>
       <use x="127.24609375" xlink:href="#DejaVuSans-35"/>
      </g>
     </g>
    </g>
    <g id="ytick_28">
     <g id="text_62">
      <!-- 118 -->
      <g style="fill:#f0e7d5;" transform="translate(35.6003125 115.753920455)scale(0.14 -0.14)">
       <use xlink:href="#DejaVuSans-31"/>
       <use x="63.623046875" xlink:href="#DejaVuSans-31"/>
       <use x="127.24609375" xlink:href="#DejaVuSans-38"/>
      </g>
     </g>
    </g>
    <g id="ytick_29">
     <g id="text_63">
      <!-- 121 -->
      <g style="fill:#f0e7d5;" transform="translate(35.935 98.299375)scale(0.14 -0.14)">
       <use xlink:href="#DejaVuSans-31"/>
       <use x="63.623046875" xlink:href="#DejaVuSans-32"/>
       <use x="127.24609375" xlink:href="#DejaVuSans-31"/>
      </g>
     </g>
    </g>
    <g id="ytick_30">
     <g id="text_64">
      <!-- 123 -->
      <g style="fill:#f0e7d5;" transform="translate(35.764375 86.6630113636)scale(0.14 -0.14)">
       <use xlink:href="#DejaVuSans-31"/>
       <use x="63.623046875" xlink:href="#DejaVuSans-32"/>
       <use x="127.24609375" xlink:href="#DejaVuSans-33"/>
      </g>
     </g>
    </g>
    <g id="ytick_31">
     <g id="text_65">
      <!-- 126 -->
      <g style="fill:#f0e7d5;" transform="translate(35.52375 69.2084659091)scale(0.14 -0.14)">
       <use xlink:href="#DejaVuSans-31"/>
       <use x="63.623046875" xlink:href="#DejaVuSans-32"/>
       <use x="127.24609375" xlink:href="#DejaVuSans-36"/>
      </g>
     </g>
    </g>
    <g id="ytick_32">
     <g id="text_66">
      <!-- 128 -->
      <g style="fill:#f0e7d5;" transform="translate(35.6003125 57.5721022727)scale(0.14 -0.14)">
       <use xlink:href="#DejaVuSans-31"/>
       <use x="63.623046875" xlink:href="#DejaVuSans-32"/>
       <use x="127.24609375" xlink:href="#DejaVuSans-38"/>
      </g>
     </g>
    </g>
    <g id="ytick_33">
     <g id="text_67">
      <!-- 131 -->
      <g style="fill:#f0e7d5;" transform="translate(35.935 40.1175568182)scale(0.14 -0.14)">
       <use xlink:href="#DejaVuSans-31"/>
       <use x="63.623046875" xlink:href="#DejaVuSans-33"/>
       <use x="127.24609375" xlink:href="#DejaVuSans-31"/>
      </g>
     </g>
    </g>
    <g id="text_68">
     <!-- Latency, cycles -->
     <defs>
      <path d="
M54.8906 33.0156
L54.8906 0
L45.9062 0
L45.9062 32.7188
Q45.9062 40.4844 42.875 44.3281
Q39.8438 48.1875 33.7969 48.1875
Q26.5156 48.1875 22.3125 43.5469
Q18.1094 38.9219 18.1094 30.9062
L18.1094 0
L9.07812 0
L9.07812 54.6875
L18.1094 54.6875
L18.1094 46.1875
Q21.3438 51.125 25.7031 53.5625
Q30.0781 56 35.7969 56
Q45.2188 56 50.0469 50.1719
Q54.8906 44.3438 54.8906 33.0156" id="DejaVuSans-6e"/>
      <path d="
M48.7812 52.5938
L48.7812 44.1875
Q44.9688 46.2969 41.1406 47.3438
Q37.3125 48.3906 33.4062 48.3906
Q24.6562 48.3906 19.8125 42.8438
Q14.9844 37.3125 14.9844 27.2969
Q14.9844 17.2812 19.8125 11.7344
Q24.6562 6.20312 33.4062 6.20312
Q37.3125 6.20312 41.1406 7.25
Q44.9688 8.29688 48.7812 10.4062
L48.7812 2.09375
Q45.0156 0.34375 40.9844 -0.53125
Q36.9688 -1.42188 32.4219 -1.42188
Q20.0625 -1.42188 12.7812 6.34375
Q5.51562 14.1094 5.51562 27.2969
Q5.51562 40.6719 12.8594 48.3281
Q20.2188 56 33.0156 56
Q37.1562 56 41.1094 55.1406
Q45.0625 54.2969 48.7812 52.5938" id="DejaVuSans-63"/>
      <path d="
M9.8125 72.9062
L19.6719 72.9062
L19.6719 8.29688
L55.1719 8.29688
L55.1719 0
L9.8125 0
z
" id="DejaVuSans-4c"/>
     </defs>
     <g style="fill:#f0e7d5;" transform="translate(25.43625 410.18)rotate(-90.0)scale(0.24 -0.24)">
      <use xlink:href="#DejaVuSans-4c"/>
      <use x="55.712890625" xlink:href="#DejaVuSans-61"/>
      <use x="116.9921875" xlink:href="#DejaVuSans-74"/>
      <use x="156.201171875" xlink:href="#DejaVuSans-65"/>
      <use x="217.724609375" xlink:href="#DejaVuSans-6e"/>
      <use x="281.103515625" xlink:href="#DejaVuSans-63"/>
      <use x="336.083984375" xlink:href="#DejaVuSans-79"/>
      <use x="395.263671875" xlink:href="#DejaVuSans-2c"/>
      <use x="427.05078125" xlink:href="#DejaVuSans-20"/>
      <use x="458.837890625" xlink:href="#DejaVuSans-63"/>
      <use x="513.818359375" xlink:href="#DejaVuSans-79"/>
      <use x="572.998046875" xlink:href="#DejaVuSans-63"/>
      <use x="627.978515625" xlink:href="#DejaVuSans-6c"/>
      <use x="655.76171875" xlink:href="#DejaVuSans-65"/>
      <use x="717.28515625" xlink:href="#DejaVuSans-73"/>
     </g>
    </g>
   </g>
   <g id="text_69">
    <!-- K20A L1 footprint -->
    <defs>
     <path d="
M18.1094 8.20312
L18.1094 -20.7969
L9.07812 -20.7969
L9.07812 54.6875
L18.1094 54.6875
L18.1094 46.3906
Q20.9531 51.2656 25.2656 53.625
Q29.5938 56 35.5938 56
Q45.5625 56 51.7812 48.0938
Q58.0156 40.1875 58.0156 27.2969
Q58.0156 14.4062 51.7812 6.48438
Q45.5625 -1.42188 35.5938 -1.42188
Q29.5938 -1.42188 25.2656 0.953125
Q20.9531 3.32812 18.1094 8.20312
M48.6875 27.2969
Q48.6875 37.2031 44.6094 42.8438
Q40.5312 48.4844 33.4062 48.4844
Q26.2656 48.4844 22.1875 42.8438
Q18.1094 37.2031 18.1094 27.2969
Q18.1094 17.3906 22.1875 11.75
Q26.2656 6.10938 33.4062 6.10938
Q40.5312 6.10938 44.6094 11.75
Q48.6875 17.3906 48.6875 27.2969" id="DejaVuSans-70"/>
     <path d="
M9.8125 72.9062
L19.6719 72.9062
L19.6719 42.0938
L52.3906 72.9062
L65.0938 72.9062
L28.9062 38.9219
L67.6719 0
L54.6875 0
L19.6719 35.1094
L19.6719 0
L9.8125 0
z
" id="DejaVuSans-4b"/>
    </defs>
    <g style="fill:#66ff33;" transform="translate(628.60875 25.43625)scale(0.24 -0.24)">
     <use xlink:href="#DejaVuSans-4b"/>
     <use x="65.576171875" xlink:href="#DejaVuSans-32"/>
     <use x="129.19921875" xlink:href="#DejaVuSans-30"/>
     <use x="192.822265625" xlink:href="#DejaVuSans-41"/>
     <use x="261.23046875" xlink:href="#DejaVuSans-20"/>
     <use x="293.017578125" xlink:href="#DejaVuSans-4c"/>
     <use x="348.73046875" xlink:href="#DejaVuSans-31"/>
     <use x="412.353515625" xlink:href="#DejaVuSans-20"/>
     <use x="444.140625" xlink:href="#DejaVuSans-66"/>
     <use x="479.345703125" xlink:href="#DejaVuSans-6f"/>
     <use x="540.52734375" xlink:href="#DejaVuSans-6f"/>
     <use x="601.708984375" xlink:href="#DejaVuSans-74"/>
     <use x="640.91796875" xlink:href="#DejaVuSans-70"/>
     <use x="704.39453125" xlink:href="#DejaVuSans-72"/>
     <use x="745.5078125" xlink:href="#DejaVuSans-69"/>
     <use x="773.291015625" xlink:href="#DejaVuSans-6e"/>
     <use x="836.669921875" xlink:href="#DejaVuSans-74"/>
    </g>
   </g>
  </g>
 </g>
 <defs>
  <clipPath id="pbaabc94176">
   <rect height="576.0" width="1339.2" x="63.826875" y="30.43625"/>
  </clipPath>
 </defs>
</svg>
